<?xml version="1.0" encoding="utf-8"?>
<!-- Generator: Adobe Illustrator 26.5.0, SVG Export Plug-In . SVG Version: 6.00 Build 0)  -->
<svg version="1.1" id="Layer_1" xmlns="http://www.w3.org/2000/svg" xmlns:xlink="http://www.w3.org/1999/xlink" x="0px" y="0px"
	 viewBox="0 0 490 345" style="enable-background:new 0 0 490 345;" xml:space="preserve">
<style type="text/css">
	.st0{fill:#FEFEFE;}
	.st1{fill:#42443B;}
	.st2{fill:#7DB737;}
	.st3{fill:#BFD992;}
	.st4{fill:#8BB550;}
	.st5{fill:#FCFCFB;}
</style>
<g>
	<path class="st0" d="M293.8,257.5c0.7,0.8,1.4,0.8,2-0.1c0.2-0.8,0.6-1.7,0.4-2.5c-1-6.5-2.1-12.9-3.3-19.4c-0.2-1.1-0.8-2.1-2.1-2
		c-1.3,0.1-2.3,0.6-2.6,2c-0.9,3.2-1.8,6.4-2.8,9.6c-0.5,1.6-0.6,3.5-2.2,5.3c-1.5-5-2.8-9.5-4.2-14c-0.4-1.5-0.8-3.1-2.8-2.9
		c-1.7,0.2-2.1,1.6-2.3,3c-1,5.9-2,11.9-3,17.8c-0.2,1.3-0.8,3.1,1.2,3.5c2.1,0.3,1.9-1.6,2.1-2.9c0.7-4.7,1.4-9.4,2.1-14.1
		c0.3,0,0.6-0.1,0.9-0.1c1.3,4.3,2.5,8.5,3.8,12.8c0.5,1.6,0.3,3.9,2.5,4c2.4,0.1,1.8-2.5,2.6-3.9c2.2-2,2.1-4.8,2.5-7.5
		c0-0.3,0.1-0.6,0.1-0.9c0.9,0,1.8,0,2.7,0c0,0.3,0,0.6,0,0.9c0,1.4-0.6,3,0.9,4.2c0,0.5,0.1,1,0.1,1.4c-0.6,0.7-0.6,1.4,0.3,1.9
		c0.4,0.4,0.4,0.9,0.3,1.4c-0.5,0.7-0.5,1.3,0.3,1.8C293.4,257.1,293.6,257.3,293.8,257.5z M84.7,151.7c-0.8-1.3-0.5-2.4-0.5-3.4
		c0-10.8,0-21.5,0-32.3c0-5.2-4.8-8.3-9.1-5.9c-2.8,1.5-3.2,4-3.2,6.9c0.1,30.7,0,61.4,0,92.1c0,1.6-0.1,3.2,0,4.8
		c0.3,3.2,2.6,5.3,5.8,5.4c4,0.1,6.3-2.4,6.4-6.8c0.1-14.4-0.2-28.9,0.3-43.3c0.3-9,7.3-15.4,16.2-15.8c9.1-0.4,16.1,5,17.8,14
		c0.4,2.1,0.5,4.3,0.5,6.4c0,13,0,26.1,0,39.1c0,4,2.4,6.4,6.1,6.4c3.7,0,6.1-2.5,6.1-6.4c0-14.6,0.1-29.3-0.1-43.9
		c-0.1-8.5-3.7-15.6-10.4-21C111.2,140.4,95.3,139.7,84.7,151.7z M263.4,208.6c0,2-0.1,3.7,0,5.4c0.2,2.9,2.1,5,5,5.3
		c3.1,0.4,5.6-1.3,6.3-4.3c0.3-1.2,0.3-2.6,0.3-3.8c0-20,0-40,0-60c0-1.2,0-2.4-0.1-3.5c-0.4-3.2-2.9-5.3-6-5.1
		c-3.1,0.2-5.3,2.4-5.5,5.6c-0.1,1.3,0.3,2.7-0.3,4.1c-10.6-10.1-21.3-12.4-33-7c-12.3,5.7-18.2,16-19.7,29
		c-1.5,12.5,0.2,24.3,8.7,34.3c9.6,11.3,31.1,17.1,43.2,0.9C262.4,209.1,262.7,209,263.4,208.6z M175.9,185.8c7.2,0,14.4,0,21.6,0
		c5.8,0,7.5-1.8,7.3-7.6c-0.2-7.8-2.5-15-6.9-21.5c-12.9-19.1-39.3-18.9-52,0.4c-4.5,6.8-6.4,14.4-7.1,22.5
		c-2.1,23.3,14,40.7,37.1,39.7c9.5-0.4,18.1-3.7,25-10.5c2.9-2.8,3-6.7,0.8-9c-1.9-1.9-4.3-1.7-7.7,1.1c-3.6,2.8-7.4,5.1-11.8,6.5
		c-15.2,4.6-28.9-3.5-30.6-18.1c-0.3-2.6,0.1-3.6,3-3.5C161.7,185.9,168.8,185.8,175.9,185.8z M338.9,142.5
		c-4.1,0.1-6.4,3.4-5.1,7.3c0.6,1.7,1.6,3.1,2.6,4.4c5.8,7.5,11.5,15.1,17.3,22.5c1.3,1.7,1.2,2.7-0.1,4.3
		c-6.9,8.7-13.6,17.5-20.4,26.2c-1.2,1.5-2.2,3.2-2.6,5.1c-0.9,3.9,1.8,7.1,5.9,6.9c2.7-0.1,4.5-1.7,6-3.8
		c6.1-8.6,12.4-17.1,18.4-25.7c1.3-1.8,1.8-1.8,3.1,0c6.1,8.6,12.3,17.1,18.5,25.7c1.1,1.6,2.3,3.1,4.2,3.9c2,0.9,4,1,5.9-0.2
		c1.9-1.3,2.4-3.1,2.2-5.4c-0.3-2.5-1.5-4.4-3-6.3c-6.8-8.9-13.6-17.8-20.5-26.6c-1.2-1.5-1.3-2.5,0-4.1c6-7.7,11.9-15.6,17.8-23.4
		c0.9-1.2,1.8-2.4,2.1-4c0.4-2.6-0.2-4.8-2.5-6.2c-2.4-1.5-4.8-1-6.8,0.8c-0.8,0.7-1.4,1.6-2.1,2.5c-5.2,6.9-10.4,13.7-15.4,20.7
		c-1.3,1.8-2,2.2-3.5,0.1c-5.2-7.2-10.7-14.3-16-21.5C343.3,143.8,341.5,142.4,338.9,142.5z M288,164.4c0,5.3,0,10.5,0,15.8
		c0,10.8,0,21.5,0,32.3c0,4.5,2.8,7.1,6.8,6.7c3.6-0.3,5.5-2.9,5.5-7.4c0-25.8,0-51.7,0-77.5c0-6.1,0.1-12.3,0-18.4
		c-0.1-4.7-4.2-7.5-8.5-5.8c-3,1.2-3.8,3.7-3.8,6.8C288,132.8,288,148.6,288,164.4z M398,110.4c-7.3,0-14.6,0-22,0
		c-3.3,0-5.6,2.4-5.7,5.4c0,2.8,2.2,5.1,5.3,5.4c1.2,0.1,2.4,0.1,3.5,0.1c10.7,0,21.3,0.1,32-0.1c2.9,0,3.9,0.8,3.8,3.8
		c-0.2,11.6-0.1,23.2,0,34.9c0,3.5,2.1,5.7,5.2,5.8c3.2,0.1,5.5-2.2,5.5-5.8c0.1-14.4,0.1-28.8,0-43.3c0-4.4-2-6.2-6.4-6.2
		C412.2,110.4,405.1,110.4,398,110.4z M423,86.9c-7.1,0-14.2,0-21.3,0c-4,0-6.4,2.2-6.3,5.6c0,3.4,2.2,5.3,6.2,5.3
		c11.5,0,23,0.1,34.5,0c2.9,0,4,0.8,4,3.9c-0.2,11.6-0.1,23.2-0.1,34.9c0,3.7,2,5.8,5.4,5.8c3.4,0,5.5-2.1,5.5-5.8
		c0-14.5,0-29,0-43.6c0-3.9-2.4-6.2-6.2-6.2C437.4,86.9,430.2,86.9,423,86.9z M325.3,180.9c0-10.5,0-21.1,0-31.6
		c0-4-2.1-6.4-5.5-6.7c-3.8-0.3-6.7,2.2-6.7,6.5c-0.1,6.7-0.1,13.3-0.1,20c0,14.3,0,28.6,0,42.9c0,4.1,1.6,6.5,4.6,7.2
		c4.2,1,7.7-1.9,7.7-6.7C325.4,202,325.3,191.4,325.3,180.9z M351.6,250.2c-1.6-0.1-1.8-1.2-2.2-1.8c-3.1-4.4-6.1-8.8-9.2-13.2
		c-0.6-0.9-1.3-1.9-2.5-1.6c-1.3,0.4-1.1,1.7-1.1,2.7c0,6.1,0,12.3,0,18.4c0,1.2-0.3,3,1.6,2.8c1.8-0.1,1.6-1.8,1.6-3
		c0-3.3,0-6.7,0.1-10c0-0.9-0.6-2.2,0.7-2.5c1.1-0.2,1.6,1,2.1,1.7c2.8,4.1,5.6,8.2,8.3,12.3c0.6,0.9,1.4,1.9,2.6,1.5
		c1.3-0.4,1.2-1.6,1.2-2.7c0-6.1,0-12.3,0-18.4c0-1.2,0.2-2.7-1.4-2.8c-1.9-0.1-1.8,1.5-1.8,2.8
		C351.6,241.1,351.6,245.6,351.6,250.2z M85.1,243.7c-1.3,0.4-3.8-0.9-4,1.5c-0.2,2.5,2.4,1.4,3.8,1.6c1.5,0.2,1.7,1.2,1.4,2.3
		c-0.7,2.5-1.9,4.6-4.7,5.3c-2.6,0.6-4.9,0.2-6.8-1.9c-2.9-3.4-2.9-10.1-0.1-13.6c2.5-3,5.1-3.2,10.4-0.5c0.9,0.5,1.9,1,2.6,0
		c0.8-1.1,0.2-2-0.8-2.7c-3.6-2.4-7.5-2.8-11.4-1.2c-5.1,2.1-7.4,8.4-5.7,15.2c1.3,5.1,5.6,8.3,10.7,7.9c5.6-0.4,8.6-3.6,9-9.4
		C89.8,244.3,89.3,243.7,85.1,243.7z M181.7,244.5c0,2.7,0.2,4.5,0.9,6.2c1.8,4.4,5.2,6.9,9.6,6.9c4.4,0,7.7-2.4,9.4-6.9
		c1.4-3.8,1.2-7.7-0.5-11.3c-2.5-5.4-8.3-7.5-13.6-4.8C183.2,236.8,181.9,240.9,181.7,244.5z M268.5,245.9
		c0.1-6.4-3.7-11.6-8.8-12.1c-4.5-0.5-8,1.1-10.3,5c-2.5,4.3-2.1,11.1,0.7,14.7c1.9,2.4,4.2,4,7.3,4.2
		C263.7,258.1,268.4,253.1,268.5,245.9z M130.2,245.5c0-1.3-0.1-3.3-0.8-5.1c-1.6-3.7-4-6.3-8.3-6.7c-4.4-0.4-7.9,1.1-9.9,5.1
		c-2.2,4.4-2.4,8.9-0.2,13.3c2.3,4.5,6.8,6.4,11.6,5.2C127.2,256.1,130.2,251.6,130.2,245.5z M95.9,248.8c0.3-0.1,0.5-0.2,0.8-0.2
		c2.5,2.7,4.9,5.3,7.4,8c0.8,0.9,1.6,1.7,2.7,0.7c1.2-1,0.3-2-0.4-2.8c-1.7-1.8-3.4-3.6-5.1-5.4c-1-1.1-1-1.8,0.7-2.1
		c3.5-0.5,4.8-3,4.9-6.2c0.1-3.2-1.6-5.4-4.4-6.4c-2.7-1-5.5-0.5-8.3-0.4c-1.2,0-1.5,1-1.5,2.1c0,6.4,0,12.9,0,19.3
		c0,1.2,0.3,2.3,1.7,2.2c1.4-0.1,1.5-1.3,1.5-2.4C95.9,253,95.9,250.9,95.9,248.8z M319.2,117.2c-4.2,0-7.8,3.6-7.8,7.8
		c0,4.3,3.6,7.8,7.8,7.8c4.3,0,7.6-3.6,7.6-7.9C326.7,120.6,323.3,117.2,319.2,117.2z M136.8,242.6
		C136.8,242.6,136.7,242.6,136.8,242.6c0-2,0-4.1,0-6.1c0-1.2,0.2-2.7-1.5-2.7c-1.7,0-1.6,1.4-1.6,2.6c0,4.2-0.1,8.4,0,12.6
		c0.2,5.7,3.4,8.8,9,8.8c5.7,0,9.1-3.1,9.3-8.9c0.1-4.1,0-8.2,0-12.3c0-1.2,0.2-2.7-1.5-2.8c-1.9-0.1-1.8,1.5-1.8,2.8
		c0,4.1,0.1,8.2,0,12.3c-0.1,3.7-2.3,5.9-5.8,5.9c-3.6,0-5.8-2-6.1-5.7C136.7,246.9,136.8,244.7,136.8,242.6z M315.8,257.6
		c1.3-0.2,1.6-1.3,2-2.3c0.4-1,0.5-2.5,1.7-2.6c3-0.2,6-0.4,9-0.1c1.8,0.2,1.5,2.4,2.1,3.7c0.5,0.9,1.1,1.7,2.3,1.2
		c1-0.4,1.1-1.3,0.8-2.2c-2.5-6.8-4.9-13.6-7.5-20.3c-0.8-2.1-3.3-2.1-4.2,0c-2.7,6.7-5.1,13.5-7.6,20.3
		C313.9,256.6,314.4,257.5,315.8,257.6z M156,245.5c0,2.9,0,5.8,0,8.7c0,1.3-0.4,3.2,1.6,3.2c2,0,1.6-1.9,1.7-3.2
		c0.1-5.1,0.1-5.1,5.1-5.5c3.9-0.4,6.7-3.4,6.9-7.3c0.1-3.8-2.3-6.9-6.2-7.4c-2.3-0.3-4.7-0.2-7.1-0.2c-1.5,0-2,1-1.9,2.4
		C156,239.3,156,242.4,156,245.5z M387,257.7c4.4,0,7.5-2.3,8.1-6.3c0.6-3.8-1.3-6.3-5.6-7.8c-2.3-0.8-5.9-1.1-4.8-4.7
		c1-3.5,3.9-2.5,6.3-1.3c0.9,0.4,1.8,0.4,2.3-0.5c0.7-1.1-0.1-1.9-0.9-2.4c-1.9-1.2-4-1.4-6.2-1c-3.2,0.7-5.5,3-5.5,5.9
		c0,3.1,1.8,4.9,4.5,5.9c1.4,0.5,2.9,1,4.2,1.6c1.7,0.9,2.7,2.2,2,4.2c-0.6,1.9-1.8,3.1-3.9,3.2c-1.5,0.1-2.7-0.5-4-1.1
		c-1-0.4-2.1-1.1-2.7,0.4c-0.6,1.4,0.4,2.2,1.6,2.7C383.8,257.4,385.4,257.7,387,257.7z M299.8,245.7c0,2.9,0,5.8,0,8.7
		c0,1.3-0.5,3.2,1.7,3.1c1.7-0.1,1.6-1.7,1.6-3c0.1-5.2,0.1-5.2,5.2-5.8c3.8-0.5,6.4-3.3,6.6-7.1c0.2-3.7-1.9-7-5.2-7.5
		c-2.6-0.4-5.3-0.2-8-0.2c-1.6,0-1.8,1.2-1.8,2.5C299.8,239.5,299.8,242.6,299.8,245.7z M366.5,245.4
		C366.5,245.4,366.5,245.4,366.5,245.4c0,1.5,0,3,0,4.5c0,1.6,0,3.2,0,4.8c0,1.1,0.1,2.4,1.4,2.5c2.9,0.2,5.8,0.2,8.7,0.1
		c0.7,0,1.5-0.5,1.4-1.5c-0.1-0.8-0.6-1.4-1.5-1.5c-1.2-0.1-2.4-0.2-3.5,0c-3.4,0.5-3.1-1.7-3.2-4c-0.1-2.3,0.3-3.7,3.2-3.3
		c1.5,0.2,4.2,0.8,4.2-1.5c0-2.4-2.7-1.2-4.2-1.5c-1.1-0.2-2.6,0.6-3.2-1.3c-1.1-4.2,0.2-6,4.4-5.9c0.6,0,1.3,0,1.9-0.1
		c0.9-0.1,1.8-0.3,1.9-1.4c0-1.2-0.9-1.6-1.9-1.6c-2.4,0-4.7,0-7.1,0c-1.8,0-2.5,0.9-2.4,2.6C366.5,239.4,366.5,242.4,366.5,245.4z
		 M238.1,233.7c-4.7-0.1-7.8,2-9.5,6.3c-1.3,3.4-1.5,6.9-0.3,10.4c2,6.2,8.6,9.1,14.6,6.3c1.3-0.6,2.9-1.3,2.2-3
		c-0.8-1.9-2.2-0.4-3.3,0.1c-2.7,1.2-5.4,1.6-7.9-0.5c-3.3-2.8-3.9-9.7-1.3-13.8c2.1-3.3,4.2-3.6,9.8-1.3c0.9,0.4,1.7,0.5,2.2-0.4
		c0.5-0.8,0.1-1.4-0.4-2C242.6,234,240.4,233.7,238.1,233.7z M205.6,245.6C205.6,245.6,205.6,245.6,205.6,245.6c0,2.6-0.1,5.2,0,7.7
		c0.1,1.6-0.8,4.1,1.6,4.1c2.4,0,1.6-2.6,1.6-4.2c0.1-5.4,0-5.4,5.4-6.1c0.2,0,0.4,0,0.6-0.1c0.7-0.1,1.2-0.5,1.2-1.2
		c0.1-0.9-0.5-1.4-1.3-1.6c-0.7-0.1-1.5-0.2-2.2-0.1c-3,0.4-3.8-0.8-3.8-3.8c0-2.9,0.7-4.2,3.8-3.7c1,0.2,2.1,0,3.2-0.1
		c0.6,0,1.1-0.3,1.2-0.9c0.2-0.5,0-1.1-0.5-1.5c-0.8-0.8-9.6-0.7-10.3,0.1c-0.6,0.7-0.6,1.6-0.6,2.5
		C205.6,239.8,205.6,242.7,205.6,245.6z M358.9,245.6C358.9,245.6,359,245.6,358.9,245.6c0,3,0,6,0,9c0,1.2-0.5,2.9,1.5,3
		c1.9,0.1,1.8-1.5,1.8-2.8c0-6.3,0-12.6,0-18.9c0-1.1-0.2-2.3-1.6-2.3c-1.4,0-1.6,1.2-1.6,2.3C358.9,239.1,358.9,242.4,358.9,245.6z
		"/>
	<path class="st1" d="M84.7,151.7c10.6-12.1,26.5-11.3,36-3.8c6.7,5.3,10.3,12.4,10.4,21c0.2,14.6,0.1,29.3,0.1,43.9
		c0,3.9-2.4,6.4-6.1,6.4c-3.7,0-6.1-2.4-6.1-6.4c-0.1-13,0-26.1,0-39.1c0-2.1-0.1-4.3-0.5-6.4c-1.7-9-8.7-14.4-17.8-14
		c-8.8,0.4-15.9,6.8-16.2,15.8c-0.5,14.4-0.2,28.9-0.3,43.3c0,4.4-2.4,6.9-6.4,6.8c-3.2-0.1-5.5-2.2-5.8-5.4c-0.1-1.6,0-3.2,0-4.8
		c0-30.7,0-61.4,0-92.1c0-2.9,0.4-5.4,3.2-6.9c4.3-2.3,9,0.7,9.1,5.9c0,10.8,0,21.5,0,32.3C84.2,149.4,83.9,150.5,84.7,151.7z"/>
	<path class="st1" d="M263.4,208.6c-0.7,0.4-1,0.5-1.1,0.7c-12.1,16.3-33.6,10.5-43.2-0.9c-8.5-10-10.2-21.8-8.7-34.3
		c1.6-13,7.5-23.3,19.7-29c11.7-5.4,22.4-3.1,33,7c0.6-1.4,0.2-2.8,0.3-4.1c0.2-3.2,2.5-5.5,5.5-5.6c3-0.2,5.5,1.9,6,5.1
		c0.2,1.2,0.1,2.4,0.1,3.5c0,20,0,40,0,60c0,1.3,0,2.6-0.3,3.8c-0.7,3-3.2,4.6-6.3,4.3c-2.9-0.3-4.9-2.4-5-5.3
		C263.3,212.3,263.4,210.6,263.4,208.6z M263.1,180.7c-0.1-6.2-0.9-12.3-4.1-17.7c-3.6-6.1-8.8-9.6-16-9.7
		c-7.3-0.1-12.6,3.2-16.1,9.5c-3.7,6.6-4.8,13.8-4.3,21.2c0.4,6.3,1.9,12.4,5.8,17.5c8.3,10.8,24.8,9.2,30.9-3
		C262,192.9,263.1,186.9,263.1,180.7z"/>
	<path class="st1" d="M175.9,185.8c-7.1,0-14.2,0.2-21.3-0.1c-2.9-0.1-3.3,0.9-3,3.5c1.8,14.6,15.5,22.8,30.6,18.1
		c4.4-1.3,8.2-3.6,11.8-6.5c3.5-2.7,5.8-3,7.7-1.1c2.2,2.3,2,6.2-0.8,9c-6.9,6.8-15.5,10.1-25,10.5c-23.1,1-39.2-16.4-37.1-39.7
		c0.7-8.1,2.7-15.7,7.1-22.5c12.7-19.3,39.1-19.5,52-0.4c4.4,6.5,6.7,13.7,6.9,21.5c0.2,5.8-1.5,7.6-7.3,7.6
		C190.3,185.8,183.1,185.8,175.9,185.8z M172,176.2c6,0,12,0,18.1,0c0.9,0,2.1,0.5,2.3-1.3c1-8-6.1-18.4-14.1-20.7
		c-13.7-3.8-26.1,5.4-26.8,19.9c-0.1,1.8,0.5,2.2,2.1,2.1C159.8,176.1,165.9,176.2,172,176.2z"/>
	<path class="st1" d="M338.9,142.5c2.6-0.1,4.4,1.3,5.9,3.3c5.3,7.2,10.7,14.3,16,21.5c1.5,2.1,2.2,1.7,3.5-0.1
		c5.1-7,10.3-13.8,15.4-20.7c0.6-0.9,1.3-1.8,2.1-2.5c2.1-1.8,4.4-2.3,6.8-0.8c2.3,1.4,2.9,3.6,2.5,6.2c-0.3,1.5-1.1,2.8-2.1,4
		c-5.9,7.8-11.8,15.7-17.8,23.4c-1.2,1.6-1.1,2.6,0,4.1c6.9,8.8,13.6,17.7,20.5,26.6c1.5,1.9,2.7,3.9,3,6.3c0.3,2.2-0.3,4.1-2.2,5.4
		c-1.9,1.2-3.9,1.1-5.9,0.2c-1.8-0.8-3-2.4-4.2-3.9c-6.2-8.6-12.4-17.1-18.5-25.7c-1.3-1.8-1.8-1.8-3.1,0
		c-6.1,8.6-12.3,17.1-18.4,25.7c-1.5,2.1-3.3,3.7-6,3.8c-4,0.2-6.7-3-5.9-6.9c0.4-1.9,1.4-3.6,2.6-5.1c6.8-8.7,13.5-17.6,20.4-26.2
		c1.3-1.7,1.4-2.7,0.1-4.3c-5.9-7.4-11.6-15-17.3-22.5c-1.1-1.4-2-2.8-2.6-4.4C332.5,145.9,334.7,142.6,338.9,142.5z"/>
	<path class="st1" d="M288,164.4c0-15.8,0-31.6,0-47.5c0-3.1,0.8-5.6,3.8-6.8c4.3-1.7,8.4,1.1,8.5,5.8c0.1,6.1,0,12.3,0,18.4
		c0,25.8,0,51.7,0,77.5c0,4.5-1.9,7.1-5.5,7.4c-4,0.4-6.7-2.2-6.8-6.7c-0.1-10.8,0-21.5,0-32.3C288,175,288,169.7,288,164.4z"/>
	<path class="st2" d="M398,110.4c7.1,0,14.2,0,21.3,0c4.4,0,6.4,1.8,6.4,6.2c0.1,14.4,0,28.8,0,43.3c0,3.6-2.3,5.9-5.5,5.8
		c-3.1-0.1-5.2-2.3-5.2-5.8c-0.1-11.6-0.1-23.2,0-34.9c0-3-0.9-3.8-3.8-3.8c-10.7,0.2-21.3,0.1-32,0.1c-1.2,0-2.4,0.1-3.5-0.1
		c-3.1-0.3-5.3-2.6-5.3-5.4c0-3,2.4-5.4,5.7-5.4C383.3,110.4,390.6,110.4,398,110.4z"/>
	<path class="st3" d="M423,86.9c7.2,0,14.4,0,21.6,0c3.8,0,6.2,2.3,6.2,6.2c0,14.5,0,29,0,43.6c0,3.6-2.2,5.8-5.5,5.8
		c-3.4,0-5.4-2.1-5.4-5.8c0-11.6-0.1-23.2,0.1-34.9c0-3.1-1.1-3.9-4-3.9c-11.5,0.1-23,0.1-34.5,0c-4,0-6.1-1.9-6.2-5.3
		c0-3.5,2.4-5.6,6.3-5.6C408.8,86.9,415.9,86.9,423,86.9z"/>
	<path class="st1" d="M325.3,180.9c0,10.5,0,21.1,0,31.6c0,4.7-3.5,7.6-7.7,6.7c-3-0.7-4.6-3.1-4.6-7.2c0-14.3,0-28.6,0-42.9
		c0-6.7-0.1-13.3,0.1-20c0.1-4.2,2.9-6.8,6.7-6.5c3.4,0.3,5.5,2.8,5.5,6.7C325.4,159.8,325.3,170.3,325.3,180.9z"/>
	<path class="st4" d="M292.9,255c0.1-0.5,0.1-1-0.3-1.4c-0.1-0.6-0.2-1.2-0.3-1.9c0-0.5-0.1-1-0.1-1.4c0.2-1.5,0.1-2.9-0.9-4.2
		c0-0.3,0-0.6,0-0.9c-0.1-1.5-0.2-2.9-0.3-4.4c0.1-0.7,0.5-1.7-0.6-1.8c-0.7-0.1-0.6,0.9-0.7,1.5c-0.4,1.5-1.2,3-1.2,4.6
		c0,0.3-0.1,0.6-0.1,0.9c-1.4,2.3-1.9,4.9-2.5,7.5c-0.8,1.4-0.2,4-2.6,3.9c-2.2-0.1-2-2.5-2.5-4c-1.3-4.2-2.6-8.5-3.8-12.8
		c-0.3,0-0.6,0.1-0.9,0.1c-0.7,4.7-1.4,9.4-2.1,14.1c-0.2,1.3,0,3.2-2.1,2.9c-2-0.3-1.4-2.2-1.2-3.5c1-5.9,2-11.9,3-17.8
		c0.2-1.5,0.6-2.9,2.3-3c2-0.2,2.4,1.4,2.8,2.9c1.3,4.5,2.7,9,4.2,14c1.6-1.8,1.7-3.7,2.2-5.3c1-3.2,1.9-6.4,2.8-9.6
		c0.4-1.4,1.4-1.9,2.6-2c1.3-0.1,1.9,0.9,2.1,2c1.1,6.5,2.2,12.9,3.3,19.4c0.1,0.8-0.3,1.7-0.4,2.5c-0.7,0-1.3,0.1-2,0.1
		c-0.2-0.2-0.4-0.5-0.7-0.7C293.1,256.2,293,255.6,292.9,255z"/>
	<path class="st4" d="M351.6,250.2c0-4.7,0-9.2,0-13.7c0-1.3-0.1-2.9,1.8-2.8c1.7,0.1,1.4,1.6,1.4,2.8c0,6.1,0,12.3,0,18.4
		c0,1.1,0.1,2.3-1.2,2.7c-1.2,0.3-2-0.6-2.6-1.5c-2.8-4.1-5.5-8.2-8.3-12.3c-0.5-0.7-1-2-2.1-1.7c-1.3,0.3-0.7,1.6-0.7,2.5
		c-0.1,3.3,0,6.7-0.1,10c0,1.3,0.1,2.9-1.6,3c-2,0.1-1.6-1.6-1.6-2.8c0-6.1,0-12.3,0-18.4c0-1-0.2-2.4,1.1-2.7
		c1.2-0.3,1.9,0.7,2.5,1.6c3.1,4.4,6.1,8.8,9.2,13.2C349.8,249.1,350,250.1,351.6,250.2z"/>
	<path class="st4" d="M85.1,243.7c4.2,0,4.7,0.6,4.4,4.5c-0.4,5.8-3.4,9-9,9.4c-5.1,0.4-9.4-2.8-10.7-7.9
		c-1.7-6.8,0.5-13.1,5.7-15.2c3.9-1.6,7.8-1.2,11.4,1.2c1,0.7,1.7,1.6,0.8,2.7c-0.7,1-1.7,0.5-2.6,0c-5.2-2.7-7.9-2.5-10.4,0.5
		c-2.8,3.5-2.8,10.2,0.1,13.6c1.8,2.1,4.1,2.5,6.8,1.9c2.8-0.7,3.9-2.8,4.7-5.3c0.3-1.1,0.1-2.1-1.4-2.3c-1.4-0.2-3.9,0.9-3.8-1.6
		C81.3,242.8,83.8,244.1,85.1,243.7z"/>
	<path class="st4" d="M181.7,244.5c0.2-3.7,1.5-7.7,5.8-9.9c5.3-2.7,11-0.6,13.6,4.8c1.7,3.6,1.9,7.5,0.5,11.3
		c-1.7,4.6-5.1,7-9.4,6.9c-4.4,0-7.8-2.5-9.6-6.9C181.9,249,181.7,247.2,181.7,244.5z M199.1,245.8c-0.1-1.2-0.1-2.4-0.4-3.5
		c-0.7-3.6-3.4-6-6.6-6c-2.9,0-5.8,2.3-6.6,5.6c-0.7,3-0.7,6,0.5,8.8c1,2.4,2.8,4,5.6,4.1c2.9,0.1,4.9-1.2,6.2-3.8
		C198.8,249.5,199,247.7,199.1,245.8z"/>
	<path class="st4" d="M268.5,245.9c-0.1,7.2-4.8,12.2-11.2,11.8c-3.1-0.2-5.4-1.8-7.3-4.2c-2.8-3.6-3.2-10.4-0.7-14.7
		c2.3-4,5.8-5.5,10.3-5C264.8,234.3,268.5,239.4,268.5,245.9z M265,245.6c0-5.7-2.6-9.2-6.8-9.3c-4.3-0.1-7.2,3.8-7.1,9.4
		c0.1,5.8,2.8,9.3,7.2,9.2C262.4,254.8,265,251.1,265,245.6z"/>
	<path class="st4" d="M130.2,245.5c0,6.1-3,10.6-7.5,11.8c-4.8,1.3-9.4-0.6-11.6-5.2c-2.2-4.4-2.1-8.9,0.2-13.3c2-4,5.5-5.5,9.9-5.1
		c4.3,0.4,6.7,3,8.3,6.7C130.2,242.2,130.3,244.2,130.2,245.5z M127,245.4c-0.1-1-0.3-2.2-0.5-3.5c-0.7-3.2-2.8-5-5.9-5.5
		c-2.6-0.4-5.6,1.6-6.7,4.5c-1.3,3.4-1.1,6.7,0.2,10c1,2.4,2.7,3.8,5.3,4c2.7,0.3,4.5-1,6-3C126.6,250,126.9,247.9,127,245.4z"/>
	<path class="st4" d="M95.9,248.8c0,2.1,0,4.2,0,6.4c0,1.1-0.1,2.3-1.5,2.4c-1.4,0.1-1.7-1.1-1.7-2.2c0-6.4,0-12.9,0-19.3
		c0-1.1,0.3-2.1,1.5-2.1c2.8-0.1,5.6-0.6,8.3,0.4c2.8,1.1,4.5,3.3,4.4,6.4c-0.1,3.2-1.4,5.6-4.9,6.2c-1.7,0.3-1.7,1-0.7,2.1
		c1.7,1.8,3.4,3.6,5.1,5.4c0.7,0.8,1.5,1.8,0.4,2.8c-1.1,1-1.9,0.1-2.7-0.7c-2.4-2.7-4.9-5.3-7.4-8
		C96.4,248.6,96.1,248.7,95.9,248.8z M95.7,239.9c0,2.6-0.7,5.1,3.1,4.7c3.5-0.3,5-1.2,5-4c0-2.6-1.9-4-5.3-4.3
		C95,236.1,95.8,238.5,95.7,239.9z"/>
	<path class="st1" d="M319.2,117.2c4.1,0,7.5,3.4,7.6,7.6c0.1,4.4-3.3,7.9-7.6,7.9c-4.2,0-7.8-3.5-7.8-7.8
		C311.3,120.7,314.9,117.2,319.2,117.2z"/>
	<path class="st4" d="M136.8,242.6c0,2.2-0.1,4.3,0,6.4c0.2,3.7,2.4,5.7,6.1,5.7c3.5,0,5.7-2.2,5.8-5.9c0.1-4.1,0-8.2,0-12.3
		c0-1.3-0.1-2.9,1.8-2.8c1.6,0.1,1.5,1.6,1.5,2.8c0,4.1,0.1,8.2,0,12.3c-0.2,5.7-3.6,8.8-9.3,8.9c-5.5,0-8.8-3.1-9-8.8
		c-0.1-4.2,0-8.4,0-12.6c0-1.2-0.1-2.6,1.6-2.6c1.7,0,1.5,1.5,1.5,2.7C136.7,238.5,136.7,240.6,136.8,242.6
		C136.7,242.6,136.8,242.6,136.8,242.6z"/>
	<path class="st4" d="M315.8,257.6c-1.5-0.1-1.9-1-1.5-2.2c2.5-6.8,4.9-13.6,7.6-20.3c0.8-2.1,3.3-2.1,4.2,0
		c2.7,6.7,5.1,13.5,7.5,20.3c0.3,0.9,0.3,1.8-0.8,2.2c-1.2,0.4-1.8-0.3-2.3-1.2c-0.7-1.3-0.4-3.5-2.1-3.7c-3-0.3-6-0.2-9,0.1
		c-1.2,0.1-1.3,1.6-1.7,2.6C317.4,256.3,317.1,257.4,315.8,257.6z M324,237.4c-1.4,4.1-2.6,7.3-3.7,10.6c-0.2,0.6-0.6,1.5,0.3,1.6
		c2.2,0.2,4.5,0.1,6.7,0.1c0.7,0,0.7-0.7,0.6-1.2c0-0.2-0.1-0.4-0.2-0.6C326.6,244.5,325.4,241.3,324,237.4z"/>
	<path class="st4" d="M156,245.5c0-3.1,0-6.2,0-9.4c0-1.4,0.4-2.4,1.9-2.4c2.4,0,4.8-0.1,7.1,0.2c3.9,0.5,6.3,3.6,6.2,7.4
		c-0.1,3.9-2.9,6.9-6.9,7.3c-5,0.5-4.9,0.5-5.1,5.5c0,1.3,0.4,3.2-1.7,3.2c-2,0-1.6-1.9-1.6-3.2C156,251.3,156,248.4,156,245.5z
		 M159.2,241.2c0.8,1.7-1.7,5.1,2.9,4.8c3.9-0.2,5.8-1.6,5.9-4.8c0-3.2-1.9-4.5-5.9-4.7C158,236.3,159.7,239.3,159.2,241.2z"/>
	<path class="st4" d="M387,257.7c-1.6,0-3.2-0.3-4.7-1c-1.2-0.5-2.1-1.3-1.6-2.7c0.6-1.4,1.8-0.8,2.7-0.4c1.3,0.6,2.6,1.1,4,1.1
		c2.1-0.1,3.3-1.3,3.9-3.2c0.7-2-0.4-3.4-2-4.2c-1.3-0.7-2.8-1.1-4.2-1.6c-2.8-1-4.6-2.9-4.5-5.9c0-2.9,2.3-5.2,5.5-5.9
		c2.2-0.5,4.3-0.2,6.2,1c0.9,0.5,1.6,1.3,0.9,2.4c-0.5,0.8-1.4,0.9-2.3,0.5c-2.5-1.2-5.3-2.3-6.3,1.3c-1,3.6,2.5,3.9,4.8,4.7
		c4.3,1.5,6.2,4,5.6,7.8C394.5,255.3,391.5,257.7,387,257.7z"/>
	<path class="st4" d="M299.8,245.7c0-3.1,0-6.2,0-9.3c0-1.3,0.3-2.5,1.8-2.5c2.7,0,5.4-0.2,8,0.2c3.3,0.6,5.4,3.9,5.2,7.5
		c-0.2,3.8-2.8,6.6-6.6,7.1c-5.1,0.6-5.1,0.6-5.2,5.8c0,1.3,0.1,2.9-1.6,3c-2.1,0.1-1.6-1.8-1.7-3.1
		C299.8,251.5,299.8,248.6,299.8,245.7z M305.6,246c0.6,0,0.9,0,1.2,0c3-0.2,5-2.2,5-4.8c-0.1-3-2.4-4.6-6.1-4.7
		c-4.1-0.1-2.4,2.8-2.7,4.7c-0.1,0.6,0,1.3,0,1.9C302.6,245.4,303.5,246.4,305.6,246z"/>
	<path class="st4" d="M366.5,245.4c0-3,0-6,0-9c0-1.7,0.6-2.6,2.4-2.6c2.4,0,4.7,0,7.1,0c1.1,0,2,0.4,1.9,1.6c0,1.1-1,1.3-1.9,1.4
		c-0.6,0.1-1.3,0.1-1.9,0.1c-4.2-0.1-5.5,1.7-4.4,5.9c0.5,1.9,2,1.1,3.2,1.3c1.5,0.3,4.2-0.9,4.2,1.5c0,2.3-2.7,1.7-4.2,1.5
		c-2.9-0.4-3.2,0.9-3.2,3.3c0.1,2.3-0.2,4.5,3.2,4c1.2-0.2,2.4,0,3.5,0c0.9,0.1,1.4,0.6,1.5,1.5c0.1,0.9-0.7,1.5-1.4,1.5
		c-2.9,0.1-5.8,0.1-8.7-0.1c-1.3-0.1-1.4-1.4-1.4-2.5c0-1.6,0-3.2,0-4.8C366.5,248.4,366.5,246.9,366.5,245.4
		C366.5,245.4,366.5,245.4,366.5,245.4z"/>
	<path class="st4" d="M238.1,233.7c2.3,0.1,4.5,0.3,6.2,2.2c0.5,0.6,0.9,1.3,0.4,2c-0.6,0.9-1.3,0.7-2.2,0.4
		c-5.6-2.3-7.7-2.1-9.8,1.3c-2.6,4.1-2,10.9,1.3,13.8c2.4,2.1,5.1,1.7,7.9,0.5c1-0.5,2.4-1.9,3.3-0.1c0.7,1.7-0.9,2.4-2.2,3
		c-5.9,2.8-12.6,0-14.6-6.3c-1.1-3.5-1-7,0.3-10.4C230.4,235.7,233.5,233.6,238.1,233.7z"/>
	<path class="st4" d="M205.6,245.6c0-2.9,0-5.8,0-8.7c0-0.9,0-1.7,0.6-2.5c0.7-0.8,9.5-0.9,10.3-0.1c0.4,0.4,0.6,0.9,0.5,1.5
		c-0.2,0.6-0.7,0.9-1.2,0.9c-1.1,0.1-2.2,0.2-3.2,0.1c-3.1-0.5-3.7,0.9-3.8,3.7c0,2.9,0.8,4.2,3.8,3.8c0.7-0.1,1.5-0.1,2.2,0.1
		c0.8,0.1,1.3,0.7,1.3,1.6c0,0.8-0.5,1.1-1.2,1.2c-0.2,0-0.4,0-0.6,0.1c-5.3,0.7-5.3,0.7-5.4,6.1c0,1.5,0.9,4.2-1.6,4.2
		c-2.4,0-1.6-2.5-1.6-4.1C205.6,250.7,205.6,248.1,205.6,245.6C205.6,245.6,205.6,245.6,205.6,245.6z"/>
	<path class="st4" d="M358.9,245.6c0-3.2,0-6.4,0-9.6c0-1.2,0.2-2.3,1.6-2.3c1.4,0,1.6,1.1,1.6,2.3c0,6.3,0.1,12.6,0,18.9
		c0,1.2,0.2,2.9-1.8,2.8c-1.9-0.1-1.4-1.8-1.5-3C358.9,251.6,359,248.6,358.9,245.6C359,245.6,358.9,245.6,358.9,245.6z"/>
	<path class="st5" d="M291.1,240.8c0.1,1.5,0.2,2.9,0.3,4.4c-0.9,0-1.8,0-2.7,0c-0.1-1.7,0.7-3.1,1.2-4.6
		C290.3,240.7,290.7,240.7,291.1,240.8z"/>
	<path class="st5" d="M286.1,253.6c0.6-2.6,1-5.2,2.5-7.5C288.2,248.8,288.3,251.6,286.1,253.6z"/>
	<path class="st5" d="M291.4,246.1c1,1.2,1,2.7,0.9,4.2C290.8,249.1,291.4,247.6,291.4,246.1z"/>
	<path class="st5" d="M292.4,251.7c0.1,0.6,0.2,1.2,0.3,1.9C291.7,253.1,291.7,252.4,292.4,251.7z"/>
	<path class="st5" d="M292.9,255c0.1,0.6,0.2,1.2,0.3,1.8C292.4,256.3,292.4,255.7,292.9,255z"/>
	<path class="st5" d="M293.8,257.5c0.7,0,1.3-0.1,2-0.1C295.2,258.3,294.5,258.3,293.8,257.5z"/>
	<path class="st5" d="M263.1,180.7c0,6.2-1,12.2-3.8,17.8c-6.1,12.1-22.6,13.7-30.9,3c-4-5.1-5.4-11.2-5.8-17.5
		c-0.5-7.4,0.6-14.6,4.3-21.2c3.5-6.2,8.8-9.5,16.1-9.5c7.2,0.1,12.5,3.6,16,9.7C262.1,168.5,263,174.5,263.1,180.7z"/>
	<path class="st5" d="M172,176.2c-6.1,0-12.3,0-18.4,0c-1.6,0-2.2-0.3-2.1-2.1c0.7-14.5,13.1-23.7,26.8-19.9
		c8,2.2,15.1,12.7,14.1,20.7c-0.2,1.8-1.4,1.3-2.3,1.3C184.1,176.2,178.1,176.2,172,176.2z"/>
	<path class="st3" d="M291.1,240.8c-0.4-0.1-0.8-0.2-1.2-0.3c0-0.6-0.1-1.6,0.7-1.5C291.6,239.2,291.2,240.1,291.1,240.8z"/>
	<path class="st5" d="M199.1,245.8c0,1.9-0.3,3.6-1.1,5.3c-1.3,2.5-3.4,3.8-6.2,3.8c-2.8-0.1-4.6-1.7-5.6-4.1
		c-1.2-2.9-1.2-5.9-0.5-8.8c0.8-3.3,3.6-5.7,6.6-5.6c3.2,0,5.9,2.5,6.6,6C198.9,243.5,198.9,244.6,199.1,245.8z"/>
	<path class="st5" d="M265,245.6c0,5.6-2.6,9.2-6.7,9.3c-4.4,0.1-7.1-3.4-7.2-9.2c-0.1-5.6,2.8-9.4,7.1-9.4
		C262.4,236.3,265,239.9,265,245.6z"/>
	<path class="st5" d="M127,245.4c-0.1,2.5-0.4,4.6-1.7,6.4c-1.4,2.1-3.3,3.3-6,3c-2.6-0.3-4.4-1.6-5.3-4c-1.3-3.3-1.6-6.7-0.2-10
		c1.2-2.9,4.1-4.9,6.7-4.5c3.1,0.5,5.2,2.4,5.9,5.5C126.8,243.1,126.9,244.4,127,245.4z"/>
	<path class="st5" d="M95.7,239.9c0.1-1.4-0.8-3.8,2.7-3.5c3.4,0.3,5.3,1.6,5.3,4.3c0,2.8-1.4,3.7-5,4C95,245,95.7,242.5,95.7,239.9
		z"/>
	<path class="st5" d="M324,237.4c1.4,3.9,2.6,7.1,3.7,10.4c0.1,0.2,0.2,0.4,0.2,0.6c0.1,0.6,0,1.2-0.6,1.2c-2.2,0.1-4.5,0.1-6.7-0.1
		c-0.9-0.1-0.5-1-0.3-1.6"/>
	<path class="st5" d="M159.2,241.2c0.5-1.9-1.2-4.9,2.9-4.7c3.9,0.2,5.9,1.6,5.9,4.7c0,3.2-1.9,4.5-5.9,4.8
		C157.5,246.3,160,242.9,159.2,241.2z"/>
</g>
</svg>
