<?xml version="1.0" encoding="utf-8"?>
<!-- Generator: Adobe Illustrator 26.3.1, SVG Export Plug-In . SVG Version: 6.00 Build 0)  -->
<svg version="1.1" id="Layer_1" xmlns="http://www.w3.org/2000/svg" xmlns:xlink="http://www.w3.org/1999/xlink" x="0px" y="0px"
	 viewBox="0 0 183 48" style="enable-background:new 0 0 183 48;" xml:space="preserve">
<style type="text/css">
	.st0{fill:#FFFFFF;}
</style>
<g>
	<path class="st0" d="M90.36,40.51c-0.28,0.5-0.74,1.01-1.38,1.53c-0.3,0.22-0.7,0.42-1.2,0.58c-0.5,0.16-1.01,0.24-1.53,0.24
		c-0.52,0-1.03-0.13-1.51-0.39c-0.47-0.25-0.81-0.56-1.04-0.92c4.17-2.37,6.98-6.86,6.98-11.99c0-7.62-6.18-13.8-13.8-13.8
		s-13.8,6.18-13.8,13.8c0,7.62,6.18,13.8,13.8,13.8c0.34,0,0.67-0.02,1.01-0.04c0.75,1.26,1.77,2.26,3.05,2.99
		c1.44,0.82,2.91,1.23,4.41,1.23c3.21,0,5.89-1.13,8.03-3.4L90.36,40.51z M68.96,29.56c0-4.37,3.55-7.92,7.92-7.92
		s7.92,3.55,7.92,7.92c0,4.37-3.55,7.92-7.92,7.92S68.96,33.94,68.96,29.56"/>
	<path class="st0" d="M95.28,42.78V16.28h4.5c0.78,0,1.41,0.63,1.41,1.41v19.83h11.3v5.27H95.28z"/>
	<path class="st0" d="M139.53,26.1l-6.78,13.7c-0.24,0.48-0.73,0.78-1.27,0.78h-1.77c-0.54,0-1.03-0.31-1.27-0.79l-6.74-13.7v16.69
		h-5.91V16.28H122c1.1,0,2.09,0.63,2.56,1.62l6.07,12.94l6.1-12.94c0.47-0.99,1.46-1.62,2.55-1.62h6.17v26.51h-5.92V26.1z"/>
	<path class="st0" d="M76.6,10.57c-18.35,7.26-18,22.91-18,22.91h-2.06c0.08-21.55,18.7-27.26,18.7-27.26s1.09,2.45,1.35,4.3
		L76.6,10.57z"/>
	<path class="st0" d="M56.92,21.58l0.03-0.07c1.23-2.82,2.13-4.26,2.13-4.26C53.29,4.47,42.34,0.46,42.34,0.46s-1.95,2.15-2.77,3.87
		l-0.01,0.06C39.56,4.39,52.7,9.12,56.92,21.58"/>
	<path class="st0" d="M55.22,28.76c-1.31-5.29-5.31-13.81-17.66-18.69l0.01-0.06c0.27-1.88,1.38-4.37,1.38-4.37
		S51.83,9.58,56.4,23.27c0,0-0.73,2.03-1.17,5.35L55.22,28.76z"/>
	<path class="st0" d="M59.75,16.02c-0.2-0.61-2.1-3.76-2.1-3.76C63.59,3.41,71.59,0.46,71.59,0.46s1.95,2.15,2.78,3.87l0.01,0.06
		c0,0-9.15,3.2-14.61,11.65L59.75,16.02z"/>
</g>
</svg>
