<?xml version="1.0" encoding="utf-8"?>
<!-- Generator: Adobe Illustrator 26.3.1, SVG Export Plug-In . SVG Version: 6.00 Build 0)  -->
<svg version="1.1" id="Layer_1" xmlns="http://www.w3.org/2000/svg" xmlns:xlink="http://www.w3.org/1999/xlink" x="0px" y="0px"
	 viewBox="0 0 76.4 33.9" style="enable-background:new 0 0 76.4 33.9;" xml:space="preserve">
<style type="text/css">
	.st0{fill:#FFFFFF;}
</style>
<g>
	<path class="st0" d="M37.4,28.3c-0.2,0.4-0.5,0.7-0.9,1.1c-0.2,0.1-0.5,0.3-0.9,0.4C35.2,30,34.9,30,34.5,30
		c-0.4,0-0.7-0.1-1.1-0.3c-0.4-0.1-0.6-0.4-0.7-0.7c3-1.7,4.9-4.9,4.9-8.5c0-5.4-4.3-9.8-9.8-9.8S18,15.1,18,20.6s4.4,9.8,9.8,9.8
		c0.2,0,0.5,0,0.7,0c0.5,0.9,1.2,1.6,2.2,2.1c1,0.6,2,0.9,3.1,0.9c2.2,0,4.2-0.8,5.7-2.4L37.4,28.3z M22.3,20.6
		c0-3.1,2.5-5.6,5.6-5.6s5.6,2.5,5.6,5.6s-2.5,5.6-5.6,5.6S22.3,23.7,22.3,20.6"/>
	<path class="st0" d="M40.9,29.9V11.2h3.2c0.6,0,1,0.4,1,1v14.1h8v3.7L40.9,29.9L40.9,29.9z"/>
	<path class="st0" d="M72.2,18.1l-4.8,9.7c-0.1,0.4-0.5,0.6-0.9,0.6h-1.3c-0.4,0-0.7-0.2-0.9-0.6l-4.8-9.7v11.8h-4.2V11.2h4.4
		c0.8,0,1.4,0.4,1.8,1.2l4.3,9.1l4.3-9.1c0.4-0.7,1-1.2,1.8-1.2h4.3v18.8h-4.2V18.1L72.2,18.1z"/>
	<path class="st0" d="M27.6,7.1c-13,5.1-12.7,16.2-12.7,16.2h-1.4C13.6,8,26.7,4.1,26.7,4.1S27.5,5.8,27.6,7.1L27.6,7.1z"/>
	<path class="st0" d="M13.7,14.9L13.7,14.9c0.9-2,1.5-3,1.5-3C11.2,2.8,3.4,0,3.4,0S2,1.5,1.4,2.8v0.1C1.4,2.8,10.7,6.1,13.7,14.9"
		/>
	<path class="st0" d="M12.5,20C11.6,16.3,8.8,10.2,0,6.8V6.7c0.2-1.3,0.9-3.1,0.9-3.1s9.1,2.8,12.4,12.5
		C13.3,16.2,12.8,17.6,12.5,20L12.5,20z"/>
	<path class="st0" d="M15.7,11c-0.1-0.4-1.5-2.7-1.5-2.7C18.4,2.1,24.1,0,24.1,0s1.4,1.5,2,2.8v0.1C26.1,2.8,19.6,5,15.7,11L15.7,11
		z"/>
</g>
</svg>
