<?xml version="1.0" encoding="utf-8"?>
<!-- Generator: Adobe Illustrator 26.5.0, SVG Export Plug-In . SVG Version: 6.00 Build 0)  -->
<svg version="1.1" id="Layer_1" xmlns="http://www.w3.org/2000/svg" xmlns:xlink="http://www.w3.org/1999/xlink" x="0px" y="0px"
	 viewBox="0 0 76.4 33.9" style="enable-background:new 0 0 76.4 33.9;" xml:space="preserve">
<style type="text/css">
	.st0{fill:#AB1A38;}
	.st1{fill:#78797B;}
</style>
<g>
	<path class="st0" d="M57,20.2c0.1-0.1,0.1-0.2,0.2-0.3c0.4-0.7,0.7-1.5,1.1-2.2c0.3-0.6,0.6-1.2,0.8-1.8c0.2-0.4,0.4-0.8,0.6-1.2
		c0.1-0.2,0.2-0.5,0.3-0.7c0.3-0.5,0.7-0.8,1.3-0.8c0.9,0,1.8,0,2.7,0c0.2,0,0.3,0,0.3,0.3c0,4.1,0,8.2,0,12.3
		c0,0.2-0.1,0.2-0.2,0.2c-0.8,0-1.6,0-2.4,0c-0.2,0-0.2,0-0.2-0.2c0-2.5,0-5,0-7.5c0-0.1,0-0.1,0-0.2c-0.1,0.1-0.1,0.3-0.2,0.4
		c-0.4,0.8-0.8,1.7-1.3,2.5c-0.6,1.1-1.1,2.3-1.7,3.4c-0.1,0.3-0.4,0.5-0.7,0.5c-0.3,0-0.5,0-0.8,0c-0.3,0-0.5-0.1-0.7-0.4
		c-1-2-2-4-3-6c-0.1-0.1-0.1-0.3-0.3-0.4c0,0.1,0,0.2,0,0.3c0,2.4,0,4.9,0,7.3c0,0.2-0.1,0.3-0.3,0.3c-0.8,0-1.5,0-2.3,0
		c-0.2,0-0.3,0-0.3-0.3c0-4.1,0-8.2,0-12.3c0-0.2,0-0.2,0.2-0.2c0.9,0,1.8,0,2.7,0c0.6,0,1,0.3,1.3,0.8c0.5,1.1,1.1,2.2,1.6,3.3
		c0.3,0.6,0.5,1.2,0.8,1.7C56.7,19.5,56.8,19.8,57,20.2z"/>
	<path class="st0" d="M37.7,24.9c0.5,0.6,0.9,1.1,1.4,1.7c0.1,0.1,0,0.1,0,0.2c-0.3,0.3-0.7,0.6-1.1,0.8c-0.4,0.2-0.8,0.4-1.3,0.6
		c-0.7,0.2-1.4,0.3-2.1,0.1c-1.1-0.2-2.1-0.8-2.8-1.7c-0.1-0.1-0.2-0.3-0.4-0.3c-2.4,0.1-4.3-0.9-5.7-2.9c-0.9-1.3-1.3-2.7-1.1-4.3
		c0.2-2,1.1-3.6,2.7-4.8c0.4-0.3,0.8-0.6,1.3-0.8c0.3-0.2,1.7-0.5,2-0.5c2.3-0.2,4.2,0.5,5.7,2.2c2.2,2.5,2.2,6.1,0.2,8.5
		c-0.5,0.6-1.1,1.1-1.7,1.5c-0.2,0.1-0.2,0.2,0,0.3c0.3,0.2,0.6,0.4,1,0.4C36.4,26,37,25.8,37.7,24.9z M27.4,19.6
		c0,2.1,1.7,3.8,3.8,3.8c2.1,0,3.8-1.7,3.8-3.8c0-2.2-1.8-3.8-3.8-3.8C29.1,15.8,27.3,17.5,27.4,19.6z"/>
	<path class="st0" d="M40,19.6c0-2,0-4,0-6.1c0-0.2,0-0.3,0.3-0.3c0.6,0,1.2,0,1.8,0c0.5,0,0.8,0.2,0.8,0.8c0,3,0,6.1,0,9.1
		c0,0.3,0.1,0.3,0.3,0.3c1.6,0,3.2,0,4.9,0c0.2,0,0.3,0,0.3,0.3c0,0.7,0,1.4,0,2.1c0,0.2,0,0.2-0.2,0.2c-2.6,0-5.2,0-7.8,0
		C40,26,40,25.9,40,25.7C40,23.7,40,21.6,40,19.6C40,19.6,40,19.6,40,19.6z"/>
	<path class="st1" d="M21.9,21.5c-0.5,0-0.5,0-0.5-0.5c0.1-1.4,0.3-2.9,0.7-4.3c1.1-3.2,3.1-5.6,6-7.3c0.6-0.4,1.3-0.7,2-1
		c0.2-0.1,0.2-0.1,0.3,0.1c0.2,0.6,0.4,1.1,0.5,1.7c0,0.2,0,0.2-0.2,0.3c-1.7,0.7-3.3,1.6-4.7,2.9c-1.8,1.7-3,3.8-3.6,6.2
		c-0.1,0.5-0.2,1-0.2,1.5c0,0.2-0.1,0.3-0.3,0.3C22,21.5,21.9,21.5,21.9,21.5z"/>
	<path class="st1" d="M21.5,15.7c-0.2-0.7-0.5-1.3-0.9-1.9c-1-1.8-2.4-3.2-4-4.3c-1-0.7-2.1-1.4-3.3-1.9c-0.2-0.1-0.2-0.1-0.1-0.3
		c0.3-0.6,0.7-1.1,1.2-1.6c0.1-0.1,0.2-0.1,0.2,0C16,6.2,17.1,7,18.2,7.9c1.8,1.5,3.2,3.4,4.2,5.5c0.1,0.2,0.1,0.4,0,0.6
		c-0.3,0.5-0.5,1-0.8,1.6C21.6,15.6,21.6,15.7,21.5,15.7z"/>
	<path class="st0" d="M20.7,19.2c-0.1-0.4-0.2-0.7-0.3-1c-0.3-0.8-0.6-1.6-1.1-2.3c-1-1.7-2.4-3-4.1-4.1c-0.9-0.6-1.9-1.1-2.8-1.5
		c-0.2-0.1-0.2-0.2-0.2-0.3c0.1-0.6,0.3-1.2,0.6-1.7c0.1-0.1,0.1-0.2,0.3-0.1c0.4,0.1,0.7,0.3,1.1,0.5c0.6,0.2,1.1,0.6,1.6,0.9
		c1.2,0.8,2.3,1.7,3.2,2.9c1,1.2,1.8,2.5,2.3,4c0,0.1,0.1,0.2,0,0.3C21,17.4,20.9,18.3,20.7,19.2z"/>
	<path class="st0" d="M22.9,13.1c-0.3-0.6-0.6-1.1-0.9-1.7c-0.1-0.1,0-0.2,0-0.3c0.8-1.2,1.8-2.3,3-3.2c1-0.9,2.2-1.6,3.4-2.2
		c0.2-0.1,0.2,0,0.3,0.1c0.4,0.5,0.7,0.9,1,1.4c0.2,0.3,0.1,0.3-0.2,0.5c-1.3,0.5-2.5,1.3-3.6,2.2c-0.4,0.3-0.8,0.5-1.1,0.9
		c-0.6,0.7-1.3,1.4-1.8,2.2C23,12.9,23,13,22.9,13.1z"/>
</g>
</svg>
