<?xml version="1.0" encoding="utf-8"?>
<!-- Generator: Adobe Illustrator 26.3.1, SVG Export Plug-In . SVG Version: 6.00 Build 0)  -->
<svg version="1.1" id="Layer_1" xmlns="http://www.w3.org/2000/svg" xmlns:xlink="http://www.w3.org/1999/xlink" x="0px" y="0px"
	 viewBox="0 0 76.4 33.9" style="enable-background:new 0 0 76.4 33.9;" xml:space="preserve">
<style type="text/css">
	.st0{fill:#AB1D38;}
	.st1{fill:#76777A;}
</style>
<g>
	<path class="st0" d="M37.4,28.6c-0.2,0.4-0.5,0.7-1,1.1c-0.2,0.2-0.5,0.3-0.8,0.4c-0.4,0.1-0.7,0.2-1.1,0.2c-0.4,0-0.7-0.1-1.1-0.3
		c-0.3-0.2-0.6-0.4-0.7-0.7c3-1.7,4.9-4.9,4.9-8.5c0-5.4-4.4-9.8-9.8-9.8s-9.8,4.4-9.8,9.8c0,5.4,4.4,9.8,9.8,9.8c0.2,0,0.5,0,0.7,0
		c0.5,0.9,1.3,1.6,2.2,2.1c1,0.6,2.1,0.9,3.1,0.9c2.3,0,4.2-0.8,5.7-2.4L37.4,28.6z M22.2,20.9c0-3.1,2.5-5.6,5.6-5.6
		s5.6,2.5,5.6,5.6c0,3.1-2.5,5.6-5.6,5.6S22.2,24,22.2,20.9"/>
	<path class="st0" d="M40.9,30.3V11.5h3.2c0.6,0,1,0.4,1,1v14h8v3.7H40.9z"/>
	<path class="st0" d="M72.2,18.4l-4.8,9.7c-0.2,0.3-0.5,0.6-0.9,0.6h-1.3c-0.4,0-0.7-0.2-0.9-0.6l-4.8-9.7v11.8h-4.2V11.5h4.4
		c0.8,0,1.5,0.4,1.8,1.2l4.3,9.2l4.3-9.2c0.3-0.7,1-1.1,1.8-1.1h4.4v18.8h-4.2V18.4z"/>
	<path class="st1" d="M27.7,7.4c-13,5.1-12.7,16.2-12.7,16.2h-1.5C13.5,8.4,26.7,4.4,26.7,4.4S27.5,6.1,27.7,7.4L27.7,7.4z"/>
	<path class="st1" d="M13.7,15.2L13.7,15.2c0.9-2,1.5-3.1,1.5-3.1C11.1,3.1,3.4,0.3,3.4,0.3S2,1.8,1.4,3l0,0
		C1.4,3.1,10.7,6.4,13.7,15.2"/>
	<path class="st0" d="M12.5,20.3C11.6,16.6,8.8,10.5,0,7.1l0,0c0.2-1.3,1-3.1,1-3.1s9.1,2.8,12.4,12.5c0,0-0.5,1.4-0.8,3.8
		L12.5,20.3z"/>
	<path class="st0" d="M15.7,11.3c-0.1-0.4-1.5-2.7-1.5-2.7c4.2-6.3,9.9-8.4,9.9-8.4s1.4,1.5,2,2.7l0,0C26.1,3.1,19.6,5.3,15.7,11.3
		L15.7,11.3z"/>
</g>
</svg>
