<?xml version="1.0" encoding="utf-8"?>
<!-- Generator: Adobe Illustrator 26.5.0, SVG Export Plug-In . SVG Version: 6.00 Build 0)  -->
<svg version="1.1" id="Layer_1" xmlns="http://www.w3.org/2000/svg" xmlns:xlink="http://www.w3.org/1999/xlink" x="0px" y="0px"
	 viewBox="0 0 121.2 48" style="enable-background:new 0 0 121.2 48;" xml:space="preserve">
<style type="text/css">
	.st0{fill:#AB1A38;}
	.st1{fill:#78797B;}
</style>
<g>
	<path class="st0" d="M87.6,28.9c0.2-0.1,0.2-0.3,0.2-0.4c0.5-1,1-2.1,1.5-3.1c0.4-0.8,0.8-1.6,1.1-2.4c0.2-0.6,0.6-1.1,0.8-1.6
		c0.1-0.3,0.3-0.7,0.4-1c0.4-0.7,1-1.1,1.8-1.1c1.2,0,2.5,0,3.7,0c0.3,0,0.4,0.1,0.4,0.4c0,5.7,0,11.3,0,17c0,0.3-0.1,0.3-0.3,0.3
		c-1.1,0-2.2,0-3.3,0c-0.3,0-0.3-0.1-0.3-0.3c0-3.5,0-6.9,0-10.4c0-0.1,0-0.1-0.1-0.2c-0.1,0.2-0.2,0.4-0.3,0.6
		c-0.6,1.2-1.2,2.3-1.7,3.5c-0.8,1.6-1.6,3.2-2.3,4.8c-0.2,0.4-0.5,0.6-1,0.6c-0.4,0-0.7,0-1.1,0s-0.7-0.2-0.9-0.6
		c-1.4-2.8-2.7-5.5-4.1-8.3c-0.1-0.2-0.2-0.4-0.4-0.6c0,0.1,0,0.2,0,0.4c0,3.4,0,6.8,0,10.2c0,0.3-0.1,0.4-0.4,0.4
		c-1.1,0-2.1,0-3.2,0c-0.3,0-0.4-0.1-0.4-0.4c0-5.7,0-11.3,0-17c0-0.2,0-0.3,0.3-0.3c1.3,0,2.5,0,3.8,0c0.8,0,1.4,0.4,1.8,1.1
		c0.7,1.5,1.5,3.1,2.2,4.6c0.4,0.8,0.8,1.6,1.1,2.4C87.1,28,87.3,28.4,87.6,28.9z"/>
	<path class="st0" d="M60.8,35.5c0.6,0.8,1.3,1.5,1.9,2.3c0.1,0.1,0.1,0.2,0,0.2c-0.5,0.4-0.9,0.8-1.5,1.1s-1.1,0.6-1.8,0.8
		c-1,0.3-2,0.4-3,0.2c-1.6-0.3-2.9-1-3.8-2.4c-0.1-0.2-0.3-0.4-0.6-0.3c-3.4,0.1-6-1.3-8-4c-1.2-1.8-1.8-3.8-1.6-6
		c0.3-2.7,1.5-4.9,3.7-6.6c0.6-0.4,1.2-0.9,1.8-1.1c0.4-0.3,2.3-0.7,2.7-0.7c3.1-0.3,5.8,0.8,7.9,3.1c3,3.4,3,8.4,0.3,11.8
		c-0.7,0.8-1.5,1.6-2.4,2.1c-0.3,0.2-0.2,0.3,0,0.5c0.4,0.3,0.9,0.6,1.4,0.6C59,37,59.9,36.7,60.8,35.5z M46.5,28.2
		c0,2.9,2.4,5.3,5.3,5.3c2.9,0,5.2-2.3,5.2-5.3s-2.4-5.3-5.3-5.3C48.9,22.9,46.4,25.3,46.5,28.2z"/>
	<path class="st0" d="M64,28.1c0-2.8,0-5.6,0-8.4c0-0.3,0-0.4,0.4-0.4c0.8,0,1.7,0,2.5,0c0.7,0,1.1,0.3,1.1,1.1c0,4.2,0,8.4,0,12.6
		c0,0.4,0.1,0.5,0.4,0.5c2.2,0,4.5,0,6.7,0c0.3,0,0.4,0,0.4,0.3c0,0.9,0,1.9,0,2.8c0,0.2,0,0.3-0.3,0.3c-3.6,0-7.2,0-10.9,0
		c-0.3,0-0.3-0.1-0.3-0.4C64,33.8,64,31,64,28.1L64,28.1z"/>
	<path class="st1" d="M38.9,30.8c-0.7,0-0.7,0-0.7-0.7c0.1-2,0.4-4,1-5.9c1.5-4.4,4.3-7.7,8.3-10.1c0.9-0.5,1.8-1,2.8-1.4
		c0.2-0.1,0.3-0.1,0.4,0.2c0.3,0.8,0.6,1.5,0.7,2.4c0,0.2,0,0.3-0.2,0.4c-2.4,1-4.6,2.3-6.5,4.1c-2.5,2.4-4.2,5.2-4.9,8.6
		c-0.2,0.7-0.3,1.4-0.3,2.1c0,0.3-0.1,0.4-0.4,0.4C39.1,30.8,39,30.8,38.9,30.8z"/>
	<path class="st1" d="M38.4,22.8c-0.3-0.9-0.7-1.8-1.2-2.7c-1.4-2.4-3.3-4.4-5.5-6c-1.4-1-2.9-1.9-4.6-2.6c-0.2-0.1-0.2-0.2-0.1-0.4
		c0.5-0.8,1-1.5,1.6-2.2c0.1-0.2,0.2-0.1,0.3,0c1.8,0.8,3.4,1.8,4.8,3c2.5,2.1,4.5,4.6,5.9,7.6c0.2,0.3,0.2,0.6,0,0.9
		c-0.4,0.7-0.8,1.4-1.1,2.2C38.5,22.6,38.5,22.7,38.4,22.8z"/>
	<path class="st0" d="M37.3,27.6c-0.2-0.5-0.3-0.9-0.4-1.4C36.5,25.1,36,24,35.4,23c-1.4-2.3-3.3-4.2-5.6-5.7
		c-1.2-0.8-2.6-1.5-3.9-2c-0.2-0.1-0.3-0.2-0.3-0.5c0.2-0.8,0.5-1.6,0.8-2.4c0.1-0.2,0.2-0.2,0.4-0.1c0.5,0.2,1,0.5,1.5,0.7
		c0.8,0.3,1.5,0.8,2.2,1.2c1.7,1.1,3.2,2.4,4.5,4c1.3,1.7,2.5,3.5,3.1,5.6c0,0.1,0.1,0.2,0.1,0.4C37.7,25.2,37.5,26.3,37.3,27.6z"/>
	<path class="st0" d="M40.3,19.1c-0.4-0.8-0.9-1.6-1.3-2.3c-0.1-0.2,0-0.3,0.1-0.5c1.2-1.7,2.5-3.2,4.1-4.5c1.5-1.2,3-2.2,4.8-3
		c0.2-0.1,0.3-0.1,0.5,0.1c0.5,0.6,1,1.3,1.4,2c0.2,0.4,0.2,0.5-0.2,0.6c-1.8,0.8-3.5,1.8-5.1,3c-0.5,0.4-1.1,0.7-1.5,1.2
		c-0.9,1-1.8,1.9-2.5,3.1C40.5,18.9,40.4,19,40.3,19.1z"/>
</g>
</svg>
