<?xml version="1.0" encoding="utf-8"?>
<!-- Generator: Adobe Illustrator 26.5.0, SVG Export Plug-In . SVG Version: 6.00 Build 0)  -->
<svg version="1.1" id="Layer_1" xmlns="http://www.w3.org/2000/svg" xmlns:xlink="http://www.w3.org/1999/xlink" x="0px" y="0px"
	 viewBox="0 0 354 345" style="enable-background:new 0 0 354 345;" xml:space="preserve">
<style type="text/css">
	.st0{clip-path:url(#SVGID_00000099653625047423144490000014145962822701891723_);fill:#D6002A;}
	.st1{clip-path:url(#SVGID_00000044888414089061451560000017737340316968103319_);fill:#D6002A;}
	.st2{clip-path:url(#SVGID_00000082347157741014980490000015605140485809640356_);fill:#D6002A;}
	.st3{clip-path:url(#SVGID_00000032617012885188420240000016212000983318354337_);fill:#D6002A;}
	.st4{clip-path:url(#SVGID_00000022550713692085743360000013896102950781540284_);fill:#D6002A;}
	.st5{clip-path:url(#SVGID_00000161597572209851705380000005684473751430053792_);fill:#D6002A;}
	.st6{clip-path:url(#SVGID_00000092443486543806361260000013296695117778457784_);fill:#D6002A;}
	.st7{clip-path:url(#SVGID_00000129899573071798869100000004166695710830796980_);fill:#D6002A;}
	.st8{clip-path:url(#SVGID_00000158720176058158281550000009861966184629765767_);fill:#D6002A;}
	.st9{clip-path:url(#SVGID_00000170266276137187128870000000296549909782406840_);}
	.st10{fill:#D6002A;}
	.st11{clip-path:url(#SVGID_00000108307759211008345680000014660630830976578717_);fill:#D6002A;}
	.st12{clip-path:url(#SVGID_00000013152522377409835780000006982703152689380273_);fill:#D6002A;}
	.st13{clip-path:url(#SVGID_00000155123819727213771520000012049709941817504408_);fill:#D6002A;}
	.st14{clip-path:url(#SVGID_00000045577319061351265660000003439412334591206531_);fill:#D6002A;}
	.st15{clip-path:url(#SVGID_00000075883343024853402260000012600083956671045802_);fill:#D6002A;}
	.st16{clip-path:url(#SVGID_00000080197586805550490350000014860845599542598078_);fill:#D6002A;}
	.st17{clip-path:url(#SVGID_00000116201164538999918190000000008022152844806830_);fill:#D6002A;}
	.st18{clip-path:url(#SVGID_00000092414173400514278570000008805755099366208132_);fill:#D6002A;}
	.st19{clip-path:url(#SVGID_00000094611321020955689070000012203826059694639780_);fill:#D6002A;}
	.st20{clip-path:url(#SVGID_00000148655751206357661270000013758785633359592383_);}
</style>
<g>
	<g>
		<g>
			<g>
				<g>
					<defs>
						<rect id="SVGID_1_" x="9.9" y="179.4" width="334.1" height="72.5"/>
					</defs>
					<clipPath id="SVGID_00000157277425589235267450000007305463047143376257_">
						<use xlink:href="#SVGID_1_"  style="overflow:visible;"/>
					</clipPath>
					<path style="clip-path:url(#SVGID_00000157277425589235267450000007305463047143376257_);fill:#D6002A;" d="M48,236.5
						c0,2.3-0.3,4.2-1.1,5.8c-0.7,1.6-1.7,3-2.9,4.2c-1.8,1.8-4,3.1-6.6,3.9c-2.6,0.8-5.4,1.1-8.4,1.1c-2.5,0-5.1-0.3-7.5-1.1
						c-2.4-0.7-4.7-2-6.6-3.7c-1.4-1.3-2.6-2.9-3.6-4.8s-1.4-4-1.4-6.3h8.8c0,1.1,0.3,2.3,0.7,3.2c0.4,1,1,1.8,1.7,2.6
						c1,1,2.3,1.7,3.7,2c1.5,0.3,2.9,0.5,4.3,0.5c1.7,0,3.2-0.2,4.7-0.6c1.5-0.3,2.6-1,3.6-2c0.5-0.6,1-1.2,1.3-1.8s0.5-1.6,0.5-2.7
						c0-1.7-0.5-3.1-1.7-3.9c-1.1-0.9-2.4-1.4-3.9-1.7c-1.6-0.3-3.4-0.5-5.3-0.7s-3.7-0.3-5.2-0.6c-1.7-0.3-3.2-0.7-4.6-1.4
						c-1.5-0.7-2.7-1.6-3.8-2.6c-1.1-1.1-2-2.4-2.6-3.9c-0.6-1.6-1-3.3-1-5.2c0-1.8,0.3-3.6,1.1-5.1c0.8-1.6,1.7-3,3.1-4.2
						c1.6-1.6,3.6-2.8,6-3.7s5.1-1.3,7.9-1.3c2.5,0,5,0.3,7.3,1.1c2.4,0.8,4.4,1.9,5.9,3.5c1.4,1.3,2.6,2.9,3.5,4.5
						c0.9,1.7,1.3,3.6,1.4,5.6h-8.9c-0.1-0.9-0.3-1.7-0.6-2.5c-0.3-0.8-0.9-1.6-1.4-2.2c-0.8-0.8-1.8-1.4-3.2-1.8
						c-1.4-0.4-2.7-0.7-4-0.7s-2.7,0.2-4.1,0.5s-2.6,1-3.6,2.1c-0.5,0.5-0.9,1.1-1.1,1.7c-0.3,0.6-0.4,1.4-0.4,2.3
						c0,1.6,0.4,2.8,1.3,3.6s2.1,1.3,3.5,1.6c1.5,0.3,3.2,0.4,5.1,0.6c1.9,0.2,3.7,0.3,5.1,0.6c1.7,0.3,3.5,0.8,5.1,1.5
						s3,1.6,4.2,2.7s2.1,2.5,2.8,4.1C47.7,232.7,48,234.5,48,236.5"/>
				</g>
			</g>
		</g>
		<g>
			<g>
				<g>
					<defs>
						<rect id="SVGID_00000034060632021418464900000001663511463022813851_" x="9.9" y="179.4" width="334.1" height="72.5"/>
					</defs>
					<clipPath id="SVGID_00000114059636862475598730000014693487671878903483_">
						<use xlink:href="#SVGID_00000034060632021418464900000001663511463022813851_"  style="overflow:visible;"/>
					</clipPath>
					<path style="clip-path:url(#SVGID_00000114059636862475598730000014693487671878903483_);fill:#D6002A;" d="M85.3,250.7L82,247
						c-1.9,1.7-4,3-6.4,3.7c-2.3,0.8-4.7,1.2-7.1,1.2c-2.1,0-4.1-0.3-6-1s-3.6-1.7-5.1-2.9c-1.4-1.2-2.5-2.7-3.4-4.5
						c-0.9-1.7-1.3-3.8-1.3-6c0-3,0.8-5.5,2.4-7.6s3.6-3.9,6.1-5.5c-0.8-0.8-1.5-1.6-2.1-2.4c-0.6-0.8-1.1-1.6-1.6-2.4
						s-0.8-1.7-1-2.5c-0.3-0.9-0.3-1.9-0.3-3.1c0-1.8,0.3-3.6,1-5.1s1.7-2.7,2.8-3.7s2.5-1.8,4.1-2.4c1.6-0.5,3.2-0.8,5.1-0.8
						c1.7,0,3.4,0.3,5,0.8s3,1.3,4.2,2.3s2.2,2.3,2.9,3.7c0.7,1.5,1,3.1,1,5c0,1.6-0.3,3-0.7,4.2s-1,2.4-1.8,3.3
						c-0.8,1-1.7,1.9-2.9,2.8c-1.1,0.9-2.3,1.7-3.6,2.4l8.2,9c0.4-0.8,0.7-1.7,0.9-2.6c0.2-1,0.3-2.1,0.3-3.1c0.1-1,0.2-2.1,0.2-3.1
						V224H95v6.6h-5.5c-0.1,1.8-0.3,3.7-0.7,5.6c-0.4,1.8-1.1,3.5-2.2,5.1l8.8,9.5C95.5,250.7,85.3,250.7,85.3,250.7z M66.1,229.7
						c-0.8,0.5-1.6,1-2.2,1.4c-0.7,0.4-1.2,1-1.7,1.6s-0.9,1.2-1.2,2s-0.4,1.6-0.4,2.6c0,1.2,0.3,2.3,0.7,3.2c0.4,1,1.1,1.7,1.8,2.4
						c0.8,0.6,1.7,1,2.7,1.4s2.1,0.4,3.2,0.4c1.4,0,2.9-0.2,4.3-0.6s2.6-1.2,3.7-2.4L66.1,229.7z M74.4,214.2c0-1.7-0.5-3-1.5-3.8
						c-1-0.9-2.3-1.3-3.7-1.3s-2.6,0.4-3.7,1.2s-1.6,2.1-1.6,3.7c0,0.8,0.2,1.5,0.4,2.2s0.6,1.3,1,1.9c0.4,0.6,0.9,1.1,1.4,1.7
						c0.5,0.5,1,1,1.6,1.6c0.7-0.4,1.4-0.8,2.2-1.2c0.7-0.4,1.4-0.9,2-1.5c0.6-0.5,1-1.1,1.4-1.8C74.2,216.1,74.4,215.2,74.4,214.2"
						/>
				</g>
			</g>
		</g>
		<g>
			<g>
				<g>
					<defs>
						<rect id="SVGID_00000178171998799556711750000003736059230201744515_" x="9.9" y="179.4" width="334.1" height="72.5"/>
					</defs>
					<clipPath id="SVGID_00000080208980910027282950000013412574160024603284_">
						<use xlink:href="#SVGID_00000178171998799556711750000003736059230201744515_"  style="overflow:visible;"/>
					</clipPath>
					<path style="clip-path:url(#SVGID_00000080208980910027282950000013412574160024603284_);fill:#D6002A;" d="M137.2,218.4
						c0,2.3-0.3,4.4-1,6.2s-1.7,3.5-3.1,4.8c-1.4,1.3-3.1,2.4-5.2,3.1c-2.1,0.7-4.5,1.1-7.2,1.1h-10v17H102v-47.4h18.6
						c2.7,0,5.1,0.3,7.2,1.1c2.1,0.7,3.8,1.7,5.2,3.1c1.4,1.3,2.4,2.9,3.1,4.8C136.8,214.1,137.2,216.1,137.2,218.4 M128.5,218.5
						c0-2.3-0.7-4.1-2-5.6c-1.3-1.4-3.5-2.2-6.4-2.2h-9.7V226h9.7c2.9,0,5.1-0.7,6.4-2.1C127.8,222.6,128.5,220.8,128.5,218.5"/>
				</g>
			</g>
		</g>
		<g>
			<g>
				<g>
					<defs>
						<rect id="SVGID_00000163074050880601111770000000988581363716392084_" x="9.9" y="179.4" width="334.1" height="72.5"/>
					</defs>
					<clipPath id="SVGID_00000091014383304737526220000000465867137232885421_">
						<use xlink:href="#SVGID_00000163074050880601111770000000988581363716392084_"  style="overflow:visible;"/>
					</clipPath>
					<path style="clip-path:url(#SVGID_00000091014383304737526220000000465867137232885421_);fill:#D6002A;" d="M188,250.7l-1-5.2
						c-0.3,0.7-0.9,1.4-1.6,2.1c-0.7,0.7-1.6,1.4-2.6,2s-2.2,1-3.5,1.5c-1.3,0.3-2.7,0.5-4.2,0.5c-2.8,0-5.3-0.3-7.8-1.1
						c-2.4-0.8-4.5-2.2-6.4-4.2c-1.2-1.3-2.3-2.6-3.1-4.1c-0.8-1.4-1.4-3-1.8-4.5c-0.4-1.6-0.8-3.3-1-5.1c-0.2-1.7-0.3-3.7-0.3-5.6
						c0-1.9,0.1-3.7,0.3-5.5c0.2-1.7,0.4-3.4,0.9-5c0.4-1.6,1-3.1,1.8-4.4s1.8-2.8,3.1-4.1c1.8-1.8,4-3.2,6.5-4.2s5.1-1.4,7.6-1.4
						c3,0,5.6,0.5,8,1.5s4.4,2.3,6,3.9c1.1,1.2,2.2,2.6,3,4.1c0.8,1.6,1.3,3.4,1.4,5.5h-8.8c-0.1-1-0.3-1.7-0.7-2.4
						s-0.9-1.3-1.3-1.9c-1.7-1.9-4.2-2.9-7.6-2.9c-1.4,0-2.8,0.3-4.2,0.9c-1.4,0.5-2.6,1.3-3.6,2.4c-0.8,0.9-1.5,1.8-1.9,3
						c-0.5,1.1-0.9,2.3-1.1,3.5s-0.4,2.4-0.5,3.7c-0.1,1.2-0.1,2.4-0.1,3.5c0,1,0,2.3,0.2,3.5c0.1,1.3,0.3,2.5,0.5,3.7
						c0.3,1.2,0.6,2.4,1.1,3.6c0.5,1.1,1.1,2.1,1.9,3c1,1,2.1,1.7,3.5,2.3c1.4,0.5,2.8,0.7,4.2,0.7c1.6,0,3-0.3,4.1-0.7
						c1.2-0.5,2.2-1.1,3-2c1.3-1.3,2.1-2.8,2.5-4.3c0.3-1.5,0.5-3.1,0.5-5h-11.3v-7.1h19.7v26H188V250.7z"/>
				</g>
			</g>
		</g>
		<g>
			<g>
				<g>
					<defs>
						<rect id="SVGID_00000042715278991420047690000009055575707024597393_" x="9.9" y="179.4" width="334.1" height="72.5"/>
					</defs>
					<clipPath id="SVGID_00000152248597449386576660000000067516944693304194_">
						<use xlink:href="#SVGID_00000042715278991420047690000009055575707024597393_"  style="overflow:visible;"/>
					</clipPath>
					<path style="clip-path:url(#SVGID_00000152248597449386576660000000067516944693304194_);fill:#D6002A;" d="M214.5,250.6
						c-0.9,0.2-1.5,0.3-1.8,0.3s-1,0.1-1.8,0.1c-2.9,0-5.1-0.7-6.9-2.2c-1.7-1.5-2.6-3.8-2.6-7.1v-39.4h8.5v38c0,1,0.2,1.8,0.6,2.4
						c0.4,0.6,1.3,0.9,2.7,0.9c0.3,0,0.6,0,0.8,0s0.3,0,0.6,0C214.5,243.5,214.5,250.6,214.5,250.6z"/>
				</g>
			</g>
		</g>
		<g>
			<g>
				<g>
					<defs>
						<rect id="SVGID_00000088124232991806645140000015859318315319287479_" x="9.9" y="179.4" width="334.1" height="72.5"/>
					</defs>
					<clipPath id="SVGID_00000005257774353638140490000001875986936891097750_">
						<use xlink:href="#SVGID_00000088124232991806645140000015859318315319287479_"  style="overflow:visible;"/>
					</clipPath>
					<path style="clip-path:url(#SVGID_00000005257774353638140490000001875986936891097750_);fill:#D6002A;" d="M249.9,233.2
						c0,3-0.3,5.4-1,7.4s-1.7,3.8-3.1,5.5c-1.2,1.5-2.9,2.7-5,3.8c-2.1,1-4.5,1.6-7.2,1.6s-5.1-0.5-7.1-1.6c-2.1-1-3.7-2.4-5-3.8
						c-1.3-1.7-2.3-3.5-3.1-5.5c-0.7-2-1-4.4-1-7.4s0.3-5.4,1-7.4s1.7-3.8,3.1-5.5c1.2-1.5,2.9-2.7,5-3.8c2.1-1,4.5-1.6,7.1-1.6
						s5.1,0.5,7.2,1.6c2.1,1,3.7,2.4,5,3.8c1.3,1.7,2.3,3.5,3.1,5.5C249.6,227.8,249.9,230.3,249.9,233.2 M241.5,233.2
						c0-1.7-0.2-3.2-0.4-4.8c-0.3-1.6-1-2.9-2-4c-0.6-0.6-1.3-1.1-2.2-1.6c-0.9-0.4-1.9-0.6-3.1-0.6c-1.1,0-2.2,0.2-3.1,0.6
						c-0.9,0.4-1.7,1-2.2,1.6c-1,1.1-1.7,2.4-2,4s-0.4,3.1-0.4,4.8s0.2,3.2,0.4,4.8c0.3,1.6,1,2.9,2,4c0.6,0.6,1.3,1.1,2.2,1.6
						c0.9,0.4,1.9,0.6,3.1,0.6c1.1,0,2.2-0.2,3.1-0.6c0.9-0.4,1.7-1,2.2-1.6c1-1.1,1.7-2.4,2-4C241.3,236.4,241.5,234.9,241.5,233.2
						"/>
				</g>
			</g>
		</g>
		<g>
			<g>
				<g>
					<defs>
						<rect id="SVGID_00000155133225589858277460000004380820329036993700_" x="9.9" y="179.4" width="334.1" height="72.5"/>
					</defs>
					<clipPath id="SVGID_00000046321651850085425930000007686997067981369776_">
						<use xlink:href="#SVGID_00000155133225589858277460000004380820329036993700_"  style="overflow:visible;"/>
					</clipPath>
					<path style="clip-path:url(#SVGID_00000046321651850085425930000007686997067981369776_);fill:#D6002A;" d="M288.6,233.3
						c0,3.3-0.5,6.3-1.6,8.8s-2.6,4.7-4.7,6.4c-1,0.9-2.3,1.6-3.7,2.2c-1.4,0.5-3,0.8-4.7,0.8c-1.9,0-3.7-0.3-5.6-1.1
						c-1.7-0.7-3.2-1.9-4.2-3.5l-0.5,3.8h-7.2v-48.3h8.4v16c0.8-1,2-1.8,3.6-2.4c1.6-0.6,3.4-1,5.5-1c1.7,0,3.4,0.3,4.8,0.7
						c1.4,0.5,2.6,1.2,3.7,2.1C286.5,221.2,288.6,226.4,288.6,233.3 M280.1,233.1c0-1.5-0.2-3.1-0.4-4.4c-0.3-1.5-0.9-2.8-1.7-3.9
						c-0.6-0.8-1.4-1.4-2.3-1.9c-1-0.5-2-0.8-3.3-0.8c-1.7,0-3,0.3-4,1s-1.8,1.6-2.4,2.7c-0.6,1.1-1,2.3-1.1,3.6
						c-0.2,1.3-0.3,2.6-0.3,3.8c0,1.7,0.2,3.4,0.6,5.1c0.4,1.7,1.2,3.2,2.4,4.4c0.6,0.5,1.3,1,2.1,1.3c0.8,0.3,1.7,0.4,2.8,0.4
						c1.3,0,2.4-0.3,3.3-0.8s1.7-1.2,2.3-1.9c0.9-1.1,1.5-2.5,1.7-4C279.9,236.2,280.1,234.7,280.1,233.1"/>
				</g>
			</g>
		</g>
		<g>
			<g>
				<g>
					<defs>
						<rect id="SVGID_00000105420911922164357430000016219223604077726599_" x="9.9" y="179.4" width="334.1" height="72.5"/>
					</defs>
					<clipPath id="SVGID_00000086690861483756867670000012044781404618292621_">
						<use xlink:href="#SVGID_00000105420911922164357430000016219223604077726599_"  style="overflow:visible;"/>
					</clipPath>
					<path style="clip-path:url(#SVGID_00000086690861483756867670000012044781404618292621_);fill:#D6002A;" d="M325.7,250.2
						c-0.7,0.3-1.3,0.5-1.8,0.7s-1.3,0.3-2.3,0.3c-1.8,0-3.2-0.5-4.2-1.5s-1.6-2.1-1.7-3.4c-0.8,1.4-2.2,2.6-4,3.7s-4.1,1.6-6.5,1.6
						c-2.1,0-3.9-0.3-5.5-0.9c-1.6-0.6-2.9-1.4-3.9-2.4s-1.8-2.2-2.4-3.5c-0.5-1.3-0.8-2.7-0.8-4.1c0-1.7,0.3-3.1,0.9-4.4
						c0.6-1.3,1.5-2.4,2.5-3.3c1-1,2.4-1.7,3.7-2.2c1.4-0.5,3-0.9,4.6-1l10.2-0.7v-2.2c0-1.7-0.3-3-1.1-4c-0.8-1-2.4-1.5-4.7-1.5
						c-2,0-3.5,0.4-4.6,1.3c-1.1,0.9-1.7,2.1-1.7,3.7h-8.1c0.2-2,0.6-3.7,1.4-5.1c0.8-1.4,1.8-2.6,3.1-3.5s2.8-1.6,4.4-2
						s3.5-0.7,5.5-0.7c3,0,5.7,0.5,8,1.6s4,2.9,5.1,5.5c0.4,1.1,0.7,2.3,0.9,3.5c0.1,1.2,0.2,2.4,0.2,3.6v12.9
						c0,0.8,0.2,1.4,0.4,1.7c0.3,0.3,0.8,0.5,1.5,0.5c0.3,0,0.6,0,0.7-0.1c0.2,0,0.3,0,0.3-0.1L325.7,250.2L325.7,250.2z
						 M314.5,235.1l-8.8,0.7c-1.3,0.1-2.4,0.5-3.5,1.3c-1,0.8-1.6,1.8-1.6,3.3c0,1.3,0.5,2.4,1.5,3.1c1,0.8,2.2,1.1,3.5,1.1
						c2.6,0,4.8-0.7,6.4-2c1.7-1.4,2.4-3.3,2.4-5.9v-1.6H314.5z"/>
				</g>
			</g>
		</g>
		<g>
			<g>
				<g>
					<defs>
						<rect id="SVGID_00000075871655646466774580000009521667845270081465_" x="9.9" y="179.4" width="334.1" height="72.5"/>
					</defs>
					<clipPath id="SVGID_00000139992818333249961040000014362051981106866347_">
						<use xlink:href="#SVGID_00000075871655646466774580000009521667845270081465_"  style="overflow:visible;"/>
					</clipPath>
					<path style="clip-path:url(#SVGID_00000139992818333249961040000014362051981106866347_);fill:#D6002A;" d="M344.1,250.6
						c-0.9,0.2-1.5,0.3-1.8,0.3s-1,0.1-1.8,0.1c-2.9,0-5.1-0.7-6.9-2.2c-1.7-1.5-2.6-3.8-2.6-7.1v-39.4h8.5v38c0,1,0.2,1.8,0.6,2.4
						c0.4,0.6,1.3,0.9,2.7,0.9c0.3,0,0.6,0,0.8,0c0.2,0,0.3,0,0.6,0L344.1,250.6L344.1,250.6z"/>
				</g>
			</g>
		</g>
		<g>
			<g>
				<g>
					<defs>
						<rect id="SVGID_00000018917617891084713090000009965317358812596398_" x="9.9" y="179.4" width="334.1" height="72.5"/>
					</defs>
					<clipPath id="SVGID_00000007409519915307278230000000868595588719657406_">
						<use xlink:href="#SVGID_00000018917617891084713090000009965317358812596398_"  style="overflow:visible;"/>
					</clipPath>
					
						<rect x="9.9" y="179.4" style="clip-path:url(#SVGID_00000007409519915307278230000000868595588719657406_);" width="334.1" height="7.7"/>
				</g>
			</g>
		</g>
	</g>
	<g>
		<path class="st10" d="M26.5,112.5H16.2l-2,5.1h-4l9.2-23.2H23l9.6,23.2h-4.1L26.5,112.5z M17.5,109.1h7.7l-3.8-9.8L17.5,109.1z"/>
		<path class="st10" d="M51.6,109h-4.4v8.5h-3.8V94.3h9.1c4.4,0,7.8,3.1,7.8,7.3c0,3.1-1.9,5.7-4.7,6.7l5.3,9.2h-4.3L51.6,109z
			 M47.2,105.4h5c2.5,0,4.2-1.6,4.2-3.7c0-2.2-1.7-3.7-4.2-3.7h-5V105.4z"/>
		<path class="st10" d="M82.1,99.7v17.9h-3l-0.3-2.2c-1.7,1.7-3.9,2.6-6.4,2.6c-5.3,0-9.3-4-9.3-9.4s4-9.3,9.3-9.3
			c2.6,0,4.9,1,6.5,2.7l0.4-2.3C79.3,99.7,82.1,99.7,82.1,99.7z M78.3,108.6c0-3.4-2.4-5.8-5.8-5.8c-3.4,0-5.8,2.5-5.8,5.8
			s2.5,5.8,5.8,5.8C75.9,114.5,78.3,112,78.3,108.6z"/>
		<path class="st10" d="M97.3,114.2v3.3h-2.7c-3.9,0-6.4-2.4-6.4-6.4v-8.4H85V102l6.2-6.6h0.6v4.2h5.3v3.1h-5.3v8.1
			c0,2.1,1.2,3.3,3.3,3.3L97.3,114.2L97.3,114.2z"/>
		<path class="st10" d="M100.8,93.1h3.8V97h-3.8V93.1z M100.9,99.7h3.7v17.9h-3.7V99.7z"/>
		<path class="st10" d="M119.2,99.2c4.2,0,6.8,3.1,6.8,7.5v10.8h-3.7v-10c0-3.2-1.4-5-4.1-5c-2.8,0-4.8,2.3-4.8,5.4v9.6h-3.7V99.7
			h2.5l0.7,2.5C114.4,100.4,116.6,99.2,119.2,99.2L119.2,99.2z"/>
		<path class="st10" d="M148.1,99.7v15.5c0,5.7-3.4,9.2-8.9,9.2c-4.6,0-7.8-2.4-8.7-6.3h3.7c0.7,2,2.8,3.1,5.1,3.1
			c3.1,0,5.3-2,5.3-5.4V115c-1.6,1.3-3.6,2.2-5.9,2.2c-5,0-8.8-3.8-8.8-8.9c0-5,3.8-8.9,8.8-8.9c2.6,0,4.9,1,6.5,2.7l0.6-2.3
			L148.1,99.7z M139,113.6c3.1,0,5.5-2.4,5.5-5.5s-2.3-5.5-5.5-5.5s-5.5,2.4-5.5,5.5C133.5,111.3,135.8,113.6,139,113.6L139,113.6z"
			/>
		<path d="M43,134.1l-7.3,23.2h-2.5l-6.4-16.5l-6.2,16.5H18l-7.5-23.2h3.1l5.8,18.4l6.8-18h1.2l7,18L40,134L43,134.1L43,134.1z"/>
		<path d="M46.4,133h3.1v3.2h-3.1V133z M46.5,139.4h2.8v17.9h-2.8V139.4z"/>
		<path d="M64.4,154.7v2.6H62c-3.8,0-6.2-2.4-6.2-6.3v-9.1h-3.1v-0.5l5.5-5.8h0.4v3.7h5.6v2.5h-5.6v9c0,2.4,1.3,3.7,3.7,3.7
			L64.4,154.7L64.4,154.7z"/>
		<path d="M84,146.6v10.7h-2.8v-10c0-3.7-1.7-5.7-4.8-5.7s-5.4,2.6-5.4,5.9v9.8h-2.8V133H71v8.8c1.4-1.7,3.6-2.8,6.1-2.8
			C81.4,139,84,141.9,84,146.6z"/>
		<path d="M96.7,150.1h3c0,2.9,2.4,4.6,5.6,4.6c2.9,0,5.2-1.6,5.2-4c0-2.7-2.8-3.3-5.8-4c-3.6-0.9-7.5-1.8-7.5-6.4
			c0-4,3.1-6.4,7.9-6.4c4.8,0,7.8,2.7,7.8,6.9H110c0-2.6-2.1-4.1-5-4.1c-2.8,0-4.9,1.3-4.9,3.6c0,2.5,2.7,3.2,5.7,3.9
			c3.7,0.9,7.8,1.8,7.8,6.7c0,4.4-3.6,6.9-8.2,6.9C100.2,157.6,96.7,154.7,96.7,150.1z"/>
		<path d="M127.2,154.7v2.6h-2.4c-3.8,0-6.2-2.4-6.2-6.3v-9.1h-3.1v-0.5l5.5-5.8h0.4v3.7h5.6v2.5h-5.6v9c0,2.4,1.3,3.7,3.7,3.7
			L127.2,154.7L127.2,154.7z"/>
		<path d="M148.2,139.4v17.9h-2.4l-0.3-2.7c-1.7,1.9-4.1,3.1-7.1,3.1c-5.3,0-9.2-4-9.2-9.3s4-9.3,9.2-9.3c3,0,5.4,1.2,7.1,3.1
			l0.3-2.7L148.2,139.4L148.2,139.4z M145.4,148.4c0-3.8-2.8-6.6-6.5-6.6s-6.6,2.9-6.6,6.6s2.8,6.6,6.6,6.6
			C142.6,154.9,145.4,152.1,145.4,148.4z"/>
		<path d="M163.3,139c5.4,0,9.2,4,9.2,9.3s-3.8,9.3-9.2,9.3c-2.8,0-5.2-1.1-6.9-3l-0.3,2.5h-2.2V133h2.8v8.6
			C158.3,140,160.7,139,163.3,139L163.3,139z M169.7,148.4c0-3.8-2.8-6.6-6.5-6.6s-6.6,2.9-6.6,6.6s2.8,6.6,6.6,6.6
			C166.9,154.9,169.7,152.1,169.7,148.4z"/>
		<path d="M176.8,133h2.8v24.2h-2.8V133z"/>
		<path d="M201.9,149.4h-15.3c0.4,3.3,2.9,5.5,6.3,5.5c2.4,0,4.4-1.1,5.6-3.1h3c-1.5,3.7-4.6,5.8-8.5,5.8c-5.2,0-9.2-4-9.2-9.3
			s3.9-9.3,9.2-9.3c5.4,0,9,4.2,9,9.4C202,148.7,202,149.1,201.9,149.4z M186.8,146.8h12.4c-0.6-3.2-3.1-5.1-6.2-5.1
			C189.7,141.7,187.4,143.8,186.8,146.8z"/>
		<path d="M213.7,145.7c0-6.9,5.1-12,12.1-12s12.1,5.1,12.1,12s-5.1,11.9-12.1,11.9C218.7,157.7,213.7,152.6,213.7,145.7z
			 M235,145.7c0-5.2-3.9-9.2-9.2-9.2c-5.2,0-9.2,3.9-9.2,9.2c0,5.2,3.9,9.2,9.2,9.2C231,154.8,235,150.9,235,145.7z"/>
		<path d="M242,149.8v-10.4h2.8v9.8c0,3.5,1.9,5.7,5.1,5.7s5.1-2.2,5.1-5.7v-9.8h2.8v10.4c0,4.8-3.1,7.9-7.9,7.9
			C245.2,157.7,242,154.6,242,149.8z"/>
		<path d="M272.6,154.7v2.6h-2.4c-3.8,0-6.2-2.4-6.2-6.3v-9.1h-3.1v-0.5l5.5-5.8h0.4v3.7h5.6v2.5h-5.6v9c0,2.4,1.3,3.7,3.7,3.7
			L272.6,154.7L272.6,154.7z"/>
		<path d="M276.4,133h2.8v24.2h-2.8V133z"/>
		<path d="M283.5,148.4c0-5.4,4.1-9.3,9.5-9.3s9.5,4,9.5,9.3s-4.1,9.3-9.5,9.3C287.5,157.7,283.5,153.7,283.5,148.4z M292.9,154.9
			c3.8,0,6.6-2.8,6.6-6.6s-2.8-6.6-6.6-6.6s-6.6,2.8-6.6,6.6C286.4,152.1,289.1,154.9,292.9,154.9L292.9,154.9z"/>
		<path d="M305.3,148.4c0-5.4,4.1-9.3,9.5-9.3s9.5,4,9.5,9.3s-4.1,9.3-9.5,9.3S305.3,153.7,305.3,148.4z M314.8,154.9
			c3.8,0,6.6-2.8,6.6-6.6s-2.8-6.6-6.6-6.6s-6.6,2.8-6.6,6.6S311,154.9,314.8,154.9L314.8,154.9z"/>
		<path d="M334.2,149.3h-2.5v8h-2.8V133h2.8v13.6h2.6l5.5-7.2h3.4l-6.5,8.5l7.1,9.3h-3.5L334.2,149.3z"/>
	</g>
</g>
<g>
	<g>
		<g>
			<g>
				<g>
					<defs>
						<rect id="SVGID_00000015319949906291573860000009516807052339596190_" x="731.7" y="177.2" width="383.4" height="83.2"/>
					</defs>
					<clipPath id="SVGID_00000139265248216384845560000018415362448627403402_">
						<use xlink:href="#SVGID_00000015319949906291573860000009516807052339596190_"  style="overflow:visible;"/>
					</clipPath>
					<path style="clip-path:url(#SVGID_00000139265248216384845560000018415362448627403402_);fill:#D6002A;" d="M775.4,242.8
						c0,2.6-0.4,4.8-1.3,6.6c-0.8,1.8-1.9,3.4-3.3,4.8c-2.1,2.1-4.6,3.6-7.6,4.5s-6.2,1.3-9.6,1.3c-2.9,0-5.8-0.4-8.6-1.3
						c-2.8-0.8-5.4-2.3-7.6-4.3c-1.6-1.5-3-3.3-4.1-5.5s-1.6-4.6-1.6-7.2h10.1c0,1.3,0.3,2.6,0.8,3.7c0.5,1.2,1.2,2.1,2,3
						c1.2,1.2,2.6,2,4.3,2.3c1.7,0.4,3.3,0.6,4.9,0.6c1.9,0,3.7-0.2,5.4-0.7c1.7-0.4,3-1.2,4.1-2.3c0.6-0.7,1.1-1.4,1.5-2.1
						s0.6-1.8,0.6-3.1c0-2-0.6-3.5-2-4.5c-1.3-1-2.8-1.6-4.5-2c-1.8-0.4-3.9-0.6-6.1-0.8s-4.2-0.4-6-0.7c-1.9-0.3-3.7-0.8-5.3-1.6
						c-1.7-0.8-3.1-1.8-4.4-3c-1.3-1.3-2.3-2.8-3-4.5c-0.7-1.8-1.1-3.8-1.1-6c0-2.1,0.4-4.1,1.3-5.9c0.9-1.8,2-3.4,3.5-4.8
						c1.8-1.8,4.1-3.2,6.9-4.2c2.8-1,5.8-1.5,9.1-1.5c2.9,0,5.7,0.4,8.4,1.3c2.7,0.9,5,2.2,6.8,4c1.6,1.5,3,3.3,4,5.2
						s1.5,4.1,1.6,6.4h-10.1c-0.1-1-0.3-1.9-0.7-2.9c-0.4-0.9-1-1.8-1.6-2.5c-0.9-0.9-2.1-1.6-3.7-2.1c-1.6-0.5-3.1-0.8-4.6-0.8
						s-3.1,0.2-4.7,0.6c-1.6,0.4-3,1.2-4.1,2.4c-0.6,0.6-1,1.3-1.3,2s-0.5,1.6-0.5,2.6c0,1.8,0.5,3.2,1.5,4.1c1,0.9,2.4,1.5,4,1.8
						c1.7,0.3,3.7,0.5,5.9,0.7s4.2,0.4,5.9,0.7c2,0.3,4,0.9,5.8,1.7s3.4,1.8,4.8,3.1c1.4,1.3,2.4,2.9,3.2,4.7
						C775,238.4,775.4,240.5,775.4,242.8"/>
				</g>
			</g>
		</g>
		<g>
			<g>
				<g>
					<defs>
						<rect id="SVGID_00000057853845658002046650000011074777481818915502_" x="731.7" y="177.2" width="383.4" height="83.2"/>
					</defs>
					<clipPath id="SVGID_00000116230488343800395330000011670009948033770924_">
						<use xlink:href="#SVGID_00000057853845658002046650000011074777481818915502_"  style="overflow:visible;"/>
					</clipPath>
					<path style="clip-path:url(#SVGID_00000116230488343800395330000011670009948033770924_);fill:#D6002A;" d="M818.3,259
						l-3.8-4.3c-2.2,1.9-4.6,3.4-7.3,4.3c-2.6,0.9-5.4,1.4-8.2,1.4c-2.4,0-4.7-0.4-6.9-1.2c-2.2-0.8-4.1-1.9-5.8-3.3
						c-1.6-1.4-2.9-3.1-3.9-5.2c-1-2-1.5-4.4-1.5-6.9c0-3.4,0.9-6.3,2.7-8.7s4.1-4.5,7-6.3c-0.9-0.9-1.7-1.8-2.4-2.7
						s-1.3-1.8-1.8-2.7s-0.9-1.9-1.2-2.9s-0.4-2.2-0.4-3.5c0-2.1,0.4-4.1,1.2-5.8s1.9-3.1,3.2-4.3s2.9-2.1,4.7-2.7
						c1.8-0.6,3.7-0.9,5.8-0.9c2,0,3.9,0.3,5.7,0.9c1.8,0.6,3.4,1.5,4.8,2.6c1.4,1.2,2.5,2.6,3.3,4.2c0.8,1.7,1.2,3.6,1.2,5.7
						c0,1.8-0.3,3.4-0.8,4.8c-0.5,1.4-1.2,2.7-2.1,3.8c-0.9,1.1-2,2.2-3.3,3.2s-2.6,1.9-4.1,2.8l9.4,10.3c0.5-0.9,0.8-1.9,1-3
						c0.2-1.2,0.3-2.4,0.4-3.6c0.1-1.2,0.2-2.4,0.2-3.6v-3.1h14v7.6h-6.3c-0.1,2.1-0.4,4.3-0.8,6.4c-0.5,2.1-1.3,4-2.5,5.8
						l10.1,10.9C829.9,259,818.3,259,818.3,259z M796.2,234.9c-0.9,0.6-1.8,1.1-2.5,1.6c-0.8,0.5-1.4,1.1-2,1.8s-1,1.4-1.4,2.3
						s-0.5,1.8-0.5,3c0,1.4,0.3,2.6,0.8,3.7s1.3,2,2.1,2.7c0.9,0.7,1.9,1.2,3.1,1.6c1.2,0.4,2.4,0.5,3.7,0.5c1.6,0,3.3-0.2,4.9-0.7
						c1.6-0.5,3-1.4,4.2-2.7L796.2,234.9z M805.7,217.2c0-1.9-0.6-3.4-1.7-4.4c-1.1-1-2.6-1.5-4.3-1.5c-1.6,0-3,0.5-4.2,1.4
						s-1.8,2.4-1.8,4.3c0,0.9,0.2,1.7,0.5,2.5s0.7,1.5,1.2,2.2s1,1.3,1.6,2c0.6,0.6,1.2,1.2,1.8,1.8c0.8-0.5,1.6-0.9,2.5-1.4
						c0.8-0.5,1.6-1,2.3-1.7c0.7-0.6,1.2-1.3,1.6-2.1C805.5,219.3,805.7,218.3,805.7,217.2"/>
				</g>
			</g>
		</g>
		<g>
			<g>
				<g>
					<defs>
						<rect id="SVGID_00000003069276242381378850000012081305328497533096_" x="731.7" y="177.2" width="383.4" height="83.2"/>
					</defs>
					<clipPath id="SVGID_00000044168259780185423980000000689687673941622704_">
						<use xlink:href="#SVGID_00000003069276242381378850000012081305328497533096_"  style="overflow:visible;"/>
					</clipPath>
					<path style="clip-path:url(#SVGID_00000044168259780185423980000000689687673941622704_);fill:#D6002A;" d="M877.7,222
						c0,2.6-0.4,5-1.2,7.1s-2,4-3.6,5.5s-3.6,2.7-6,3.6c-2.4,0.8-5.2,1.3-8.3,1.3H847V259h-9.8v-54.4h21.3c3.1,0,5.9,0.4,8.3,1.3
						c2.4,0.8,4.4,2,6,3.5s2.8,3.3,3.6,5.5S877.7,219.4,877.7,222 M867.7,222.1c0-2.6-0.8-4.7-2.3-6.4c-1.5-1.6-4-2.5-7.3-2.5H847
						v17.6h11.1c3.3,0,5.8-0.8,7.3-2.4C866.9,226.8,867.7,224.7,867.7,222.1"/>
				</g>
			</g>
		</g>
		<g>
			<g>
				<g>
					<defs>
						<rect id="SVGID_00000179623360673670063350000009861143699339027640_" x="731.7" y="177.2" width="383.4" height="83.2"/>
					</defs>
					<clipPath id="SVGID_00000018946076363960107350000008915551800969128122_">
						<use xlink:href="#SVGID_00000179623360673670063350000009861143699339027640_"  style="overflow:visible;"/>
					</clipPath>
					<path style="clip-path:url(#SVGID_00000018946076363960107350000008915551800969128122_);fill:#D6002A;" d="M936,259l-1.2-6
						c-0.4,0.8-1,1.6-1.8,2.4s-1.8,1.6-3,2.3c-1.2,0.7-2.5,1.2-4,1.7c-1.5,0.4-3.1,0.6-4.8,0.6c-3.2,0-6.1-0.4-8.9-1.3
						c-2.7-0.9-5.2-2.5-7.3-4.8c-1.4-1.5-2.6-3-3.5-4.7c-0.9-1.6-1.6-3.4-2.1-5.2s-0.9-3.8-1.1-5.8c-0.2-2-0.3-4.2-0.3-6.4
						s0.1-4.3,0.3-6.3s0.5-3.9,1-5.7s1.2-3.5,2.1-5.1c0.9-1.6,2.1-3.2,3.6-4.7c2.1-2.1,4.6-3.7,7.5-4.8s5.8-1.6,8.7-1.6
						c3.4,0,6.4,0.6,9.2,1.7c2.8,1.1,5.1,2.6,6.9,4.5c1.3,1.4,2.5,3,3.4,4.7c0.9,1.8,1.5,3.9,1.6,6.3h-10.1c-0.1-1.1-0.4-2-0.8-2.8
						c-0.5-0.8-1-1.5-1.5-2.2c-1.9-2.2-4.8-3.3-8.7-3.3c-1.6,0-3.2,0.3-4.8,1c-1.6,0.6-3,1.5-4.1,2.7c-0.9,1-1.7,2.1-2.2,3.4
						c-0.6,1.3-1,2.6-1.3,4s-0.5,2.8-0.6,4.3c-0.1,1.4-0.1,2.8-0.1,4s0,2.6,0.2,4c0.1,1.5,0.3,2.9,0.6,4.3s0.7,2.8,1.3,4.1
						s1.3,2.4,2.2,3.4c1.1,1.2,2.4,2,4,2.6s3.2,0.8,4.8,0.8c1.8,0,3.4-0.3,4.7-0.8c1.4-0.6,2.5-1.3,3.4-2.3c1.5-1.5,2.4-3.2,2.9-4.9
						c0.4-1.7,0.6-3.6,0.6-5.7h-13v-8.2h22.6V259C942.4,259,936,259,936,259z"/>
				</g>
			</g>
		</g>
		<g>
			<g>
				<g>
					<defs>
						<rect id="SVGID_00000089539102038393509320000006092664803370888852_" x="731.7" y="177.2" width="383.4" height="83.2"/>
					</defs>
					<clipPath id="SVGID_00000160168525958246751730000002208562857351020188_">
						<use xlink:href="#SVGID_00000089539102038393509320000006092664803370888852_"  style="overflow:visible;"/>
					</clipPath>
					<path style="clip-path:url(#SVGID_00000160168525958246751730000002208562857351020188_);fill:#D6002A;" d="M966.4,258.9
						c-1,0.2-1.7,0.3-2.1,0.4s-1.1,0.1-2.1,0.1c-3.3,0-5.9-0.8-7.9-2.5s-3-4.4-3-8.2v-45.2h9.7v43.6c0,1.2,0.2,2.1,0.7,2.8
						s1.5,1,3.1,1c0.4,0,0.7,0,0.9,0c0.2,0,0.4,0,0.7,0C966.4,250.8,966.4,258.9,966.4,258.9z"/>
				</g>
			</g>
		</g>
		<g>
			<g>
				<g>
					<defs>
						<rect id="SVGID_00000165195852603507997830000008343309389032475280_" x="731.7" y="177.2" width="383.4" height="83.2"/>
					</defs>
					<clipPath id="SVGID_00000106827541150519071040000014602345619690572220_">
						<use xlink:href="#SVGID_00000165195852603507997830000008343309389032475280_"  style="overflow:visible;"/>
					</clipPath>
					<path style="clip-path:url(#SVGID_00000106827541150519071040000014602345619690572220_);fill:#D6002A;" d="M1007.2,239
						c0,3.4-0.4,6.2-1.2,8.5c-0.8,2.3-2,4.4-3.5,6.3c-1.4,1.7-3.3,3.1-5.7,4.4c-2.4,1.2-5.2,1.8-8.3,1.8c-3.1,0-5.8-0.6-8.2-1.8
						c-2.4-1.2-4.3-2.7-5.7-4.4c-1.5-1.9-2.6-4-3.5-6.3c-0.8-2.3-1.2-5.1-1.2-8.5s0.4-6.2,1.2-8.5c0.8-2.3,2-4.4,3.5-6.3
						c1.4-1.7,3.3-3.1,5.7-4.4c2.4-1.2,5.2-1.8,8.2-1.8c3.1,0,5.8,0.6,8.3,1.8c2.4,1.2,4.3,2.7,5.7,4.4c1.5,1.9,2.6,4,3.5,6.3
						C1006.7,232.8,1007.2,235.6,1007.2,239 M997.4,239c0-1.9-0.2-3.7-0.5-5.5c-0.4-1.8-1.1-3.3-2.3-4.6c-0.7-0.7-1.5-1.3-2.5-1.8
						s-2.2-0.7-3.5-0.7s-2.5,0.2-3.5,0.7s-1.9,1.1-2.5,1.8c-1.2,1.3-1.9,2.8-2.3,4.6s-0.5,3.6-0.5,5.5s0.2,3.7,0.5,5.5
						c0.4,1.8,1.1,3.3,2.3,4.6c0.7,0.7,1.5,1.3,2.5,1.8s2.2,0.7,3.5,0.7s2.5-0.2,3.5-0.7s1.9-1.1,2.5-1.8c1.2-1.3,1.9-2.8,2.3-4.6
						C997.2,242.7,997.4,240.9,997.4,239"/>
				</g>
			</g>
		</g>
		<g>
			<g>
				<g>
					<defs>
						<rect id="SVGID_00000008867143491055926400000002080890627608615346_" x="731.7" y="177.2" width="383.4" height="83.2"/>
					</defs>
					<clipPath id="SVGID_00000034805646280039616220000003468751631850655646_">
						<use xlink:href="#SVGID_00000008867143491055926400000002080890627608615346_"  style="overflow:visible;"/>
					</clipPath>
					<path style="clip-path:url(#SVGID_00000034805646280039616220000003468751631850655646_);fill:#D6002A;" d="M1051.4,239.1
						c0,3.8-0.6,7.2-1.8,10.1c-1.2,2.9-3,5.4-5.4,7.3c-1.2,1-2.6,1.8-4.3,2.5c-1.6,0.6-3.4,0.9-5.4,0.9c-2.2,0-4.3-0.4-6.4-1.3
						c-2-0.8-3.7-2.2-4.8-4l-0.6,4.4h-8.3v-55.4h9.6V222c0.9-1.1,2.3-2.1,4.1-2.8c1.8-0.7,3.9-1.1,6.3-1.1c2,0,3.9,0.3,5.5,0.8
						c1.6,0.6,3,1.4,4.3,2.4C1049.1,225.2,1051.4,231.2,1051.4,239.1 M1041.7,238.9c0-1.7-0.2-3.5-0.5-5.1c-0.3-1.7-1-3.2-2-4.5
						c-0.7-0.9-1.6-1.6-2.6-2.2c-1.1-0.6-2.3-0.9-3.8-0.9c-1.9,0-3.4,0.4-4.6,1.2s-2.1,1.8-2.8,3.1c-0.7,1.3-1.1,2.6-1.3,4.1
						c-0.2,1.5-0.3,3-0.3,4.4c0,1.9,0.2,3.9,0.7,5.9s1.4,3.7,2.8,5c0.7,0.6,1.5,1.1,2.4,1.5s2,0.5,3.2,0.5c1.5,0,2.7-0.3,3.8-0.9
						c1-0.6,1.9-1.4,2.6-2.2c1-1.3,1.7-2.9,2-4.6C1041.5,242.4,1041.7,240.7,1041.7,238.9"/>
				</g>
			</g>
		</g>
		<g>
			<g>
				<g>
					<defs>
						<rect id="SVGID_00000066493786273578134830000010643096231268445844_" x="731.7" y="177.2" width="383.4" height="83.2"/>
					</defs>
					<clipPath id="SVGID_00000078741437646416672040000008921918308532916135_">
						<use xlink:href="#SVGID_00000066493786273578134830000010643096231268445844_"  style="overflow:visible;"/>
					</clipPath>
					<path style="clip-path:url(#SVGID_00000078741437646416672040000008921918308532916135_);fill:#D6002A;" d="M1094,258.5
						c-0.8,0.4-1.5,0.6-2.1,0.8c-0.6,0.2-1.5,0.3-2.6,0.3c-2.1,0-3.7-0.6-4.8-1.7c-1.1-1.1-1.8-2.4-1.9-3.9c-0.9,1.6-2.5,3-4.6,4.2
						s-4.7,1.8-7.5,1.8c-2.4,0-4.5-0.3-6.3-1s-3.3-1.6-4.5-2.8c-1.2-1.2-2.1-2.5-2.7-4s-0.9-3.1-0.9-4.7c0-1.9,0.3-3.6,1-5.1
						s1.7-2.8,2.9-3.8c1.2-1.1,2.7-1.9,4.3-2.5c1.6-0.6,3.4-1,5.3-1.1l11.7-0.8v-2.5c0-1.9-0.4-3.4-1.3-4.6
						c-0.9-1.2-2.7-1.7-5.4-1.7c-2.3,0-4,0.5-5.3,1.5s-1.9,2.4-2,4.2h-9.3c0.2-2.3,0.7-4.2,1.6-5.8s2.1-3,3.6-4s3.2-1.8,5.1-2.3
						s4-0.8,6.3-0.8c3.4,0,6.5,0.6,9.2,1.8s4.6,3.3,5.8,6.3c0.5,1.3,0.8,2.6,1,4c0.1,1.4,0.2,2.7,0.2,4.1v14.8c0,0.9,0.2,1.6,0.5,2
						s0.9,0.6,1.7,0.6c0.4,0,0.7,0,0.8-0.1c0.2,0,0.3,0,0.4-0.1L1094,258.5L1094,258.5z M1081.2,241.2l-10.1,0.8
						c-1.5,0.1-2.8,0.6-4,1.5s-1.8,2.1-1.8,3.8c0,1.5,0.6,2.7,1.7,3.6s2.5,1.3,4,1.3c3,0,5.5-0.8,7.4-2.3c1.9-1.6,2.8-3.8,2.8-6.8
						V241.2z"/>
				</g>
			</g>
		</g>
		<g>
			<g>
				<g>
					<defs>
						<rect id="SVGID_00000119106071101629150560000003381613526284178063_" x="731.7" y="177.2" width="383.4" height="83.2"/>
					</defs>
					<clipPath id="SVGID_00000103237159664293804830000001573160432577151118_">
						<use xlink:href="#SVGID_00000119106071101629150560000003381613526284178063_"  style="overflow:visible;"/>
					</clipPath>
					<path style="clip-path:url(#SVGID_00000103237159664293804830000001573160432577151118_);fill:#D6002A;" d="M1115.1,258.9
						c-1,0.2-1.7,0.3-2.1,0.4s-1.1,0.1-2.1,0.1c-3.3,0-5.9-0.8-7.9-2.5s-3-4.4-3-8.2v-45.2h9.7v43.6c0,1.2,0.2,2.1,0.7,2.8
						s1.5,1,3.1,1c0.4,0,0.7,0,0.9,0c0.2,0,0.4,0,0.7,0L1115.1,258.9L1115.1,258.9z"/>
				</g>
			</g>
		</g>
		<g>
			<g>
				<g>
					<defs>
						<rect id="SVGID_00000090979286006136208220000017092699747142389421_" x="731.7" y="177.2" width="383.4" height="83.2"/>
					</defs>
					<clipPath id="SVGID_00000053508119252107490300000000568109434967010945_">
						<use xlink:href="#SVGID_00000090979286006136208220000017092699747142389421_"  style="overflow:visible;"/>
					</clipPath>
					
						<rect x="731.7" y="177.2" style="clip-path:url(#SVGID_00000053508119252107490300000000568109434967010945_);" width="383.4" height="8.8"/>
				</g>
			</g>
		</g>
	</g>
	<g>
		<path class="st10" d="M750.7,106.8h-11.9l-2.3,5.8H732L742.7,86h4.1l11,26.6H753L750.7,106.8z M740.4,102.9h8.8l-4.4-11.2
			L740.4,102.9z"/>
		<path class="st10" d="M779.6,102.8h-5v9.8h-4.4V86h10.4c5.1,0,8.9,3.5,8.9,8.4c0,3.6-2.2,6.5-5.4,7.7l6.1,10.5h-4.9L779.6,102.8z
			 M774.5,98.7h5.7c2.9,0,4.8-1.8,4.8-4.3s-1.9-4.3-4.8-4.3h-5.7V98.7z"/>
		<path class="st10" d="M814.5,92.1v20.5h-3.4l-0.4-2.5c-1.9,1.9-4.5,3-7.4,3c-6.1,0-10.7-4.6-10.7-10.8s4.6-10.7,10.7-10.7
			c3,0,5.6,1.1,7.5,3.1l0.5-2.6C811.3,92.1,814.5,92.1,814.5,92.1z M810.3,102.3c0-3.9-2.8-6.7-6.7-6.7s-6.7,2.9-6.7,6.7
			c0,3.8,2.9,6.7,6.7,6.7C807.4,109.1,810.3,106.2,810.3,102.3z"/>
		<path class="st10" d="M832,108.8v3.8h-3.1c-4.5,0-7.3-2.8-7.3-7.3v-9.6h-3.7v-0.8l7.1-7.6h0.7v4.8h6.1v3.6h-6.1v9.3
			c0,2.4,1.4,3.8,3.8,3.8C829.5,108.8,832,108.8,832,108.8z"/>
		<path class="st10" d="M836,84.6h4.4V89H836V84.6z M836.1,92.1h4.2v20.5h-4.2V92.1z"/>
		<path class="st10" d="M857.2,91.6c4.8,0,7.8,3.6,7.8,8.6v12.4h-4.2v-11.5c0-3.7-1.6-5.7-4.7-5.7c-3.2,0-5.5,2.6-5.5,6.2v11h-4.2
			V92.1h2.9l0.8,2.9C851.6,92.9,854.2,91.6,857.2,91.6L857.2,91.6z"/>
		<path class="st10" d="M890.3,92.1v17.8c0,6.5-3.9,10.5-10.2,10.5c-5.3,0-9-2.7-10-7.2h4.2c0.8,2.3,3.2,3.5,5.8,3.5
			c3.5,0,6.1-2.3,6.1-6.2v-0.9c-1.8,1.5-4.1,2.5-6.8,2.5c-5.7,0-10.1-4.4-10.1-10.2c0-5.7,4.4-10.2,10.1-10.2c3,0,5.6,1.2,7.5,3.1
			l0.7-2.6L890.3,92.1z M879.8,108.1c3.6,0,6.3-2.7,6.3-6.3c0-3.6-2.6-6.3-6.3-6.3s-6.3,2.7-6.3,6.3S876.2,108.1,879.8,108.1
			L879.8,108.1z"/>
		<path d="M769.6,131.6l-8.4,26.6h-2.9l-7.3-18.9l-7.1,18.9H741l-8.6-26.6h3.5l6.6,21.1l7.8-20.6h1.4l8,20.6l6.5-21.2L769.6,131.6
			L769.6,131.6z"/>
		<path d="M773.6,130.4h3.5v3.7h-3.5V130.4z M773.8,137.7h3.2v20.5h-3.2V137.7z"/>
		<path d="M794.2,155.2v3h-2.7c-4.4,0-7.1-2.7-7.1-7.2v-10.4h-3.6V140l6.3-6.7h0.5v4.3h6.4v2.9h-6.4v10.3c0,2.8,1.5,4.3,4.3,4.3
			L794.2,155.2L794.2,155.2z"/>
		<path d="M816.7,145.9v12.3h-3.2v-11.5c0-4.2-2-6.5-5.5-6.5s-6.2,3-6.2,6.8v11.2h-3.2v-27.8h3.2v10.1c1.6-2,4.1-3.2,7-3.2
			C813.7,137.2,816.7,140.6,816.7,145.9z"/>
		<path d="M831.4,150h3.4c0,3.3,2.7,5.3,6.4,5.3c3.3,0,6-1.8,6-4.6c0-3.1-3.2-3.8-6.6-4.6c-4.1-1-8.6-2.1-8.6-7.4
			c0-4.6,3.5-7.4,9.1-7.4c5.5,0,8.9,3.1,8.9,7.9h-3.3c0-3-2.4-4.7-5.7-4.7c-3.2,0-5.6,1.5-5.6,4.1c0,2.9,3.1,3.7,6.5,4.5
			c4.2,1,8.9,2.1,8.9,7.7c0,5-4.1,7.9-9.4,7.9C835.3,158.6,831.4,155.3,831.4,150z"/>
		<path d="M866.3,155.2v3h-2.7c-4.4,0-7.1-2.7-7.1-7.2v-10.4h-3.6V140l6.3-6.7h0.5v4.3h6.4v2.9h-6.4v10.3c0,2.8,1.5,4.3,4.3,4.3
			L866.3,155.2L866.3,155.2z"/>
		<path d="M890.4,137.7v20.5h-2.7l-0.3-3.1c-1.9,2.2-4.7,3.6-8.1,3.6c-6.1,0-10.6-4.6-10.6-10.7c0-6.1,4.6-10.7,10.6-10.7
			c3.4,0,6.2,1.4,8.1,3.6l0.4-3.1h2.6V137.7z M887.1,148c0-4.4-3.2-7.6-7.5-7.6s-7.6,3.3-7.6,7.6s3.2,7.6,7.6,7.6
			C883.9,155.5,887.1,152.3,887.1,148z"/>
		<path d="M907.7,137.2c6.2,0,10.6,4.6,10.6,10.7c0,6.1-4.4,10.7-10.6,10.7c-3.2,0-6-1.3-7.9-3.4l-0.4,2.9h-2.5v-27.8h3.2v9.9
			C902,138.4,904.7,137.2,907.7,137.2L907.7,137.2z M915,148c0-4.4-3.2-7.6-7.5-7.6s-7.6,3.3-7.6,7.6s3.2,7.6,7.6,7.6
			C911.8,155.5,915,152.3,915,148z"/>
		<path d="M923.2,130.4h3.2v27.8h-3.2V130.4z"/>
		<path d="M952.1,149.2h-17.5c0.5,3.8,3.3,6.3,7.2,6.3c2.8,0,5.1-1.3,6.4-3.5h3.4c-1.7,4.2-5.3,6.7-9.8,6.7c-6,0-10.5-4.6-10.5-10.7
			c0-6.1,4.5-10.7,10.5-10.7c6.2,0,10.3,4.8,10.3,10.8C952.1,148.4,952.1,148.8,952.1,149.2z M934.6,146.2h14.2
			c-0.7-3.7-3.5-5.9-7.1-5.9C938.1,140.3,935.3,142.7,934.6,146.2z"/>
		<path d="M965.5,144.9c0-7.9,5.9-13.8,13.9-13.8s13.9,5.9,13.9,13.8c0,7.9-5.9,13.7-13.9,13.7C971.3,158.7,965.5,152.8,965.5,144.9
			z M989.9,144.9c0-6-4.5-10.5-10.5-10.5s-10.5,4.5-10.5,10.5s4.5,10.5,10.5,10.5S989.9,150.9,989.9,144.9z"/>
		<path d="M998.1,149.6v-11.9h3.2V149c0,4,2.2,6.5,5.9,6.5c3.7,0,5.9-2.5,5.9-6.5v-11.3h3.2v11.9c0,5.5-3.5,9.1-9.1,9.1
			S998.1,155.1,998.1,149.6z"/>
		<path d="M1033.2,155.2v3h-2.7c-4.4,0-7.1-2.7-7.1-7.2v-10.4h-3.6V140l6.3-6.7h0.5v4.3h6.4v2.9h-6.4v10.3c0,2.8,1.5,4.3,4.3,4.3
			L1033.2,155.2L1033.2,155.2z"/>
		<path d="M1037.5,130.4h3.2v27.8h-3.2V130.4z"/>
		<path d="M1045.6,148c0-6.2,4.7-10.7,10.9-10.7c6.2,0,10.9,4.6,10.9,10.7c0,6.1-4.7,10.7-10.9,10.7
			C1050.2,158.7,1045.6,154.1,1045.6,148z M1056.5,155.5c4.4,0,7.6-3.2,7.6-7.6c0-4.4-3.2-7.6-7.6-7.6s-7.6,3.2-7.6,7.6
			S1052.1,155.5,1056.5,155.5L1056.5,155.5z"/>
		<path d="M1070.6,148c0-6.2,4.7-10.7,10.9-10.7c6.2,0,10.9,4.6,10.9,10.7c0,6.1-4.7,10.7-10.9,10.7
			C1075.3,158.7,1070.6,154.1,1070.6,148z M1081.5,155.5c4.4,0,7.6-3.2,7.6-7.6c0-4.4-3.2-7.6-7.6-7.6s-7.6,3.2-7.6,7.6
			S1077.1,155.5,1081.5,155.5L1081.5,155.5z"/>
		<path d="M1103.8,149h-2.9v9.2h-3.2v-27.8h3.2V146h3l6.3-8.3h3.9l-7.5,9.8l8.2,10.7h-4L1103.8,149z"/>
	</g>
</g>
<text transform="matrix(1 0 0 1 -12.6338 -146.9282)" class="st10" style="font-family:'Mont-SemiBold'; font-size:38px;">A Rating</text>
<text transform="matrix(1 0 0 1 -12.6338 -101.3282)" style="font-family:'Mont-Regular'; font-size:38px;">With Stable Outlook</text>
</svg>
