<?xml version="1.0" encoding="utf-8"?>
<!-- Generator: Adobe Illustrator 26.5.0, SVG Export Plug-In . SVG Version: 6.00 Build 0)  -->
<svg version="1.1" id="Layer_1" xmlns="http://www.w3.org/2000/svg" xmlns:xlink="http://www.w3.org/1999/xlink" x="0px" y="0px"
	 viewBox="0 0 128 128" style="enable-background:new 0 0 128 128;" xml:space="preserve">
<style type="text/css">
	.st0{fill:#00B900;}
</style>
<path class="st0" d="M68.4,122.6c-3.1,0-6.1,0-9.2,0c-1.2-0.5-2.6-0.4-3.9-0.6c-14.9-2.3-27.2-9.2-36.6-20.9
	C6.9,86.5,3,69.8,6.8,51.5C11.9,27,33.3,7.9,58.3,5.7c12.5-1.1,24.3,1.2,35.1,7.7c16,9.6,25.6,23.6,28.6,42.1c0.2,1.3,0.1,2.7,0.6,4
	c0,3.1,0,6.1,0,9.2c-0.4,1.1-0.4,2.2-0.5,3.3c-1.6,11.5-6.2,21.8-13.9,30.5c-9.5,10.8-21.4,17.4-35.6,19.6
	C71.2,122.2,69.7,122.1,68.4,122.6z M104.6,45.3c-0.1-2.8-1.6-5.3-4.6-6.6c-3.1-1.3-6-0.8-8.5,1.4c-4.6,4.2-9.1,8.4-13.7,12.7
	c-8.2,7.7-16.4,15.3-24.6,23c-0.7,0.7-1.1,0.7-1.8,0c-5.1-5.5-10.2-10.9-15.3-16.4c-1.9-2-4.1-3.1-6.8-2.8c-3.2,0.3-5.5,2.1-6.6,5.1
	c-1.1,3.1-0.4,5.9,1.8,8.2C33.2,79.2,42,88.6,50.7,98c0.6,0.7,0.9,0.6,1.6,0c6.2-5.8,12.5-11.6,18.7-17.5
	c10.3-9.6,20.5-19.2,30.8-28.7C103.6,50.2,104.5,48.2,104.6,45.3z"/>
</svg>
