<?xml version="1.0" encoding="utf-8"?>
<!-- Generator: Adobe Illustrator 26.5.0, SVG Export Plug-In . SVG Version: 6.00 Build 0)  -->
<svg version="1.1" id="Layer_1" xmlns="http://www.w3.org/2000/svg" xmlns:xlink="http://www.w3.org/1999/xlink" x="0px" y="0px"
	 viewBox="0 0 490 345" style="enable-background:new 0 0 490 345;" xml:space="preserve">
<style type="text/css">
	.st0{fill:#002676;}
	.st1{fill:#002675;}
</style>
<g>
	<g id="layer1" transform="translate(67.908971,22.88072)">
		<g id="g1466" transform="translate(0.13229228,-0.13229114)">
			<path id="path1054" class="st0" d="M284.8,174.6c3.8,0,5.3-1.7,5.3-5c0-3.5-1.8-5.1-5.2-5.1h-5v25.4c0,0.8-0.6,1.4-1.4,1.4h-3.1
				c-0.8,0-1.4-0.7-1.4-1.4v-27.4c0-0.8,0.7-1.5,1.4-1.5h10.2c6.3,0,10.1,2.8,10.1,8.6c0,4.5-2.9,6.7-6.2,7.6l6.6,12.3
				c0.1,0.3,0.3,0.5,0.3,0.8c0,0.5-0.3,1-0.8,1h-3.8c-0.4,0-0.9-0.4-1.1-0.8l-7-13.7c-0.2-0.3-0.5-0.9-0.5-1.4c0-0.5,0.2-0.8,1-0.8
				L284.8,174.6z"/>
			<path id="path1058" class="st0" d="M313.9,163.8c-6.3,0-7.4,5.7-7.4,12.4c0,6.8,1.1,12.4,7.3,12.4c6,0,7.5-5.4,7.5-12.4
				C321.2,169.4,320.1,163.8,313.9,163.8 M313.9,192c-5.9,0-13.3-2-13.3-15.8c0-13.7,7.4-15.8,13.3-15.8c5.9,0,13.3,2.1,13.3,15.8
				C327.2,189.7,319.9,192,313.9,192"/>
			<path id="path1062" class="st0" d="M344.4,192c-8.1,0-11.5-4.6-11.5-10.1v-19.4c0-0.8,0.7-1.5,1.4-1.5h3.1c0.8,0,1.5,0.7,1.5,1.5
				v19.7c0,5,2.4,6.4,5.8,6.4c4.4,0,5.8-2.6,5.8-6.4v-19.7c0-0.8,0.7-1.5,1.4-1.5h2.5c0.8,0,1.4,0.7,1.4,1.5v19.4
				C355.8,188.3,351.8,192,344.4,192"/>
			<path id="path1066" class="st0" d="M371.7,176.2h1.5c3.1,0,5.5-1.6,5.5-5.7c0-4.5-2.3-6-5.6-6h-4.7v25.4c0,0.8-0.6,1.4-1.4,1.4
				h-3c-0.8,0-1.4-0.7-1.4-1.4v-27.4c0-0.8,0.6-1.5,1.4-1.5H375c5.9,0,9.3,3.6,9.3,9.5c0,5.3-3.1,8.9-9.3,8.9
				c-1.2,0-2.3-0.1-3.1-0.2c-1.2-0.2-1.8-0.9-1.8-1.6C370.1,176.9,370.6,176.2,371.7,176.2"/>
			<path id="path1070" class="st0" d="M225.2,191.3h-2.9c-0.8,0-1.5-0.7-1.5-1.5v-12.1h-11.7v12.1c0,0.8-0.7,1.5-1.5,1.5h-2.9
				c-0.8,0-1.5-0.7-1.5-1.5v-27.4c0-0.8,0.7-1.5,1.4-1.5h3c0.8,0,1.4,0.7,1.4,1.5v11h11.7v-11c0-0.8,0.7-1.5,1.4-1.5h3
				c0.8,0,1.4,0.7,1.4,1.5v27.4C226.6,190.7,226,191.3,225.2,191.3"/>
			<path id="path1074" class="st0" d="M80.4,142.3c-9.3,0-12.6-5.2-12.6-11.5v-21.7c0-0.9,0.8-1.7,1.7-1.7h2.6
				c0.9,0,1.7,0.8,1.7,1.7v22.3c0,5.6,3.1,7.2,6.8,7.2c4.9,0,6.8-2.5,6.8-7.2v-22.3c0-0.9,0.8-1.7,1.7-1.7h2.3
				c0.9,0,1.7,0.8,1.7,1.7v21.7C93,138,88.6,142.3,80.4,142.3"/>
			<path id="path1078" class="st0" d="M209.7,114.9h-5.2v23.3h5.2c6.8,0,8.5-5.2,8.5-11.5C218.2,120.5,216.6,114.9,209.7,114.9
				 M211.1,141.7h-11c-0.8,0-1.4-0.7-1.4-1.5v-27.4c0-0.8,0.7-1.5,1.4-1.5h11c7.2,0,12.9,3.9,12.9,15.4
				C224,138.4,217.9,141.7,211.1,141.7"/>
			<path id="path1082" class="st0" d="M91.9,191.3h-2.6c-0.9,0-1.7-0.7-1.7-1.7v-13.9H73.7v13.9c0,0.9-0.7,1.7-1.7,1.7h-2.6
				c-0.9,0-1.7-0.7-1.7-1.7v-30.8c0-0.9,0.7-1.7,1.6-1.7h2.7c0.9,0,1.6,0.8,1.6,1.7v12.5h13.9v-12.5c0-0.9,0.7-1.7,1.6-1.7h2.7
				c0.9,0,1.6,0.8,1.6,1.7v30.8C93.6,190.6,92.8,191.3,91.9,191.3"/>
			<path id="path1086" class="st0" d="M173.5,191.3h-14.7c-0.8,0-1.5-0.7-1.5-1.5v-27.4c0-0.8,0.7-1.5,1.4-1.5h3.1
				c0.8,0,1.4,0.7,1.4,1.5v24.6h10.2c0.8,0,1.4,0.7,1.4,1.5v1.3C175,190.7,174.3,191.3,173.5,191.3"/>
			<path id="path1090" class="st0" d="M138.7,141.7h-3c-0.8,0-1.5-0.7-1.5-1.5v-27.3c0-0.8,0.7-1.5,1.4-1.5h3.1
				c0.8,0,1.4,0.7,1.4,1.5v27.3C140.2,141.1,139.5,141.7,138.7,141.7"/>
			<path id="path1094" class="st0" d="M166.8,115.7h-6.9v24.6c0,0.8-0.7,1.5-1.5,1.5h-3c-0.8,0-1.5-0.7-1.5-1.5v-24.6h-7
				c-0.8,0-1.4-0.6-1.4-1.4v-1.4c0-0.8,0.7-1.5,1.4-1.5h19.8c0.8,0,1.4,0.7,1.4,1.5v1.4C168.2,115,167.6,115.7,166.8,115.7"/>
			<path id="path1098" class="st0" d="M196.4,165.3H189v24.6c0,0.8-0.7,1.5-1.5,1.5h-3c-0.8,0-1.5-0.7-1.5-1.5v-24.6h-7.4
				c-0.8,0-1.4-0.6-1.4-1.4v-1.4c0-0.8,0.7-1.5,1.4-1.5h20.7c0.8,0,1.4,0.7,1.4,1.5v1.4C197.8,164.6,197.1,165.3,196.4,165.3"/>
			<path id="path1102" class="st0" d="M192,141.7h-17.1c-0.8,0-1.4-0.5-1.4-1.3v-27.6c0-0.8,0.7-1.5,1.4-1.5h16.5
				c0.8,0,1.4,0.7,1.4,1.5v1.2c0,0.8-0.7,1.4-1.4,1.4h-12v8.4h10.8c0.8,0,1.4,0.7,1.4,1.5v1.2c0,0.8-0.7,1.4-1.4,1.4h-10.8v9.5
				l12.6,0c0.8,0,1.4,0.7,1.4,1.5v1.4C193.4,141.2,192.8,141.7,192,141.7"/>
			<path id="path1106" class="st0" d="M120.1,191.3h-17.1c-0.8,0-1.4-0.5-1.4-1.3v-27.6c0-0.8,0.7-1.5,1.4-1.5h16.5
				c0.8,0,1.4,0.7,1.4,1.5v1.2c0,0.8-0.7,1.4-1.4,1.4h-12v8.4h10.8c0.8,0,1.4,0.7,1.4,1.5v1.2c0,0.8-0.7,1.4-1.4,1.4h-10.8v9.5
				l12.6,0c0.8,0,1.4,0.7,1.4,1.5v1.4C121.5,190.8,120.8,191.3,120.1,191.3"/>
			<path id="path1110" class="st0" d="M123.7,141.7h-4.5c-1.4,0-2-0.6-2.4-1.4c-2.2-4.7-10.8-24.1-10.8-24.1v24
				c0,0.8-0.7,1.5-1.4,1.5h-2c-0.8,0-1.4-0.7-1.4-1.5v-27.4c0-0.8,0.7-1.5,1.4-1.5h4.4c1.3,0,2.1,0.4,2.5,1.4
				c2.3,5.1,10.8,23.9,10.8,23.9v-23.9c0-0.8,0.7-1.5,1.4-1.5h2c0.8,0,1.4,0.7,1.4,1.5v27.4C125.1,141.1,124.5,141.7,123.7,141.7"/>
			<path id="path1114" class="st0" d="M265.8,190.4c-1.6,0.7-4.1,1.7-9.3,1.7c-8.6,0-16.2-3.6-16.2-17.8c0-11.2,4.7-17.8,16.2-17.8
				c5.3,0,8.2,1.4,8.9,1.7c1.1,0.4,1.1,0.7,1.1,1.2c0,0.2-0.1,1-0.2,1.1c-0.2,0.9-0.4,2.3-0.5,3c-0.1,0.4-0.1,1-0.8,1
				c-0.5,0-1-0.6-1.3-0.9c-0.5-0.5-3-3.1-7.3-3.1c-8.2,0-9.5,7.8-9.5,13.8c0,8.2,2.7,13.8,9.5,13.8c2.6,0,4-0.4,4.4-0.5v-11.3
				c0-0.7,0.4-0.9,1.1-0.9h3.8c0.8,0,1.1,0.3,1.1,1v12.3C266.9,189.8,266.8,189.9,265.8,190.4"/>
			<path id="path1118" class="st0" d="M134,180.5l4.5-15l4.3,15H134z M151.7,189.4l-8.7-27c-0.3-0.9-1-1.4-2.1-1.4H137
				c-1.1,0-1.7,0.5-2,1.4l-8.7,27.2c-0.1,0.3-0.2,0.4-0.2,0.7c0,0.6,0.5,1.1,1.1,1.1h2c1,0,1.8-0.5,2.1-1.4l1.7-5.7H144l1.8,5.7
				c0.3,0.8,0.8,1.4,2.2,1.4h2.9c0.7,0,1.1-0.4,1.1-1.1C151.9,189.9,151.8,189.7,151.7,189.4"/>
			<path id="path1122" class="st0" d="M390.5,164.4h1c0.6,0,1.1-0.1,1.1-0.8c0-0.6-0.5-0.7-1.1-0.7h-1V164.4z M389.6,162.1h2
				c1.2,0,1.8,0.5,1.8,1.4c0,0.8-0.5,1.4-1.3,1.4l1.5,2.3h-0.9l-1.4-2.3h-0.7v2.3h-0.8L389.6,162.1z M391.3,168.4
				c2,0,3.5-1.6,3.5-3.7c0-2.1-1.5-3.7-3.5-3.7c-2,0-3.5,1.6-3.5,3.7C387.8,166.8,389.3,168.4,391.3,168.4 M391.3,160.3
				c2.4,0,4.4,2,4.4,4.4c0,2.4-2,4.4-4.4,4.4c-2.4,0-4.4-2-4.4-4.4C386.9,162.3,388.9,160.3,391.3,160.3"/>
		</g>
	</g>
	<g>
		<path d="M40.5,228.4c0,0.3,0.2,0.4,0.4,0.5c9.9,6.6,20.4,8.2,31.6,3.9c8-3.1,13.1-9.1,16.4-16.8c2.8-6.7,3.8-13.8,3.8-21
			c0-28.4,0-56.8,0-85.3c0-0.2,0-0.5,0-0.7c0-0.7-0.2-0.8-0.8-0.5c-1.8,0.9-3.7,1.8-5.6,2.6c-1.4,0.5-1.8,1.3-1.8,2.8
			c0,27.3,0,54.7,0,82c0,5.4-0.8,10.8-2.6,15.9c-3.2,9.1-9,15.4-18.5,17.9c-6.2,1.7-12.5,1.4-18.7-0.2
			C43.3,229.2,41.9,228.8,40.5,228.4z M34.4,220.2c0.2,0.3,0.3,0.4,0.3,0.4c8.1,5.7,16.9,7.3,26.3,3.9c6.6-2.4,10.6-7.5,13-13.8
			c2.1-5.5,2.8-11.2,2.8-17c0-25.6,0-51.2,0-76.8c0-0.2,0-0.5,0-0.7c0.1-0.8-0.3-0.9-0.9-0.5c-1.8,0.9-3.5,1.8-5.4,2.5
			c-1.3,0.5-1.7,1.3-1.7,2.7c0.1,24.8,0,49.6,0,74.4c0,4.9-0.6,9.8-2.4,14.5c-2.4,6.2-6.8,10.2-13.4,11.8c-4.1,1-8.2,1-12.4,0.2
			C38.7,221.3,36.7,220.7,34.4,220.2z"/>
		<path class="st0" d="M26.3,137.8c3.8-1.7,7.5-3.3,11.3-5c7.6-3.4,15.2-6.9,22.8-10.3c1.1-0.5,1.1-0.5,1.1,0.7
			c0,24.7,0,49.4,0,74.2c0,4-0.8,8-2.7,11.6c-2.5,4.8-6.5,7.6-11.9,8.3c-5.5,0.7-10.5-0.5-14.7-4.3c-3.3-3-4.9-6.9-5.6-11.3
			c-0.1-0.3,0-0.8-0.4-1C26.3,179.7,26.3,158.7,26.3,137.8z"/>
		<path class="st1" d="M65.9,243.7c-0.1-0.5-0.5-0.4-0.8-0.4c-5.2-0.8-10-2.6-14.5-5.3c-0.2-0.1-0.5-0.3-0.7-0.4c0,0,0-0.1-0.1-0.3
			c2.1,0.6,4.1,1.2,6.2,1.5c6.9,1.1,13.8,0.9,20.4-1.5c9.3-3.3,15.5-9.9,19.4-18.8c3-6.8,4.2-13.9,4.4-21.2c0.1-1.6,0.1-3.1,0.1-4.7
			c0-28.6,0-57.2,0-85.9c0-1.2,0.3-1.9,1.5-2.4c1.8-0.7,3.6-1.7,5.4-2.5c0.3-0.1,0.8-0.1,0.8-0.7c0.2,0,0.5,0,0.7,0
			c0,0.5-0.1,1.1-0.1,1.6c0,31.1,0,62.2,0,93.3c0,6.6-0.8,13-2.7,19.4c-1.8,5.9-4.4,11.4-8.4,16.1c-5.5,6.5-12.6,10.3-21,11.7
			c-0.3,0-0.7-0.1-0.8,0.4C72.4,243.7,69.1,243.7,65.9,243.7z"/>
		<path class="st1" d="M40.5,228.4c1.4,0.4,2.8,0.8,4.2,1.2c6.2,1.6,12.4,1.9,18.7,0.2c9.5-2.5,15.3-8.8,18.5-17.9
			c1.8-5.2,2.6-10.5,2.6-15.9c0.1-27.3,0.1-54.7,0-82c0-1.5,0.4-2.2,1.8-2.8c1.9-0.7,3.7-1.7,5.6-2.6c0.6-0.3,0.9-0.2,0.8,0.5
			c0,0.2,0,0.5,0,0.7c0,28.4,0,56.8,0,85.3c0,7.2-1,14.3-3.8,21c-3.3,7.7-8.4,13.7-16.4,16.8c-11.2,4.3-21.7,2.7-31.6-3.9
			C40.7,228.8,40.5,228.7,40.5,228.4z"/>
		<path class="st1" d="M34.4,220.2c2.3,0.6,4.2,1.1,6.3,1.5c4.1,0.7,8.3,0.7,12.4-0.2c6.6-1.5,11-5.5,13.4-11.8
			c1.8-4.7,2.4-9.5,2.4-14.5c0-24.8,0-49.6,0-74.4c0-1.4,0.4-2.2,1.7-2.7c1.8-0.7,3.6-1.7,5.4-2.5c0.6-0.3,1-0.3,0.9,0.5
			c0,0.2,0,0.5,0,0.7c0,25.6,0,51.2,0,76.8c0,5.8-0.7,11.5-2.8,17c-2.4,6.4-6.4,11.5-13,13.8c-9.4,3.4-18.2,1.9-26.3-3.9
			C34.7,220.5,34.7,220.4,34.4,220.2z"/>
	</g>
</g>
</svg>
