<?xml version="1.0" encoding="utf-8"?>
<!-- Generator: Adobe Illustrator 27.0.0, SVG Export Plug-In . SVG Version: 6.00 Build 0)  -->
<svg version="1.1" id="Layer_1" xmlns="http://www.w3.org/2000/svg" xmlns:xlink="http://www.w3.org/1999/xlink" x="0px" y="0px"
	 viewBox="0 0 1920 423.3" style="enable-background:new 0 0 1920 423.3;" xml:space="preserve">
<style type="text/css">
	.st0{fill:#D2284E;}
	.st1{fill:#B01E36;}
	.st2{fill:#EA5674;}
	.st3{fill:#F0869A;}
	.st4{fill:#F6A8B5;}
	.st5{fill:#F9D1DC;}
	.st6{opacity:0.7;fill:#B4975A;enable-background:new    ;}
	.st7{fill:#FFFFFF;}
</style>
<rect x="448.9" y="-473.5" class="st0" width="161.5" height="161.5"/>
<rect x="448.4" y="-889.9" class="st1" width="317.6" height="317.6"/>
<rect x="625.7" y="-473.5" class="st2" width="161.5" height="161.5"/>
<rect x="800" y="-473.5" class="st3" width="161.5" height="161.5"/>
<rect x="976.8" y="-473.5" class="st4" width="161.5" height="161.5"/>
<rect x="1150.6" y="-473.1" class="st5" width="161.5" height="161.5"/>
<path class="st6" d="M999.5,108c1.3,0,1.5,0.5,2.6,0c1.2-0.5,4.5-2.7,5.6-3c1.2-0.3,1.9,0.1,0.2,1s-5.1,3-4.5,2.8
	c0.6-0.2,2.3-0.8,4.7-2c2.4-1.1,2.2-0.7,2.8-1.9c0.6-1.2,0.9-1.9,0.9-1.9s3.8,3.9,4.1,4c0.3,0.2,0.5,0,0.7-0.5
	c0.2-0.5,0.6-1.2,1.2-0.9c0.5,0.3,0.1,1.2,0.4,1.3c0.3,0.2,0.8,0,1.9-0.3s0.5-1.1,0.5-1.1s-0.1,0,1.1-0.2c1.2-0.2,4.8,1.3,5.9,1.7
	c1.1,0.4,4.4,0.8,5.3,1.1c0.9,0.3,1.3-0.5,2.5,0.2c1.3,0.7,2.2,1.6,1.3,2.1c-0.9,0.5-3.4,0.8-2.1,1.1c1.2,0.3,3,0.7,4.8,0.7
	c1.8-0.1,4.9-0.7,5.9-0.7c1,0,1.6,0.6,2.5,2.1c0.9,1.5,1.7,2.1,2,2.3c0.3,0.2-0.3-0.8-0.2-1.5c0.2-0.8-0.2-2.3-0.4-2.8
	c-0.3-0.5,0-0.8-0.4-1.5s-1.2-0.6,0.2-1.3c1.3-0.7,2.2-1.6,3.8-1.3c1.6,0.2,2,2.2,3.4,2.4c1.3,0.2,1.6,0.7,4,0.8s1.3,0,4,0.2
	c2.6,0.2,1.7-0.3,2.2-1.6c0.5-1.3,1.2-1.6,1.8-1.5c0.6,0.1,2.8,0.3,2.8,0.7c0,0.3-0.9,1.7-0.5,2.4c0.5,0.7,2.4,1.9,2.4,1.9
	s-0.4-1.6-0.4-1.8s-0.2-1.4,0.2-1.7c0.3-0.3,1.9,0.2,2.8-1.8c1-1.9-0.7-1.8-0.7-1.8s-0.6,0-0.3-0.8c0.3-0.8,2-1.3,2-1.3
	s0.1,0.3-0.1-0.3c-0.3-0.6-1.3-0.5-2.6-0.6c-1.2-0.1-2-0.3-2.3-1.3c-0.3-1-0.3-3.2-0.3-4.7s1.2-0.9,1.4-1.8c0.3-0.8-0.1-4.9-0.3-5.7
	c-0.3-0.8,0.4-2.6,0.6-3.8s1.3-0.7,1.3-0.7c-0.3-0.4,0.3-1.5,1.9-2c1.6-0.5,4.7,0,4.7,0s-0.3,0-1,1c-0.8,1-0.3,2.7-1.4,4
	c-1.1,1.3-4,0.8-4,0.8s0.9,2,0.5,2.7s-0.6,2-0.6,2s2.5,0.7,2.7,2.4s1.4,1.9,1.7,3.4c0.3,1.5-1.3,2.7-0.9,3c0.3,0.3,0.4,0.3,1.3,0.4
	c0.9,0.1,2.2,0.3,2.2,0.3s-0.5,0.8-0.1,1.6c0.5,0.8,0.1,1.3,0.2,2.2c0.1,0.8,0.6,1.6,0.8,1.4c0.3-0.2,1.2-2.4,1.4-3.3
	c0.3-1,0.4-1.5,0.8-1.5s1.9,1.3,2,1.9c0.2,0.5,0.3,1.1-0.5,2.4c-0.8,1.3-0.8,1.9,0,2.4c0.7,0.5,0.8,0.3,2,0.9s1,0.6,1.9,0.3
	c0.8-0.3-0.3-2.2-0.3-2.3c0.1-0.1,1.9-0.3,1.4-1.3s-0.8-1.5,0-2c0.8-0.5,1.4-0.9,1.4-0.9c-0.3-0.7-0.5-0.7-1.1-2.4
	c-0.6-1.7,0.5-1.3,2.9-1.1c2.4,0.2,2.4,1,3.7,1.6c1.3,0.7,0.4,0.8,0.8,1.9s-1,1.2-1,1.2s-0.9,0.2-0.8,0.9c0.2,0.8,0.7,1.7,1.3,3
	c0.7,1.2-0.2,2-1.3,3s-2.3,1.3-3.5,1.3c-1.3,0-1.8,0.5-1.9,0.2c-0.1-0.3-0.7-0.7-1.3-0.5c-0.7,0.2-2.2,0.8-1.7,0.9
	c0.5,0.2,1.9,0.2,1.3,1.3s-1.1,1.1-2.3,1c-1.2-0.1-2.3-0.2-3-0.2c-0.8-0.1-4.5-0.3-4.5-0.3s2.5,1.5,4.6,2.2c2,0.7,4.1,0.3,4.1,0.3
	s-0.8,1.5-1.8,3.1c-1,1.6-1.9,0.9-2.7,1c-0.8,0.1-1.3,0.8-2.8,0.9c-1.5,0.2-4.7-0.4-4.2-0.2c0.5,0.3,0.7,0.7,1.6,0.8
	c0.8,0.2,1.4,0.3,2.2,0.9c0.8,0.7-0.5,0.8-1.5,0.9c-1,0.2-1.3,0.3-1.8,1c-0.4,0.7-2.2,3.1-2.7,3.8c-0.5,0.8-1,2-1.3,3.5
	s-1.5,3.3-0.9,3.6c0.6,0.4,2.7,0.4,3.6,1s1.9,3.3,2.6,4.3c0.7,1,1.2,1.9,1.9,1c0.8-0.8,2.3-0.6,3.6-0.1c1.3,0.5,4.3,2.5,5.1,3.4
	c0.9,0.8,2.4,0.8,4.2,1c1.8,0.3,1.9,0.9,1.9,0.9s1.9,0.1,1.1,0.8c-0.8,0.8-1,0-0.3,1.3c0.8,1.3,0.8,3,0.5,4
	c-0.3,0.8,2.4,0.4,3.5,1.1s1.2,3.3,1.8,3c0.6-0.3,1.5-0.9,1.6-1.6c0.1-0.7,0-1.6-0.2-2.9s-0.4-3.5-1-4.3c-0.6-0.9,1.1-1.3,0.8-1.6
	c-0.3-0.4-0.2-1.1,0.9-1.4c1.2-0.3,1.2,0,1.9-0.5c0.6-0.5,0.8-2.7,0.8-3.5c0.1-0.8-0.2-2.5-0.4-3.2s-1.3-2.8-1.8-3.2
	c-0.4-0.4-0.9-0.6,0.2-2c1.1-1.4,0.4-1.1,0.3-1.5c-0.2-0.4-0.4-1.5-0.6-2.4c-0.3-0.9,0.4-2,0.1-3.4c-0.4-1.3-0.8-1.1-0.8-1.3
	c0.1-0.3,2.6-0.3,4.6,0c1.9,0.2,2.7-0.2,3.2-0.2s1.5,0.5,2.6,1.2c1.1,0.7,1.4,0.5,2,1.3c0.5,0.8,0.8,1.3,1.9,1.3
	c1.1-0.1,2.3,0.5,2.3,0.5s-0.8,0.4-0.7,1.9c0.2,1.5-0.2,2.6-0.2,3.2s0.3,0.7,0.8,0.7c0.5,0.1,1.9,1.3,3.3,1.9
	c1.4,0.5,1.9,0.3,2.3-0.8c0.5-1.2,0.6-1.1,1.2-1.1c0.6-0.1,0.8,0.2,1-0.2c0.3-0.3-0.4-0.8-0.3-1.6c0.2-0.8,0.9-1.9,1.6-2.4
	s1.1,0.6,1.7,1.7c0.6,1.1,2.5,4.7,3.1,5.9s1.3,1.3,0.6,2.4c-0.7,1.1-1,1.6,0.1,2.1c1.1,0.5,2,1.3,1.9,2.2c-0.1,0.8-0.3,0.8,0.1,1.1
	c0.3,0.3,1.6-0.4,2.5-0.1c0.9,0.4,2,0.8,2.7,1.4c0.7,0.7,0.6,0.9-0.3,1.2c-0.9,0.3-1.9,0.7-2.3,0.9c-0.5,0.3-1.2,0.8-1.2,1.3
	c0,0.4-0.2,1.1,0.5,0.6c0.8-0.6,1.9-1.1,2.8-1.3c0.8-0.3,0.3,0,1-0.2c0.8-0.1,1.5,0.4,2.6,0.7c1.1,0.3,0.8,1,0.5,1.6
	c-0.3,0.7-0.5,1.3-0.1,1.9c0.4,0.7-0.2,1.3-1.2,2.2c-0.9,0.8-1.7,1-3.2,1.2s-2.3,1.1-3.4,2.1c-1.1,1-1.6,0.8-3.2,0.8
	s-0.9-0.8-1.4-0.6c-0.5,0.2-1.1,0.7-2.1,0.8c-1,0.1-4.4,0.2-5.7,0.5c-1.3,0.4-0.9,1.3-1.2,2c-0.3,0.8-0.8,0.4-1.9,0.8
	s-2.1,1.8-3.3,3.7c-1.2,1.9-2.7,3.2-2.7,3.2c0.3-0.1,1.9-1.1,2.7-2c0.8-0.9,4-3.2,5.1-4c1-0.7,3.2-1.8,3.7-1.6
	c0.5,0.2,1.8,1.2,1.8,1.6c0,0.5-0.4,0.9-1.3,1.8c-0.9,0.8-2.1,0-2,0.3c0.1,0.3,0.8,1.2,1.4,1.3c0.7,0.2,0.7,1,0.7,1.4
	c0,0.4-0.4,1,1.2,2.4c1.6,1.3,2.8,1.4,4,1.3c1.2-0.1,0.6,0.4,1.1,0.3s0.6-1,0.8-1.8c0.2-0.8,0.4-1.4,0.8-1.8
	c0.4-0.3,0.8-0.9,0.9,0.3c0.2,1.2-0.5,2.8-1.1,3.1c-0.6,0.3-0.5,0.8-0.5,1.2c0,0.3-0.7,0.4-2.4,1.3s-2.2,1.2-2.5,1
	c-0.3-0.2-0.9,0.2-1.8,0.9c-0.8,0.8-1.7,1.7-2.3,1.7s-1.1-0.3-0.3-1.1c0.8-0.8,1.1-2,1.9-2.4c0.8-0.4,1.2-0.3,1.9-0.3
	s0.3-0.4,0.9-0.8c0.5-0.4-0.4-0.3-1.3-0.4c-0.9-0.2-0.3-0.9-0.3-0.9l-0.9,0.5c0,0-1.4,0.8-1.9,0.8c-0.4,0.1-0.3,0.3-0.4,0.4
	c-0.1,0.2-1.4,0.3-1.4,0.3s-0.7,1.4-1.8,1.6c-1.1,0.2-0.3,0.2-1.1,0.4c-0.8,0.3-0.6-0.4-0.8-0.2s-0.3,0.4-1.1,1
	c-0.8,0.7-1.3,0.8-1.9,3.1s0.1,3.1,0.1,3.5c0,0.3-1.1-0.3-1.3,0.1c-0.3,0.3-1,1.1-1.9,1.3c-0.9,0.3-2.6,0.7-3,1.1
	c-0.4,0.4-0.4,1-0.6,1.9c-0.2,0.9-1.3,3-1.3,3s0.3-0.8-0.5-1.4s-0.6-1.2-0.6-1.2s-0.2,0.8,0.1,1.7c0.3,0.8,0.8,1.7,0.6,2.6
	c-0.3,0.9-0.7,2.1-1.3,2.4s0.2-0.7,0.2-1.3c0-0.8-0.4-0.8-0.6-1.2c-0.3-0.4-0.3-1.3,0.2-2.6s-0.4-0.5-0.9,0.3
	c-0.5,0.8-0.8,2.4-0.1,3.5c0.8,1-0.5,0.9,0,2.4c0.5,1.5-0.6,2.2-0.4,2.4c0.3,0.3,0.8-0.1,1.1,0.7c0.3,0.8-0.5,0.4-0.8,0.6
	c-0.3,0.2-0.2,0.5,0,0.8c0.2,0.3,0.5,0.2,0.3,0.3c-0.2,0.2-0.5,0.7-1.2,0.8c-0.7,0.3-0.8-0.2-1.2,0.4c-0.4,0.5-0.8,0.9-1.2,1.5
	s-0.8,0.4-1.3,0.8c-0.5,0.4-0.7,0.8-1.3,1.3c-0.6,0.5-1.9,1.3-2.7,2.3c-0.8,1-0.5,1.3-0.9,2.9c-0.3,1.6,0.9,4.4,1.7,7
	c0.8,2.6,1.1,1.9,1,2.7c-0.1,0.8-0.5,1.9-1,2.4c-0.6,0.6-0.9-0.4-1.7-1c-0.8-0.6-0.2-1-0.9-2.2s-0.7-1.6-0.8-2.5
	c-0.1-0.9-0.3-2.1-0.6-3.1c-0.4-0.9-1.3-2.2-2.6-1.7c-1.3,0.5-1,0.3-1.7,0.1c-0.7-0.2-2.6-0.9-3.5-0.4c-0.9,0.5-4-0.2-4.6,0
	c-0.6,0.2-1.1,0.2-1.1,0.7c0,0.4-0.3,0.5,0.8,0.8c1.1,0.3,0.9,0.7,0.8,1.1c-0.1,0.5-0.9-0.3-1.3-0.4c-0.4-0.2-0.8,0.3-1.6,0.3
	c-0.8,0-0.9-0.8-1.6-0.8s-0.9,0-1.6-0.3s-1.5-0.7-2.3-0.7c-0.8,0.1-3.7,2-5.1,3c-1.3,1-2.4,2-2.8,2.9c-0.3,0.8-0.3,0.9,0.8,2.1
	c1.1,1.3,0.6,1,0.4,1.8c-0.2,0.8-0.8,1.6-1.7,3.4c-0.8,1.9-0.3,2.7,0.6,4.5c0.9,1.8,1.8,3,2.5,3.7c0.8,0.8,1.3,1.5,1.9,1.8
	c0.7,0.3,0.8,0.4,1.1,0.7c0.3,0.3,0.3,0.4,1.3,0.2s1.8-0.7,2.5-0.7c0.8,0,1.4,0,1.9,0.4c0.4,0.4,0.5,0.2,0.5-0.1
	c0-0.2,0.3-0.9,0.4-1.2c0.1-0.2,1.1-1.6,1.3-2.4c0.2-0.8,0.2-2.3,1.1-2.4c0.9-0.1,3-0.6,4.8-0.4c1.9,0.2,1,1,0.5,2
	c-0.5,0.9-0.7,1.1-0.7,1.8c0,0.8,0.3,0.8-0.3,1.2c-0.6,0.4-0.3-0.3-0.5,0.2c-0.3,0.4-1.1,1-1,0.9s0.3,0.8,0.3,1.1
	c0,0.4-0.1,0.6-0.1,1.6c0,1-1.9,2-1.9,2s0.7,0.4,1.8,0.4c1,0,2.3,0,3.4,0.5c1.1,0.5,3.1-0.4,4.6,0.3c1.5,0.8,1,1.2,1.1,1.9
	c0.1,0.7,0.3,3.1,0.2,3.7c-0.1,0.6-0.8,2.1-1.2,3.2c-0.4,1.1,1.1,1.9,2.4,2.9c1.3,0.9,2.5,1.3,3.3,1.5c0.7,0.2,2-1.1,4.4-0.9
	c2.4,0.2,3.2,2.2,3.2,2.2s0.3-1.3,1.3-3s1.1-2.2,2.6-2.8c1.4-0.6,1.9-0.7,4.3-1.4c2.4-0.8,1.9-0.2,3.2-0.1s4.1,0.3,7,1.2
	s7.2,1.1,8.9,1.9c1.7,0.7,2.4,2.7,4.1,4.3c1.8,1.6,3.9,3.1,4.8,3.8c0.9,0.8,6.1,1.4,7.2,1.9c1.2,0.4,2.7,2.4,2.8,3.5
	c0.1,1.1,1.3,1.7,2.8,2.4c1.6,0.7,2,1.4,3.1,3.5c1,2,0.7,2.6,2.1,3.1c1.4,0.5,11.1,3.1,13.6,4c2.4,0.9,5.6,3.5,6.3,3.8
	c0.8,0.3,2.3-0.3,3,0.1c0.7,0.3-0.4,2.3,0.4,3.6c0.8,1.3,0.8,1.4,0.4,2.4c-0.5,1-2.4,3.5-3.2,4.6c-0.8,1.2-2.4,1.9-3.3,2.4
	c-0.9,0.5-1.8,0-0.9,1c0.8,1,0.1,1.9-0.7,2.8c-0.7,0.9,0.1,0.8-0.2,3.7c-0.3,3,0,6.1-0.3,7.3c-0.3,1.3-2.2-1.1-4.4,1.6
	c-2.2,2.7-2.8,4.8-4,5.1c-1.3,0.3-4.3,1.9-5.4,2.8c-1,0.9-1.3,1.3-1.9,2.7c-0.7,1.4-1.3,4.3-2,6.1c-0.7,1.8-1.9,2.8-4.5,5.1
	c-2.6,2.4-3.7,4.8-5.4,6.7c-1.7,1.9-1.3,1.4-1.6,1.9c-0.9,0.9-4.6-1.4-3.6-0.2c0.7,0.9-0.4,0,0.2,0.9c0.6,0.9,1,1.3-0.3,2.9
	c-1.3,1.6-2.8,1.3-3.8,1.5s-2.5-1.1-2.7-0.4c-0.1,0.7-0.7,2.3-1.5,2.7s-3,1-3,1.3c1,4.8,3.1,5.3,0.9,5.1c-6.1-0.6-1.8-2-6,6.8
	c-0.7,1.3-1.3,0.7-1.2,2.3c0.1,1.6,0,2.9,0.8,3.8c0.8,1,0.3,0.9-1.2,2.4s-1.6,1.2-3,3.2c-1.3,2.1-2.6,1.9-2.2,3.5
	c0.5,1.6,0.6,3.9,1.4,6.2s2.5,1.9,5.1,3.5c2.6,1.6,3,0.8,4.3,1.2c1.3,0.4-0.9,0.5-3.3,0.9s-3.9,0.8-5.5,0.5
	c-1.6-0.3-5.5-2.6-6.7-3.5c-1.3-0.9-3.4-2.7-4.2-4.3c-0.8-1.7-1.3-3.3-2.3-5.6s-0.3-3.7,0.2-8.7s0.8-8.9,1.4-11.5
	c0.7-2.7,2.9-14.6,3.5-17.7s3.4-15.6,3.5-17.5c0.3-1.9,0.4-3.5,0.8-5.5c0.4-1.9,0.2-6,0.2-6.2c0-0.2-0.2-0.3-0.8-2.2
	c-0.6-1.9-1.6-2.6-3-3.5s-2.8-1.9-3.9-2.6c-1.1-0.8-2.4-1.9-3.5-3.2c-1.1-1.3-2.1-4.1-2.6-5.3c-0.5-1.2-2.5-5.1-4.4-7.8
	c-1.9-2.7-1.9-2.8-2.9-5.6c-0.9-2.9,0.8-3,1.2-4.6c0.3-1.6,1.4-3.2,2.6-5.5c1.2-2.3,2.8-3,3.7-5c0.9-2,0.3-2-0.1-4
	c-0.3-1.9,0.1-1.7-0.5-2.7c-0.6-1.1-0.9-2.4-1.4-2.7c-0.5-0.3-1.3-0.6-1.9-0.1c-0.5,0.6-1.3,2.2-1.9,2.3c-0.5,0.1-0.8-0.5-1.1-0.8
	c-0.3-0.3-1.9-0.3-2.2-0.7c-0.3-0.3-1.1-0.4-1.7-0.7c-0.5-0.3-2.7-1.3-3.3-1.9c-0.6-0.5-1.3-1.7-1.3-3c0-1.3-1.1-1.9-3.7-3.6
	c-2.5-1.9-3.6-2.1-6.7-2.9c-3.1-0.8-4.3-3-5.4-3.5c-1-0.6-0.9-1.3-3.2-1c-2.3,0.3-5.1-1-6.7-1.7c-1.8-0.7-4.8-1.2-6.2-2.1
	c-1.3-0.8-3.5-1.2-4.6-3.2c-1-2.1-0.8-1.3-0.4-3.1c0.4-1.9-2.2-3.3-3.8-5.1c-1.6-1.7-2.8-1.9-3.5-4c-0.8-2.1-2-2-3.5-3.5
	c-1.6-1.5-1.6-3.5-2.3-5.1c-0.7-1.7-5-4.2-5-4.2s1.1,2.9,1.6,4c0.5,1.2,1.6,4,3,6c1.3,2.1,2.4,2.6,3.6,4.6c1.2,2.1,0.1,3.3-0.4,2.5
	c-0.4-0.8-2.2-1.2-2.2-2.1s-0.4-1.6-0.8-2.4s-2-1.6-3.7-3c-1.6-1.3-2.8-1.9-1.8-1.9c1,0,2.5,0.9,2.2,0.3c-0.3-0.6-2.1-2.4-3-3.8
	s-1.2-2.8-2-5s-4-4.3-5.6-4.5c-1.6-0.2-2-0.9-2.5-2.5c-0.5-1.6-0.7-3.3-1.3-4.6c-0.7-1.3-3.7-5.5-3.8-7.1c-0.1-1.6-0.9-6.3,0.2-8.9
	c1.1-2.6,0.8-8.5,0.7-9.6c-0.2-1.2-2.1-3.4-2.1-4.2s1.2-0.3,2-0.1s2.7,1,2.7,1s-1.4-2.6-2.3-3.5c-0.8-0.9-3.5-2.1-4.6-2.4
	c-1.2-0.3-2.6-0.7-3.2-1.6c-0.6-0.9-1.3-2.2-1.7-3c-0.4-0.8-2.3-1.8-2.7-2.6s-0.3-2.5-0.9-3.4c-0.6-0.8-1.4-1.3-2.4-1
	c-1,0.3-1.3-0.5-2-1.8c-0.8-1.3-2.4-1.9-3-2c-0.5-0.2-2.2-2.4-2.3-3c-0.1-0.6-2.8-3.5-3.6-4s-9.3-3.3-9.4-3.3
	c-0.2,0-2.7,0.3-3.3,0.2c-0.7-0.2-2.9-2.1-4-2.5c-1.2-0.4-1.9,0.4-2.5,1.7c-0.5,1.3-3.2,3.5-4.6,4.4c-1.4,0.9-2.7,1.1-2.5,0.6
	c0.1-0.5,0.1-1.3,0.5-2.5c0.5-1.2,0.8-1.6,2.3-2.4c1.5-0.8,1.4-0.8,0.8-0.8c-0.6,0.1-1-0.1,0.2-0.8c1.2-0.7,1.7-0.8,1.6-1.4
	s-2.6,0.8-4.2,2.1c-1.6,1.3-2.6,2.2-4,4.6c-1.4,2.4,0.2,1.4-1,3c-1.2,1.5-5.2,4.6-6.4,5.7c-1.2,1.2-6.2,3.7-8.1,4.3
	c-2,0.6-2.8,0.8-3.8,1.7c-1,0.8-3.4,1.1-2.6,0.5c0.8-0.6,2.4-1.9,3.4-2.4c1-0.6,3.8-1.7,4.6-2s3.1-1.7,4.2-3s1.9-2.7,2.7-4
	c0.8-1.2,0.9-1.8-0.7-1.3c-1.6,0.5-3.2,0.3-4,0s-3,0.9-3.7,0.4c-0.8-0.6,0.1-1.7-0.4-2.3s-2.2-0.2-3.3-0.4c-1.1-0.2-2.6-1.1-2.6-2.6
	s-1.1-2.9-0.5-4c0.6-1.2,1.4-1.4,2.4-2.1c1-0.7,3.7-1.5,4.2-1.5s1.3-0.6,1.8-1.1c0.5-0.5-1.2-2.4-1.2-2.4s0.3-0.2,0.9-0.6
	c0.7-0.4,0.2-1.3-1-1.1c-1.2,0.2-3.5,1.3-5.1,1.7c-1.5,0.4-3.5,0.2-3.5-0.5c0.1-0.7,0.4-1.1-0.2-1.6c-0.5-0.5-1-1.1-0.4-1.3
	c0.5-0.3,3.9-2.1,3.9-2.1s1.2,1.3,2.5,1.4c1.3,0.2,4-2.3,4-2.3c-1.8-1.1-1.3-1.3-1.3-1.3s-2.8-0.1-3.5-0.4c-0.7-0.4-0.8-1.2-1-1.9
	c-0.2-0.7-3-1.3-2.2-2.4c0.8-1.2,2.2-1.6,3.1-2.7c0.9-1.2,1.8-3.4,4.4-4.6c2.6-1.2,5.8-2.4,7.2-3.3c1.4-1,2-0.1,2.6,0.1
	c0.5,0.2,3.9-0.2,5.2-0.2c1.3,0,1.5,1.4,1.9,1.9c0.4,0.3,11.9,0.7,11.9,0.7s9.7,0.2,11.6,0.7c1.9,0.6,5.5,2,5.5,2
	C998.4,110.6,998.2,108,999.5,108z M1129.8,49.5c0,0-1,4-4.9,5.1c-3.9,1.1-11,4.2-11.4,4.5c-0.3,0.2,0.4,2.4,1.4,3.5
	c1,1.1,1.9,1.9,2.8,3c0.8,1.1,2.4,1,3.5,2.2s2,0.8,5.3,0.8c3.3,0.1,2.4,0.3,6,0.5c3.6,0.2,7.4,0.5,8.7,1.6s3,5.5,4.1,8.1
	c1.2,2.6,3.1,7,3.1,7.3c0,0.4-1.3,3.5-1.3,4s0.7,1.3,1.3,2.1c0.6,0.7,0.3,1.3,0.2,1.9c-0.1,0.7,0.7,2.4,0.8,2.5
	c0.1,0.2,1.8-1.6,2.8-1.9c1-0.3,3.5,1.9,3.5,3.3c0,3.3,0.9,2.2-4.5,6.1c-0.8,0.5-1.4,4.5-0.8,6.4c0.5,1.9,1.9,4.2,2.9,6.9
	c1,2.7,4,6.6,5.1,8.3c1,1.8,1.3,4.2,3.4,4.7c2.2,0.6,4.2,1.3,5.8,1.7c1.6,0.3,2.6,0.8,3.4-0.6c0.8-1.4,2.3-7,3.5-11
	s-0.1-5.2,2.8-6.2c3-0.9,7.6-2.7,8.9-3.3c1.3-0.6,1-4.6,3.8-5.8c2.8-1.3,3.1-1.2,5.8-2.1c2.7-0.8,6.5-2.6,9.2-4.5
	c2.7-1.9,3.5-0.9,4.5-2.7s-1-4.3-1.2-7c-0.3-2.6,0.8-2.8,1.4-5.1c0.5-2.4,0.8-4,3-5.6s3.3-2.5,2.9-4s-1.4-3.8-1.4-5.5
	c0-1.7,0.4-0.7-0.5-3c-0.8-2.4-0.8-2.6-0.1-4.8c0.8-2.2,3-1.6,2.8-2.6c-0.2-0.9-3.5-2.4-3.5-5.1c-0.1-2.7,0.6-3.5,1.1-4.1
	c0.5-0.7,6.1-5.1,6.5-5.5c0.4-0.4-0.1-1.5,2.6-2.9c2.7-1.3,3.6-2.2,4.6-2.6c1-0.4,2.7-0.3-0.5-1.3c-3.1-0.9-3.9-1.3-5.9-1.1
	c-2,0.3-2.8,1.4-6.5,1.8c-3.7,0.3-7.8,2.1-7.8,2.1s1.3-1.1,0.2-2.2c-1.1-1.1,2.8-4.6,3.5-5c0.7-0.4-5.1-1.9-8.1-2.4
	c-3-0.6-8.9-2.4-12.2-2.1c-3.4,0.3-8.3,0.2-9.9,0.8s-1.4,2.7-3.4,2.9c-1.9,0.1-5.4-1.1-8.1-0.7c-2.7,0.4-7.1,2.3-7.5,2.4
	c-0.5,0.1,1.7,1.4,3.1,1.7c1.4,0.3,3.3,3.2,3.3,3.2s-3.8-1.3-7.7-2.4c-3.9-1.1-8.3,0-9.9,0.4c-1.6,0.4-3.6,1.3-6.7,1.4
	c-3.1,0.2-6.7,2.7-8.5,4c-1.8,1.2-7.3,4.5-8.8,5.2c-1.4,0.8-0.8,1.1,0.7,1.5C1128.2,49.3,1129.8,49.5,1129.8,49.5z M1049.5,91.2
	c0.4,1.9,0.4,4.5-0.6,3.4c-1-1.2-1.9-3.5-3.5-2.5c-1.6,0.9-3.4,0.7-3.1,0.5c0.3-0.2,0-1.2-0.8-1.5s-1.3,0.2-2.2,0.7
	c-0.8,0.5-3.6,1.2-2.5,0.3s0.8-1.3,0.3-2.4c-0.4-1-3.3,0.7-4.8,1.8c-1.5,1.1-2.4,2.7-3.3,3.8c-0.9,1.1-0.3,1.9,1.1,2.2
	c1.3,0.4,3.5,0.7,1.8,1.3c-1.9,0.7-3.3,1.2-2.3,1.7c0.9,0.6,2.5,0.7,4.2,0.5c1.6-0.2,3-0.7,5.6,0.1c2.6,0.7,4.1,0.7,4.1,0.7
	s-1,0.6-2.7,0.9c-1.8,0.3-4.9,0-6.6,0.3c-1.6,0.3-4.2,0.8-3.5,1.3s1.2,1.5,3.4,2.3c2.3,0.7,2.6,0,4,0.3c1.3,0.3,0.6,1.9,1,2.1
	c0.3,0.3,2.9-0.2,5.4-0.7c2.5-0.5,1.6-0.8,3.5-1.3c2-0.5,2-2,3.2-2.4c1.2-0.3,0.3,0.8,1.7,1.1c1.3,0.3,0.6,0.4,2.1,0.7
	s1.2,0.8,2.6,0.7c1.4-0.1,3.1-1.1,3-1.3c-0.3-0.2-0.4-0.6-0.3-1.3c0.2-0.7-1.4,0.2-2,0.5c-0.6,0.3-0.5-0.9,0.7-1.5
	c1.3-0.6,2.3,0,3,0c0.8,0,0.1-2.1-1.3-2.4c-1.3-0.3-1.9-1.2-3.8-2.2c-1.9-1.1-0.9-1.5-1.5-3c-0.6-1.4-1.8-5.6-2.9-6.3
	s-2.3-0.5-3.3-1.3C1049.3,88.3,1049.1,89.4,1049.5,91.2z M1019.6,88.4c0.5,1.3,0.5,0.5-0.4,2s-0.4,2-1,3.1c-0.6,1.1-2.4,2.6-1.9,3.3
	c0.5,0.7,2.3,1.2,3,1.8s1.4,1.8,2.8,1.3c1.3-0.4,1.8-0.8,2.6-1.2c0.9-0.5,1.7-1,1.6-2.2c0-1.2-0.1-1.8,0.3-1.7
	c0.3,0.1,0.9,0.7,1.3-0.2c0.3-0.8,0.8-1.8,1.4-2.4c0.6-0.6,2.4-1.2,3.2-1.9c0.8-0.7,2.3-1.5,2.6-2.1c0.4-0.6-0.8-1.1-1.4-1.3
	c-0.7-0.3-1.5-1.3-3-1.3s-2.4,1.2-2.4,0.7c0.1-0.5-1.1-0.8-1.8-1c-0.7-0.3-1.3-0.6-3.3-0.3c-2,0.3-3,0.3-4.6,0.8
	C1017.1,86.1,1019.1,87,1019.6,88.4z M1066.6,104.5c-0.3,0.3-1.2,0.6-1.8,1.3c-0.6,0.7,1.3,0.3,1.8,0.5c0.6,0.2,1,0.8,1.5,0.9
	s3,0.3,4-0.3c1-0.5,1.2-0.7,1-0.9s-2.2-2.3-3.7-3c-1.5-0.8-1.5-0.8-1.9-0.7C1067.4,102.6,1066.8,104.2,1066.6,104.5z M1059.8,88.7
	c-1,0.5-1.7,1.1,0,1.9c1.7,0.8,2.2,1.5,3.3,2.3c1.1,0.7,1.6,2.7,4,1.9c2.4-0.9,3.3-2,3.6-3c0.3-0.9-0.3-1.2-0.9-2
	c-0.6-0.8-0.8-1.3-1.9-1.1s-1.6,0.2-1.6,0.2s0.8-1,2.1-1.7c1.3-0.7,0.3-1.1,0.8-1.7c0.6-0.6-1.5-0.9-2.5-0.7c-0.9,0.3-1-0.1-2.5-0.2
	c-1.5-0.1-4,1.3-3.9,1.9c0.1,0.5,1.3,0.3,2.4,0.9s1.4,0.5,0.3,2.3c-1.1,1.7-1.7-0.4-2-0.7C1060.5,88.7,1060.8,88.2,1059.8,88.7z
	 M1052.8,85.6c-1.6,0.2-2.2,1.3-1.5,1.4c0.6,0.2,1-0.2,2,0.8c1,1,1.9,1.6,2.3-0.1C1055.9,86.1,1055.3,85.4,1052.8,85.6z
	 M1026.7,72.6c-1.8,1.4-2.2,2.6-3.5,3.5c-1.4,0.9-1.1,1.7-0.6,2.2c0.5,0.5,1.9,0,2.5-0.3c0.7-0.3,1.2-1.2,1.6-0.7
	c0.4,0.5,2-1.7,2.7-2.4s1.7-1.5,1.9-1.5c0.2,0-0.6,0.8-0.3,1.6c0.3,0.7,1.6,0.8,2.8-0.5c1.2-1.3,0.1-2.4,1-3.3
	c0.9-0.9,1.7-0.8-0.1-1.7s-2.9,0.1-3.3,0.5C1030.9,70.5,1030.3,69.8,1026.7,72.6z M1037.8,74.9c-1,0.1-1.5,0.2-3.2,0.9
	c-1.7,0.8-2.4,2.7-2.8,3.7c-0.4,1,0.2,1,1.8,1.7c1.5,0.6,3.7-0.2,4.2-1.6c0.5-1.4,1.1,0.3,0.8,1.1s1.1,0.1,1.8-0.3
	c0.7-0.3,2.6-0.5,2.8-0.5c0.2,0-1.6,1.3-3.3,1.9c-1.7,0.6-3,0.8-3.5,0.9c-0.5,0.1,0.4,0.8,2.4,1.2c2,0.4,3.2-1.2,6.1-2.3
	c2.9-1.1,2.7-1.3,3.6-1c0.9,0.3,1.9-0.5,3.1-0.8c1.2-0.3,1.6,0.2,2.1-1.5c0.5-1.7,1.4-3.4-0.3-3.5c-1.6-0.1-1.8-0.1-1.9,1.8
	c-0.3,1.9-0.3,0.7-0.3,0.7s-1.1-1.6-1.8-2.4c-0.7-0.8-1.1-2.2-1.9-2.9c-0.8-0.7-1,0.3-2.2,1.5c-1.1,1.3-0.3,1.7,0.9,2.3
	c1.1,0.5,1.9,1.9,1.3,2.3c-0.5,0.3-1.2-0.1-3.2,0.2c-2,0.3-2-0.7-2.5-0.9c-0.6-0.3,1-0.8-1.3-1.8
	C1038.4,74.7,1038.4,74.9,1037.8,74.9z M1031,76.7c0.3-0.4-2.8,1.8-3.2,2.4c-0.4,0.7,0.4,0.6,1.3,0.5
	C1030.1,79.6,1030.3,77.9,1031,76.7z M1036.8,72.2c-0.8,0.3-0.8,0.6,0.5,0.8c1.2,0.2,1.9-0.4,1.7-0.9
	C1038.6,71.5,1037.4,72,1036.8,72.2z M1042.9,65.8c-0.8,0.2-3.1,0.9-3.3,1.3c-0.2,0.4,0,1.3,0.4,1.9c0.3,0.7,0.5,0.8,2.5,0.3
	c2-0.5,3.4-1.6,2.8-1.8c-0.7-0.2-1.1-0.5-1.7-0.6c-0.6-0.1,0.5-0.4,1.9-0.8C1046.8,65.8,1047.3,65,1042.9,65.8z M1036.1,66.9
	c-0.6,0.3-0.8,0.3,0.4,0.8c1.2,0.4,2.4,0.4,2.3,0.1C1038.6,67.2,1037.7,66.1,1036.1,66.9z M1040.7,63.5c-1.1,0.4-1.3,1.3-1.7,1.6
	c-0.3,0.3,1.3-0.3,2-0.4c0.7-0.2,0.8,0.3,1.5-0.3c0.7-0.6,2,0,3.3-0.3c1.3-0.3,1.4-1.1,1.2-1.8C1046.8,61.7,1044,62.3,1040.7,63.5z
	 M1053,66.6c-0.3,0.2-0.3,0.7,0.1,1.3c0.3,0.6,0.3,0.5,1,0.7s1.3,0.8,1.3,0.8c0.2,0.2,0.3,0.2,0.5-0.4s-0.2-0.5-0.8-1.3
	C1054.4,67,1053.9,66.1,1053,66.6z M1057.2,71.9c-0.9-0.3-1.4,0.3-1.8,0.4c-0.3,0.2,0.2,0.6,0.4,1.3c0.3,0.8,0.1,0.9,1.4,1.1
	c1.3,0.1,1.8-0.2,1.9-1C1059.2,72.8,1058,72.1,1057.2,71.9z M1062.5,73.5c-0.8-0.6-1.3-1.1-2.1-0.8s-0.2,0.8-0.2,1
	c0,0.3,1,0,1.1,0.5c0,0.6,0.3,0.8-0.9,0.8c-1.3,0.1-1.6,0-2.1,0.4c-0.5,0.3,0.9-0.1,1.3,0.5s1.2,0.7,2.4,0.4
	c1.2-0.2,2.9-0.4,2.9-0.4s-0.9,0.8-1.3,1.4c-0.3,0.6-0.5,1.4,0.2,1.9c0.7,0.4,0.7-0.4,2.4-0.5c1.8,0,2.3-0.9,2.3-0.9
	s-0.4-0.4-0.3-1.3c0.1-0.8,0-1.1,0-1.1s0.7,0.5,0.8,0.7c0,0-0.1-0.5-0.4-1.4c-0.3-0.9-0.1-1-0.3-2.3c-0.3-1.3-0.3-1.5-1.5-1.5
	c-1.3,0-2.2,0.5-3.3,0.5s-1.5,0.2-0.8,0.6c0.8,0.4,0.9,0.9,1.3,1.3c0.4,0.4,0.3,1.5,0.3,1.5C1064.3,74.9,1062.5,73.5,1062.5,73.5z
	 M1055.9,78.3L1055.9,78.3c-0.6,0.3-0.8,0.9-0.8,1.3c0,0.4,0.8,0.2,1.9-0.3C1058.2,78.9,1057.6,77.7,1055.9,78.3z M1072.9,76
	c-1,0.6-1.8,1.3-2.4,1.9c-0.6,0.7-0.1,0.8,1.4,1.5s3.1,0.9,3.8,0.1C1076.5,78.7,1075.5,74.6,1072.9,76z M1079.9,70.1
	c-1.9,0.2-1.3,0.5-3.5-0.3c-2.2-0.8-5-0.8-5.7-0.8c-0.8,0-0.4,0.3,0.4,1.6c0.8,1.3,1,1.8,2.6,1.3c1.6-0.4,3-0.7,4.1,1
	c1.2,1.7,1.9,2.3,0.8,2.9c-1,0.7-0.5,1.6,0.1,3s1.9,1.3,3.7,1.3c1.9,0,13.3-0.2,15.1-0.5c1.8-0.3,3.4-1.9,4.3-2.5
	c0.9-0.7,1.4-1.8,0.2-2.5c-1.3-0.8-3.1-1.5-4.6-1.5c-1.4,0-2.7,0.8-4.9,1c-2.2,0.3-1.8,1.3-3.7,1.3c-2,0.1-1,0.9-3.5-0.1
	s-4.3-2.3-3.1-2.4c1.2-0.2,2.1-0.3,1.4-0.8C1082.9,71.4,1081.7,69.9,1079.9,70.1z M1056.9,60.7c1.2,0.4,1.5,0.7,0.2,1.1
	c-1.3,0.3-2.4,1.3-1,1.1c1.3-0.2,2.4,0.2,4.1,0.4s1.6,0.1,2.4,1.1c0.8,0.9,1.6,0.9,2.7,0.7c1.2-0.3,1.3-0.3,0.6-1.2
	c-0.8-0.8-1.5-2.4-2.6-3c-1-0.6-1.9-1.4-3-1.3c-1,0.1-1.3,0.2-2.2-1.1c-0.9-1.3-1.6-0.7-2.9-0.3c-1.3,0.3-1.7,1.3-2.2,1.7
	C1052.1,60.6,1055.7,60.3,1056.9,60.7z M1072.6,48.3c-1.4,1.8-2.5,3.3-0.9,3.5s2.3-0.2,2.4,0.4c0.1,0.5-0.3,0.8-2.6,0.8
	c-2.4,0-1.7,0.5-0.3,2.1c1.3,1.6,1.4,1,3.5,1c2-0.1,2.7-0.8,4.4-0.3c1.7,0.4,2.2,0.8,0.7,1.3c-1.5,0.4-5.1,1.3-4.3,2.1
	c0.8,0.8,3.4,2.6,4.5,2.8c1.1,0.2,1.3-0.8,3.9-0.5c2.4,0.3,1.9,0.5,2.1-0.2c0.3-0.7,1.6-2.4,1.9-3c0.3-0.7,0.9-1,2.3-1.3
	s1.8-0.8,0.5-1.2c-1.3-0.4-2.7-0.7-2.6-1c0.2-0.3,0.9-1.3,0.4-1.9c-0.5-0.5-1.4-0.5-2.1-0.8c-0.7-0.3-1.5-1.6-2.4-2.1
	c-0.9-0.6-1.7-0.6-2.8-1.4c-1.1-0.8-2.8-2.9-5-2.8C1074.6,45.7,1073.9,46.6,1072.6,48.3z M1069.8,63.1c-0.5,0.3-1.9,0.3-0.9,1.2
	c1,0.8,0.8,0.8,2,0.4c1.3-0.5,3.1-1.7,3.3-2c0.2-0.3-1.3-1-2.3-1.3c-1-0.3-1.7-1.1-3.7-1.6C1065.3,58.8,1070.3,62.8,1069.8,63.1z
	 M1136.1,36.9c-2.3-0.6-10.3-2.2-12.9-1.5c-2.6,0.6-2.4-1.3-6.1-0.8c-3.6,0.5-9.2,0.2-10.9,0.5c-1.8,0.3,0.8,1,1.8,1.6
	c0.9,0.6-4.5-0.7-8.6,0.5c-4.1,1.2-6.8,1.8-2.4,3.5c4.4,1.7,5,2.2,5,2.2s-5.6-1-8-1.9c-2.4-0.9-1.1-0.8-5.6,0.4s-8.9,1.9-8.6,3.3
	c0.3,1.3,3.6,3.2,5.8,3.6c2.3,0.5,6.8-0.7,7.2-0.8c0.3-0.2-1.9,1.9-1.9,1.9s2.3-0.5,4.9-1.2c2.6-0.7,4.6-1.4,7.1-2.3
	c2.4-0.8,2.9-1.2,2.9-1.2s-4.3,3.3-7.2,4.5c-3,1.2-6.8,1.9-8.6,1.9c-1.8,0.1-1.5,1.2,0.3,2.2c1.8,0.9,3.2,3,4.1,3.6
	c0.9,0.7,1.1,1.8,1.1,1.8s-2.8-2.2-5.9,0c-3.1,2.2-2.7,3.4-1.9,3.6c0.8,0.3,3.5,0.5,4,1.5c0.5,0.9,4.1-0.8,4.1-0.8s-1.8,2.3-3.5,2.3
	s-1.7-1.5-4.2-1.2c-2.5,0.3-2.4,0.8-1.3,1.8c1.1,0.8,1.9,1.2,0.1,2c-1.9,0.8-2.8,1.2-2.8,2.2c-0.1,1.1,2.4,1.1,4,1.1s3.1-0.2,6-0.2
	c2.9-0.1,2.5-1,3.6-1c1.1,0,2.2,0.3,1.8,1.4c-0.4,1.1,0.4,0.4,3.6-0.8c3.2-1.2,1.8-2.9,1.5-3.5s-1.3-0.8-2.1-1.2s2.2-3.3,1.8-4.3
	c-0.4-1,3.5-0.2,5.3-2.5c1.8-2.4,1.2-4.1-0.2-4.5c-1.3-0.4,2.4-0.2,3.5-0.8c1.2-0.7,3.7-1.5,4.7-2.8s1.3-1.8-1.1-1.5
	c-2.4,0.3,3.5-1.1,6.4-3s6.2-4.1,6.9-4.6c0.8-0.5,1.3-0.3-2-0.1c-3.4,0.2-7.4-0.3-5.2-0.5c2.3-0.3,8.9-1.1,10.6-2.4
	C1135.3,37.2,1136.1,36.9,1136.1,36.9z M1095.6,83.6c-3.6-0.3-8.9-1.2-9.9,1.9c-1.1,3.1-2.8,9.9-2.9,11.2c-0.2,1.3,4.3,3.2,7.4,3.3
	c3.1,0.2,8.2,0.3,7.2-0.4s-0.2-1.2,2.8-1c2.9,0.2,3.2-0.6,3.2-1.2s0.5,0.8,2.5,1.9c2,1.1,3.8,4.1,5.6,5.8c1.8,1.8,5.8,4.1,5.1,5.5
	c-0.8,1.3,0.8,6.1-5.3,7.2c-6.2,1.1-6.6,0.3-6.5,1.8c0.1,1.4,0.3,2,2.8,2s5.8-2,7-0.5c1.2,1.5,2.8,2,3.8,2.4c1,0.3-1.3,0.9-1.8,1.2
	c-0.6,0.2,1.3,0.4,4.8,2.1c3.5,1.7,7.8,1.9,5.7,0.7c-2.1-1.2-3.1-3.5-4-4.1c-0.9-0.8-0.1-0.2,1.6,0.3c1.7,0.4,3.2,1.8,3.9,2.4
	c0.8,0.6,1.1-0.2,1.6-2.5c0.5-2.4-0.3-2.4-3-4.2c-2.8-1.9-3.7-3.4-4-4.7c-0.3-1.3,1.4-1.6,2.2-2.5c0.8-0.9,2.8,1.7,4.1,3.2
	c1.3,1.5,2.5,4.2,3.6,2.3c1.1-1.9,2.1-6.3,2.1-7.3s-1.1,0.1-5.7-2.2c-4.6-2.3-7-3.1-7.4-3.1s1.3-0.8,3.3-1.9c2-1,2.9-0.8-1.4-5
	c-4.3-4.1-5.6-5-8.3-5.2c-2.8-0.3-3.6-3.2-5.6-4.2s-6.7,1.2-8.1,1.5s-0.9,0.8-2.7-1.6C1097,85.4,1095.6,83.6,1095.6,83.6z
	 M1098.9,83.6c-1.8,0.3,1.1,3.5,3.4,3.6c2.3,0.2,4.3-1,4.8-1.2C1107.6,85.9,1101.7,83.2,1098.9,83.6z M1090.8,116.9
	c-0.3,0.8-1,2.8-1.2,4.1c-0.1,1.3-0.3,1.6-0.6,2.4s0.8-0.2,1.6,1.1c0.8,1.3,0.4,1.6,1.8,0.2c1.3-1.4,2.9-1.9,4.8-1.3
	c1.9,0.6,3.4,0.8,2.7-0.3c-0.7-1.2-1.5-1.1-2.8-2.6c-1.3-1.6-2.3-1.9-3.9-2.6C1091.6,117.3,1091.4,115.4,1090.8,116.9z
	 M1104.4,234.8c-0.6-1.2-1.4-3-4.9-3.7c-3.5-0.7-4.7,0.7-6,1.1c-1.3,0.4,1.2,0.7,2.9,0c1.7-0.7,3-0.2,3.2,0.2
	c0.3,0.3-0.6,0.5-0.8,0.2c-0.3-0.3-0.3,0.8,1.5,1.4c1.9,0.7,2.4,1,2.5,1.9c0.2,0.8,0.2,1.3,0.6,1.9c0.4,0.7,0.6,0.9-0.2,1.3
	c-0.8,0.3-0.5,0.3,0.1,0.6c0.6,0.3,1.8,0.9,3.4,1.1c1.7,0.2,2.2,0.4,1-1.1C1106.6,238.1,1104.5,235.2,1104.4,234.8z M1109.7,242.2
	c0.9,0.9,0.7,1.9,0.6,2.5c-0.1,0.5-1.1,0.1-2.9-0.3c-1.9-0.5-1.5-0.3,0.1,0.6c1.6,0.8,2.6,0.7,2.5,1.8c-0.1,1.1,1.4,0.1,2.1-0.6
	c0.7-0.7,0.6-0.1,3.5,0.3c2.8,0.4,3.4,0.9,3-0.3c-0.4-1.3,1.3-1.1-1.2-2.3C1114.7,242.8,1108.6,241.1,1109.7,242.2z M1101.7,242.9
	c-1.1-1.2-2.4-1.3-2.4-0.3c0,1,0.3,0.9,1.3,1.2C1101.6,244,1102.4,243.7,1101.7,242.9z M1122,248c-1.2-0.4-1.3,0.5-0.6,1.2
	c0.8,0.8,1.9,0.5,3.1,0.4C1125.6,249.5,1124,248.7,1122,248z M1108.8,107.2c-1.5,0.7-2.4,1.1-1.1,2.9c1.3,1.8,2.1,2.9,2.6,1.6
	C1110.9,110.3,1111.4,106.1,1108.8,107.2z M1096.7,125.8c-2.3,0.3-3,0.4-2.7,1.7c0.3,1.3,1,1.1,2.5,0.3
	C1098.1,127.1,1099.1,125.4,1096.7,125.8z M1101.4,127.8c-0.4,0.1-0.5,1,0,1.9c0.5,0.8,1.5-0.3,1.9-1.3
	C1103.8,127.3,1102.9,127.3,1101.4,127.8z M1076.5,65.7c-2.2,0.1-5.4,0.8-3.6,0.8c1.8,0,3.3,0.4,6.2,0.3c3-0.2,3.2-0.3,3.3-1.8
	C1082.4,63.6,1080.4,65.5,1076.5,65.7z M1062.9,53.8c-2.2,0.7-1.7,1.2,0.9,2.3c2.6,1.2,2.7,0.6,2.4-1.5
	C1065.9,52.4,1064.2,53.4,1062.9,53.8z M1217.3,110.1c-2.7,0.8-3.6,0.3-4.1,1.7c-0.5,1.3-1.6,0.7-2.2,0.8s-1.5,4-1.9,3.5
	s-0.6-0.9-1.3-2.2c-0.6-1.3,0.3-1.1-1-2.5c-1.2-1.4-3.6-1.3-3.7-0.7c-0.2,0.6,1.6,1.1,1,1.7c-0.6,0.7-2.1,1.4-2.6,1.9
	c-0.6,0.5,1.1,0.3,2.1,0c1-0.3,1.8,0.8,2.1,1.5c0.4,0.8-0.5,1.4-0.9,1.8c-0.4,0.3,1.5,0.3,2.3,0.4c0.8,0.2,1.2,0.8,0.7,1.7
	c-0.5,0.8,2.3,0.2,3.9,0c1.5-0.1,1.9,1.1,4.3,0.3c2.4-0.8,3.5-0.7,5.6-2.3c2.2-1.6,2-1.3,3.4-2.3c1.4-1,1.1-1.3,1.2-2.4
	c0.1-1.2,0.9,0.3,0.6-1.4c-0.3-1.7-2.1-1.3-3.3-1.3c-1.3-0.2-1.2-1.1-1.8-1.4C1220.9,108.5,1220.1,109.3,1217.3,110.1z
	 M1400.2,258.3c-0.1,0.4-0.3,0.8-0.3,1.8s-0.1,1.9,0,2.8c0.1,0.9,0.2,1.5,0.7,1.8c0.5,0.2,0.8,0.4,1.7,0c0.8-0.4,1.6-1.1,1.2-2.1
	c-0.4-1-1.2-2.4-1.7-3.3C1401.3,258.5,1400.4,257.6,1400.2,258.3z M1399.5,257.1c0.1,0.4,0.3,0.3,0.4,0.6c0.2,0.3,0.4,0,0.2-0.3
	s-0.3-0.4-0.3-0.4S1399.5,256.8,1399.5,257.1 M1477.5,310.8C1477.5,310.9,1477.4,310.9,1477.5,310.8c-1.6,1.6-3,1.2-5.5,1.9
	c-2.6,0.8-7.1,3.5-7.4,4.6c-0.3,1.2,0,1.3-0.3,1.2c-0.3-0.2-0.8-0.8-0.8-0.8s-0.7,1.4-0.5,2.7c0.2,1.3,0.8,2,0.7,3.6
	s-0.7,2.6-0.6,3.7c0.1,1.1,1.9,3.2,2.4,4.6s0.8,0.9,1.1,3.3s1.5,3.7,0.3,5s-2.2,1-0.7,2.4c1.5,1.3,2.8,2.2,5.2,1.3
	c2.4-0.8,1.8-1.6,3.7-2c1.9-0.4,2.3-0.8,3.9-0.9c1.6-0.1,2.8,0.1,3.4-1.1c0.6-1.2,0.2-1.1,1.8-1.9c1.6-0.8,1.4-1,2.5-1.2
	c1.1-0.2,1.8,0.6,3.3-0.6c1.4-1.2,0.4-1.3,3.6-1.3c3.3,0,4.6,0.4,5.8,0.8c1.2,0.4,3.1,1.4,3.6,2.2c0.5,0.8,1.2,1.7,1.3,1.7
	c0.3,0,0.5,0.1,1.3-0.7c0.8-0.8,3-2.3,3-2.3s-0.1,1.6-0.6,2.2c-0.5,0.6-0.5,1.4-0.5,1.8s1.3-0.9,1.4-1c0.2-0.1,0.3,2.2,0.5,2.4
	c0.2,0.2,0.7,0.1,1.2,0.8c0.5,0.7,1.2,1.2,1.6,2.4c0.5,1.3,2.5,2.5,3.9,2.7c1.3,0.2,2.4,0.1,3.4-0.1c1-0.2,1-1.3,2-0.8
	c1,0.4-0.1,1.4,2.4,1.2c2.4-0.2,3.1-1,4-1.7c1-0.7,1.1,0.9,2.4-0.8c1.3-1.7,1.4-1.3,1.7-3.4c0.3-2.1,0.2-2.4,1.3-4.5
	c1.2-1.9,1.4-1,2.3-3.9c0.8-2.9,1.9-5.6,1.8-8c-0.1-2.4,0.1-0.8-0.5-3.5c-0.5-2.7-0.2-2.4-1.9-3.5c-1.8-1.1-2.2-0.8-2.6-2.4
	s0.1-2-0.7-2c-0.8,0-1.5,0.3-2-0.7c-0.5-1-0.4-1.4-1.3-2.4c-0.9-1-1.8-0.8-3.5-1.6c-1.7-0.8-0.8-0.9-0.8-2.3s0.1-2.7-1.3-3.3
	c-1.3-0.6-0.5,0.3-0.5-1.9s0-1.9-1.1-2.2c-1.1-0.3-1.4-0.3-2.1-1.7c-0.7-1.3-1.6-3.5-1.9-4.3c-0.3-0.8-0.8,0.1-1.2,0.8
	c-0.4,0.7-1,2-1,3.4c0,1.3,0.6,2,0.6,3.8c0,1.8-1.3,3.5-2,4.5c-0.8,1-1.3,0.1-2-0.2s-0.8-1.3-2.2-1.9c-1.3-0.7-3.9-1.3-5.1-2.4
	c-1.2-1-0.3-1.1,0-2.2c0.3-1.1,0.8-1.9,1.8-2.7c0.8-0.7,0.6-1-0.5-1.6c-1.1-0.6-2.6-0.7-4.5-0.7c-1.9,0-3-0.2-2.8,0.9
	c0.1,1,1.2,1.4-0.3,1.2c-1.5-0.3-2.9-0.4-3.5,0.3c-0.7,0.8-0.8,1.2-1.3,2.8c-0.4,1.6,0.1,1.7-0.5,1.7s-3.2-1.3-4-1.6
	c-0.8-0.3-1.3-0.3-2.4,0.6c-1,0.9-4.6,4-5.8,4.7C1478.8,306.8,1478.8,306.7,1477.5,310.8z M1429.4,265.3c-0.8-0.1-1.2-0.3-0.3,0.9
	c0.9,1.2,1.2,1.4,2.1,2.3c0.9,0.8,1.3-0.6,1.9,1s0.4,1.7,1.1,2.3c0.7,0.6,1.3,0.8,1.4,1.3c0.2,0.6,0.4,1.5,1.2,2.2
	c0.8,0.7,0.8,0.6,1.3,1.9c0.5,1.3,1.2,2.3,1.5,3.4c0.3,1.1,2.4,2.2,3.5,3.5c1,1.3,2.8,3.3,3.1,2.8c0.3-0.5,1,0,1.6-0.2
	c0.5-0.2,0.8-1,1.1-2.9c0.3-1.9-0.3-2.8-0.8-3.2c-0.5-0.4-1.4-0.5-1.7-0.9s-0.7-1.8-1.3-2.2c-0.6-0.4-0.8,0-0.8-1s0.8-1-0.2-1.6
	c-0.9-0.6-1-1-1.3-1.3c-0.3-0.3-2.3-0.8-2.8-1.3c-0.5-0.5-2.6-1.5-3.6-2.5c-1-1-2.1-1.9-2.4-2.5
	C1433.7,266.4,1432.6,265.8,1429.4,265.3z M1450.4,287c-0.8,0-1.3-0.5-1.9,0.5c-0.6,1-0.5,1,0.4,1c0.9,0,0.8,0.5,0.7,0.6
	c0,0.2-0.4-0.1,1.4,0.7s3.1,0.4,3.6,0.2s0.7,0.7,3.2,1.1c2.5,0.4,3.9-0.3,5.5,0.2c1.6,0.4,1.3-0.2,0.1-1.1c-1.2-0.8-1-0.4-2.2-1.3
	c-1.2-0.8-2.8-0.8-3.5-1c-0.8-0.2,0.7,0.8-1.7,0.5c-2.3-0.3-1.5,0.2-2.7-0.6c-1.2-0.8-1.2-0.9-2-1
	C1450.5,286.7,1450.4,287,1450.4,287z M1468.7,290.7c-0.7,0.2-2,0.6-1.3,0.8c0.6,0.3,0.2,0.4,2,0.3c1.9-0.2,3.5-0.4,3.8-0.8
	s-0.3-0.2-1.1-0.3c-0.8-0.3-0.8,0.2-1.8,0.3C1469.2,291.1,1468.7,290.7,1468.7,290.7z M1475.4,290.6c-1.3,0.2-1.1,0.4-0.1,0.8
	c1,0.3,1.9,0.4,2.7,0.3c0.8-0.2,0.8-0.4,2.3-0.7s1.9-0.2,3-0.3c1.1-0.2,1.1-0.2,1.1-0.2s-0.1-0.3-0.8-0.2c-0.8,0-1.3,0.1-2,0.1
	s-2,0.7-2.6,0.7c-0.5,0-1.6-0.3-1.9-0.2C1476.8,290.9,1476.8,290.4,1475.4,290.6z M1482.6,292.2L1482.6,292.2
	c-0.9,0.7-1,0.8-0.9,1.3c0.1,0.5-0.1,0.7-0.1,0.7s1.3-0.1,2.3-1.1c1-1,1-1,2.1-1.3c1-0.3,2.2-1.5,2.2-1.5s-0.8,0.2-1.7,0.1
	c-0.9-0.1-1.8,0.5-2,0.7C1484.2,291.3,1484.7,291.4,1482.6,292.2z M1475.1,292.7c-0.9-0.7-1.9-0.6-1.9-0.2c-0.1,0.4-0.8,0.4,0.5,0.9
	c1.3,0.5,2.6,1.1,2.5,0.5C1476.1,293.2,1475.5,293,1475.1,292.7z M1466.5,264.7c-0.5,0.8,0.5,0.6-0.3,1.3c-0.8,0.7-1.4,0.3-2.2,1.3
	c-0.8,1-2,1.7-2.5,2.1c-0.5,0.3-2.1,0.8-2.9,1.8c-0.8,1,0.3,1.5,0.3,1.5s-0.4,0.2-1.6-0.3s-1.3-1-1.3-1s-0.8,0-1.3,1.2
	c-0.5,1.3-0.8,1.3,0.1,2.1s-0.6,0.8-0.4,1.3s0.2,1.4,0.7,1.5c0.5,0.1,0.6-0.5,1.3,0.3c0.6,0.8,0.1,3,0.9,3c0.8,0.1,1.3-0.3,2,0.1
	c0.7,0.3,1.2,0.6,2.1,0.3c0.9-0.3,1.9,0,2.4,0.3c0.5,0.3,2.2,0.8,3,0.8c0.8-0.1,1,0.2,1.1-1c0.2-1.2,0-2.3,1-3.2s1-0.9,1.1-1.8
	c0.1-0.8,0.1-1.7,0.7-2.6c0.6-0.8,1,0.5,1.3-0.2c0.3-0.7,0.7-0.7,0.5-1c-0.2-0.3-1.1-0.3-1.5-1s0.1-1-0.3-2.3
	c-0.4-1.3-0.7-0.8-0.1-1.5c0.6-0.8,1.1-0.8,1.2-1.4c0.1-0.6,0.3-0.6,1.1-1.2c0.8-0.5-0.1-0.3-0.8-0.8c-0.8-0.5-2.1-2.5-3-2.5
	C1468.7,261.9,1467,263.9,1466.5,264.7z M1573.2,336.1c-0.3-0.3-0.7-0.1,0.2,0.8c0.8,0.9,0.8,0.7,1.3,0.7c0.5,0,0.9,1.9,1.3,2.4
	c0.3,0.5,0.8,1,0.8,1s0.3,2,0.1,3s-0.8,1.3-1,2.2s0.8,0.6,1.5,0.8s0.5,0.3,0.3,1c-0.3,0.8-1,1.1-1,1.2s1.5,1,2.3,0.1
	c0.8-0.9,1.9-2.3,2.3-3.2c0.3-1-0.6-0.5,0.5-1.3c1-0.7,0.9-0.3,1.4-1.3c0.5-0.8,1.1-1.8,0.5-2.3c-0.6-0.5-1.3,0.6-1.9,0.8
	c-0.5,0.2-1,0.3-1.8-0.2c-0.8-0.3-0.9-0.3-1.2-1s-0.7-1-0.7-1s-0.3,1.2-0.8,0.8c-0.5-0.3-0.4-0.8-0.8-1.4c-0.4-0.7-0.4-0.8-0.7-1.3
	c-0.3-0.5,0-1.3-1.3-1.5C1573.4,336.3,1573.5,336.3,1573.2,336.1z M1573.4,348.3c0,0-1,0.8-1.9,2.1c-0.9,1.3-1,1.7-1.3,2.4
	c-0.3,0.7-1.3,1.5-3,2.4c-1.8,0.9-2.4,1.3-3,2.1c-0.6,0.8-2.6,3.5-2.9,3.8c-0.3,0.3,1,0.6,2.3,0.6s3.3,1.2,4.3,0
	c1.1-1.2,2.2-4,2.9-5c0.7-1,1.3-1.3,2.4-2.4c1.1-1,2.9-2.8,2.9-3.5c0-0.7-0.5-1.9-0.5-1.9s-0.4,0.8-1.3,0.7
	C1573.3,349.6,1573.4,348.3,1573.4,348.3z M1564.9,361.3c-1.3-0.7-1.5,0.6-1.7,1.9c-0.2,1.3,0.6,0.2,1.7-0.4
	C1565.9,362.1,1565.4,361.5,1564.9,361.3z M1521.9,352.4c-1.4-0.5-1.2,0.8-1,1.9c0.3,1,0.5,1.9,1,2.7c0.5,0.8,2.5,1.2,3.4,0.8
	c0.8-0.3,1.3-1.6,2.2-2.8c0.8-1.2,1.2-2.5,1-3.2c-0.2-0.7-1.2,0.7-1.8,0.9c-0.7,0.3-1.5,1.1-2.8,0.8
	C1522.8,353.1,1522.4,352.6,1521.9,352.4z M1504,280.2c-1.2,0.3-1.8-0.8-2.7-2.7c-0.9-1.9-1.7-2.2-4-1.3c-2.4,0.8-2,0.7-0.4,1.3
	c1.6,0.6,1.8,0.8,2,0.8c0.3,0,2.5,0.3,2,0.7c-0.5,0.3-2.7,0.7-1.3,1.6c1.3,0.9,0.8,0.3,4.4,2.1c3.6,1.9,4.2,0.5,5.3,2.9
	c1.2,2.4,1.2,1.9,0.3,2.5c-0.9,0.6-2.2,1.2-1.7,1.3c0.5,0.1,1.4,0.3,3.9,0.4c2.4,0.2,0.2,1.5,2.9,1.5c2.8,0,3.5-0.8,4.6-2.2
	c1.1-1.3,1.3-0.6,3.6-0.1c2.3,0.5,3.1,2.5,6,3.4c2.9,0.8,4.1,1.9,2.3,0.2c-1.8-1.7-2.4-2.9-4.9-4.8c-2.4-1.9-2.6-2.2-3.3-3.6
	c-0.8-1.5-3.3-3.2-6.1-4.4c-2.8-1.2-4.5-1.3-7.8-2.2C1505.7,276.6,1505.2,279.9,1504,280.2z M1485,273.4c-1.1,0.8-1.2,0.3-2-0.3
	c-0.8-0.5-0.6,1-2.4,0.3c-1.8-0.8-2.4-1.3-4.4,0.2c-1.9,1.4-0.8,2-0.8,3c-0.1,1-1.6,3.9-2.2,4.9c-0.6,1-0.6,1.4-0.2,2.1
	s1.1,0.4,1.3,0.8c0.3,0.3,0,3-0.3,3.9c-0.3,0.8,0.8,1,1.9,0.8c1.1-0.3,0.2-0.3,0.2-1.3s0.5-1.3,0.5-3c0-1.7,0-2.5,0-2.5
	s0.3-0.2,0.8,0.4c0.4,0.6,1,2.2,1.5,3c0.5,0.8,1,1.4,1.8,0.8c0.8-0.6,1.5-1.3,1.5-1.3s-1.5-0.5-1.5-0.9c0-0.5,0.7-0.9-0.4-2.6
	c-1-1.7-1.6-1.8-0.3-1.9c1.3-0.1,1.3-1.3,2-1.8s1.9-0.3,1.9-0.3s-0.8-0.8-1.9-0.4c-1.2,0.3-2.2,0.5-3.2,1c-1,0.5-1.9,0.8-2-0.2
	c-0.2-1-0.3-1.3-0.2-2.6c0.2-1.3,1.7-0.3,2.9-0.7c1.2-0.3,1.2-0.3,3.7-0.1c2.5,0.2,2.8-0.4,3.5-1.4c0.8-1,1.2-2.3,1.2-2.3
	S1486,272.8,1485,273.4z M1491.1,269.8c0.3-0.4-1.9,1.4-2.3,1.9c-0.4,0.3,0,0.9,0.3,1.4s0.3,2.4,0.3,2.8c0.1,0.4,1.2,0.8,1.2,0.8
	s0-1.3,0.3-1.9c0.4-0.6,0-1.3,0-2.4C1490.9,271.5,1490.3,271.1,1491.1,269.8z M1486.9,280.9c-1.7-0.7-2.3-0.3-2.3,0.7
	c0,0.8-0.2,1.3,1.6,1.3C1488,282.8,1490,282,1486.9,280.9z M1490.1,280.3c-0.4,0.2-0.8,1.4-0.6,2.2s0.5,0.3,1.4,0.1
	c0.9-0.2,0.8-0.9,1.9-1c1.2-0.1,3.5,0.8,3.5,0.8s0.5-0.6-1.3-1.8C1493.3,279.5,1492.5,279.6,1490.1,280.3z M1457.1,237.5
	c0,0-1.7,0.1-1.9,0.1s-0.8,0.7-1.3,0.9c-0.4,0.3-0.4,0.6-0.2,1.3s0.8,0.7,1.6,0.9c0.8,0.3,0.5-0.3,1.1-0.6c0.6-0.3,0.8-0.8,0.9-1.3
	c0.1-0.5,0.5-0.7,0.7-0.8c0.2-0.2-0.5-0.8-0.5-0.8C1457.6,237.1,1457.1,237.5,1457.1,237.5z M1476.7,239.8c-0.7-0.5-1,1.2-1.2,2.1
	c-0.2,0.8-0.4,1.4-0.1,2.1c0.3,0.7,0.2,0.8,0.2,0.8l-0.9-0.7c0,0-0.3,0.8-0.3,1.5c0,0.7-0.3,1,0.8,1.5c1.1,0.5,1.4,0.3,1.6,1
	c0.2,0.8,0.2,1.1,0.8,1.3c0.7,0.2,1.5,0.4,1.9,0.9c0.3,0.5,0.2-1.3,0.7-1.2c0.5,0.1,1.1,0.8,1.4,1.3c0.3,0.6,0.9,0.6,0.9,0.6
	s-0.8-1.3-0.5-1.5c0.3-0.2,0.5-0.3-0.5-0.8c-0.9-0.6-1.7-0.4-2.4-0.5c-0.8-0.1-0.8,0.5-1.3-0.9c-0.5-1.4-0.1-2.3-0.1-2.6
	c0-0.3,0.4,0.5,0.8-0.5s0.5-1.8,0.5-2.7c-0.1-0.9,0.7-1.3,0.1-1.3C1478.6,240.1,1477.1,240.1,1476.7,239.8z M1485.3,257.9
	c0.1,0.7-0.7-0.2-0.9,0.2c-0.3,0.4-0.4,0.3-0.9,0.5c-0.4,0.2-1.6,1.3-1.6,1.3s0-0.7,0-0.8s-0.3-0.9-0.7-0.4
	c-0.3,0.5-0.7,0.8-1.4,1.3s-1.3,0.9-1.3,1.6c-0.1,0.7,0.5,0.7,0.5,0.7s0.3-0.3,0.8-1c0.5-0.8,0.6-0.8,1.5-0.8
	c0.9-0.1,0.8-0.1,1.1,0.4c0.3,0.5,0.1,1.3,0.1,1.8s0,1.2,0.9,1.5c0.9,0.3,0.5,0,1.3-0.1c0.8-0.1,0.8-0.1,0.8-0.5
	c-0.1-0.4-0.4-0.8-0.4-1.3c-0.1-0.5,0.5-0.8,0.7-0.8c0.2-0.1,0.3,0.5,0.5,1.1c0.3,0.7,0.3,0.6,0.5,0.2c0.1-0.5,0.4-1.6,0.3-2.2
	c-0.1-0.6-0.2-1.1-0.2-1.6c0-0.5-0.4-1.1-0.7-1.3c-0.3-0.2-1.1-0.9-1.1-0.9S1485.2,257.3,1485.3,257.9z M1481.1,253.8
	c0,0,0-0.4-0.8-1.2c-0.8-0.8-0.8-1-2-1.2c-1.2-0.2-2.4,0.1-1.9,1.3c0.5,1.3,0.7,1.4,1.7,1.6c1,0.2,1.6-0.4,1.6-0.4s0.1,0.2-0.8,0.8
	c-0.9,0.6-1.1,1.8-0.3,2.2c0.8,0.4,0.8,1.1,1.2,0.8c0.4-0.3,0.8-1.5,1.6-2.4c0.8-0.8,0.9-0.9,1-1.9c0.1-0.8,0-1.6,0-1.6
	L1481.1,253.8z M1483.1,251.3c-0.1,0.1-0.8-0.1-0.1,0.6c0.7,0.7,1.3,0.8,1.2,1.3c-0.1,0.5,0,0.6-0.4,0.5c-0.3-0.1-0.5-0.2-0.7-0.2
	c-0.2,0-0.2,0.3-0.1,0.6c0.1,0.3,0.1,0,0.4,0.4c0.3,0.5,0.3,0.7,0.3,1.3c0.1,0.6,0.3,0.3,0.3,0.3s-0.1-1.3-0.1-1.6
	c0.1-0.3-0.1-0.9,0.3-0.8c0.4,0.3,0.3,1,0.6,0.3c0.3-0.8,0.2-1.4,0-2c-0.2-0.6-0.6-0.7-1.2-0.7
	C1483.4,251.3,1483.1,251.3,1483.1,251.3z M1473.8,253.6c-0.3,0.1-0.4,0.3-0.6,1.3s-0.7,1.4-1.3,1.9c-0.6,0.5-2,2-2.1,2.3
	c-0.1,0.3-0.1,0.1,1-0.4c1.1-0.5,2-1.3,2.1-1.9c0.2-0.8-0.2-0.3,0.8-0.8s0.5-0.6,0.5-1.3C1474.5,254,1474.3,253.5,1473.8,253.6z
	 M1533.6,281.2c-0.1,0.9,0.3,1.2-0.6,1.9c-0.8,0.7-1.9,0.7-2.8,0.8s-0.3-0.2-1.3-0.2c-1.2,0-1.4,0.1-0.9,0.6
	c0.5,0.6,0.4,1.1,2.1,1.1c1.7-0.1,3-1,4.1-1.3c1.1-0.3,1-1.2,1.1-1.6C1535.4,282.1,1533.7,280.2,1533.6,281.2z M1538.4,283.2
	c0.5,0.7,0.3,0.6,0.9,1.4c0.6,0.8,1.5,1,2.3,1.3c0.7,0.3,0-0.3-0.5-0.9c-0.5-0.7-0.6-1.1-1.3-1.8
	C1538.8,282.5,1537.5,282,1538.4,283.2z M1477.3,226.6c-2.3,1.4-3.4,1.3-2.4,3.2c0.9,1.9,1.5,2.7,1.6,3c0.2,0.3,0.6-0.3,1.3-1.7
	c0.7-1.5,0.7-3.4,0.9-4C1478.9,226.6,1478.1,226.1,1477.3,226.6z M1517,154.1c0.3,1,0.5,2.5-0.1,2.7c-0.6,0.2-1,1.3-1.1,2.4
	c-0.2,1.1-0.4,2.5,0.2,3.4s0.2,0.9,0.2,1.7c0,0.8,0.3,2.6-0.2,3.7s-0.6,1.3-0.4,2.5s0,1.4,0,3.1c0,1.7-0.1,3,0,3.7
	c0.1,0.7,0.4-0.3,0.7-0.6s1.3-0.3,1.8,0.2c0.5,0.6,0.5,0.6,0.5,0.6s0.8,0.3-0.3-2.2c-1.2-2.5-1.4-2-1.1-4.3c0.3-2.3,0.5-2.4,1.8-2.6
	s1.9,1.4,2,1.6c0.2,0.2-0.1-0.6-0.5-1.9s-0.8-1.8-1-3.4c-0.2-1.7-0.7-3-1.3-3.5c-0.7-0.5-0.3-1.3,0-1.9c0.3-0.7,0.4-1.6,0.3-2.7
	s-0.5-2.7-0.7-3.3c-0.2-0.6-0.9,0.3-0.9,0.3L1517,154.1z M1515.9,179.9c0.1,0.8,0.2,1.4-0.3,2.3c-0.5,0.8-0.2,1-0.4,2.2
	s-1.7,0-1.7,0.3s-0.3,1.1-0.6,1.3c-0.3,0.3-1.6,0.3-1.3,1.5c0.3,1.2,1,2.4,1,2.4s0.8-0.7,0.9-0.8c0.2-0.1,0.8-0.3,0.8-0.3
	s-0.1-0.3-0.9-0.7c-0.8-0.3-0.8-1.2-0.6-1.3c0.1-0.3,1.1,0.1,1.8,0s1.2-0.4,2,0.3c0.8,0.7,1.9,0.8,1.9,0.8s0.2-0.9,0.5-1.6
	c0.3-0.7,1.4-0.3,2.4-0.7c1-0.3,1.9-0.5,1.5-0.9c-0.3-0.4-0.3-1.4-0.6-2.2c-0.3-0.8-0.9,0-1.4,0.3c-0.5,0.3-1.3,0.1-1.9-0.4
	c-0.8-0.5-2-2.3-2.5-3C1516.5,179.5,1515.8,179.1,1515.9,179.9z M1512.7,190.9c-0.3,0.2-0.8,1.1-0.7,2c0.1,1,0.9-0.1-0.2,3
	c-1.1,3-1.6,3.7-2.7,4.5c-1.1,0.8-2,0.8-2.4,0.6c-0.4-0.2,0.1-0.8,0.4-1.1c0.3-0.2-0.9-0.3-1.4-0.2c-0.5,0.1,0,0.7-0.1,1.1
	c-0.1,0.5-1.1,1.8-0.9,2.4c0.1,0.6,0.1,0.8-0.5,0.9c-0.7,0.2-1.1-0.5-1.3-0.6c-0.2-0.1-1.2,0.2-2.4,0.3s-1.6,0.6-2.1,1.5
	c-0.5,0.9-1.9,1.1-2.7,1.4c-0.9,0.3-0.6,1.7-1.6,2.1c-1,0.4-1,1.3-1.1,1.9c-0.1,0.7,0.6,0.2,0.8,0.2c0.1-0.1,0.1-0.9,0.8-0.8
	c0.6,0.1,0.7,0.2,0.4,0.8c-0.3,0.7-0.5,1.1-0.8,1.7s0.1,0.9,0.6,1.5c0.5,0.6,0.9-0.2,1.9-1.3c1-1.1,1.1-1.3,1-2.6
	c-0.1-1.3-0.5-1.3-1.3-1.6c-0.8-0.3-0.9,0-0.1-0.9s1.2,0,1.8-0.4s1.9-0.4,3.3-0.8c1.3-0.3,2.6-0.8,2.7-0.3c0.1,0.4,0.5,1.9,0.5,2.2
	c0.1,0.3,0.9-0.4,1.9-0.8c0.9-0.3,0.1-0.5,0-1.1c-0.1-0.6,0.4-0.9,0.4-0.9s0.4,0.9,1.9,0.3s1.5-0.9,1.9-0.8s0.6,0.5,1.2,0.1
	c0.6-0.4,0.7,0,0.6,0.3c-0.1,0.3,1.8-0.6,2.1-0.8c0.4-0.3,0.2,0,0-1.1c-0.2-1.1-0.7-1.1-0.4-2.5c0.3-1.3,0.3-1.5,0.3-2.4
	c0.1-0.8,0.4-1,0.6-1c0.3-0.1,0.3-1.2,0.7-1.8c0.5-0.6,0.3-0.9,0.3-2.3c0-1.3-0.8-1.1-0.8-2.1c-0.1-1,0.2-1.9,0.2-1.9
	s-1.5,0.6-1.7,0.9c-0.2,0.3-0.2,0.3-0.2,0.3S1513.2,190.7,1512.7,190.9z M1502.5,206.1c-1.6,0.3-2.7,0.4-3.7,0.8
	c-0.9,0.3-1.2,0.8-1,1.7c0.2,0.9,0.5,1.9,0.7,2.4c0.2,0.5,0.7,0,1.5-0.5c0.9-0.5,0.8-1.9,1.7-1.9s0.5,1,1.7-0.4
	c1.2-1.3,0.3-1.5,0.3-2.2C1503.8,205.2,1502.5,206.1,1502.5,206.1z M1603.8,131.3c-1.7-0.3-2.2-0.7-2.4-0.1
	c-0.2,0.6-0.3,0.8,0.8,1.2c1.1,0.3,1.6-0.3,2.6,0.5c1,0.8,1.3,0.8,2.1,0.6c0.8-0.1,1.1-0.5,1.1-0.5S1605,131.6,1603.8,131.3z
	 M1584.2,104.4c-0.7,0.2-1.2-0.4-1,1.1s0.5,1.7,2.5,1.4c2-0.3,0.5-0.1,3.2-0.3c2.7-0.2,3.3-0.6,3.3-0.6s-0.4-0.8-1.3-1.4
	c-0.9-0.7-2.1,0.5-4.2,0.2C1584.6,104.4,1584.2,104.4,1584.2,104.4z M1523.2,81.6c0,0.6,2.7,2.3,3.7,2.7c1,0.5,1.8,0.3,3.8,0.1
	c2-0.3,2.2-1.1,2.4-1.6c0.3-0.5-1-0.3-2.4-0.6c-1.3-0.3-2.5,0.3-3,0c-0.5-0.3,0.8-0.5-0.5-0.9s-1.5,0.2-1.8-0.1
	c-0.3-0.2-0.3-0.7-0.9-0.7C1523.9,80.5,1523.1,81.1,1523.2,81.6z M1512.6,85.1c-0.9,0.3-0.8,0.7,0.2,1.6c1.1,0.8,0.7,0.7,0.3,1.3
	c-0.4,0.7,0,0,1.5,0.7c1.5,0.7,2.1,1.9,3.1,2.2c0.9,0.3,1.6-0.1,1.6-0.1s-0.3-1-1.2-2.2c-0.9-1.2-2.8-1.6-3.2-2.6
	C1514.4,84.9,1513.8,84.6,1512.6,85.1z M1522.2,80.1c0,0-1.3-0.8-3.5-2.1c-2.1-1.3-2.9-1.7-3.5-1.8c-0.7-0.1-0.6,0.8-0.8,1.3
	c-0.3,0.7-0.4,0.5-1.5,0c-1.1-0.5-2.2-1.3-3.3-1.6c-1.1-0.3-1.8,0.7-3,1.9c-1.3,1.3-0.5,1.6,1,3.5c1.5,1.9,2.2,1.9,3.5,1.3
	c1.3-0.8,0.9-1.2,1.8-0.8c0.9,0.3,4-0.3,4.1-0.3c0.1,0-0.2,1.7,1.2,1.3c1.3-0.4,2.6-0.7,3.2-1.3
	C1521.8,80.7,1522.2,80.1,1522.2,80.1z M1428.4,44.1c-0.4,0.3-2.7,0.2-3.9,2c-1.2,1.9-2,0.6-2.6,1.7c-0.6,1.2-1.1,2.5-1.1,2.5
	s1.1,1.3,2.3,1.2s3.2,0.4,4.3,1.9c1.1,1.5,1.9,1.5,4.6,2c2.7,0.4,1.5,0.8,2.9,0.7c1.4-0.2,3.4,0.2,3-0.5c-0.4-0.7-0.8-1.2-0.6-2.5
	c0.2-1.3,1.4-1.3,0-2.2c-1.5-0.9-2.5-0.2-2.4-0.3c0.1-0.2,1.3-0.7,0.8-0.7c-0.5,0-3-0.2-3.3-1.6s0.7-1.5,1.2-1.6
	c0.5-0.1,0.3-0.3-1.1-1.3c-1.4-1-3.4-2.1-3.4-2.1C1428,43.7,1428.8,43.8,1428.4,44.1z M1442,54.3c-1,0.2-1.9,1.3-2.5,2.2
	c-0.6,0.9-1.9,2.3-2.6,2.9c-0.8,0.6-0.5,0.8,0.7,1.2c1.3,0.4,3.4-0.8,4-0.8c0.6,0,1.1,0.9,3,0.7c1.9-0.3,4.9-0.6,3.5-1.7
	c-1.4-1-0.9-0.5-2.5-1.9c-1.6-1.3-3.6-1.3-3.6-1.3s3.3-1.1,2.5-1.2C1443.6,54.3,1442,54.3,1442,54.3z M1358.5,37.7
	c-1.9,0.7-1.3,1-2.4,2c-1.3,1-0.4,1.3,2.3,0.6c2.6-0.7,2.8-0.9,4.5-1.7S1361.2,36.7,1358.5,37.7z M1362.7,42.4
	c-1.8,0.8-1.3,1.6-0.8,2.3c0.5,0.7,1.8-0.4,2.1,0.3c0.3,0.8,0.5,0.4,2.1-0.7c1.7-1.1,1-0.8,0.4-1.9
	C1365.8,41.3,1365.7,41.1,1362.7,42.4z M1352.8,42c-1.2,0.5-1.2,0.5-0.1,1c1.1,0.5,3.7,0.9,5.1,0c1.3-0.9,1.3-0.7-0.4-0.9
	C1355.6,41.8,1354.1,41.4,1352.8,42z M1336,44c1.8-0.2,3.4-0.3,4.8-0.1c1.4,0.2,0.9,1.3-1.7,1.6c-2.6,0.3,0.3,0.7,2.1,0.6
	c1.9-0.1,0.7-1.6,2.2-2.1c1.5-0.5,2.5-0.2,4.4-0.8s-1.1-1.3-3.2-1.3c-2.1,0.1-2.9,0.2-4.6,0.1c-1.9-0.2-3.3,0.7-5.1,1
	C1330.9,43.7,1334.3,44.2,1336,44z M1349.9,44.5c-1.5,0-5.3,0.8-2.1,1.2c3.1,0.3,2.9,0.5,4.2,0C1353.2,45.2,1351.5,44.5,1349.9,44.5
	z M1360.8,45.1c-2.2-0.8-2.3-0.4-4-0.3c-1.7,0.1-2.4,1.1-1.3,1.6c1.1,0.4,1.9,0.3,2.8,0.2c0.9-0.2,0.8-0.4,0.3-0.7
	C1358,45.7,1362.1,45.6,1360.8,45.1z M1370.1,42.4c-1.7,0.3-1.8,0.5-1.9,1.1c-0.2,0.6,0.3,0.4,2,0.2c1.8-0.3,2.6-0.5,3.8-1.1
	c1.2-0.7-0.3-2.2-0.3-2.4c0-0.3-1.7,0.8-2.1,1.3C1371.1,41.8,1372,42.2,1370.1,42.4z M1237.4,139.2c-0.8,2.4-2.3,3.5-0.6,2.8
	s3.3-2.7,3.2-0.9c-0.1,1.8-1.7,1.5-1.2,3.2c0.5,1.7,0.2,1.5,2.9,2.2c2.8,0.6,0.5,0.4,1.2,2c0.7,1.6,1.2,2.1,0.4,2.6
	c-0.8,0.5-2.9-1.5-3-0.7c-0.2,0.8,0.3,1.4,0.8,2.6c0.5,1.2-0.3,1.8-1.9,2.5c-1.6,0.8-0.3,1.3,1,1.2s4.3-0.7,3.8,0.4
	c-0.5,1.1-2-0.2-3,1.6c-1.1,1.8-5,3.4-3,3.3s1.8-0.7,7.8-1.5s1.9-0.1,5.9-1.3c4-1.3,2.7-1.5,0.5-1.2c-2.2,0.3,1.4-2.2,0.9-4.6
	c-0.5-2.4-1.9-0.1-2.9-1.6c-0.9-1.5-0.8-1.9,1-1.3c1.8,0.5,1.6-0.3-1.9-2.5c-3.5-2.2-1.3-1.8-2.9-3.6c-1.6-1.9-4.3-1.6-4.3-1.6
	s1.2-0.7,1.9-2c0.7-1.3,0.8-1.3,1.5-2.9c0.8-1.6-0.8-1.5-2.5-1.1c-1.9,0.4-2.4,0.6-2-0.2c0.4-0.8,0.7-1,1.5-1.9c0.8-0.9,1-1.3-0.6-1
	c-1.6,0.3-1.9,0.3-3.1,0.9C1236.8,135.5,1238.2,136.9,1237.4,139.2z M1233.1,144.8c-2.8,1.1-2,1.8-1.5,2.2c0.5,0.4,1.3-0.3-1.3,1.1
	c-2.6,1.5-2.6,3.1-1.3,3.5c1.3,0.3,1.2-0.8-0.3,1.9c-1.4,2.7-2.4,4.6,0.5,3.9c3-0.7,3.7-2.2,5.1-2.4c1.4-0.2,1.7-1.3,1.7-3
	c0-1.8-0.9-1.8,0.2-3.1c1.1-1.4,1.2-2.9-1-3.6C1233.1,144.5,1234.8,144,1233.1,144.8z M1268.1,182.7c-0.2,0.4,0.2,1.4-0.9,2.1
	c-1.1,0.7,0.5,1.3,0.9,2c0.3,0.7,0.8-2.3,0.8-3.7C1268.7,181.8,1268.5,181.5,1268.1,182.7z M1267.5,188.3c-1.9,0.8-1.9,1.5-2.2,2.9
	c-0.3,1.3,1.5,0.3,1,1.5c-0.5,1.3,0,1.9,1.9,0.7c1.9-1.2,0.8-2.2,1.1-3.6C1269.7,188.3,1269.9,187.2,1267.5,188.3z M1295.8,203.2
	c-1.6-0.2-2.4,0.8,0.4,1.2c2.8,0.3,4,0.3,5.1,0.1c1-0.3,0.2-0.1-1.2-0.9C1298.8,202.6,1297.9,203.4,1295.8,203.2z M1311.3,204.1
	c-2.2-0.5-1.6,2.2,0.7,1.9c2.3-0.4,1.4,0.2,2.4-1.5C1315.4,202.7,1313.6,204.6,1311.3,204.1z M1255.9,191.5
	c-1.9,0.3-1.9,0.8-0.5,1.2s1.3-0.1,2-0.7C1258.1,191.5,1256.7,191.4,1255.9,191.5z M1146.4,158.6c-1.1,0.8-2.4,2.2-4,5
	c-1.6,2.9-1.4,2.5-3,4c-1.5,1.6-0.8,1.2,4,2.1s4.3,1.6,5.4,1.3c1.1-0.3,1.3,0.6,1.3,1.6c0,1,1,0.4,1.5-1.1s-0.5-4.2-1.4-5.8
	c-1-1.6-1.2-1.6-2.7-1.2c-1.5,0.4-1-0.3-1.6-1.6c-0.5-1.2-1.4-0.3-0.1-2.1C1147.2,159.1,1147.5,157.8,1146.4,158.6z M1002.3,155.3
	c0,1.5,1.6,4,2.8,4.9c1.2,0.8,0.9,0.3,0.4-1.4c-0.5-1.8-0.1-1.8-0.3-3C1004.8,154.8,1002.3,154.8,1002.3,155.3z M1010.1,163.6
	c0.3,0.3,1.3,1.7,3,2.8s2.1,1.3,3.8,1.8c1.8,0.5,2.5-0.2,1.3-1.2c-1.1-1-0.2-0.9-2.2-1.3c-2-0.5-2.4-0.3-3.5-0.9
	C1011.6,164,1009.4,162.8,1010.1,163.6z M966.1,146.8c-1.3-0.3-1.9-0.3-2.7,0.3c-0.9,0.7-1.1,1.3-0.7,2.1c0.4,0.8,0.2,0.3,1.3-0.4
	c1.2-0.8,0.6-0.8,2-1.3c1.4-0.3,1.2-0.8,1.2-0.8S966.9,147,966.1,146.8z M965.6,145.1c-0.8,0.5-1.2,0.9-0.2,0.8
	c1-0.2,0.8-0.8,1.4-0.7c0.6,0.2,0.8-0.2,0.8-0.2S966.5,144.5,965.6,145.1z M940.7,141.1c-1.2,0.6-2.4-0.1-1.6,0.3
	c0.8,0.4,1.8,0.8,2.5,0.8s1.3-0.1,1-0.5c-0.3-0.4-0.3-0.5-0.4-0.8C942.2,140.3,941.8,140.5,940.7,141.1z M1340.5,305.5
	c-1.3,3-4.3,1.5-6.6,3.8c-2.3,2.2-1.9,1.5-0.3,4.6c1.8,3.1-1.4,2.8-2.3,6.4c-0.8,3.6,0.9,3,1.9,6.1c0.9,3.1,1.3,2.2,3.1,1.8
	c1.8-0.4,3-1.2,3-1.2s0.3-2.7,1.4-6.7c1.2-4,1.9-6.8,2.2-9.5c0.3-2.6,0.4-4.5,1-3.7c0.6,0.8,0.7,0.8,0.7-0.5c0-1.3-0.7-4.9-1.8-5.7
	C1340.9,299.4,1341.9,302.4,1340.5,305.5z M1342.5,98.5c-1.9,0.4-2.8,1.6-1.4,2s1.3,0.2,3.5-0.6
	C1346.9,99.2,1344.5,98.1,1342.5,98.5z M1377.9,64.2c-0.7-1-1.3,0.3-7.8,3.2c-6.7,2.9-6.6,0.4-12.8,5.3s-4.8,4.3-5.2,7.3
	c-0.3,3-1.8,1.7-2.4,4.4c-0.6,2.7-3.8,2.9-2.2,5.1c1.6,2.2,3.7,3.5,7,4.5c3.3,0.9,4.3-0.1,3.5-0.4c-0.8-0.3-3.3-4.3-2.8-8.9
	c0.5-4.5,2.2-3.8,3.6-5.5c1.4-1.7,5.2-6.1,7.7-7.5c2.4-1.4,8.8-3.5,12-4.6c0.1,0,0.2,0,0.3-0.1C1381.4,64.1,1378.6,65.2,1377.9,64.2
	z M1360.1,94.4c-0.8,0.1-1.2,0.2,0.3,1.5c1.4,1.4,2.7,2.5,2.3,0.6C1362.1,94.7,1360.7,94.3,1360.1,94.4z M1383.8,80.7
	c-1.1-0.5-1.6-1-1.9-0.2c-0.3,0.8,1.2,1.9,2.6,2.2C1385.9,82.9,1384.8,81.2,1383.8,80.7z M1135.1,165.4c-1.6-0.8-3.2-1.4-4.2-1.4
	s0.3,1.1,1.9,2C1134.4,166.9,1136,165.9,1135.1,165.4z M1131.3,172.2c0.1-1.3-0.9,1.5,0.3,2.2c1.2,0.7,1.8,0.8,2.5,0
	c0.8-0.8,0.2-0.3-0.9-0.5C1132.2,173.7,1131.2,173.3,1131.3,172.2z M1604.5,125.8c-1.9,0.2-3.5-0.3-3.5-0.3s-0.1,1.6-0.7,2.4
	c-0.6,0.8-0.2,1.6-0.2,1.6s-1.9-0.8-3.1-1.3c-1.2-0.4-2.2-0.1-2.8-1.8c-0.7-1.7-2.6-1.4-4.1-1.4c-1.5,0-1.1-1.9-1.1-1.9s0,0-0.9,0.1
	c-0.9,0.1-0.8,2.3-1.9,3c-1.2,0.7-4.9,1.2-4.9,1.2s2.4,1.7,2.9,3.1c0.5,1.4,1.4,2.8,1.4,2.8s-0.3,0.7-3.1,0.1
	c-2.9-0.6-2.7,0.6-5.8,1.9c-3.1,1.3-6.6,3.2-7.5,3.9c-0.8,0.7-0.9,0.3-3.6-0.3c-2.7-0.7-3.3,0.8-4,1.1c-0.7,0.3-0.4-1.6-0.4-1.6
	s-1,0-2.2,0.6c-12.3,6.2-3.8,6-4.2,7.3l-1.3,4.9c-1.9,5.4-3,2.6-4.6,6.8c-4.9,13.7-7.7-2.1-7.7-5.7c0-2.2-0.5-5.1,0.9-5.7
	c12.1-5.6,1.2-0.8,12.5-8.6c3.7-2.5,1.7-4,2.5-4.7c0.8-0.7,2.1-0.9,2.1-0.9s0,0-2-0.2c-2-0.2-2,0.3-3.6,1.9s-2.8,2-2.5,0.7
	c0.3-1.3,0.3-2.7-0.8-1.9c-1.2,0.7-1.7,0.6-3.9,1.1c-2.2,0.4-4.6,1.5-6.6,4c-1.9,2.5-0.8,2.2-0.3,2.9c0.7,0.6-3.2,0.4-5.1,0.3
	c-1.9-0.2-0.8-0.5,0.3-0.8s-1.6-0.7-4-1.2c-2.4-0.5-1.4,0.4-2.9,0.9c-1.4,0.6-1.3-0.5-2-0.7s-3.9-0.3-6.1-0.6
	c-2.2-0.3-2,0.2-2.7,0.9c-0.6,0.8-4.7,4.4-6.5,6.5c-1.8,2.1-4,2.5-6,4.5c-2,1.9-2.4,1.9-0.7,2.1c1.6,0.3,1.9,0.2,2.1,1.7s1,2,2.8,2
	c1.8,0,1.3,0.4,1.6-0.8c0.3-1.3-0.4-2.8,1-1.7c1.4,1.2,2.7,2,3.1,3.7c0.4,1.7-0.1,2.9-0.8,5.6c-0.8,2.8-1,6.7-2,8.8
	c-1,2-1.9,3.5-3,5.7c-1.1,2.2-6.7,7.8-7.9,8.3s-2,0.6-2.6-0.6c-0.6-1.1-1-0.9-2.4,0.3c-1.4,1.3-2,2-2.6,4c-0.5,2-1.8,2-3,3.5
	c-1.3,1.5-1.6,1.2-0.7,2.9c0.9,1.7,2.4,3.5,2.6,5.2c0.2,1.7-0.8,4-1.3,5.1c-0.6,1.1-3.5,1.6-3.4,1.1c0.1-0.5,0.1-3,0-4.5
	c-0.1-1.4-1.2-1.4-0.8-1.9c0.4-0.4,1.9-1.2,0.8-2.3c-1.2-1.1-1.9-0.2-2.4-1.4c-0.5-1.3,0.3-2.3-0.1-2.7c-0.3-0.4-1.1-0.9-2.8-1.1
	c-1.7-0.2-2,1.5-2.4,0.1s0.2-1.6-0.6-2.2c-0.8-0.6-1.4-0.2-3.4,1.4c-1.9,1.7-2.4,1.3-4,2c-1.6,0.7-1.6,1.1-1.3,1.7
	c0.4,0.6,1.8,3,2.9,3.2c1.2,0.3,1.9-0.5,3.7-0.5s2,0.3,1.6,0.9s-1.6,1.3-3.7,3.5s-1.4,1.7-0.8,2.6c0.7,0.8,1.8,1.9,2.5,3.5
	c0.8,1.7,0,2.3-0.1,3.2s-0.3,2.4,1.2,4c1.4,1.5,0.4,1,0.3,1.6s-2.5,4.9-3.6,7.1c-1.1,2.2-1.1,2.4-4.6,4.8c-3.5,2.4-5.1,2.7-7,3
	c-1.9,0.3-3.5,0.9-4.5,1.3c-1,0.4-0.6,1.2-0.7,1.7s-1,0.1-0.8-0.7c0.2-0.8,0.1-1.3-0.4-1.5c-0.5-0.2-2-0.8-3.5,0.7
	c-1.6,1.5-3.5,1.6-4.1,3.5c-0.7,1.9-0.5,1.3,0.2,2.1c0.7,0.8,4.1,4,4.9,5.8c0.8,1.8,1,3.1,1,5c0.1,1.9-3.9,5.5-5.6,6.6
	c-1.8,1.2-2.1,2.3-1.9,0.4s-0.8-2.9-2-4.2c-1.3-1.3-5.1-2.4-5.7-2.6c-0.7-0.2,0.3-1.3-0.3-1.2c-0.5,0.1-1.6-0.3-1.4,1.5
	c0.2,1.8-1.2,1.2-1.4,3c-0.3,1.8-0.6,3.5,0.5,3.5c1.1-0.2,0.9,1.6,1.8,3.5c0.8,1.9,0.5,0.8,2.7,2.6c2.2,1.8,1.6,1.4,2.1,3.2
	c0.5,1.8,0.3,2.8,1.4,4.4c1.1,1.6,1.1,1.9-0.7,1.1c-1.8-0.9-3.3-2-4-3.1c-0.7-1.1-1.1-4-1.6-5.3c-0.4-1.4-3.4-3.1-4.3-4
	c-1-1-0.4-1.9,0.1-4.1c0.5-2.4-0.3-4.6-0.4-6s-1.3-5.4-1.9-6.7c-0.5-1.3-0.3-1.2-1.2,0s-1.5,1.9-2.3,1.9s-2-0.2-1.9-0.7
	c0.1-0.5,0.9-2.5,0.7-3.3s-1-3.2-2.1-4c-1.2-0.8-2.4-2-3.2-4c-0.8-2-0.9-1.4-2.4-0.4c-1.4,1-4.6,1.2-6.2,1.3
	c-1.5,0.2-0.3,0.9-0.7,1.6c-0.4,0.8-2.2,1.8-5.8,5.6c-3.6,3.8-4.2,4-5.1,4.3c-0.9,0.4-1.5,0.3-1.5,1.9c0,1.6,0.2,2.4,0,3.8
	c-0.2,1.4-0.6,1.9-1,2.9c-0.4,0.9-0.8,2.5-0.9,3.4c-0.1,0.8-0.9,1.9-2.1,2.7c-1.2,0.8-1.2,0.7-1.8-0.6c-0.5-1.3-3.4-6.1-5.6-10.6
	c-2.3-4.6-1.8-5.3-1.9-6.7c-0.3-1.3-0.3-9.2-0.2-9.8c0.1-0.3-1.1,0.9-1.4,1.6c-0.3,0.7-0.3,1.4-1.6,1.5c-1.3,0.1-1.6,0.2-2.8-1.1
	c-1.3-1.3-1.8-1.9-1.6-1.9c0.3,0,1.6-0.2,2.4-0.5c0.8-0.4,0.5-0.8,0.5-0.8s-0.9,0.1-1.9,0.2c-1.1,0.1-0.6-0.3-1.9-0.8
	c-1.4-0.6-1.7-0.6-1.9-1.3c-0.3-0.6-0.6-1.5-0.8-1.9c-0.2-0.5-0.3-0.5-0.6-1.1c-0.3-0.6-0.9,0.1-2.4,0.2c-1.5,0-1.2,0.1-3,0.8
	c-1.8,0.7-2.1,0.4-4.1,0.4c-2-0.1-3.5-0.9-4.5-1.3c-1-0.3-1.2-0.2-2.7-0.4c-1.5-0.3-1.2-1-1.6-1.6c-0.4-0.7-1-0.8-3-0.7
	c-2,0.2-2,0.1-3.2-0.3c-1.1-0.3-1.2-0.7-2.2-1.7c-0.9-0.9-0.7-0.2-1.3-0.7c-0.6-0.5-1.3-1.2-1.7-2.4c-0.5-1.3-0.4-1.6-0.9-2.2
	c-0.6-0.6-0.5-0.4-2.3-0.4c-1.8,0-0.9,0.1-1.2,0.3c-0.3,0.1-0.8,0.9-1.3,1.5c-0.5,0.6,0.4,1.4,1.1,2.3c0.7,0.8,0.1,0.8,1.2,2
	c1.1,1.3,0.8,1.1,1.5,2.9c0.8,1.8,1.3,2.2,1.5,2.7c0.2,0.5,0.3-0.2,0.5-0.7c0.2-0.5-0.1-2.2-0.1-2.2s0.3,0.7,0.7,1.9
	c0.3,1.3,0.1,1.3,0.3,2c0.3,0.8,0,0.7,1.3,0.7c1.3,0,2.2,0.1,3.7-0.3c1.5-0.3,2.1-1.7,2.9-2.1c0.7-0.4,0.7-1.9,1.2-1.7
	c0.5,0.2,0,1.7,0.4,2.7c0.4,1,0.5,0.7,1.6,1.1c1,0.4,1.3,0.7,2.4,1.1c1.1,0.4,0.3,0.4,0.9,1.5c0.6,1.1,0.5,0.5,1.1,0.8
	s0.3,0.1-0.1,1.3s-0.5,1.3-1.4,2.3c-0.9,1-0.9,0.7-1.1,0.7s-0.4-0.8-0.4-0.8s-0.6,1.3-0.7,2.7c-0.1,1.4,0.5,0.9-1.3,1.6
	c-1.7,0.7-2.8,1-3.4,1.5c-0.7,0.6-0.7,1.3-1,1.7c-0.4,0.3-0.9,0-2,0.4c-1.2,0.4-0.8,0.3-1.8,1.1c-1,0.8-0.1,0.7-1.3,1.2
	c-1.3,0.5-3.5,1.6-4.6,1.7c-1.2,0.1-0.9,0.4-1.2,0.8c-0.3,0.4-0.3,0.7-1.8,0.8c-1.4,0.3-3.2,0.4-4.1,0.8c-0.9,0.4-2.2,1.4-3.1,1.3
	c-0.9-0.2-0.7-0.3-1-1.1s-0.5-1.4-0.6-2.9c-0.2-1.3-0.7-3.5-1.4-4.8c-0.8-1.3-0.8-1.4-1.6-2.8c-0.8-1.4-1.4-2.6-2.2-3.1
	c-0.8-0.5-1.1-0.6-1.5-1c-0.3-0.4-0.2-1.8-0.5-3c-0.3-1.2-0.7-2.4-1.2-3c-0.6-0.7-1.4-1.4-2.2-2.8c-0.8-1.4-0.8-1.5-1.9-3.7
	c-1.1-2.2-1.5-2.4-2.3-3.9s-0.3-1.2-0.5-2c-0.3-0.8-1,1.4-1.5,1.9c-0.6,0.4-0.8,0.3-1.3-1.1c-0.4-1.3-0.8-2.4-1.2-1.9
	c-0.3,0.5-0.6,1-0.2,2.4c0.5,1.3,0.7,1.1,1.3,2.4c0.6,1.3,2.3,4.6,3,5.9c0.7,1.3,0.4,0.7,1,2.7c0.7,2,1,2.3,1.9,3.1s0.7,0.4,1.1,1.8
	c0.4,1.3,0.3,3,0.3,3.8c0.1,0.8,0.5,1.3,1.5,2.1c1,0.8,0.5,0.5,1,1.4c0.5,0.9,0.9,2.2,1.2,3c0.3,0.8,0.6,1.5,1.3,1.9
	c0.8,0.3,1,0.4,1.8,0.8c0.8,0.3,0.5,0.5,1.1,1.2c0.6,0.7,1.6,1.2,2.3,2.3c0.7,1.1,0.3,0.8,0.2,1.9c0,1.1-0.4,0.6,0.1,1.1
	c0.5,0.5,1.3,1,2.6,1.9c1.3,0.9,0.3,0.3,1.5,0.3s1.5-0.3,2.8-0.7c1.3-0.3,3-0.8,4.6-1.2c1.6-0.4,3.2-0.7,4-0.9
	c0.8-0.3,0.8,0.7,0.3,2c-0.7,1.4-0.9,2.6-1.5,3.7c-0.5,1.2-0.8,1.3-1.2,2.2s-3,4.7-3.6,5.9s-1.3,2.2-2,3.1c-0.8,1-3.4,2.8-4.6,3.7
	c-1.2,0.9-0.9,0.9-1.8,2.1c-0.9,1.1-3.5,4.2-4.3,5.4c-0.8,1.1-1.1,1.5-1.7,2.6c-0.5,1.1-2.1,2.6-2.2,3.5c-0.1,0.8-0.9,0.9-0.3,1.6
	c0.7,0.7,1,0.8,1.3,1.7c0.3,0.8-0.8,1.9-0.1,3.5c0.6,1.6,0.2,0.4,1.1,1.8c0.9,1.3,0.8,2.1,1,4c0.1,1.9,0.2,3.7-0.1,4.9
	s-0.7,2-1.1,3.1c-0.4,1.1-2.7,1.9-4,2.4c-1.3,0.6-1.3,0.3-1.9,1.1c-0.6,0.8-2.4,2.3-3,3.5s-1,1-0.8,1.8c0.3,0.8,0.8,1.7,1.3,3
	c0.6,1.3,0.2,1.3,0,2.4s-0.2,1-0.3,2.4c-0.2,1.4-1.9,1.4-3.7,2.2s-1.2,0.3-1.4,1.4c-0.3,1-0.1,3-0.2,4.2c-0.1,1.2-0.7,0.8-1.7,2.2
	c-1,1.5-1.4,2.2-2.5,4c-1.1,1.8-1,1.5-2.4,2.7c-1.3,1.1-2.5,1.4-3.1,2.7c-0.6,1.3-1.3,0.4-4.3,1.4c-3,0.9-0.8,0.5-3.6,0.8
	c-2.9,0.3-3.9,0.5-5.3,0.8c-1.5,0.3-1.3-0.1-2.2-1.1c-0.9-1-1.1-0.9-1.5-1.8c-0.4-0.8-0.1-1-0.3-2.5c-0.2-1.5-0.3-1.6-0.8-2.5
	s-0.5-1.1-1.2-2.6c-0.6-1.5-0.9-1.9-1.6-3c-0.7-1-0.8-0.7-1.5-1.3c-0.7-0.7-0.7-1.3-0.8-2.2c-0.2-0.9-0.3-3.1-0.7-5.4
	c-0.3-2.3,0-1.1-0.4-2c-0.3-1-0.8-2.2-1.4-3.5c-0.6-1.3-0.4-0.9-1.3-2.5c-0.9-1.6-0.8-1.3-1.4-2.8s-0.7-0.8-0.8-1.3
	c0-0.5,0.3-1.5,0.3-2.4s0.3-2,0.6-3.5c0.3-1.4-0.3-1.4,0.3-2.4c0.6-1,1.3-1.9,1.7-3s0.3-1.2,0.3-2.6s-0.2-1.3-0.6-2.5
	s-0.6-2.6-1.1-4.5c-0.5-1.9-0.5-1.9-0.6-2.6c-0.1-0.8-0.4-2.4-0.8-3.4s-0.5-0.6-1.3-1.3c-0.8-0.7-0.3-0.3-0.9-1.1
	c-0.7-0.8-0.6-0.9-1.3-1.8c-0.7-0.8-0.8-0.8-1.3-1.7c-0.5-0.9-0.3-0.3-0.2-1.9c0.1-1.5,0.5-4.4,0.8-6c0.3-1.7,0.3-1.6-0.3-2.3
	c-0.7-0.7-1.1-1.7-1.6-1.9c-0.5-0.2-1.7,0.2-3.4,0.2s-1.7-0.4-2.4-1.3c-0.8-0.8-1.7-2-2-2.4c-0.3-0.3-0.9-0.3-3.9-0.1
	s-1.2,0.3-3.1,0.6c-1.9,0.3-2.7,1.3-4.2,1.9c-1.5,0.5-1.9,0.4-4.6-0.2c-2.6-0.5-4,0.6-5.3,1.2c-1.3,0.6-2,0.3-3-0.3
	c-1-0.7-1.5-1.3-3-1.9c-1.5-0.8-1.2-1.2-2.6-1.9c-1.5-0.8-1-0.8-2.2-1.9c-1.3-1.2-1.3-2.4-2.2-3.5c-0.8-1.2-1.6-2.9-2.7-4.2
	c-1.1-1.3-2.3-3.9-2.8-4.6c-0.6-0.8-1-0.8-1-1.2c0-0.3,1.1-2.5,1.5-3.6s0.6-1,0.8-1.7c0.2-0.7-0.3-2.8-0.7-3.9
	c-0.4-1.1-0.9-3.5-1.3-4.6c-0.3-1.1,0.2-1.1,0.6-1.8c0.4-0.6,1.4-1.9,2.4-3.8c1-1.9,1.6-2.9,2.1-3.8c0.5-0.9,1.8-3.6,2.6-4.4
	c0.8-0.8,2.9-2.2,3.8-2.7c0.9-0.4,1.6-0.7,1.8-1.1c0.2-0.4,0.5-3.7,0.8-5.1c0.3-1.4-0.1-2.2,0.9-2.7c1-0.5,2.6-1.5,3.5-2
	c0.8-0.5,1-1.2,1.4-2.2s0.6-2.4,1.3-2.8c0.7-0.4,0.5,0.2,1.3,0.8s1,0.6,1.4,0.7c0.4,0.1,0.8-0.3,1.8-0.3s1.1,0.1,1.7,0.4
	c0.6,0.3,0.3,0.3,1.9-0.8c1.7-1,3-1.7,5.3-2.5c2.2-0.8,3.7-1.3,4.7-1.4c1-0.1,0.5,0,1.7,0.5c1.2,0.4,1.2,0.7,1.4,0.3
	c0.3-0.3,1-1.3,1.5-1.3s1,0.3,2.3,0.4c1.3,0.3,1.8,0.1,2.3-0.2c0.5-0.3,1.2-0.8,1.3-0.8c0.1,0,1.2,0.3,2,0.7s0.8,0.3,0.7,0.6
	c-0.2,0.3-0.4,0.4-0.8,1.4c-0.4,0.9-0.3,0.4,0.2,1.4c0.4,1,0.7,0.9,0.5,1.7c-0.2,0.8-1,1.4-1.6,2.1c-0.6,0.7-0.4,0.8,1,1.7
	c1.4,0.8,1.1,0.7,2.8,1.4c1.7,0.8,1.7,0.5,3.6,1c1.9,0.6,1.7,0.7,2.4,1.4c0.7,0.8,0.7,1.5,1.9,1.9c1.2,0.4,2.4,0.4,3,0.8
	s1.2,1,2.1,1.2s0.9,0.3,1.3-0.3c0.4-0.7,0.8-1.3,0.7-1.6c-0.2-0.3-0.7-0.8-0.5-1.2c0.1-0.3,0.8-1.6,1.1-2c0.3-0.4,0.8-0.5,2.3-0.6
	s2.4-0.3,2.6,0.6c0.3,0.8,0.2,0.4,1.3,0.9c1.1,0.4,1.2,0.4,2.1,0.8c0.9,0.3,0.4,0.8,0.9,0.8c0.5,0,1.3-0.1,2.1,0.2s2.4,1,4.1,1.1
	c1.7,0.1,2.4-0.4,2.6-0.6c0.3-0.1,1.4-1.6,2.1-0.6c0.7,1,1.6,1,3.4,0.9c1.8-0.1,1.8-0.3,2.2-0.8c0.4-0.4,1.4-2.2,1.8-3.4
	c0.3-1.2,1.3-3.7,1.5-4.9c0.3-1.2,0-2.1-0.1-2.8c-0.1-0.7,0.1-1.2,0.3-1.9c0.3-0.8-0.8-0.3-1.3-0.2c-0.4,0.2-0.6-0.3-1-0.3
	s-0.8-0.3-1.2,0.6c-0.3,0.8-0.2,1.2-1.9,1.1c-1.7-0.1-1.3-0.2-1.9-0.8c-0.5-0.6-1.4-0.8-2.2-0.9c-0.8-0.2-0.8-0.2-0.8,0.3
	c-0.1,0.5-0.1,0.8-0.6,1c-0.5,0.2-1.8,0-2.8-0.5c-1-0.5-1.3-0.8-2.4-1.7c-1-1-0.8-1-1.3-2.5s-0.4-2.9-0.3-3.3
	c0.2-0.4,0.5-0.6-0.3-0.3c-0.8,0.3-1.3,0.3-0.8-0.8c0.5-1.2,1-1.2,1.5-1.3c0.5-0.2,1.3-0.2,2.4-0.3c1-0.1,1.9-0.6,2.2-0.8
	c0.3-0.2,1.1-0.4,0.8-0.5c-0.4-0.1-1.5-0.3-1.3-0.5c0.2-0.3,0.3-0.3,0.9-0.3c0.6-0.1,1.6-0.1,2.4-0.2c0.8-0.1,1.3,0.1,1.6-0.4
	c0.3-0.5,0.6-1.2,1.3-1.6c0.7-0.4,1.3-0.2,3-0.3c1.7-0.1,1.4,0.3,1.9,0.8c0.5,0.4,0.9,0.2,1.6,0.3s0.3,0.6,0.8,0.8
	c0.5,0.3,1.5,0.4,2.8,0.8c1.2,0.4,0.4,0.3,1.9,0.3s1.4,0,2.6-0.2c1.2-0.2,1.7-0.7,2.5-1.3s0.3-1.9-0.1-2.9c-0.3-1-1.6-1.6-2.2-2.1
	c-0.6-0.4-1.9-1.9-2.5-2.5s-1.5-0.8-2.3-1.2c-0.8-0.4-2.1-1.1-2.3-1.7c-0.2-0.6,0.3-0.6,1.4-0.8c1.1-0.3,0.8-0.5,1-1.1
	c0.3-0.6,0.3-0.6,1.3-0.9c0.9-0.3-1.1-1-1.3-1.4c-0.3-0.4,0.6-0.3,1.5-0.5s1-0.7,1.1-1c0.2-0.4,0.1-0.6-1-0.6
	c-1.1,0-2.4,0.5-4.3,0.9c-1.9,0.5-1,0.5-2.1,1.3c-1.1,0.8-1.2,0.5-1,0.9c0.2,0.5,0.3,0.9,1.3,1.5c1.1,0.6,0.7,0.6,0.9,0.7
	c0.3,0.1,1.1,0.2,0.8,0.3c-0.3,0.2-0.7,0.7-1.2,0.7c-0.5,0-0.8,0.5-1.6,1s-1.3,0.6-1.9,0.7c-0.7,0.1-1.1-0.1-1-1.2
	c0.1-1.1-0.3-0.3-1-0.6c-0.7-0.3-0.9-0.5-0.9-0.5s0.7-0.3,1.3-0.7c0.7-0.4,1-0.7,1.3-1.5c0.3-0.8-0.8-0.3-1.5-0.5
	c-0.8-0.2-0.5-0.2-1.3-0.3c-0.8-0.1-1-0.7-1-0.7s0.3,0.2,1,0.1c0.7-0.1,0.5-0.3,0.8-0.4s0.4-0.3,0.3-0.3s-0.9,0.1-1.5,0.1
	c-0.5,0-0.8-0.1-1.6,0s-0.4,0.4-1,0.8c-0.5,0.3-0.6,0.5-0.8,1c-0.3,0.5-0.4,0.4-0.6,0.8c-0.2,0.3-0.2,1.2-0.2,1.8
	c0,0.6-0.2,0.8-0.5,1.3c-0.3,0.5-0.3,0.3-0.9,0.6c-0.6,0.3-0.2,0.5-0.3,1.1c-0.1,0.6-0.3,0.8-0.3,1.5c-0.1,0.8-0.3,0.8-0.8,1.3
	c-0.4,0.5-0.7,0.5-0.8,1.1c-0.1,0.5-0.2,0.8,0,1.9c0.2,1,0.4,0.8,1.3,1.9s1.3,0.7,0.9,1.2c-0.3,0.5-0.3,0.3-1.3,0.3
	c-1-0.1-1.2,0-1.9,0.8c-0.8,0.7-0.8,1.1-1.3,1.3s-0.3-0.5-0.4-0.8s-1.9-0.5-3-0.8c-1.2-0.3-1.4-0.5-1.8-0.5c-0.3,0-0.8-0.1-1.9,0.6
	c-1.2,0.7-0.9,1-0.8,1.9c0.1,0.8,1,1,0.8,3c-0.3,2,1,1.1,1.5,2.4c0.5,1.3,0.1,1.1-0.3,1.3c-0.3,0.2-0.7,1.2-0.9,2.2
	c-0.3,1,0,1.2-0.3,1.1c-0.3-0.1-0.7,0.2-1.2-0.7c-0.6-0.8-1-0.1-1.1-0.5c-0.1-0.5-0.8-1.3-0.5-2.4c0.3-1.1,0.7-1.2-0.3-1.8
	c-1-0.6-0.8-0.7-1.2-1.9s-0.6-1.4-1.4-2.5c-0.9-1.1-0.8-0.8-0.6-1.9c0.3-1.1,0.4-2.5-0.1-3.3c-0.5-0.8-2.8-2.9-4.6-3.8
	c-1.9-1-2.2-0.3-3-1.8c-0.8-1.6-1.2-3.2-2.5-4.1c-1.3-0.9-0.7-1-1.9-0.6c-1.3,0.5-1.3,0.7-1.2,1.1c0.1,0.4,0.4,0.9,0.3,1.9
	c-0.2,1-0.4,0.7,0.9,1.5s0.8,0.7,1.4,2.1c0.7,1.5,0.8,1.8,1.3,2.4c0.5,0.6,0.8,1.1,2.1,1.4s1.2-0.1,1.5,0.3c0.3,0.3-0.9,0.4-0.7,0.6
	c0.3,0.2,0.5,0.6,1.7,1.3c1.2,0.7,2.3,1.4,2.6,2s1.3,2.6-0.2,1.1s-1.5-0.8-1.9,0.3c-0.4,1.1,0.3,1.9,0.3,2.6
	c-0.1,0.8-0.8,0.5-1.2,1.1s-0.7,1.3-1.3,1.8c-0.5,0.4-0.4-0.4-0.7-0.4c-0.3,0-0.4,0.4-0.8,1.1c-0.4,0.8,0,1,0.2,2
	c0.2,1,0.4,1.1-0.6,1c-1.1-0.1-0.8-1-1.8-1.7c-1-0.7-1.5-0.4-2.4-0.9c-0.8-0.5,0.3-0.7,2.4-0.9s2.3-0.4,2.9-0.9
	c0.6-0.5,0.4-0.6,1.1-1.6c0.7-0.9,0-1.3-0.5-2.5c-0.4-1.2-1.3-1.7-1.6-1.9c-0.3-0.3-1-0.9-1.6-1.6c-0.6-0.7-1.3-0.8-2.3-1
	s-0.8-1.2-1.4-1.4s-1.2-1.1-2.4-2.3s-0.8-2.1-1.4-3.2c-0.6-1.1-1.2-1.9-2.5-1.9c-1.3,0-2.3,0.9-3.5,2.2c-1.3,1.3-1,1.9-2.5,0.9
	c-1.5-0.9-2-0.8-3.1,0.1s-1.3,1.9-1.3,3.6c0,1.9-1.3,1.1-2.4,1.6c-1,0.5-1.9,1.8-3.5,4.7c-1.6,3,0.1,1.6-0.3,2.6
	c-0.3,1,0.1,1.9-1.3,3.1c-1.4,1.3-0.8-0.2-1.7,0.9c-0.8,1.1-2,1.9-4.1,1.7c-2-0.3-1.4,0.6-2.8,0.8c-1.3,0.3-2,0.8-1.7-0.7
	c0.3-1.4,0.1-1.3-2.4-1.2c-2.5,0.1-3.4,0.8-3.1,0.4c0.3-0.3,0.3-0.9,0.6-2.4c0.3-1.4,0.7-1.9,0.3-1.9c-0.4,0-1.2,0.2-0.6-2.4
	c0.6-2.5,0.8-3,0.5-4.5c-0.3-1.4,0.1-3.5-0.3-4.3c-0.3-0.8,0.7-1.7,0.3-2.2c-0.4-0.4-0.9-1.1-0.6-1.1s1.7,0.1,3.4,0.3
	c1.8,0.3,3.5-0.3,4.6-0.2c1,0.1,3.2,0.6,5.4,0.9s2.1-0.3,1.9-3.5c-0.3-3.2,0.2-4.6-0.5-5.3c-0.7-0.7-1.3-0.6-2-1.4s-0.2-2.1-1.7-2.6
	c-1.5-0.4-3.2-0.1-2.4-0.4s1.2-0.4,0.3-1.1c-0.8-0.7-1.1-1.3-0.4-1.4c0.7-0.1,2.5-0.1,2.5-0.1s0.2,0.9,1.2,0.5s2.2-0.8,1.9-1.4
	c-0.3-0.7-0.8-1.4-0.6-1.4s0.5,0.9,2.6,0.9c2,0,1.9-0.3,1.8-1.2c-0.2-0.8,1.3-0.8,2.4-1.5c1-0.7-0.4-1.5-0.2-2.2s1.4-1.1,3.5-1.2
	c2.1-0.2,1.8-0.5,1.5-0.8c-0.3-0.3,0.1-1.3,0.3-2.7c0.2-1.3-0.2-1.9,0.9-2.4c1.1-0.7,0.8-0.4,3-0.6c2.2-0.2,0.8-0.7,1.3-0.8
	c0.4-0.1,3-0.8,3.5-0.9s0.4-0.2,0-1.1s-1-1.5-1.5-6s-0.4-4.5,2.4-5.2c2.7-0.8,2.1-0.6,1.9,1.9c-0.3,2.4-1.4,2.4-1.7,4.3
	c-0.3,1.9-0.1,3,1.1,4.8c1.2,1.9,1,0.9,3.5,0.9c2.4,0,1.9,0.6,3.5,1.2c1.6,0.6,1.1-1,2.7-1.6c1.6-0.6,1.3,0.3,4.9-0.2
	c1.4-0.3,1.9-0.3,2-0.3c-0.1,0-0.5,0-0.1-0.3c0.8-0.5,1.1-1.4,2.4-1.6c1.3-0.2,2.1,0.3,2-1.6c-0.1-1.9-0.8-1.6-0.5-3.1
	c0.3-1.4,0.3-0.8,0.4-1.9c0.1-1.2-0.2-1.3,1.4-1.8c1.6-0.4,0.5,1.4,2.4,1.9c1.9,0.4,1.6,0.7,1.9-0.8c0.3-1.4,1.3-3.4,0.4-3.3
	c-0.9,0.1-1.2-0.1-2-1.4c-0.9-1.3-1.4-1.7-0.8-1.7s2.6-0.6,5.5-0.4c2.9,0.1,3.7,0.3,3.9,0.1c0.2-0.3-0.5-0.6,0.5-1.2
	s4.2,0.3,3.7-0.3c-0.5-0.6-3.3-1.3-5.2-1c-1.9,0.3-6.5,0.8-7.2,0.8c-0.7-0.1-2-0.6-2.4-0.9c-0.3-0.3-1.3-0.6-1.3-2.3s0.6-2.4-0.4-4
	s1.8-3,3.7-4.7c1.9-1.7,1.4-3.1,2.5-3.2c1.2-0.1,1.6-0.7,1-1.3c-0.5-0.6-2.5-2.4-3.5-2.7c-1-0.2-2.4-1.3-4,1.3
	c-1.5,2.7,0.1,2.9,0.4,4.2c0.3,1.3-2.1,2.4-3.9,3.6c-1.8,1.3-2.4,0.9-3,4.2c-0.5,3.2-1.1,3.3,0.9,4.5c2,1.2,2.4,1.7,1.4,2.6
	s-2.9,0.9-4,3.2c-1.2,2.3-0.7,3.4-1.2,4.4c-0.5,1-2,1.4-2.4,2.4c-0.4,1-0.4,3-2.3,2.6s-0.8-2.8-1.6-4c-0.8-1.3-1.4-2.4-2.4-3.9
	c-1-1.6-0.3-3.1-1.2-3.9c-0.9-0.8-1.2-2.4-1.2-2.4s0,0-0.3,0.8c-0.3,0.8-0.2,1.2-2,3.5c-1.9,2.3-4.6,2.4-6,1.9
	c-1.3-0.6-1.2-1.9-1.2-3.5c0-1.7-0.3-3.9-0.1-6.5c0.3-2.6,1-2.4,3.9-4.1c2.9-1.7,3-1.6,3.6-2.7c0.7-1.1,2.8-2.7,4-3.7
	s3.3-4.8,4.3-7.6c1.1-2.7,3.1-4.4,5.1-7.3c1.9-3,5.4-5.5,9.9-7.3c4.5-1.9,3.7-2.1,4.7-3.5c1-1.4,1.4-0.6,3.2-0.9
	c1.8-0.3,1.4,0-0.3,1.7c-1.8,1.7-2.5,3.5-1,2.2c1.4-1.3,2.6-3,4.9-2.9c2.3,0.1,1.3,0,3.5,1s2.6,1.1,1.3,1.9
	c-1.3,0.8-3.4,0.6-3.4,0.6s0.7,1.7,2.8,1.9c2,0.3,3.2-1.6,4.6-0.9c1.3,0.7,1.8,1.2-0.1,1.1c-1.9-0.2-2.4,1-0.1,1.9
	c2.3,0.8,2.5,0.9,5.5,1.3c3,0.4,4.3,2.6,6.6,3.5c2.3,0.9,4.9,0.2,4.1,2.2c-0.8,2.1,0.6,4-3.4,5.1c-4,0.9-3.9-0.3-7.2-1.3
	s-5.6-2-5.6-2s0.8,1.2,2.4,2.6s1.7,2.7,1.5,5.3c-0.2,2.6-0.8,3.3,1.8,4.6c2.6,1.3,2.2,0.9,3,0.7c0.8-0.2,2.2-0.4,1.9-0.8
	c-0.3-0.4-0.6-1.2-1.4-1.6c-0.8-0.4-0.9-1.3-0.1-1.9c0.8-0.4,1.7,0.4,3.5,0.3c1.9-0.1,0-0.7,0.9-1.7c0.9-0.9,1-2.6,3.2-3.5
	c2.2-0.8,4.6,0.4,5.2-0.6c0.6-0.9,1.3-2.1,0-3.5s-2.2-1.9-1.4-2.7c0.8-0.7,2.3-2.6,3-1.5c0.7,1.1,2.5,2.2,0.3,2s-0.7,3.4,1.3,3.2
	c2-0.2,1.9-0.8,3.5-1.7c1.7-0.8,5-3.5,7.3-4.3c2.4-0.8,2.8-0.6,3.7-0.2c0.9,0.4,0.9,1.2,3.5,0.7c2.5-0.5,3.3-1.1,5.7-1.5
	c2.4-0.4-0.2,0.8,0.9,1.2c1.1,0.3,1.2,0.7,2,0.1c0.8-0.6,3.5-1.4,2.2-2.4c-1.2-0.9-2-1.5-2-1.5s0.8-1.9,3.1-1.8
	c2.3,0.2,5.7,2.3,8,3.8c2.2,1.5,4.9,4.7,4.9,4.7s1-1.7,0.2-4.5c-0.8-2.8-2.9-2.1-2.9-4.7c0-2.6-1.9-1.9-1.3-3.8c0.7-1.9,2.5-2.6,3-5
	c0.5-2.4,0.9-4.3,2.6-4.3c1.7,0,5.3,0.5,5.3,0.5s0,2.2-1.3,5.4c-1.3,3.2,0.7,3.5,0.4,7.5c-0.3,4-0.4,4.5,0.5,5.3
	c0.9,0.9,2.7,2,2,3.7c-0.7,1.7-1,2.8-3.4,3.7c-2.4,0.9-5.6,0.4-4.4,1.2s2.6,1.4,4.2,1.7c1.6,0.3,0.8-0.1,2.1-1.2
	c1.3-1.1,4.2-3.2,4.1-4.2c-0.1-1-1.7-2.6-0.6-3.3c1.1-0.8,1.5-1.9,3.2-0.9c1.7,0.9,3.3,4.6,3.3,4.4s-0.3-3.5-2.4-5.6
	c-2-2-5.3-0.1-5.3-1.9c0-1.8,0.9-4.2,0.7-6.1c-0.3-1.9-1-3.8,0.3-5.5c1.3-1.7,1.3-3,1.3-3s0.5,1.6,0.1,3.5s0.3,3.1,1.2,3.1
	s5.1,0.1,2.8-0.6c-2.2-0.7-2.9-1.3-0.7-2.4c2.2-1.2,2.1-0.4,5.4,0.3c3.3,0.8,4,1.3,5.1,1.3c1.1-0.1,0.9-0.2,0.5-1.1
	c-0.3-0.9-0.8-1.6-1.9-2.3s-1.8,0.2-2-0.8c-0.3-1-0.9-3.5-1.2-4.5c-0.3-0.9,0.8-0.2,2.5-0.2c1.8,0,6.5-0.3,10.1-0.3
	c3.6-0.1,0.1-3.9-0.3-6.6c-0.3-2.7,6.7-2.8,10.1-3.3c3.4-0.5,7.3-0.3,13.7-1.9c6.4-1.5,2.3-1.3,3.2-3c0.9-1.9,2.5-2.1,4.4-2.1
	c1.9,0,3.6,0.3,3,0.6c-0.7,0.3-2.8,1.3,0.5,2c3.3,0.7,2.4,0.7,0.7,1.3c-1.8,0.6-0.3,1.7,3.1,1.7c3.4,0,1.3-0.3,0.8-1.4
	c-0.5-1.1,0.5-0.7,3.3-0.3c2.8,0.4,3.9,0.9,5.4,2.4c1.5,1.4,1.8,1.1,2.4,3c0.5,1.9-0.1,1.7-2.4,3.5c-2.4,1.9-3.7,1.9-7.1,4
	c-3.4,2.1-2.5,3.2-4.4,4.6c-1.9,1.4-1.3,1,2.5,0c3.9-1,6-1.7,8-1.4c2,0.2,3,0.9,4.5,0.9c1.5,0-0.1,0.3,4.6,0.3s4,0,2.4,1.3
	s0.3,1.8,2.4,1.8s4.7,0.1,6.7-0.2c1.9-0.3,0.3-1.8,2.6-1.9c2.4-0.1,3.1-0.3,5.6-0.3c2.5,0,1.8,1,2.6,1.9c0.8,0.9,2,1.5,1.3,3.3
	c-0.8,1.9-1.3,1.9-0.8,4.3c0.5,2.4,1.8,2.9,3.3,3.3c1.5,0.4,1.5-2.2,3-3.1s1.8,1.9,3.5,1.4c1.7-0.4,3.5-0.2,5.1,0.3
	c1.4,0.4,2.7,0.7,4.8,0.3c2-0.4,1.4-1.3,0.7-2.5c-0.7-1.3-0.8-1.2,0.5-2.4c1.3-1.3,2.2-0.7,6.4,0.4c4.2,1.1,2.9,1.1,5.2,1.8
	c2.4,0.7,1.6,0.5,5.2,2.2s3,3.6,4.6,4.7c1.7,1.1,1.8,0,5.1-0.3c3.4-0.3,3.3,0.4,7,1.3c3.7,0.9,2.7,2.2,2.7,3.2s-1,1.9,1.3,2.4
	c2.3,0.5,3.2,0.9,5.1,0.4c1.9-0.5,0.3,0.5,4.6,0.6c4.3,0.1,2.9-0.5,4.1,0.4c1.3,0.9,1.6,2.7,3.7,2.5c2.1-0.2,1.9-0.2,1.1-2
	c-0.8-1.9-1.4-2.2-0.2-2.1c1.3,0.1,3.8,0.6,8.5,1.3s4.9,1.6,8.8,4s4.9,2.6,7.8,4.8c1.1,0.8,1.3,1.1,1.3,1.1c0.1,0,0.3,0.1,1.4,0.6
	c3,1.4,2.5,0.9,5.1,2.2c2.6,1.3,4.8,3,4.8,3S1606.5,125.6,1604.5,125.8z M1351.7,177.1c0,0-0.3,0.4,1.3-0.8c1.5-1.2-0.7-0.1-1.6-0.3
	c-0.8-0.3-1.2-0.7-0.8-1.8c0.3-1.1-0.1-1.1-1-2.6c0,0-0.5-0.3-1.5,0.3c-1,0.6-1.6-0.6-2.9-0.2s-2.6,0.3-3.4,2.1s-1.6,0.7-1.9,2.2
	c-0.3,1.5-2.6,2.4-2.6,2.4s0.9,0.9,1.6,1.8c0.7,0.8,0.3,0.3,0.9,3.1c0.7,2.9,1.2,2.6,2.2,3c1,0.4,2.5,1.3,2.5,1.3s-0.9-0.6-0.9,0.9
	s-1.4,2.6-1.3,4.8c0.2,2.2-2,4.3-0.3,4.5c1.8,0.2,1.2,0.9,3.1,1.4c1.9,0.5,3,0.8,5.7,0.8c2.8,0,1.3-1.1,0.8-2.6
	c-0.4-1.6-0.6-2.6-0.7-4.3s-0.8-1.3-1.2-2.4s0.3-1.7,1.5-1.7s1.4-0.1,0.8-1.2c-0.7-1.2-0.3-1.6-1.2-2.1c-0.8-0.5-1.3,1.7-1.3,1.7
	s-0.5-0.5-0.3-2.6c0.3-2.1,0.4-1.1-0.3-1.5c-0.7-0.4-1,0.1-1.9-1.3c-0.8-1.4-0.1-1.1-1.1-2.9c-1-1.7-0.5-0.8,0.7-0.8
	c1.1,0,0.5-0.3,0-0.8c-0.5-0.6-0.9-1.4,0.5-1.3s3.4,0.4,4,0.4C1352,176.9,1351.7,177.1,1351.7,177.1z M1149.6,99.4
	c-0.5,0.8,0.8,1.9,1.9,1.6s1.3,0,1.9-0.4s0.6-1.1-0.1-1.8c-0.7-0.7-0.4-1-0.5-1.1C1151.5,97,1150.1,98.5,1149.6,99.4z M1417.5,43.7
	c-1.4,0.1-3.1,0.1-1.8,0.6c1.3,0.4,0.8,2.7,3.4,1.4c2.6-1.3,2-1.3,3.9-2.1c1.8-0.8,0.8-0.4-1.4-0.9
	C1420.2,42.3,1418.9,43.6,1417.5,43.7z"/>
<g>
	<path class="st7" d="M1472.2,130c-8.5,3.4-8.3,10.6-8.3,10.6h-0.9c0-10,8.7-12.6,8.7-12.6S1472,129.1,1472.2,130L1472.2,130z"/>
	<path class="st7" d="M1463.1,135.1L1463.1,135.1c0.6-1.3,1-2,1-2c-2.7-5.9-7.8-7.8-7.8-7.8s-0.9,1-1.3,1.8l0,0
		C1455,127.1,1461.1,129.3,1463.1,135.1"/>
	<path class="st7" d="M1462.2,138.4c-0.6-2.4-2.4-6.4-8.2-8.7l0,0c0.2-0.8,0.7-2,0.7-2s6,1.9,8.1,8.2
		C1462.8,135.9,1462.5,136.8,1462.2,138.4L1462.2,138.4z"/>
	<path class="st7" d="M1464.3,132.5c-0.1-0.3-1-1.8-1-1.8c2.8-4.1,6.5-5.5,6.5-5.5s0.9,1,1.3,1.8l0,0
		C1471.2,127.1,1466.9,128.6,1464.3,132.5L1464.3,132.5z"/>
</g>
<g>
	<path class="st7" d="M1520.7,321.3c-8.5,3.4-8.3,10.6-8.3,10.6h-0.9c0-10,8.7-12.6,8.7-12.6S1520.6,320.4,1520.7,321.3
		L1520.7,321.3z"/>
	<path class="st7" d="M1511.6,326.4L1511.6,326.4c0.6-1.3,1-2,1-2c-2.7-5.9-7.8-7.8-7.8-7.8s-0.9,1-1.3,1.8l0,0
		C1503.5,318.5,1509.6,320.6,1511.6,326.4"/>
	<path class="st7" d="M1510.8,329.8c-0.6-2.4-2.4-6.4-8.2-8.7l0,0c0.2-0.8,0.7-2,0.7-2s6,1.9,8.1,8.2
		C1511.4,327.2,1511.1,328.1,1510.8,329.8L1510.8,329.8z"/>
	<path class="st7" d="M1512.9,323.9c-0.1-0.3-1-1.8-1-1.8c2.8-4.1,6.5-5.5,6.5-5.5s0.9,1,1.3,1.8l0,0
		C1519.7,318.5,1515.4,319.9,1512.9,323.9L1512.9,323.9z"/>
</g>
<g>
	<path class="st7" d="M1302,269.9c-8.5,3.4-8.3,10.6-8.3,10.6h-0.9c0-10,8.7-12.6,8.7-12.6S1301.8,269.1,1302,269.9L1302,269.9z"/>
	<path class="st7" d="M1292.8,275L1292.8,275c0.6-1.3,1-2,1-2c-2.7-5.9-7.8-7.8-7.8-7.8s-0.9,1-1.3,1.8l0,0
		C1284.8,267.1,1290.9,269.3,1292.8,275"/>
	<path class="st7" d="M1292,278.4c-0.6-2.4-2.4-6.4-8.2-8.7l0,0c0.2-0.8,0.7-2,0.7-2s6,1.9,8.1,8.2
		C1292.6,275.8,1292.3,276.8,1292,278.4L1292,278.4z"/>
	<path class="st7" d="M1294.1,272.5c-0.1-0.3-1-1.8-1-1.8c2.8-4.1,6.5-5.5,6.5-5.5s0.9,1,1.3,1.8l0,0
		C1300.9,267.1,1296.7,268.5,1294.1,272.5L1294.1,272.5z"/>
</g>
<g>
	<path class="st7" d="M1312.5,154.5c-8.5,3.4-8.3,10.6-8.3,10.6h-0.9c0-10,8.7-12.6,8.7-12.6S1312.3,153.7,1312.5,154.5
		L1312.5,154.5z"/>
	<path class="st7" d="M1303.3,159.6L1303.3,159.6c0.6-1.3,1-2,1-2c-2.7-5.9-7.8-7.8-7.8-7.8s-0.9,1-1.3,1.8l0,0
		C1295.3,151.7,1301.4,153.9,1303.3,159.6"/>
	<path class="st7" d="M1302.6,163c-0.6-2.4-2.4-6.4-8.2-8.7l0,0c0.2-0.8,0.7-2,0.7-2s6,1.9,8.1,8.2
		C1303.2,160.4,1302.8,161.4,1302.6,163L1302.6,163z"/>
	<path class="st7" d="M1304.7,157.1c-0.1-0.3-1-1.8-1-1.8c2.8-4.1,6.5-5.5,6.5-5.5s0.9,1,1.3,1.8l0,0
		C1311.4,151.7,1307.2,153.1,1304.7,157.1L1304.7,157.1z"/>
</g>
<g>
	<path class="st7" d="M1406.8,223.5c-8.5,3.4-8.3,10.6-8.3,10.6h-0.9c0-10,8.7-12.6,8.7-12.6S1406.6,222.6,1406.8,223.5
		L1406.8,223.5z"/>
	<path class="st7" d="M1397.7,228.6L1397.7,228.6c0.6-1.3,1-2,1-2c-2.7-5.9-7.8-7.8-7.8-7.8s-0.9,1-1.3,1.8l0,0
		C1389.6,220.7,1395.6,222.9,1397.7,228.6"/>
	<path class="st7" d="M1396.8,232c-0.6-2.4-2.4-6.4-8.2-8.7l0,0c0.2-0.8,0.7-2,0.7-2s6,1.9,8.1,8.2
		C1397.4,229.4,1397.1,230.4,1396.8,232L1396.8,232z"/>
	<path class="st7" d="M1398.9,226.1c-0.1-0.3-1-1.8-1-1.8c2.8-4.1,6.5-5.5,6.5-5.5s0.9,1,1.3,1.8l0,0
		C1405.8,220.7,1401.5,222.1,1398.9,226.1L1398.9,226.1z"/>
</g>
<g>
	<path class="st7" d="M1338.1,224c-4.7,1.9-4.6,5.9-4.6,5.9h-0.5c0-5.6,4.8-7.1,4.8-7.1S1338,223.4,1338.1,224L1338.1,224z"/>
	<path class="st7" d="M1332.9,226.8L1332.9,226.8c0.3-0.8,0.6-1.1,0.6-1.1c-1.5-3.3-4.3-4.4-4.3-4.4s-0.5,0.6-0.8,1l0,0
		C1328.5,222.3,1331.8,223.6,1332.9,226.8"/>
	<path class="st7" d="M1332.5,228.7c-0.3-1.3-1.3-3.5-4.6-4.8l0,0c0.1-0.5,0.3-1.1,0.3-1.1s3.4,1,4.6,4.6
		C1332.8,227.2,1332.7,227.8,1332.5,228.7L1332.5,228.7z"/>
	<path class="st7" d="M1333.7,225.4c-0.1-0.2-0.5-1-0.5-1c1.5-2.3,3.6-3,3.6-3s0.5,0.6,0.8,1l0,0
		C1337.5,222.3,1335.1,223.2,1333.7,225.4L1333.7,225.4z"/>
</g>
<g>
	<path class="st7" d="M1098,173.5c-8.5,3.4-8.3,10.6-8.3,10.6h-0.9c0-10,8.7-12.6,8.7-12.6S1097.8,172.7,1098,173.5L1098,173.5z"/>
	<path class="st7" d="M1088.9,178.7L1088.9,178.7c0.6-1.3,1-2,1-2c-2.7-5.9-7.8-7.8-7.8-7.8s-0.9,1-1.3,1.8l0,0
		C1080.8,170.7,1086.8,172.9,1088.9,178.7"/>
	<path class="st7" d="M1088,182c-0.6-2.4-2.4-6.4-8.2-8.7l0,0c0.2-0.8,0.7-2,0.7-2s6,1.9,8.1,8.2
		C1088.6,179.4,1088.3,180.4,1088,182L1088,182z"/>
	<path class="st7" d="M1090.1,176.1c-0.1-0.3-1-1.8-1-1.8c2.8-4.1,6.5-5.5,6.5-5.5s0.9,1,1.3,1.8l0,0
		C1097,170.7,1092.7,172.2,1090.1,176.1L1090.1,176.1z"/>
</g>
<g>
	<path class="st7" d="M1152.5,299.5c-8.5,3.4-8.3,10.6-8.3,10.6h-0.9c0-10,8.7-12.6,8.7-12.6S1152.3,298.6,1152.5,299.5
		L1152.5,299.5z"/>
	<path class="st7" d="M1143.3,304.6L1143.3,304.6c0.6-1.3,1-2,1-2c-2.7-5.9-7.8-7.8-7.8-7.8s-0.9,1-1.3,1.8l0,0
		C1135.3,296.6,1141.4,298.8,1143.3,304.6"/>
	<path class="st7" d="M1142.6,307.9c-0.6-2.4-2.4-6.4-8.2-8.7l0,0c0.2-0.8,0.7-2,0.7-2s6,1.9,8.1,8.2
		C1143.1,305.4,1142.7,306.3,1142.6,307.9L1142.6,307.9z"/>
	<path class="st7" d="M1144.7,302c-0.1-0.3-1-1.8-1-1.8c2.8-4.1,6.5-5.5,6.5-5.5s0.9,1,1.3,1.8l0,0
		C1151.4,296.6,1147.2,298.1,1144.7,302L1144.7,302z"/>
</g>
</svg>
