<?xml version="1.0" encoding="utf-8"?>
<!-- Generator: Adobe Illustrator 26.4.1, SVG Export Plug-In . SVG Version: 6.00 Build 0)  -->
<svg version="1.1" id="Layer_1" xmlns="http://www.w3.org/2000/svg" xmlns:xlink="http://www.w3.org/1999/xlink" x="0px" y="0px"
	 viewBox="0 0 1920 489.6" style="enable-background:new 0 0 1920 489.6;" xml:space="preserve">
<style type="text/css">
	.st0{fill:#D2284E;}
	.st1{fill:#B01E36;}
	.st2{fill:#EA5674;}
	.st3{fill:#F0869A;}
	.st4{fill:#F6A8B5;}
	.st5{fill:#F9D1DC;}
	.st6{opacity:0.11;fill:#FFFFFF;enable-background:new    ;}
	.st7{opacity:0.7;fill:#EDEDED;enable-background:new    ;}
	.st8{fill:#76777A;}
	.st9{fill:#AB1D38;}
</style>
<rect x="448.9" y="-440.4" class="st0" width="161.5" height="161.5"/>
<rect x="448.4" y="-856.8" class="st1" width="317.6" height="317.6"/>
<rect x="625.7" y="-440.4" class="st2" width="161.5" height="161.5"/>
<rect x="800" y="-440.4" class="st3" width="161.5" height="161.5"/>
<rect x="976.8" y="-440.4" class="st4" width="161.5" height="161.5"/>
<rect x="1150.6" y="-440" class="st5" width="161.5" height="161.5"/>
<g>
	<rect x="317.9" y="-7.2" class="st6" width="1602.1" height="504"/>
	<path class="st7" d="M948.5,121.9c1.6,0,1.8,0.6,3.1,0c1.4-0.6,5.3-3.2,6.7-3.6c1.4-0.4,2.2,0.1,0.2,1.2c-2,1.1-6,3.5-5.3,3.3
		c0.7-0.2,2.7-1,5.6-2.4c2.9-1.3,2.6-0.8,3.3-2.2c0.7-1.4,1.1-2.2,1.1-2.2s4.5,4.6,4.9,4.8c0.4,0.2,0.6,0,0.8-0.6
		c0.2-0.6,0.7-1.4,1.4-1.1c0.6,0.3,0.1,1.4,0.5,1.5c0.4,0.2,1,0,2.2-0.4c1.2-0.4,0.6-1.3,0.6-1.3s-0.1,0,1.3-0.2s5.7,1.5,7,2
		s5.2,0.9,6.3,1.3c1.1,0.4,1.5-0.6,3,0.2c1.5,0.8,2.6,1.9,1.5,2.5c-1.1,0.6-4,1-2.5,1.3c1.4,0.4,3.6,0.8,5.7,0.8
		c2.1-0.1,5.8-0.8,7-0.8c1.2,0,1.9,0.7,3,2.5c1.1,1.8,2,2.5,2.4,2.7c0.4,0.2-0.4-0.9-0.2-1.8c0.2-0.9-0.2-2.7-0.5-3.3
		c-0.3-0.6,0-0.9-0.5-1.8c-0.5-0.9-1.4-0.7,0.2-1.5c1.5-0.8,2.6-1.9,4.5-1.6c1.9,0.2,2.4,2.6,4,2.8c1.6,0.2,1.9,0.8,4.7,1
		c2.8,0.2,1.6,0,4.7,0.2c3.1,0.2,2-0.3,2.6-1.9c0.6-1.6,1.4-1.9,2.1-1.8c0.7,0.1,3.3,0.4,3.3,0.8c0,0.3-1.1,2-0.6,2.9
		c0.6,0.8,2.8,2.2,2.8,2.2s-0.5-1.9-0.5-2.1s-0.2-1.7,0.2-2c0.3-0.3,2.2,0.2,3.3-2.1c1.2-2.2-0.8-2.1-0.8-2.1s-0.7,0-0.4-0.9
		s2.4-1.5,2.4-1.5s0.1,0.4-0.1-0.3c-0.3-0.7-1.6-0.6-3.1-0.7c-1.4-0.1-2.4-0.3-2.7-1.5c-0.3-1.2-0.4-3.8-0.4-5.6s1.4-1.1,1.7-2.1
		c0.3-1-0.1-5.8-0.4-6.8c-0.4-1,0.5-3.1,0.7-4.5c0.2-1.4,1.6-0.8,1.6-0.8c-0.3-0.5,0.4-1.8,2.3-2.4c1.9-0.6,5.6,0,5.6,0
		s-0.3,0-1.2,1.2c-0.9,1.2-0.3,3.2-1.7,4.7c-1.3,1.5-4.8,1-4.8,1s1.1,2.4,0.6,3.2c-0.5,0.8-0.7,2.4-0.7,2.4s3,0.8,3.2,2.8
		s1.7,2.2,2,4c0.4,1.8-1.5,3.2-1.1,3.5c0.4,0.3,0.5,0.4,1.6,0.5c1.1,0.1,2.6,0.3,2.6,0.3s-0.6,0.9-0.1,1.9c0.6,1,0.1,1.6,0.2,2.6
		c0.1,1,0.7,1.9,0.9,1.7c0.3-0.2,1.4-2.8,1.7-3.9c0.3-1.2,0.5-1.8,1-1.8s2.3,1.6,2.4,2.2c0.2,0.6,0.3,1.3-0.6,2.9
		c-1,1.6-0.9,2.3,0,2.9c0.8,0.6,0.9,0.4,2.4,1.1c1.5,0.7,1.2,0.7,2.2,0.4c0.9-0.3-0.4-2.6-0.3-2.7c0.1-0.1,2.2-0.3,1.7-1.5
		c-0.5-1.2-1-1.8,0-2.4c1-0.6,1.7-1.1,1.7-1.1c-0.4-0.8-0.6-0.8-1.3-2.8c-0.7-2,0.6-1.5,3.4-1.3c2.8,0.2,2.9,1.2,4.4,1.9
		c1.5,0.8,0.5,1,1,2.2c0.5,1.2-1.2,1.4-1.2,1.4s-1.1,0.2-0.9,1.1s0.8,2,1.6,3.5c0.8,1.4-0.2,2.4-1.5,3.6c-1.3,1.2-2.7,1.5-4.2,1.5
		c-1.5,0-2.1,0.6-2.2,0.2c-0.1-0.4-0.8-0.8-1.6-0.6c-0.8,0.2-2.6,0.9-2,1.1c0.6,0.2,2.3,0.2,1.6,1.5s-1.3,1.3-2.7,1.2
		s-2.7-0.2-3.6-0.2c-0.9-0.1-5.3-0.3-5.3-0.3s3,1.8,5.4,2.6c2.4,0.8,4.9,0.3,4.9,0.3s-1,1.8-2.1,3.7c-1.2,1.9-2.2,1.1-3.2,1.2
		c-1,0.1-1.5,0.9-3.3,1.1c-1.8,0.2-5.6-0.5-5-0.2c0.6,0.3,0.8,0.8,1.9,0.9c1,0.2,1.7,0.3,2.6,1.1c0.9,0.8-0.6,0.9-1.8,1.1
		c-1.2,0.2-1.5,0.4-2.1,1.2c-0.5,0.8-2.6,3.7-3.2,4.5c-0.6,0.9-1.2,2.4-1.5,4.2c-0.3,1.8-1.8,3.9-1.1,4.3c0.7,0.5,3.2,0.5,4.3,1.2
		c1.1,0.7,2.3,3.9,3.1,5.1c0.8,1.2,1.4,2.2,2.3,1.2c0.9-1,2.7-0.7,4.3-0.1s5.1,3,6.1,4c1.1,1,2.9,0.9,5,1.2c2.1,0.3,2.3,1.1,2.3,1.1
		s2.2,0.1,1.3,1c-0.9,0.9-1.2,0-0.3,1.6c0.9,1.6,0.9,3.6,0.6,4.7c-0.3,1,2.9,0.5,4.2,1.3c1.3,0.8,1.4,3.9,2.1,3.6
		c0.7-0.4,1.8-1.1,1.9-1.9c0.1-0.8,0-1.9-0.2-3.4s-0.5-4.1-1.2-5.1c-0.7-1.1,1.3-1.5,1-1.9c-0.3-0.5-0.2-1.3,1.1-1.7
		c1.4-0.4,1.4,0,2.2-0.6c0.7-0.6,0.9-3.2,1-4.2c0.1-1-0.2-3-0.5-3.8c-0.3-0.8-1.6-3.3-2.1-3.8c-0.5-0.5-1.1-0.7,0.2-2.4
		c1.3-1.7,0.5-1.3,0.4-1.8c-0.2-0.5-0.5-1.8-0.7-2.9c-0.3-1.1,0.5-2.4,0.1-4c-0.5-1.6-1-1.3-0.9-1.6c0.1-0.4,3.1-0.3,5.4,0
		c2.3,0.2,3.2-0.2,3.8-0.2c0.6,0,1.8,0.6,3.1,1.4c1.3,0.8,1.7,0.6,2.4,1.6c0.6,1,1,1.5,2.3,1.5c1.3-0.1,2.7,0.6,2.7,0.6
		s-0.9,0.5-0.8,2.3c0.2,1.8-0.2,3.1-0.2,3.8c0,0.7,0.4,0.8,1,0.8c0.6,0.1,2.3,1.6,3.9,2.2c1.7,0.6,2.2,0.4,2.7-1
		c0.6-1.4,0.7-1.3,1.4-1.3c0.7-0.1,0.9,0.2,1.2-0.2c0.3-0.3-0.5-0.9-0.3-1.9c0.2-1,1.1-2.2,1.9-2.9c0.8-0.7,1.3,0.7,2,2
		c0.7,1.3,3,5.6,3.7,7s1.5,1.5,0.7,2.8c-0.8,1.3-1.2,1.9,0.1,2.5c1.3,0.6,2.4,1.6,2.3,2.6c-0.1,1-0.4,1,0.1,1.3
		c0.4,0.3,1.9-0.5,3-0.1c1.1,0.5,2.4,0.9,3.2,1.7c0.8,0.8,0.7,1.1-0.4,1.4c-1.1,0.4-2.2,0.8-2.7,1.1c-0.6,0.3-1.4,1-1.4,1.5
		c0,0.5-0.2,1.3,0.6,0.7c0.9-0.7,2.3-1.3,3.3-1.6c1-0.3,0.3,0,1.2-0.2c0.9-0.1,1.8,0.5,3.1,0.8c1.3,0.4,0.9,1.2,0.6,1.9
		c-0.3,0.8-0.6,1.5-0.1,2.3c0.5,0.8-0.2,1.6-1.4,2.6c-1.1,1-2,1.2-3.8,1.4c-1.8,0.2-2.7,1.3-4,2.5c-1.3,1.2-1.9,0.9-3.8,1
		c-1.9,0.1-1.1-0.9-1.7-0.7c-0.6,0.2-1.3,0.8-2.5,1c-1.2,0.1-5.2,0.2-6.8,0.6c-1.5,0.5-1.1,1.5-1.4,2.4c-0.4,0.9-1,0.5-2.2,0.9
		c-1.2,0.4-2.5,2.1-3.9,4.4c-1.4,2.3-3.2,3.8-3.2,3.8c0.4-0.1,2.3-1.3,3.2-2.4c0.9-1.1,4.8-3.8,6-4.7c1.2-0.8,3.8-2.1,4.4-1.9
		s2.1,1.4,2.1,1.9c0,0.6-0.5,1.1-1.5,2.1c-1.1,1-2.5,0-2.4,0.4c0.1,0.4,0.9,1.4,1.7,1.6s0.8,1.2,0.8,1.7s-0.5,1.2,1.4,2.8
		c1.9,1.6,3.3,1.7,4.7,1.6c1.4-0.1,0.7,0.5,1.3,0.4c0.6-0.1,0.7-1.2,0.9-2.1c0.2-0.9,0.5-1.7,1-2.1c0.5-0.4,0.9-1.1,1.1,0.3
		c0.2,1.4-0.6,3.3-1.3,3.7c-0.7,0.4-0.6,1-0.6,1.4s-0.8,0.5-2.8,1.6c-2,1.1-2.6,1.4-3,1.2s-1.1,0.2-2.1,1.1c-1,0.9-2,2-2.7,2
		c-0.7,0-1.3-0.3-0.4-1.3c1-1,1.3-2.4,2.2-2.8c1-0.5,1.4-0.4,2.2-0.4c0.8,0,0.4-0.5,1.1-1c0.6-0.5-0.5-0.3-1.6-0.5
		c-1.1-0.2-0.3-1.1-0.3-1.1l-1.1,0.6c0,0-1.7,0.9-2.2,1c-0.5,0.1-0.4,0.4-0.5,0.5c-0.1,0.2-1.7,0.3-1.7,0.3s-0.8,1.7-2.1,1.9
		c-1.3,0.2-0.4,0.2-1.3,0.5c-0.9,0.4-0.7-0.5-0.9-0.2s-0.4,0.5-1.3,1.2c-1,0.8-1.6,1-2.3,3.7c-0.7,2.7,0.1,3.7,0.1,4.1
		c0,0.4-1.3-0.3-1.6,0.1c-0.4,0.3-1.2,1.3-2.2,1.6c-1.1,0.3-3.1,0.8-3.6,1.3c-0.5,0.5-0.5,1.2-0.7,2.3c-0.2,1.1-1.5,3.5-1.5,3.5
		s0.3-1-0.6-1.7c-0.9-0.7-0.7-1.4-0.7-1.4s-0.2,1,0.1,2c0.3,1,1,2,0.7,3.1c-0.3,1.1-0.8,2.5-1.5,2.9c-0.7,0.4,0.2-0.8,0.2-1.6
		c0-0.9-0.5-1-0.7-1.4c-0.3-0.5-0.3-1.6,0.2-3.1c0.5-1.5-0.5-0.6-1.1,0.4c-0.6,1-1,2.9-0.1,4.1c0.9,1.2-0.6,1.1,0,2.9
		c0.6,1.8-0.7,2.6-0.5,2.9c0.3,0.3,1-0.1,1.3,0.8c0.3,0.9-0.6,0.5-1,0.7c-0.3,0.2-0.2,0.6,0,1s0.6,0.2,0.4,0.3
		c-0.2,0.2-0.6,0.8-1.4,1c-0.8,0.3-0.9-0.2-1.4,0.5c-0.5,0.6-0.9,1.1-1.4,1.8c-0.5,0.7-0.9,0.5-1.5,0.9c-0.6,0.5-0.8,0.9-1.5,1.5
		c-0.7,0.6-2.3,1.5-3.2,2.7c-0.9,1.2-0.6,1.5-1.1,3.4c-0.4,1.9,1.1,5.2,2,8.3c0.9,3.1,1.3,2.2,1.2,3.2c-0.1,1-0.6,2.2-1.2,2.9
		c-0.7,0.7-1.1-0.5-2-1.2c-0.9-0.7-0.2-1.2-1.1-2.6c-0.9-1.4-0.8-1.9-0.9-3c-0.1-1.1-0.3-2.5-0.7-3.7c-0.5-1.1-1.5-2.6-3.1-2
		c-1.5,0.6-1.2,0.3-2,0.1c-0.8-0.2-3.1-1.1-4.2-0.5c-1.1,0.6-4.7-0.2-5.4,0c-0.7,0.2-1.3,0.2-1.3,0.8c0,0.5-0.3,0.6,1,1
		c1.3,0.4,1.1,0.8,1,1.3c-0.1,0.6-1.1-0.3-1.6-0.5s-1,0.4-1.9,0.4c-0.9,0-1.1-0.9-1.9-1c-0.8-0.1-1.1,0-1.9-0.3
		c-0.8-0.3-1.8-0.8-2.7-0.8c-0.9,0.1-4.4,2.4-6,3.6c-1.6,1.2-2.9,2.4-3.3,3.4c-0.4,1-0.4,1.1,0.9,2.5c1.3,1.5,0.7,1.2,0.5,2.1
		s-1,1.9-2,4c-0.9,2.2-0.4,3.2,0.7,5.3s2.1,3.6,3,4.4c0.9,0.9,1.5,1.8,2.3,2.1c0.8,0.3,0.9,0.5,1.3,0.8c0.4,0.4,0.3,0.5,1.5,0.2
		c1.2-0.3,2.1-0.8,3-0.8s1.7,0,2.2,0.5c0.5,0.5,0.6,0.2,0.6-0.1c0-0.2,0.4-1.1,0.5-1.4c0.1-0.2,1.3-1.9,1.5-2.8
		c0.2-0.9,0.2-2.7,1.3-2.8c1.1-0.1,3.5-0.7,5.7-0.5c2.2,0.2,1.2,1.2,0.6,2.4c-0.6,1.1-0.8,1.3-0.8,2.1c0,0.9,0.3,0.9-0.4,1.4
		c-0.7,0.5-0.3-0.3-0.6,0.2c-0.3,0.5-1.3,1.2-1.2,1.1c0.1-0.1,0.4,0.9,0.4,1.3c0,0.5-0.1,0.7-0.1,1.9c0,1.2-2.3,2.4-2.3,2.4
		s0.8,0.5,2.1,0.5c1.2,0,2.7,0,4,0.6c1.3,0.6,3.7-0.5,5.5,0.4c1.8,0.9,1.2,1.4,1.3,2.3c0.1,0.8,0.3,3.7,0.2,4.4
		c-0.1,0.7-1,2.5-1.4,3.8c-0.5,1.3,1.3,2.3,2.9,3.4c1.6,1.1,3,1.6,3.9,1.8c0.8,0.2,2.4-1.3,5.2-1.1c2.8,0.2,3.8,2.6,3.8,2.6
		s0.3-1.5,1.6-3.5c1.3-2,1.3-2.6,3.1-3.3c1.7-0.7,2.3-0.8,5.1-1.7c2.8-0.9,2.3-0.2,3.8-0.1c1.5,0.1,4.9,0.4,8.3,1.4
		c3.4,1,8.6,1.3,10.6,2.2c2,0.8,2.9,3.2,4.9,5.1c2.1,1.9,4.6,3.7,5.7,4.5c1.1,0.9,7.2,1.7,8.6,2.3c1.4,0.5,3.2,2.8,3.3,4.1
		c0.1,1.3,1.5,2,3.3,2.8c1.9,0.8,2.4,1.7,3.7,4.1c1.2,2.4,0.8,3.1,2.5,3.7c1.7,0.6,13.2,3.7,16.1,4.8c2.9,1.1,6.6,4.2,7.5,4.5
		c1,0.4,2.7-0.3,3.5,0.1c0.8,0.4-0.5,2.7,0.5,4.3s1,1.7,0.5,2.9c-0.6,1.2-2.9,4.1-3.8,5.5c-0.9,1.4-2.8,2.3-3.9,2.9
		c-1.1,0.6-2.1,0-1.1,1.2c1,1.2,0.1,2.2-0.8,3.3c-0.8,1.1,0.1,1-0.2,4.4c-0.3,3.5,0,7.2-0.4,8.7c-0.4,1.5-2.6-1.3-5.2,1.9
		c-2.6,3.2-3.3,5.7-4.8,6c-1.6,0.4-5.1,2.2-6.4,3.3c-1.2,1.1-1.5,1.6-2.3,3.2c-0.8,1.7-1.5,5.1-2.4,7.2c-0.8,2.1-2.2,3.3-5.3,6.1
		c-3.1,2.8-4.4,5.7-6.4,7.9c-2,2.2-1.5,1.7-1.9,2.2c-1.1,1.1-5.4-1.7-4.3-0.2c0.8,1.1-0.5,0,0.2,1.1c0.7,1.1,1.2,1.5-0.3,3.4
		c-1.5,1.9-3.3,1.5-4.5,1.8c-1.2,0.3-3-1.3-3.2-0.5c-0.1,0.8-0.8,2.7-1.8,3.2c-1,0.5-3.5,1.2-3.5,1.5c1.2,5.7,3.7,6.3,1.1,6
		c-7.2-0.7-2.1-2.4-7.1,8.1c-0.8,1.6-1.5,0.8-1.4,2.7c0.1,1.9,0,3.4,1,4.5c1,1.2,0.3,1.1-1.4,2.8s-1.9,1.4-3.5,3.8
		c-1.6,2.5-3.1,2.3-2.6,4.2c0.6,1.9,0.7,4.6,1.7,7.4c1,2.8,3,2.3,6.1,4.2c3.1,1.9,3.5,0.9,5.1,1.4c1.5,0.5-1.1,0.6-3.9,1.1
		c-2.8,0.5-4.6,1-6.5,0.6c-1.9-0.4-6.5-3.1-8-4.2c-1.5-1.1-4-3.2-5-5.1c-0.9-2-1.5-3.9-2.7-6.6c-1.2-2.7-0.3-4.4,0.2-10.3
		c0.5-5.9,0.9-10.5,1.7-13.7c0.8-3.2,3.4-17.3,4.1-21c0.7-3.7,4-18.5,4.2-20.8c0.3-2.3,0.5-4.1,1-6.5c0.5-2.3,0.2-7.1,0.2-7.3
		c0-0.2-0.2-0.4-0.9-2.6c-0.7-2.2-1.9-3.1-3.5-4.1c-1.6-1-3.3-2.2-4.6-3.1c-1.3-0.9-2.8-2.2-4.1-3.8s-2.5-4.9-3.1-6.3
		c-0.6-1.4-3-6-5.2-9.3c-2.2-3.2-2.3-3.3-3.4-6.7c-1.1-3.4,1-3.5,1.4-5.4c0.4-1.9,1.7-3.8,3.1-6.5c1.4-2.7,3.3-3.5,4.4-5.9
		c1.1-2.4,0.3-2.4-0.1-4.7c-0.4-2.3,0.1-2-0.6-3.2c-0.7-1.3-1.1-2.8-1.7-3.2c-0.6-0.4-1.6-0.7-2.2-0.1c-0.6,0.7-1.6,2.6-2.2,2.7
		c-0.6,0.1-0.9-0.6-1.3-1c-0.4-0.4-2.2-0.4-2.6-0.8c-0.4-0.4-1.3-0.5-2-0.8c-0.6-0.3-3.2-1.6-3.9-2.2c-0.7-0.6-1.6-2-1.6-3.6
		c0-1.6-1.3-2.2-4.4-4.3c-3-2.2-4.3-2.5-8-3.4c-3.7-0.9-5.1-3.5-6.4-4.2c-1.2-0.7-1.1-1.5-3.8-1.2c-2.7,0.3-6-1.2-8-2
		c-2.1-0.8-5.7-1.4-7.3-2.5c-1.5-1-4.2-1.4-5.4-3.8c-1.2-2.5-1-1.5-0.5-3.7c0.5-2.2-2.6-3.9-4.5-6c-1.9-2-3.3-2.3-4.2-4.8
		c-1-2.5-2.4-2.4-4.2-4.2c-1.9-1.8-1.9-4.1-2.7-6.1c-0.8-2-5.9-5-5.9-5s1.3,3.4,1.9,4.8c0.6,1.4,1.9,4.7,3.5,7.1
		c1.5,2.5,2.9,3.1,4.3,5.5c1.4,2.5,0.1,3.9-0.5,3c-0.5-1-2.6-1.4-2.6-2.5c0-1.1-0.5-1.9-1-2.8c-0.5-0.9-2.4-1.9-4.4-3.5
		c-1.9-1.6-3.3-2.3-2.1-2.3c1.2,0,3,1.1,2.6,0.4c-0.3-0.7-2.5-2.9-3.5-4.5c-1-1.6-1.4-3.3-2.4-5.9c-1-2.6-4.8-5.1-6.7-5.3
		c-1.9-0.2-2.4-1.1-3-3c-0.6-1.9-0.8-3.9-1.6-5.4c-0.8-1.5-4.4-6.5-4.5-8.4c-0.1-1.9-1.1-7.5,0.2-10.6c1.3-3.1,1-10.1,0.8-11.4
		c-0.2-1.4-2.5-4-2.5-5c0-1,1.4-0.4,2.4-0.1c1,0.3,3.2,1.2,3.2,1.2s-1.7-3.1-2.7-4.2c-1-1.1-4.1-2.5-5.4-2.8
		c-1.4-0.3-3.1-0.8-3.8-1.9c-0.7-1.1-1.5-2.6-2-3.6c-0.5-1-2.7-2.1-3.2-3.1c-0.5-1-0.4-3-1.1-4c-0.7-1-1.7-1.6-2.9-1.2
		c-1.2,0.4-1.5-0.6-2.4-2.1c-0.9-1.5-2.9-2.2-3.5-2.4c-0.6-0.2-2.6-2.8-2.7-3.5c-0.1-0.7-3.3-4.1-4.3-4.8c-1-0.7-11-3.9-11.2-3.9
		s-3.2,0.4-3.9,0.2c-0.8-0.2-3.4-2.5-4.8-3c-1.4-0.5-2.3,0.5-3,2c-0.6,1.5-3.8,4.1-5.5,5.2c-1.7,1.1-3.2,1.3-3,0.7
		c0.1-0.6,0.1-1.6,0.6-3c0.6-1.4,0.9-1.9,2.7-2.8c1.8-0.9,1.7-1,1-0.9c-0.7,0.1-1.2-0.1,0.2-1c1.4-0.8,2-1,1.9-1.7
		c-0.1-0.7-3.1,1-5,2.5c-1.9,1.6-3.1,2.6-4.8,5.4c-1.7,2.8,0.2,1.7-1.2,3.5c-1.4,1.8-6.2,5.4-7.6,6.8c-1.4,1.4-7.3,4.4-9.6,5.1
		c-2.4,0.7-3.3,1-4.5,2c-1.2,1-4,1.3-3.1,0.6c1-0.7,2.8-2.2,4-2.9c1.2-0.7,4.5-2,5.5-2.4c1-0.4,3.7-2,5-3.5c1.3-1.5,2.3-3.2,3.2-4.7
		c0.9-1.4,1.1-2.1-0.8-1.5c-1.9,0.6-3.8,0.4-4.8,0c-1-0.4-3.5,1.1-4.4,0.5c-0.9-0.7,0.1-2-0.5-2.7c-0.6-0.7-2.6-0.2-3.9-0.5
		c-1.3-0.2-3.1-1.3-3.1-3.1c0-1.8-1.3-3.4-0.6-4.7c0.7-1.4,1.7-1.7,2.9-2.5c1.2-0.8,4.4-1.8,5-1.8s1.6-0.7,2.1-1.3
		c0.6-0.6-1.4-2.8-1.4-2.8s0.3-0.2,1.1-0.7c0.8-0.5,0.2-1.5-1.2-1.3c-1.4,0.2-4.2,1.6-6,2c-1.8,0.5-4.2,0.2-4.2-0.6
		c0.1-0.8,0.5-1.3-0.2-1.9c-0.6-0.6-1.2-1.3-0.5-1.6c0.6-0.3,4.6-2.5,4.6-2.5s1.4,1.6,3,1.7c1.5,0.2,4.8-2.7,4.8-2.7
		c-2.1-1.3-1.6-1.6-1.6-1.6s-3.3-0.1-4.1-0.5c-0.8-0.5-1-1.4-1.2-2.3c-0.2-0.8-3.5-1.5-2.6-2.9c0.9-1.4,2.6-1.9,3.7-3.2
		c1.1-1.4,2.1-4,5.2-5.4c3.1-1.4,6.9-2.8,8.6-3.9c1.7-1.2,2.4-0.1,3.1,0.1c0.6,0.2,4.6-0.2,6.2-0.2c1.5,0,1.8,1.7,2.3,2.2
		c0.5,0.4,14.1,0.8,14.1,0.8s11.5,0.2,13.8,0.8c2.3,0.7,6.5,2.4,6.5,2.4C947.2,125,947,121.9,948.5,121.9z M1103.1,52.5
		c0,0-1.2,4.8-5.8,6.1c-4.6,1.3-13.1,5-13.5,5.3c-0.4,0.2,0.5,2.9,1.7,4.2c1.2,1.3,2.2,2.2,3.3,3.5c1,1.3,2.8,1.2,4.2,2.6
		c1.4,1.4,2.4,0.9,6.3,1c3.9,0.1,2.8,0.4,7.1,0.6c4.3,0.2,8.8,0.6,10.3,1.9c1.5,1.3,3.6,6.5,4.9,9.6c1.4,3.1,3.7,8.3,3.7,8.7
		c0,0.5-1.5,4.2-1.5,4.8s0.8,1.6,1.5,2.5c0.7,0.8,0.3,1.5,0.2,2.3c-0.1,0.8,0.8,2.8,0.9,3c0.1,0.2,2.1-1.9,3.3-2.3
		c1.2-0.4,4.2,2.2,4.2,3.9c0,3.9,1.1,2.6-5.3,7.2c-0.9,0.6-1.7,5.3-1,7.6c0.6,2.3,2.2,5,3.4,8.2c1.2,3.2,4.8,7.8,6,9.9
		c1.2,2.1,1.5,5,4,5.6c2.6,0.7,5,1.6,6.9,2c1.9,0.4,3.1,1,4-0.7c0.9-1.7,2.7-8.3,4.2-13.1c1.5-4.8-0.1-6.2,3.3-7.3
		c3.5-1.1,9-3.2,10.5-3.9c1.5-0.7,1.2-5.4,4.5-6.9c3.3-1.6,3.7-1.4,6.9-2.5c3.2-1,7.7-3.1,10.9-5.3c3.2-2.3,4.1-1.1,5.3-3.2
		c1.2-2.1-1.2-5.1-1.4-8.3c-0.3-3.1,1-3.3,1.7-6.1c0.6-2.8,1-4.7,3.5-6.6c2.5-1.9,3.9-3,3.4-4.8c-0.5-1.8-1.7-4.5-1.7-6.5
		s0.5-0.8-0.6-3.6c-1-2.8-1-3.1-0.1-5.7c1-2.6,3.5-1.9,3.3-3.1c-0.2-1.1-4.1-2.9-4.2-6c-0.1-3.2,0.7-4.1,1.3-4.9
		c0.6-0.8,7.2-6,7.7-6.5c0.5-0.5-0.1-1.8,3.1-3.4c3.2-1.6,4.3-2.6,5.5-3.1s3.2-0.4-0.6-1.5c-3.7-1.1-4.6-1.6-7-1.3
		c-2.4,0.3-3.3,1.7-7.7,2.1c-4.4,0.4-9.3,2.5-9.3,2.5s1.5-1.3,0.2-2.6c-1.3-1.3,3.3-5.4,4.1-5.9c0.8-0.5-6-2.2-9.6-2.8
		c-3.5-0.7-10.5-2.8-14.5-2.5c-4,0.3-9.8,0.2-11.8,0.9c-2,0.7-1.7,3.2-4,3.4c-2.3,0.1-6.4-1.3-9.6-0.8c-3.2,0.5-8.4,2.7-8.9,2.8
		c-0.6,0.1,2,1.7,3.7,2c1.7,0.4,3.9,3.8,3.9,3.8s-4.5-1.5-9.1-2.8c-4.6-1.3-9.9,0-11.8,0.5c-1.9,0.5-4.3,1.6-8,1.7
		c-3.7,0.2-8,3.2-10.1,4.7c-2.1,1.4-8.7,5.3-10.4,6.2c-1.7,0.9-1,1.3,0.8,1.8C1101.2,52.2,1103.1,52.5,1103.1,52.5z M1007.8,101.9
		c0.5,2.2,0.5,5.3-0.7,4c-1.2-1.4-2.2-4.1-4.1-3c-1.9,1.1-4,0.8-3.7,0.6c0.3-0.2,0-1.4-1-1.8s-1.6,0.2-2.6,0.8c-1,0.6-4.3,1.4-3,0.4
		c1.3-1,0.9-1.6,0.4-2.8c-0.5-1.2-3.9,0.8-5.7,2.1c-1.8,1.3-2.9,3.2-3.9,4.5c-1.1,1.3-0.3,2.2,1.3,2.6c1.6,0.5,4.2,0.8,2.1,1.6
		c-2.2,0.8-3.9,1.4-2.7,2c1.1,0.7,3,0.8,5,0.6c1.9-0.2,3.6-0.8,6.7,0.1c3.1,0.8,4.9,0.8,4.9,0.8s-1.2,0.7-3.2,1.1
		c-2.1,0.4-5.8,0-7.8,0.4c-1.9,0.4-5,0.9-4.2,1.6c0.8,0.7,1.4,1.8,4,2.7c2.7,0.8,3.1,0,4.7,0.4c1.6,0.4,0.7,2.2,1.2,2.5
		c0.4,0.3,3.4-0.2,6.4-0.8c3-0.6,1.9-1,4.2-1.6c2.4-0.6,2.4-2.4,3.8-2.8c1.4-0.4,0.4,0.9,2,1.3c1.6,0.4,0.7,0.5,2.5,0.8
		c1.8,0.3,1.4,1,3.1,0.8c1.7-0.1,3.7-1.3,3.5-1.5c-0.3-0.2-0.5-0.7-0.3-1.5c0.2-0.8-1.7,0.2-2.4,0.6c-0.7,0.4-0.6-1.1,0.8-1.8
		c1.5-0.7,2.7,0,3.6,0c0.9,0,0.1-2.5-1.5-2.9c-1.5-0.4-2.2-1.4-4.5-2.6c-2.3-1.3-1.1-1.8-1.8-3.5c-0.7-1.7-2.1-6.6-3.4-7.5
		c-1.3-0.9-2.7-0.6-3.9-1.5C1007.6,98.5,1007.3,99.8,1007.8,101.9z M972.3,98.6c0.6,1.6,0.6,0.6-0.5,2.4c-1.1,1.8-0.5,2.4-1.2,3.7
		s-2.8,3.1-2.2,3.9s2.7,1.4,3.6,2.1c0.9,0.7,1.7,2.1,3.3,1.6c1.5-0.5,2.1-0.9,3.1-1.4c1.1-0.6,2-1.2,1.9-2.6c0-1.4-0.1-2.1,0.4-2
		c0.4,0.1,1.1,0.8,1.5-0.2s0.9-2.1,1.7-2.8c0.7-0.7,2.8-1.4,3.8-2.3c1-0.8,2.7-1.8,3.1-2.5c0.5-0.7-0.9-1.3-1.7-1.6
		c-0.8-0.3-1.8-1.6-3.6-1.6s-2.9,1.4-2.8,0.8c0.1-0.6-1.3-1-2.1-1.2c-0.8-0.3-1.5-0.7-3.9-0.4c-2.4,0.3-3.5,0.4-5.4,1
		C969.4,95.9,971.7,97,972.3,98.6z M1028.1,117.7c-0.3,0.4-1.4,0.7-2.1,1.5c-0.7,0.8,1.5,0.4,2.1,0.6c0.7,0.2,1.2,0.9,1.8,1.1
		c0.6,0.2,3.6,0.3,4.8-0.3c1.2-0.6,1.4-0.8,1.2-1.1s-2.6-2.7-4.4-3.6c-1.8-1-1.8-1-2.2-0.8C1029,115.4,1028.3,117.3,1028.1,117.7z
		 M1020,99c-1.2,0.6-2,1.3,0,2.3c2,1,2.6,1.8,3.9,2.7c1.3,0.8,1.9,3.2,4.7,2.2c2.8-1.1,3.9-2.4,4.3-3.5c0.4-1.1-0.4-1.4-1.1-2.4
		c-0.7-1-0.9-1.5-2.3-1.3c-1.4,0.2-1.9,0.2-1.9,0.2s1-1.2,2.5-2c1.5-0.8,0.3-1.3,1-2s-1.8-1.1-3-0.8c-1.1,0.3-1.2-0.1-3-0.2
		c-1.8-0.1-4.7,1.6-4.6,2.2c0.1,0.6,1.5,0.4,2.8,1.1s1.7,0.6,0.4,2.7c-1.3,2-2-0.5-2.4-0.8C1020.8,99,1021.2,98.4,1020,99z
		 M1011.7,95.3c-1.9,0.2-2.6,1.5-1.8,1.7c0.7,0.2,1.2-0.2,2.4,1c1.2,1.2,2.2,1.9,2.7-0.1C1015.4,95.9,1014.7,95,1011.7,95.3z
		 M980.8,79.9c-2.1,1.7-2.6,3.1-4.2,4.1c-1.7,1.1-1.3,2-0.7,2.6c0.6,0.6,2.2,0,3-0.4c0.8-0.4,1.4-1.4,1.9-0.8c0.5,0.6,2.4-2,3.2-2.9
		c0.8-0.9,2-1.8,2.2-1.8c0.2,0-0.7,1-0.4,1.9c0.3,0.8,1.9,0.9,3.3-0.6s0.1-2.8,1.2-3.9c1.1-1.1,2-1-0.1-2c-2.1-1-3.4,0.1-3.9,0.6
		C985.8,77.4,985,76.5,980.8,79.9z M993.9,82.6c-1.2,0.1-1.8,0.2-3.8,1.1c-2,0.9-2.9,3.2-3.3,4.4c-0.5,1.2,0.2,1.2,2.1,2
		c1.8,0.7,4.4-0.2,5-1.9c0.6-1.7,1.3,0.4,1,1.3c-0.3,0.9,1.3,0.1,2.1-0.3c0.8-0.4,3.1-0.6,3.3-0.6c0.2,0-1.9,1.6-3.9,2.2
		c-2,0.7-3.6,1-4.2,1.1c-0.6,0.1,0.5,0.9,2.9,1.4c2.4,0.5,3.8-1.4,7.2-2.7s3.2-1.5,4.3-1.2c1.1,0.3,2.3-0.6,3.7-0.9
		c1.4-0.3,1.9,0.2,2.5-1.8s1.7-4-0.3-4.1c-1.9-0.1-2.1-0.1-2.3,2.1c-0.3,2.2-0.4,0.8-0.4,0.8s-1.3-1.9-2.1-2.9
		c-0.8-1-1.3-2.6-2.2-3.4c-0.9-0.8-1.2,0.4-2.6,1.8c-1.3,1.5-0.3,2,1.1,2.7c1.3,0.6,2.3,2.3,1.6,2.7c-0.6,0.4-1.4-0.1-3.8,0.2
		c-2.4,0.3-2.4-0.8-3-1.1c-0.7-0.3,1.2-1-1.5-2.1C994.6,82.4,994.7,82.6,993.9,82.6z M985.9,84.7c0.3-0.5-3.3,2.1-3.8,2.9
		c-0.5,0.8,0.5,0.7,1.6,0.6C984.8,88.2,985,86.2,985.9,84.7z M992.7,79.4c-0.9,0.4-0.9,0.7,0.6,0.9c1.4,0.2,2.3-0.5,2-1.1
		C994.9,78.6,993.4,79.1,992.7,79.4z M1000,71.8c-0.9,0.2-3.7,1.1-3.9,1.6c-0.2,0.5,0,1.5,0.5,2.3c0.4,0.8,0.6,0.9,3,0.3
		c2.4-0.6,4-1.9,3.3-2.1c-0.8-0.2-1.3-0.6-2-0.7c-0.7-0.1,0.6-0.5,2.2-1C1004.6,71.8,1005.2,70.9,1000,71.8z M991.9,73.1
		c-0.7,0.3-0.9,0.3,0.5,0.9c1.4,0.5,2.9,0.5,2.7,0.1C994.9,73.5,993.8,72.2,991.9,73.1z M997.4,69.1c-1.3,0.5-1.6,1.5-2,1.9
		c-0.3,0.4,1.5-0.3,2.4-0.5c0.8-0.2,1,0.3,1.8-0.4c0.8-0.7,2.4,0,3.9-0.3s1.7-1.3,1.4-2.1C1004.6,66.9,1001.3,67.6,997.4,69.1z
		 M1012,72.7c-0.4,0.2-0.3,0.8,0.1,1.6c0.3,0.7,0.4,0.6,1.2,0.8s1.5,0.9,1.6,1c0.2,0.2,0.3,0.2,0.6-0.5c0.3-0.7-0.2-0.6-1-1.6
		C1013.6,73.2,1013,72.2,1012,72.7z M1016.9,79c-1.1-0.3-1.7,0.3-2.1,0.5c-0.4,0.2,0.2,0.7,0.5,1.5c0.3,0.9,0.1,1.1,1.7,1.3
		c1.6,0.1,2.1-0.2,2.3-1.2C1019.3,80.1,1017.9,79.3,1016.9,79z M1023.2,80.9c-1-0.7-1.5-1.3-2.5-0.9c-1,0.4-0.2,0.9-0.2,1.2
		c0,0.3,1.2,0,1.3,0.6c0,0.7,0.4,1-1.1,1c-1.5,0.1-1.9,0-2.5,0.5c-0.6,0.4,1.1-0.1,1.6,0.6s1.4,0.8,2.8,0.5c1.4-0.2,3.4-0.5,3.4-0.5
		s-1.1,1-1.5,1.7c-0.4,0.7-0.6,1.7,0.2,2.2c0.8,0.5,0.8-0.5,2.9-0.6c2.1,0,2.7-1.1,2.7-1.1s-0.5-0.5-0.4-1.5c0.1-1,0-1.3,0-1.3
		s0.8,0.6,1,0.8c0,0-0.1-0.6-0.5-1.7c-0.3-1.1-0.1-1.2-0.4-2.7c-0.3-1.5-0.3-1.8-1.8-1.8c-1.6,0-2.6,0.6-3.9,0.6
		c-1.3,0-1.8,0.2-0.9,0.7c0.9,0.5,1.1,1.1,1.5,1.6c0.5,0.5,0.4,1.8,0.4,1.8C1025.4,82.6,1023.2,80.9,1023.2,80.9z M1015.4,86.6
		C1015.4,86.6,1015.4,86.6,1015.4,86.6c-0.7,0.3-0.9,1.1-1,1.6c0,0.5,0.9,0.2,2.3-0.3C1018.1,87.4,1017.4,85.9,1015.4,86.6z
		 M1035.6,83.9c-1.2,0.7-2.1,1.5-2.8,2.3c-0.7,0.8-0.1,0.9,1.7,1.8c1.8,0.9,3.7,1.1,4.5,0.1C1039.8,87.1,1038.6,82.2,1035.6,83.9z
		 M1043.9,76.9c-2.3,0.2-1.6,0.6-4.2-0.3c-2.6-0.9-5.9-1-6.8-1c-0.9,0-0.5,0.4,0.5,1.9c0.9,1.5,1.2,2.1,3.1,1.6
		c1.9-0.5,3.5-0.8,4.9,1.2c1.4,2,2.2,2.7,1,3.4c-1.2,0.8-0.6,1.9,0.1,3.5c0.7,1.6,2.2,1.5,4.4,1.5c2.2,0,15.8-0.2,17.9-0.6
		c2.1-0.4,4-2.2,5.1-3s1.7-2.1,0.2-3c-1.6-0.9-3.7-1.8-5.5-1.8c-1.7,0-3.2,0.9-5.8,1.2c-2.6,0.3-2.1,1.5-4.4,1.6
		c-2.4,0.1-1.2,1.1-4.1-0.1c-2.9-1.2-5.1-2.7-3.7-2.9c1.4-0.2,2.5-0.4,1.7-1C1047.4,78.5,1046,76.7,1043.9,76.9z M1016.6,65.8
		c1.4,0.5,1.8,0.8,0.2,1.3c-1.6,0.4-2.8,1.5-1.2,1.3c1.6-0.2,2.9,0.2,4.9,0.5c2,0.3,1.9,0.1,2.8,1.3c0.9,1.1,1.9,1.1,3.2,0.8
		c1.4-0.3,1.6-0.4,0.7-1.4c-0.9-1-1.8-2.8-3.1-3.5c-1.2-0.7-2.2-1.7-3.5-1.6c-1.2,0.1-1.5,0.2-2.6-1.3s-1.9-0.8-3.4-0.4
		c-1.5,0.4-2,1.5-2.6,2C1010.9,65.6,1015.2,65.3,1016.6,65.8z M1035.2,51.1c-1.7,2.1-3,3.9-1.1,4.1c1.9,0.2,2.7-0.2,2.9,0.5
		c0.1,0.6-0.3,1-3.1,1c-2.8,0-2,0.6-0.4,2.5c1.6,1.9,1.7,1.2,4.1,1.2c2.4-0.1,3.2-0.9,5.2-0.4c2,0.5,2.6,1,0.8,1.6
		c-1.8,0.5-6,1.6-5.1,2.5c1,0.9,4,3.1,5.3,3.3c1.3,0.2,1.6-0.9,4.6-0.6c2.9,0.3,2.2,0.6,2.5-0.2c0.3-0.8,1.9-2.9,2.2-3.6
		c0.3-0.8,1.1-1.2,2.7-1.6s2.1-0.9,0.6-1.4c-1.5-0.5-3.2-0.8-3.1-1.2c0.2-0.4,1.1-1.6,0.5-2.3c-0.6-0.6-1.7-0.6-2.5-0.9
		c-0.8-0.3-1.8-1.9-2.8-2.5c-1.1-0.7-2-0.7-3.3-1.7c-1.3-1-3.3-3.4-5.9-3.3C1037.6,48,1036.8,49,1035.2,51.1z M1031.9,68.6
		c-0.6,0.3-2.2,0.4-1.1,1.4c1.2,1,0.9,1,2.4,0.5c1.5-0.6,3.7-2,3.9-2.4c0.2-0.4-1.5-1.2-2.7-1.6c-1.2-0.4-2-1.3-4.4-1.9
		C1026.5,63.5,1032.5,68.3,1031.9,68.6z M1110.5,37.5c-2.7-0.7-12.2-2.6-15.3-1.8c-3.1,0.7-2.9-1.6-7.2-1
		c-4.3,0.6-10.9,0.2-12.9,0.6c-2.1,0.3,1,1.2,2.1,1.9c1.1,0.7-5.3-0.8-10.2,0.6c-4.9,1.4-8.1,2.1-2.8,4.1c5.2,2,5.9,2.6,5.9,2.6
		s-6.7-1.2-9.5-2.3c-2.8-1.1-1.3-1-6.6,0.5c-5.3,1.5-10.5,2.3-10.2,3.9c0.3,1.6,4.3,3.8,6.9,4.3c2.7,0.6,8.1-0.8,8.6-1
		c0.4-0.2-2.2,2.2-2.2,2.2s2.7-0.6,5.8-1.4c3.1-0.8,5.5-1.7,8.4-2.7s3.4-1.4,3.4-1.4s-5.1,3.9-8.6,5.3c-3.5,1.4-8.1,2.2-10.2,2.3
		c-2.1,0.1-1.8,1.4,0.3,2.6c2.1,1.1,3.8,3.5,4.9,4.3c1.1,0.8,1.3,2.1,1.3,2.1s-3.3-2.6-7,0c-3.7,2.6-3.2,4-2.2,4.3
		c0.9,0.3,4.2,0.6,4.8,1.8c0.6,1.1,4.9-1,4.9-1s-2.1,2.7-4.2,2.7c-2.1,0-2-1.8-5-1.4s-2.8,1-1.5,2.1c1.3,1,2.3,1.4,0.1,2.4
		c-2.2,1-3.3,1.4-3.3,2.6c-0.1,1.3,2.9,1.3,4.8,1.3c1.9,0,3.7-0.2,7.1-0.2c3.4-0.1,3-1.2,4.3-1.2c1.3,0,2.6,0.4,2.1,1.7
		c-0.5,1.3,0.5,0.5,4.3-0.9c3.8-1.4,2.1-3.4,1.8-4.1c-0.3-0.7-1.6-1-2.5-1.4c-0.9-0.4,2.6-3.9,2.1-5.1c-0.5-1.2,4.2-0.2,6.3-3
		c2.1-2.8,1.4-4.9-0.2-5.3c-1.5-0.5,2.8-0.2,4.2-1c1.4-0.8,4.4-1.8,5.6-3.3c1.2-1.5,1.6-2.1-1.3-1.8c-2.9,0.3,4.2-1.3,7.6-3.5
		c3.4-2.2,7.4-4.9,8.2-5.5c0.9-0.6,1.6-0.3-2.4-0.1c-4,0.2-8.8-0.3-6.2-0.6c2.7-0.3,10.5-1.3,12.6-2.8
		C1109.6,37.9,1110.5,37.5,1110.5,37.5z M1062.5,92.9c-4.3-0.4-10.5-1.4-11.8,2.2c-1.3,3.7-3.3,11.8-3.4,13.3
		c-0.2,1.5,5.1,3.8,8.8,3.9c3.7,0.2,9.7,0.4,8.5-0.5c-1.2-0.9-0.2-1.4,3.3-1.2c3.4,0.2,3.8-0.7,3.8-1.4c0-0.7,0.6,0.9,3,2.2
		c2.4,1.3,4.5,4.9,6.6,6.9c2.1,2.1,6.9,4.9,6,6.5c-1,1.6,1,7.2-6.3,8.5c-7.4,1.3-7.8,0.4-7.7,2.1c0.1,1.7,0.4,2.4,3.3,2.4
		c2.9,0,6.9-2.4,8.3-0.6c1.4,1.8,3.3,2.4,4.5,2.8c1.2,0.4-1.5,1.1-2.1,1.4c-0.7,0.2,1.5,0.5,5.7,2.5c4.2,2,9.2,2.2,6.8,0.8
		c-2.5-1.4-3.7-4.1-4.8-4.9c-1.1-0.9-0.1-0.2,1.9,0.3c2,0.5,3.8,2.1,4.6,2.8c0.9,0.7,1.3-0.2,1.9-3c0.6-2.8-0.3-2.8-3.6-5
		c-3.3-2.2-4.4-4-4.7-5.6c-0.3-1.6,1.7-1.9,2.6-3c0.9-1.1,3.3,2,4.9,3.8c1.6,1.8,3,5,4.3,2.7c1.3-2.3,2.5-7.5,2.5-8.7
		c0-1.2-1.3,0.1-6.8-2.6c-5.5-2.7-8.3-3.7-8.8-3.7s1.5-1,3.9-2.2c2.4-1.2,3.4-1-1.7-5.9s-6.6-5.9-9.9-6.2c-3.3-0.3-4.3-3.8-6.7-5
		c-2.4-1.2-8,1.4-9.6,1.8c-1.6,0.4-1.1,1-3.2-1.9C1064.1,95,1062.5,92.9,1062.5,92.9z M1066.4,92.9c-2.1,0.3,1.3,4.1,4,4.3
		c2.7,0.2,5.1-1.2,5.7-1.4C1076.7,95.6,1069.7,92.5,1066.4,92.9z M1056.8,132.4c-0.4,0.9-1.2,3.3-1.4,4.9c-0.1,1.6-0.4,1.9-0.7,2.9
		c-0.3,1,1-0.2,1.9,1.3c0.9,1.5,0.5,1.9,2.1,0.2c1.6-1.7,3.4-2.3,5.7-1.6s4,1,3.2-0.4c-0.8-1.4-1.8-1.3-3.3-3.1
		c-1.5-1.9-2.7-2.3-4.6-3.1C1057.7,132.9,1057.5,130.6,1056.8,132.4z M1072.9,272.3c-0.7-1.4-1.7-3.6-5.8-4.4
		c-4.2-0.8-5.6,0.8-7.1,1.3c-1.5,0.5,1.4,0.8,3.4,0c2-0.8,3.5-0.2,3.8,0.2c0.3,0.4-0.7,0.6-1,0.2c-0.3-0.4-0.4,0.9,1.8,1.7
		c2.2,0.8,2.8,1.2,3,2.2c0.2,1,0.2,1.5,0.7,2.3c0.5,0.8,0.7,1.1-0.2,1.5c-1,0.4-0.6,0.3,0.1,0.7s2.1,1.1,4,1.3
		c2,0.2,2.6,0.5,1.2-1.3C1075.5,276.2,1073.1,272.7,1072.9,272.3z M1079.2,281c1.1,1.1,0.8,2.3,0.7,3c-0.1,0.6-1.3,0.1-3.4-0.4
		c-2.2-0.6-1.8-0.3,0.1,0.7c1.9,1,3.1,0.8,3,2.1c-0.1,1.3,1.7,0.1,2.5-0.7c0.8-0.8,0.7-0.1,4.1,0.4c3.3,0.5,4,1.1,3.5-0.4
		c-0.5-1.5,1.5-1.3-1.4-2.7C1085.2,281.7,1077.9,279.8,1079.2,281z M1069.7,281.9c-1.3-1.4-2.8-1.6-2.8-0.4c0,1.2,0.4,1.1,1.6,1.4
		C1069.6,283.2,1070.5,282.8,1069.7,281.9z M1093.8,287.9c-1.4-0.5-1.6,0.6-0.7,1.4c0.9,0.9,2.3,0.6,3.7,0.5
		C1098.1,289.7,1096.2,288.7,1093.8,287.9z M1078.2,120.9c-1.8,0.8-2.9,1.3-1.3,3.4c1.6,2.1,2.5,3.4,3.1,1.9
		C1080.6,124.6,1081.2,119.6,1078.2,120.9z M1063.8,143c-2.7,0.4-3.6,0.5-3.2,2c0.4,1.5,1.2,1.3,3,0.4
		C1065.4,144.5,1066.7,142.5,1063.8,143z M1069.4,145.3c-0.5,0.1-0.6,1.2,0,2.2c0.6,1,1.8-0.3,2.3-1.5
		C1072.2,144.8,1071.1,144.8,1069.4,145.3z M1039.8,71.7c-2.6,0.1-6.4,1-4.3,1c2.1,0,3.9,0.5,7.4,0.3c3.5-0.2,3.8-0.4,3.9-2.1
		C1046.8,69.2,1044.5,71.5,1039.8,71.7z M1023.7,57.6c-2.6,0.8-2,1.4,1.1,2.7c3.1,1.4,3.2,0.7,2.8-1.8
		C1027.3,55.9,1025.2,57.1,1023.7,57.6z M1206.9,124.4c-3.2,0.9-4.3,0.4-4.9,2c-0.6,1.6-1.9,0.8-2.6,1c-0.7,0.2-1.8,4.8-2.3,4.1
		c-0.5-0.7-0.7-1.1-1.5-2.6c-0.7-1.6,0.3-1.3-1.2-3c-1.4-1.7-4.3-1.5-4.4-0.8c-0.2,0.7,1.9,1.3,1.2,2c-0.7,0.8-2.5,1.7-3.1,2.3
		c-0.7,0.6,1.3,0.3,2.5,0c1.2-0.3,2.1,0.9,2.5,1.8c0.5,0.9-0.6,1.7-1.1,2.1c-0.5,0.4,1.8,0.3,2.7,0.5c0.9,0.2,1.4,0.9,0.8,2
		c-0.6,1,2.7,0.2,4.6,0c1.8-0.1,2.3,1.3,5.1,0.4c2.8-0.9,4.1-0.8,6.7-2.7c2.6-1.9,2.4-1.5,4-2.7c1.7-1.2,1.3-1.6,1.4-2.9
		c0.1-1.4,1.1,0.4,0.7-1.7c-0.4-2-2.5-1.5-3.9-1.6c-1.5-0.2-1.4-1.3-2.1-1.7C1211.1,122.5,1210.2,123.4,1206.9,124.4z M1423.8,300.2
		c-0.1,0.5-0.3,1-0.3,2.1c0,1.1-0.1,2.2,0,3.3c0.1,1.1,0.2,1.8,0.8,2.1c0.6,0.2,1,0.5,2,0c1-0.5,1.9-1.3,1.4-2.5
		c-0.5-1.2-1.4-2.9-2-3.9C1425.1,300.4,1424.1,299.3,1423.8,300.2z M1423,298.7c0.1,0.5,0.3,0.4,0.5,0.7c0.2,0.3,0.5,0,0.2-0.4
		c-0.3-0.4-0.3-0.5-0.3-0.5S1423,298.4,1423,298.7 M1515.5,362.4c0,0.1-0.1,0.1-0.1,0.1c-1.8,1.8-3.4,1.3-6.4,2.2
		c-3.1,1-8.4,4.1-8.8,5.4c-0.4,1.4,0,1.6-0.4,1.4c-0.4-0.2-1-1-1-1s-0.8,1.7-0.6,3.2c0.2,1.5,0.9,2.4,0.8,4.3
		c-0.1,1.9-0.8,3.1-0.7,4.4c0.1,1.3,2.2,3.8,2.8,5.4c0.6,1.6,1,1.1,1.3,3.9c0.3,2.8,1.8,4.4,0.3,5.9c-1.5,1.5-2.6,1.2-0.8,2.8
		c1.8,1.6,3.3,2.6,6.2,1.6s2.1-1.9,4.4-2.4c2.2-0.5,2.7-1,4.6-1.1c1.9-0.1,3.3,0.1,4-1.3c0.7-1.4,0.2-1.3,2.1-2.3
		c1.9-1,1.7-1.2,3-1.4c1.3-0.2,2.1,0.7,3.9-0.7c1.7-1.4,0.5-1.5,4.3-1.5c3.9,0,5.5,0.5,6.9,1c1.4,0.5,3.7,1.7,4.3,2.6
		c0.6,0.9,1.4,2,1.6,2c0.3,0,0.6,0.1,1.5-0.8c0.9-0.9,3.5-2.7,3.5-2.7s-0.1,1.9-0.7,2.6c-0.6,0.7-0.6,1.7-0.6,2.1s1.5-1.1,1.7-1.2
		c0.2-0.1,0.4,2.6,0.6,2.9c0.2,0.2,0.8,0.1,1.4,0.9c0.6,0.8,1.4,1.4,1.9,2.9c0.6,1.5,3,3,4.6,3.2c1.5,0.2,2.9,0.1,4-0.1
		c1.2-0.2,1.2-1.6,2.4-1c1.2,0.5-0.1,1.7,2.8,1.4c2.9-0.2,3.7-1.2,4.8-2c1.2-0.8,1.3,1.1,2.8-1c1.5-2,1.7-1.6,2-4
		c0.3-2.5,0.2-2.9,1.6-5.3c1.4-2.3,1.7-1.2,2.7-4.6c1-3.4,2.2-6.6,2.1-9.5c-0.1-2.8,0.1-1-0.6-4.1c-0.6-3.2-0.2-2.8-2.2-4.1
		c-2.1-1.3-2.6-1-3.1-2.8s0.1-2.4-0.8-2.4c-1,0-1.8,0.4-2.4-0.8s-0.5-1.7-1.6-2.9c-1.1-1.2-2.1-1-4.1-1.9c-2-0.9-1-1.1-1-2.7
		c0-1.6,0.1-3.2-1.5-3.9s-0.6,0.4-0.6-2.2c0-2.6,0-2.2-1.3-2.6c-1.3-0.4-1.7-0.4-2.5-2c-0.8-1.6-1.9-4.1-2.3-5.1
		c-0.4-1-0.9,0.1-1.4,0.9c-0.5,0.8-1.2,2.4-1.2,4c0,1.6,0.7,2.4,0.7,4.5c0,2.1-1.5,4.1-2.4,5.3c-0.9,1.2-1.6,0.1-2.4-0.2
		s-0.9-1.5-2.6-2.3c-1.6-0.8-4.6-1.5-6-2.8c-1.4-1.2-0.4-1.3,0-2.6c0.4-1.3,1-2.3,2.1-3.2c1-0.8,0.7-1.2-0.6-1.9s-3.1-0.8-5.3-0.8
		c-2.2,0-3.5-0.2-3.3,1.1c0.1,1.2,1.4,1.7-0.4,1.4c-1.8-0.4-3.4-0.5-4.2,0.4c-0.8,0.9-1,1.4-1.5,3.3c-0.5,1.9,0.1,2-0.6,2
		s-3.8-1.5-4.8-1.9c-1-0.4-1.6-0.4-2.8,0.7c-1.2,1.1-5.4,4.7-6.9,5.6C1517,357.7,1517.1,357.5,1515.5,362.4z M1458.4,308.4
		c-0.9-0.1-1.4-0.4-0.3,1.1c1.1,1.4,1.4,1.7,2.5,2.7c1.1,1,1.5-0.7,2.3,1.2c0.8,1.9,0.5,2,1.3,2.7c0.8,0.7,1.5,0.9,1.7,1.6
		c0.2,0.7,0.5,1.8,1.4,2.6c0.9,0.8,0.9,0.7,1.5,2.2s1.4,2.7,1.8,4c0.4,1.3,2.9,2.6,4.1,4.1c1.2,1.6,3.3,3.9,3.7,3.3
		c0.3-0.6,1.2,0,1.9-0.2c0.6-0.2,0.9-1.2,1.3-3.4c0.4-2.2-0.4-3.3-1-3.8c-0.6-0.5-1.7-0.6-2-1.1c-0.3-0.5-0.8-2.1-1.5-2.6
		c-0.7-0.5-0.9,0-0.9-1.2s0.9-1.2-0.2-1.9c-1.1-0.7-1.2-1.2-1.6-1.6c-0.3-0.4-2.7-0.9-3.3-1.6c-0.6-0.6-3.1-1.8-4.3-3
		c-1.2-1.2-2.5-2.2-2.9-3C1463.5,309.7,1462.3,309,1458.4,308.4z M1483.3,334.2c-1,0-1.5-0.6-2.2,0.6s-0.6,1.2,0.5,1.2
		s0.9,0.6,0.8,0.7c0,0.2-0.5-0.1,1.7,0.8c2.2,0.9,3.7,0.5,4.3,0.2c0.6-0.3,0.8,0.8,3.8,1.3c3,0.5,4.6-0.3,6.5,0.2
		c1.9,0.5,1.5-0.2,0.1-1.3c-1.4-1-1.2-0.5-2.6-1.5c-1.4-1-3.3-1-4.2-1.2c-0.9-0.2,0.8,1-2,0.6c-2.7-0.4-1.8,0.2-3.2-0.7
		c-1.4-0.9-1.4-1.1-2.4-1.2C1483.5,333.8,1483.3,334.2,1483.3,334.2z M1505.1,338.6c-0.8,0.2-2.4,0.7-1.6,1c0.7,0.3,0.2,0.5,2.4,0.3
		c2.3-0.2,4.2-0.5,4.5-1c0.3-0.5-0.4-0.2-1.3-0.4c-0.9-0.3-0.9,0.2-2.1,0.4C1505.7,339,1505.1,338.6,1505.1,338.6z M1513,338.4
		c-1.5,0.2-1.3,0.5-0.1,0.9c1.2,0.4,2.3,0.5,3.2,0.3c0.9-0.2,1-0.5,2.7-0.8c1.7-0.3,2.2-0.2,3.5-0.4c1.3-0.2,1.3-0.2,1.3-0.2
		s-0.1-0.3-1-0.2c-0.9,0-1.5,0.1-2.4,0.1c-0.9,0-2.4,0.8-3.1,0.8c-0.6,0-1.9-0.4-2.2-0.2C1514.7,338.8,1514.7,338.2,1513,338.4z
		 M1521.6,340.4C1521.6,340.4,1521.6,340.4,1521.6,340.4c-1.1,0.8-1.2,1-1.1,1.5c0.1,0.6-0.1,0.8-0.1,0.8s1.6-0.1,2.7-1.3
		c1.2-1.2,1.2-1.2,2.5-1.6c1.2-0.4,2.6-1.8,2.6-1.8s-1,0.2-2,0.1c-1.1-0.1-2.1,0.6-2.4,0.8C1523.4,339.3,1524.1,339.4,1521.6,340.4z
		 M1512.7,341c-1.1-0.8-2.2-0.7-2.3-0.2s-1,0.5,0.6,1.1s3.1,1.3,3,0.6C1513.8,341.6,1513.1,341.3,1512.7,341z M1502.4,307.7
		c-0.6,0.9,0.6,0.7-0.3,1.5c-0.9,0.8-1.7,0.4-2.6,1.6c-0.9,1.2-2.4,2-3,2.5c-0.6,0.4-2.5,1-3.4,2.1c-0.9,1.2,0.3,1.8,0.3,1.8
		s-0.5,0.2-1.9-0.3c-1.4-0.5-1.5-1.2-1.5-1.2s-1,0-1.5,1.4c-0.6,1.5-0.9,1.6,0.1,2.5c1,0.9-0.7,0.9-0.5,1.5c0.2,0.6,0.2,1.7,0.8,1.8
		c0.6,0.1,0.7-0.6,1.5,0.4c0.7,0.9,0.1,3.5,1.1,3.6c0.9,0.1,1.6-0.3,2.4,0.1c0.8,0.4,1.4,0.7,2.5,0.3c1.1-0.4,2.2,0,2.8,0.3
		c0.6,0.3,2.6,1,3.6,0.9c1-0.1,1.2,0.2,1.3-1.2c0.2-1.4,0-2.7,1.2-3.8c1.2-1.1,1.2-1.1,1.3-2.1c0.1-1,0.1-2,0.8-3.1
		c0.7-1,1.2,0.6,1.5-0.2c0.4-0.8,0.8-0.8,0.6-1.2c-0.2-0.4-1.3-0.4-1.8-1.2s0.1-1.2-0.4-2.7c-0.5-1.6-0.8-1-0.1-1.8
		c0.7-0.9,1.3-1,1.4-1.7c0.1-0.7,0.4-0.7,1.3-1.4c0.9-0.6-0.1-0.3-1-1c-0.9-0.6-2.5-3-3.5-3C1505.1,304.4,1503.1,306.8,1502.4,307.7
		z M1629,392.4c-0.4-0.3-0.8-0.1,0.2,1c0.9,1.1,1,0.8,1.6,0.8c0.6,0,1.1,2.2,1.5,2.8c0.3,0.6,1,1.2,1,1.2s0.4,2.4,0.1,3.5
		c-0.3,1.1-1,1.6-1.2,2.6c-0.2,1,1,0.7,1.8,1c0.8,0.3,0.6,0.3,0.3,1.2c-0.3,0.9-1.2,1.3-1.2,1.4s1.8,1.2,2.7,0.1
		c0.9-1.1,2.3-2.7,2.7-3.8c0.4-1.2-0.7-0.6,0.6-1.5c1.2-0.8,1.1-0.4,1.7-1.5c0.6-1,1.3-2.1,0.6-2.7c-0.7-0.6-1.5,0.7-2.2,0.9
		c-0.6,0.2-1.2,0.3-2.1-0.2c-0.9-0.4-1.1-0.4-1.4-1.2c-0.3-0.8-0.8-1.2-0.8-1.2s-0.3,1.4-0.9,0.9c-0.6-0.4-0.5-0.9-0.9-1.7
		c-0.5-0.8-0.5-1-0.8-1.6c-0.3-0.6,0-1.6-1.5-1.8C1629.2,392.7,1629.4,392.7,1629,392.4z M1629.3,406.9c0,0-1.2,1-2.3,2.5
		c-1.1,1.5-1.2,2-1.6,2.8c-0.3,0.8-1.6,1.8-3.6,2.8c-2.1,1.1-2.8,1.5-3.5,2.5c-0.7,1-3.1,4.1-3.4,4.5c-0.3,0.4,1.2,0.7,2.7,0.7
		c1.5,0,3.9,1.4,5.1,0c1.3-1.4,2.6-4.7,3.4-5.9c0.8-1.2,1.6-1.6,2.9-2.8c1.3-1.2,3.4-3.3,3.4-4.1c0-0.8-0.6-2.2-0.6-2.2
		s-0.5,0.9-1.6,0.8C1629.1,408.4,1629.3,406.9,1629.3,406.9z M1619.2,422.3c-1.5-0.8-1.8,0.7-2,2.2s0.7,0.2,2-0.5
		C1620.4,423.3,1619.8,422.6,1619.2,422.3z M1568.2,411.8c-1.7-0.6-1.4,1-1.2,2.2c0.3,1.2,0.6,2.2,1.2,3.2c0.6,1,3,1.4,4,0.9
		c0.9-0.4,1.6-1.9,2.6-3.3c0.9-1.4,1.4-3,1.2-3.8c-0.2-0.8-1.4,0.8-2.1,1.1c-0.8,0.4-1.8,1.3-3.3,0.9
		C1569.2,412.6,1568.8,412,1568.2,411.8z M1546.9,326.1c-1.4,0.3-2.1-0.9-3.2-3.2c-1.1-2.3-2-2.6-4.8-1.6c-2.8,1-2.4,0.8-0.5,1.5
		c1.9,0.7,2.1,1,2.4,1c0.3,0,3,0.4,2.4,0.8c-0.6,0.4-3.2,0.8-1.5,1.9c1.6,1.1,1,0.3,5.2,2.5c4.3,2.2,5,0.6,6.3,3.4
		c1.4,2.8,1.4,2.3,0.3,3c-1.1,0.7-2.6,1.4-2,1.5c0.6,0.1,1.7,0.3,4.6,0.5c2.9,0.2,0.2,1.8,3.4,1.8c3.3,0,4.1-1,5.4-2.6
		c1.3-1.5,1.5-0.7,4.3-0.1c2.7,0.6,3.7,3,7.1,4c3.4,1,4.9,2.2,2.7,0.2c-2.1-2-2.9-3.4-5.8-5.7c-2.9-2.3-3.1-2.6-3.9-4.3
		c-0.9-1.8-3.9-3.8-7.2-5.2c-3.3-1.4-5.3-1.5-9.2-2.6C1548.9,321.8,1548.3,325.8,1546.9,326.1z M1524.4,318.1
		c-1.3,0.9-1.4,0.4-2.4-0.3c-1-0.6-0.7,1.2-2.8,0.3c-2.1-1-2.9-1.5-5.2,0.2c-2.3,1.7-0.9,2.4-0.9,3.6c-0.1,1.2-1.9,4.6-2.6,5.8
		c-0.7,1.2-0.7,1.7-0.2,2.5s1.3,0.5,1.6,0.9c0.3,0.4,0,3.5-0.4,4.6c-0.4,1,0.9,1.2,2.2,0.9c1.3-0.3,0.2-0.4,0.2-1.5
		c0-1.1,0.6-1.6,0.6-3.6c0-2,0-3,0-3s0.4-0.2,0.9,0.5c0.5,0.7,1.2,2.6,1.8,3.6c0.6,1,1.2,1.7,2.1,1c0.9-0.7,1.8-1.5,1.8-1.5
		s-1.8-0.6-1.8-1.1c0-0.6,0.8-1.1-0.5-3.1c-1.2-2-1.9-2.1-0.3-2.2c1.6-0.1,1.5-1.6,2.4-2.1c0.9-0.5,2.2-0.3,2.2-0.3
		s-0.9-0.9-2.3-0.5c-1.4,0.4-2.6,0.6-3.8,1.2c-1.2,0.6-2.2,1-2.4-0.2c-0.2-1.2-0.4-1.5-0.2-3.1c0.2-1.6,2-0.4,3.4-0.8
		c1.4-0.4,1.4-0.3,4.4-0.1c3,0.2,3.3-0.5,4.2-1.7c0.9-1.2,1.4-2.7,1.4-2.7S1525.6,317.3,1524.4,318.1z M1531.6,313.8
		c0.3-0.5-2.2,1.7-2.7,2.2c-0.5,0.4,0,1.1,0.3,1.7c0.3,0.6,0.3,2.8,0.4,3.3c0.1,0.5,1.4,0.9,1.4,0.9s0-1.5,0.4-2.2
		c0.5-0.7,0-1.5,0-2.8C1531.4,315.8,1530.7,315.3,1531.6,313.8z M1526.6,326.9c-2-0.8-2.7-0.3-2.7,0.8c0,1-0.2,1.5,1.9,1.5
		C1527.9,329.2,1530.3,328.3,1526.6,326.9z M1530.5,326.2c-0.5,0.2-1,1.7-0.7,2.6c0.3,0.9,0.6,0.3,1.7,0.1c1.1-0.2,0.9-1.1,2.3-1.2
		s4.2,1,4.2,1s0.6-0.7-1.6-2.1C1534.3,325.3,1533.3,325.4,1530.5,326.2z M1491.3,275.5c0,0-2,0.1-2.3,0.1c-0.3,0-1,0.8-1.5,1.1
		c-0.5,0.3-0.5,0.7-0.2,1.5c0.3,0.8,0.9,0.8,1.9,1.1c1,0.3,0.6-0.4,1.3-0.7c0.7-0.3,0.9-0.9,1.1-1.5c0.1-0.6,0.6-0.8,0.8-1
		c0.2-0.2-0.6-0.9-0.6-0.9C1491.9,275,1491.3,275.5,1491.3,275.5z M1514.5,278.2c-0.8-0.6-1.2,1.4-1.4,2.5c-0.2,1-0.5,1.7-0.1,2.5
		c0.4,0.8,0.2,1,0.2,1l-1.1-0.8c0,0-0.3,1-0.3,1.8c0,0.8-0.3,1.2,0.9,1.8c1.3,0.6,1.7,0.3,1.9,1.2c0.2,0.9,0.2,1.3,1,1.5
		s1.8,0.5,2.2,1.1c0.3,0.6,0.2-1.5,0.8-1.4c0.6,0.1,1.3,0.9,1.7,1.6c0.4,0.7,1.1,0.7,1.1,0.7s-1-1.6-0.6-1.8c0.4-0.2,0.6-0.4-0.6-1
		c-1.1-0.7-2-0.5-2.9-0.6c-0.9-0.1-0.9,0.6-1.5-1.1c-0.6-1.7-0.1-2.7-0.1-3.1s0.5,0.6,1-0.6c0.5-1.2,0.6-2.1,0.6-3.2
		c-0.1-1.1,0.8-1.6,0.1-1.6C1516.8,278.5,1515,278.6,1514.5,278.2z M1524.7,299.7c0.1,0.8-0.8-0.2-1.1,0.2c-0.3,0.5-0.5,0.4-1.1,0.6
		c-0.5,0.2-1.9,1.5-1.9,1.5s0-0.8,0-1c0-0.2-0.4-1.1-0.8-0.5c-0.4,0.6-0.8,1-1.7,1.5c-0.9,0.5-1.5,1.1-1.6,1.9
		c-0.1,0.8,0.6,0.8,0.6,0.8s0.4-0.3,0.9-1.2c0.6-0.9,0.7-0.9,1.8-1c1.1-0.1,1-0.1,1.3,0.5c0.3,0.6,0.1,1.5,0.1,2.1
		c0,0.6,0,1.4,1.1,1.8c1.1,0.4,0.6,0,1.6-0.1c1-0.1,1-0.1,0.9-0.6c-0.1-0.5-0.5-1-0.5-1.6c-0.1-0.6,0.6-0.9,0.8-1
		c0.2-0.1,0.3,0.6,0.6,1.3c0.3,0.8,0.4,0.7,0.6,0.2c0.1-0.6,0.5-1.9,0.4-2.6c-0.1-0.7-0.2-1.3-0.2-1.9c0-0.6-0.5-1.3-0.8-1.5
		c-0.3-0.2-1.3-1.1-1.3-1.1S1524.6,298.9,1524.7,299.7z M1519.8,294.8c0,0,0-0.5-0.9-1.4c-0.9-0.9-1-1.2-2.4-1.4
		c-1.4-0.2-2.8,0.1-2.2,1.6c0.6,1.5,0.8,1.7,2,1.9c1.2,0.2,1.9-0.5,1.9-0.5s0.1,0.2-1,1c-1.1,0.7-1.3,2.1-0.4,2.6
		c0.9,0.5,0.9,1.3,1.4,0.9c0.5-0.4,0.9-1.8,1.9-2.8c1-1,1.1-1.1,1.2-2.2c0.1-1,0-1.9,0-1.9L1519.8,294.8z M1522.2,291.9
		c-0.1,0.1-0.9-0.1-0.1,0.7c0.8,0.8,1.5,0.9,1.4,1.5c-0.1,0.6,0,0.7-0.5,0.6c-0.4-0.1-0.6-0.2-0.8-0.2c-0.2,0-0.2,0.4-0.1,0.7
		c0.1,0.3,0.1,0,0.5,0.5c0.4,0.6,0.3,0.8,0.4,1.5c0.1,0.7,0.4,0.3,0.4,0.3s-0.1-1.6-0.1-1.9c0.1-0.3-0.1-1.1,0.4-0.9
		c0.5,0.3,0.4,1.2,0.7,0.3c0.3-0.9,0.2-1.7,0-2.4c-0.2-0.7-0.7-0.8-1.4-0.8C1522.5,291.8,1522.2,291.9,1522.2,291.9z M1511.1,294.6
		c-0.3,0.1-0.5,0.4-0.7,1.5c-0.2,1.1-0.8,1.7-1.5,2.3c-0.7,0.6-2.4,2.4-2.5,2.7c-0.1,0.3-0.1,0.1,1.2-0.5s2.4-1.5,2.5-2.3
		c0.2-0.9-0.2-0.3,1-0.9c1.2-0.6,0.6-0.7,0.6-1.6C1511.9,295,1511.7,294.5,1511.1,294.6z M1582.1,327.3c-0.1,1.1,0.3,1.4-0.7,2.3
		c-1,0.8-2.2,0.8-3.3,1c-1.1,0.2-0.3-0.2-1.6-0.2c-1.4,0-1.7,0.1-1.1,0.7c0.6,0.7,0.5,1.3,2.5,1.3c2-0.1,3.6-1.2,4.9-1.6
		c1.3-0.4,1.2-1.4,1.3-1.9C1584.2,328.4,1582.2,326.1,1582.1,327.3z M1587.7,329.7c0.6,0.8,0.3,0.7,1.1,1.7c0.7,1,1.8,1.2,2.7,1.5
		c0.8,0.3,0-0.3-0.6-1.1c-0.6-0.8-0.7-1.3-1.6-2.1C1588.2,328.8,1586.7,328.3,1587.7,329.7z M1515.3,262.6c-2.7,1.7-4,1.6-2.9,3.8
		c1.1,2.2,1.8,3.2,1.9,3.6c0.2,0.4,0.7-0.3,1.5-2c0.8-1.8,0.8-4,1.1-4.7C1517.2,262.5,1516.2,262,1515.3,262.6z M1562.3,176.5
		c0.3,1.2,0.6,3-0.1,3.2c-0.7,0.2-1.2,1.5-1.3,2.8c-0.2,1.3-0.5,3,0.2,4c0.7,1,0.2,1.1,0.2,2s0.3,3.1-0.2,4.4s-0.7,1.6-0.5,3
		c0.2,1.4,0,1.7,0,3.7c0,2-0.1,3.6,0,4.4c0.1,0.8,0.5-0.4,0.8-0.7c0.3-0.3,1.5-0.4,2.1,0.2c0.6,0.7,0.6,0.7,0.6,0.7s1,0.4-0.4-2.6
		c-1.4-3-1.7-2.4-1.3-5.1s0.6-2.8,2.1-3.1c1.5-0.3,2.2,1.7,2.4,1.9c0.2,0.2-0.1-0.7-0.6-2.2s-1-2.1-1.2-4c-0.2-2-0.8-3.6-1.5-4.1
		c-0.8-0.6-0.4-1.5,0-2.2c0.3-0.8,0.5-1.9,0.3-3.2c-0.2-1.3-0.6-3.2-0.8-3.9c-0.2-0.7-1.1,0.4-1.1,0.4L1562.3,176.5z M1561,207.1
		c0.1,0.9,0.2,1.7-0.4,2.7c-0.6,1-0.2,1.2-0.5,2.6c-0.3,1.4-2,0-2,0.3c0,0.3-0.3,1.3-0.7,1.6c-0.4,0.4-1.9,0.4-1.5,1.8
		c0.4,1.4,1.2,2.9,1.2,2.9s0.9-0.8,1.1-0.9s0.9-0.3,0.9-0.3s-0.1-0.4-1.1-0.8c-0.9-0.4-0.9-1.4-0.7-1.6c0.1-0.3,1.3,0.1,2.1,0
		c0.8-0.1,1.4-0.5,2.4,0.3c0.9,0.8,2.3,1,2.3,1s0.2-1.1,0.6-1.9c0.4-0.8,1.7-0.4,2.9-0.8c1.2-0.4,2.2-0.6,1.8-1.1
		c-0.4-0.5-0.4-1.7-0.7-2.6c-0.3-0.9-1.1,0-1.7,0.3c-0.6,0.3-1.5,0.1-2.3-0.5c-0.9-0.6-2.4-2.7-3-3.5
		C1561.8,206.7,1560.9,206.2,1561,207.1z M1557.2,220.2c-0.4,0.2-0.9,1.3-0.8,2.4c0.1,1.2,1.1-0.1-0.2,3.5s-1.9,4.4-3.2,5.3
		c-1.3,0.9-2.4,0.9-2.9,0.7c-0.5-0.2,0.1-1,0.5-1.3c0.4-0.2-1.1-0.3-1.7-0.2c-0.6,0.1,0,0.8-0.1,1.3c-0.1,0.6-1.3,2.1-1.1,2.8
		c0.1,0.7,0.1,0.9-0.6,1.1c-0.8,0.2-1.3-0.6-1.5-0.7c-0.2-0.1-1.4,0.2-2.9,0.4c-1.5,0.2-1.9,0.7-2.5,1.8c-0.6,1.1-2.2,1.3-3.2,1.7
		c-1.1,0.4-0.7,2-1.9,2.5c-1.2,0.5-1.2,1.5-1.3,2.3c-0.1,0.8,0.7,0.2,0.9,0.2c0.1-0.1,0.1-1.1,0.9-1c0.7,0.1,0.8,0.2,0.5,1
		c-0.4,0.8-0.6,1.3-1,2c-0.4,0.7,0.1,1.1,0.7,1.8s1.1-0.2,2.3-1.5c1.2-1.3,1.3-1.6,1.2-3.1c-0.1-1.5-0.6-1.5-1.5-1.9
		c-0.9-0.4-1.1,0-0.1-1.1c1-1.1,1.4,0,2.1-0.5c0.7-0.5,2.3-0.5,3.9-0.9c1.6-0.4,3.1-0.9,3.2-0.4c0.1,0.5,0.6,2.2,0.6,2.6
		c0.1,0.4,1.1-0.5,2.2-0.9c1.1-0.4,0.1-0.6,0-1.3c-0.1-0.7,0.5-1.1,0.5-1.1s0.5,1.1,2.2,0.3c1.7-0.8,1.8-1.1,2.3-1
		c0.5,0.1,0.7,0.6,1.4,0.1c0.7-0.5,0.8,0,0.7,0.3c-0.1,0.4,2.1-0.7,2.5-1c0.5-0.3,0.2,0,0-1.3c-0.2-1.3-0.8-1.3-0.5-3
		c0.4-1.6,0.3-1.8,0.4-2.8c0.1-1,0.5-1.2,0.7-1.2c0.3-0.1,0.3-1.4,0.8-2.1c0.6-0.7,0.4-1.1,0.4-2.7s-0.9-1.3-1-2.5
		c-0.1-1.2,0.2-2.3,0.2-2.3s-1.8,0.7-2,1.1c-0.2,0.4-0.2,0.4-0.2,0.4S1557.8,219.9,1557.2,220.2z M1545.2,238.2
		c-1.9,0.3-3.2,0.5-4.4,0.9c-1.1,0.4-1.4,0.9-1.2,2c0.2,1.1,0.6,2.3,0.8,2.8c0.2,0.6,0.8,0,1.8-0.6c1.1-0.6,1-2.2,2-2.2
		c1,0,0.6,1.2,2-0.5c1.4-1.6,0.3-1.8,0.4-2.6C1546.7,237.2,1545.2,238.2,1545.2,238.2z M1665.3,149.5c-2-0.4-2.6-0.8-2.8-0.1
		c-0.2,0.7-0.4,1,0.9,1.4s1.9-0.3,3.1,0.6c1.2,0.9,1.5,0.9,2.5,0.7c0.9-0.1,1.3-0.6,1.3-0.6S1666.8,149.8,1665.3,149.5z
		 M1642.1,117.6c-0.8,0.2-1.4-0.5-1.2,1.3c0.2,1.8,0.6,2,3,1.7c2.4-0.3,0.6-0.1,3.8-0.3c3.2-0.2,3.9-0.7,3.9-0.7s-0.5-0.9-1.5-1.7
		c-1.1-0.8-2.5,0.6-5,0.2C1642.5,117.6,1642.1,117.6,1642.1,117.6z M1569.7,90.6c0,0.7,3.2,2.7,4.4,3.2c1.2,0.6,2.1,0.3,4.5,0.1
		c2.4-0.3,2.6-1.3,2.9-1.9c0.3-0.6-1.2-0.4-2.8-0.7c-1.6-0.3-3,0.3-3.6,0c-0.6-0.3,0.9-0.6-0.6-1.1c-1.5-0.5-1.8,0.2-2.1-0.1
		c-0.3-0.2-0.4-0.8-1.1-0.8C1570.6,89.2,1569.6,89.9,1569.7,90.6z M1557.1,94.7c-1.1,0.4-1,0.8,0.2,1.9c1.3,1,0.8,0.8,0.3,1.6
		c-0.5,0.8,0,0,1.8,0.8c1.8,0.8,2.5,2.3,3.7,2.6c1.1,0.3,1.9-0.1,1.9-0.1s-0.4-1.2-1.4-2.6c-1.1-1.4-3.3-1.9-3.8-3.1
		C1559.3,94.4,1558.6,94.1,1557.1,94.7z M1568.5,88.8c0,0-1.6-1-4.1-2.5c-2.5-1.6-3.4-2-4.2-2.1c-0.8-0.1-0.7,0.9-1,1.6
		c-0.3,0.8-0.5,0.6-1.8,0c-1.3-0.6-2.6-1.6-3.9-1.9c-1.3-0.3-2.1,0.8-3.6,2.3c-1.5,1.5-0.6,1.9,1.2,4.1c1.8,2.2,2.6,2.3,4.1,1.5
		c1.5-0.9,1.1-1.4,2.1-1c1.1,0.4,4.7-0.4,4.9-0.4c0.1,0-0.2,2,1.4,1.5c1.6-0.5,3.1-0.8,3.8-1.6C1568,89.5,1568.5,88.8,1568.5,88.8z
		 M1457.2,46.1c-0.5,0.4-3.2,0.2-4.6,2.4s-2.4,0.7-3.1,2c-0.7,1.4-1.3,3-1.3,3s1.3,1.5,2.7,1.4c1.4-0.1,3.8,0.5,5.1,2.3
		c1.3,1.8,2.3,1.8,5.5,2.4c3.2,0.5,1.8,1,3.4,0.8c1.7-0.2,4,0.2,3.5-0.6c-0.5-0.8-0.9-1.4-0.7-3c0.2-1.6,1.7-1.6,0-2.6
		c-1.8-1.1-3-0.2-2.9-0.4c0.1-0.2,1.6-0.8,1-0.8c-0.6,0-3.6-0.2-3.9-1.9c-0.3-1.7,0.8-1.8,1.4-1.9c0.6-0.1,0.4-0.3-1.3-1.6
		c-1.7-1.2-4-2.5-4-2.5C1456.8,45.6,1457.7,45.7,1457.2,46.1z M1473.4,58.2c-1.2,0.2-2.3,1.5-3,2.6c-0.7,1.1-2.2,2.7-3.1,3.4
		c-0.9,0.7-0.6,0.9,0.8,1.4c1.5,0.5,4-0.9,4.8-1c0.7,0,1.3,1.1,3.6,0.8c2.3-0.3,5.8-0.7,4.1-2c-1.7-1.2-1.1-0.6-3-2.2
		c-1.9-1.5-4.3-1.6-4.3-1.6s3.9-1.3,3-1.4C1475.3,58.2,1473.4,58.2,1473.4,58.2z M1374.3,38.5c-2.2,0.8-1.5,1.2-2.9,2.4
		c-1.5,1.2-0.5,1.5,2.7,0.7c3.1-0.8,3.3-1.1,5.3-2C1381.4,38.7,1377.6,37.3,1374.3,38.5z M1379.3,44.1c-2.1,0.9-1.5,1.9-1,2.7
		c0.6,0.8,2.1-0.5,2.5,0.4c0.4,0.9,0.6,0.5,2.5-0.8c2-1.3,1.2-0.9,0.5-2.3C1383,42.7,1382.9,42.5,1379.3,44.1z M1367.6,43.6
		c-1.4,0.6-1.4,0.6-0.1,1.2c1.3,0.6,4.4,1.1,6,0c1.6-1.1,1.5-0.8-0.5-1.1C1370.9,43.3,1369.1,42.8,1367.6,43.6z M1347.7,46
		c2.1-0.2,4-0.3,5.7-0.1c1.7,0.2,1.1,1.6-2,1.9c-3.1,0.3,0.3,0.8,2.5,0.7c2.2-0.1,0.8-1.9,2.6-2.5c1.8-0.6,3-0.2,5.2-1
		c2.2-0.8-1.3-1.5-3.8-1.5c-2.5,0.1-3.4,0.2-5.5,0.1c-2.2-0.2-3.9,0.8-6.1,1.2C1341.6,45.6,1345.6,46.2,1347.7,46z M1364.1,46.5
		c-1.8,0-6.3,1-2.5,1.4c3.7,0.4,3.4,0.6,5,0C1368.1,47.4,1366,46.5,1364.1,46.5z M1377.1,47.3c-2.6-0.9-2.7-0.5-4.7-0.4
		c-2,0.1-2.8,1.3-1.5,1.9c1.3,0.5,2.2,0.3,3.3,0.2c1.1-0.2,1-0.5,0.3-0.8C1373.8,47.9,1378.6,47.8,1377.1,47.3z M1388.1,44.1
		c-2,0.3-2.1,0.6-2.3,1.3c-0.2,0.7,0.3,0.5,2.4,0.2c2.1-0.3,3.1-0.6,4.5-1.3c1.4-0.8-0.3-2.6-0.3-2.9c0-0.3-2,1-2.5,1.5
		C1389.3,43.3,1390.4,43.8,1388.1,44.1z M1230.7,158.9c-1,2.8-2.7,4.1-0.7,3.3c2-0.8,3.9-3.2,3.8-1.1c-0.1,2.1-2,1.8-1.4,3.8
		c0.6,2,0.2,1.8,3.4,2.6c3.3,0.7,0.6,0.5,1.4,2.4c0.8,1.9,1.4,2.5,0.5,3.1c-0.9,0.6-3.4-1.8-3.5-0.8c-0.2,1,0.4,1.7,1,3.1
		c0.6,1.4-0.4,2.1-2.3,3c-1.9,0.9-0.3,1.5,1.2,1.4c1.5-0.1,5.1-0.8,4.5,0.5c-0.6,1.3-2.4-0.2-3.6,1.9c-1.3,2.1-5.9,4-3.5,3.9
		c2.4-0.1,2.1-0.8,9.3-1.8c7.2-1,2.2-0.1,7-1.5c4.8-1.5,3.2-1.8,0.6-1.4c-2.6,0.4,1.7-2.6,1.1-5.4c-0.6-2.8-2.3-0.1-3.4-1.9
		c-1.1-1.8-1-2.3,1.2-1.6c2.1,0.6,1.9-0.4-2.2-3c-4.1-2.6-1.6-2.1-3.4-4.3c-1.9-2.2-5.1-1.9-5.1-1.9s1.4-0.8,2.2-2.4s1-1.5,1.8-3.4
		c0.9-1.9-0.9-1.8-3-1.3c-2.2,0.5-2.9,0.7-2.4-0.2c0.5-0.9,0.8-1.2,1.8-2.3s1.2-1.6-0.7-1.2c-1.9,0.4-2.2,0.4-3.7,1.1
		C1230,154.5,1231.7,156.1,1230.7,158.9z M1225.6,165.5c-3.3,1.3-2.4,2.1-1.8,2.6c0.6,0.5,1.6-0.4-1.5,1.3c-3.1,1.8-3.1,3.7-1.5,4.1
		c1.6,0.4,1.4-0.9-0.3,2.3c-1.7,3.2-2.9,5.4,0.6,4.6c3.5-0.8,4.4-2.6,6.1-2.8c1.7-0.2,2-1.5,2-3.6s-1.1-2.1,0.2-3.7
		c1.3-1.7,1.4-3.4-1.2-4.3C1225.6,165.2,1227.6,164.6,1225.6,165.5z M1267.1,210.5c-0.2,0.5,0.2,1.7-1.1,2.5
		c-1.3,0.8,0.6,1.6,1.1,2.4c0.4,0.8,1-2.7,0.9-4.4C1267.8,209.4,1267.6,209.1,1267.1,210.5z M1266.4,217.1c-2.2,1-2.3,1.8-2.6,3.4
		c-0.3,1.6,1.8,0.3,1.2,1.8s0,2.2,2.2,0.8c2.3-1.4,1-2.6,1.3-4.3C1269,217.1,1269.3,215.8,1266.4,217.1z M1300,234.8
		c-1.9-0.2-2.8,1,0.5,1.4c3.3,0.4,4.8,0.4,6,0.1c1.2-0.3,0.2-0.1-1.4-1.1C1303.5,234.1,1302.5,235,1300,234.8z M1318.3,235.8
		c-2.6-0.6-1.9,2.6,0.8,2.2c2.7-0.5,1.7,0.2,2.9-1.8C1323.2,234.2,1321.1,236.4,1318.3,235.8z M1252.6,220.9c-2.2,0.3-2.3,1-0.6,1.4
		s1.5-0.1,2.4-0.8C1255.3,220.9,1253.6,220.8,1252.6,220.9z M1122.8,181.9c-1.3,1-2.8,2.6-4.7,5.9c-1.9,3.4-1.7,3-3.5,4.8
		c-1.8,1.9-0.9,1.4,4.7,2.5c5.6,1.1,5.1,1.9,6.4,1.6c1.3-0.4,1.5,0.7,1.5,1.9s1.2,0.5,1.8-1.3c0.6-1.8-0.6-5-1.7-6.9
		c-1.2-1.9-1.4-1.9-3.2-1.4c-1.8,0.5-1.2-0.4-1.9-1.9c-0.6-1.4-1.7-0.3-0.1-2.5C1123.7,182.5,1124.1,180.9,1122.8,181.9z M951.8,178
		c0,1.8,1.9,4.8,3.3,5.8c1.4,1,1.1,0.4,0.5-1.7s-0.1-2.1-0.4-3.5C954.8,177.4,951.8,177.4,951.8,178z M961.1,187.8
		c0.4,0.4,1.5,2,3.5,3.3s2.5,1.5,4.5,2.1c2.1,0.6,3-0.2,1.6-1.4c-1.3-1.2-0.2-1.1-2.6-1.6c-2.4-0.6-2.9-0.4-4.1-1.1
		C962.9,188.3,960.3,186.9,961.1,187.8z M908.9,167.9c-1.5-0.4-2.2-0.4-3.2,0.4c-1.1,0.8-1.3,1.6-0.8,2.5s0.2,0.4,1.6-0.5
		c1.4-0.9,0.7-1,2.4-1.5c1.7-0.4,1.4-1,1.4-1S909.8,168.1,908.9,167.9z M908.3,165.9c-1,0.6-1.4,1.1-0.2,0.9c1.2-0.2,1-0.9,1.7-0.8
		c0.7,0.2,1-0.2,1-0.2S909.4,165.2,908.3,165.9z M878.7,161.1c-1.4,0.7-2.8-0.1-1.9,0.4c0.9,0.5,2.1,1,3,0.9
		c0.9-0.1,1.5-0.1,1.2-0.6c-0.3-0.5-0.4-0.6-0.5-1C880.5,160.2,880.1,160.4,878.7,161.1z M1353,356.1c-1.6,3.6-5.1,1.8-7.8,4.5
		c-2.7,2.6-2.3,1.8-0.3,5.5c2.1,3.7-1.7,3.3-2.7,7.6c-0.9,4.3,1.1,3.5,2.2,7.2c1.1,3.7,1.6,2.6,3.7,2.1c2.1-0.5,3.5-1.4,3.5-1.4
		s0.4-3.2,1.7-7.9c1.4-4.7,2.3-8.1,2.6-11.3c0.3-3.1,0.5-5.3,1.2-4.4c0.7,1,0.8,1,0.8-0.6s-0.8-5.8-2.1-6.8
		C1353.5,348.9,1354.7,352.5,1353,356.1z M1355.4,110.6c-2.2,0.5-3.3,1.9-1.7,2.4c1.6,0.5,1.5,0.2,4.2-0.7
		C1360.6,111.4,1357.7,110.1,1355.4,110.6z M1397.4,69.9c-0.8-1.2-1.5,0.4-9.3,3.8c-7.9,3.4-7.8,0.5-15.2,6.3
		c-7.4,5.8-5.7,5.1-6.2,8.6c-0.4,3.5-2.1,2-2.8,5.2c-0.7,3.2-4.5,3.4-2.6,6c1.9,2.6,4.4,4.1,8.3,5.3c3.9,1.1,5.1-0.1,4.2-0.5
		c-0.9-0.4-3.9-5.1-3.3-10.5c0.6-5.3,2.6-4.5,4.3-6.5c1.7-2,6.2-7.2,9.1-8.9c2.8-1.7,10.4-4.1,14.2-5.4c0.1,0,0.2,0,0.3-0.1
		C1401.5,69.8,1398.2,71.1,1397.4,69.9z M1376.2,105.7c-0.9,0.1-1.4,0.2,0.3,1.8c1.7,1.7,3.2,3,2.7,0.7
		C1378.6,106.1,1377,105.6,1376.2,105.7z M1404.3,89.5c-1.3-0.6-1.9-1.2-2.2-0.2c-0.3,1,1.4,2.2,3.1,2.6
		C1406.9,92.1,1405.5,90.1,1404.3,89.5z M1109.3,189.9c-1.9-1-3.8-1.7-5-1.7s0.3,1.3,2.2,2.4
		C1108.5,191.7,1110.4,190.5,1109.3,189.9z M1104.8,198c0.1-1.6-1.1,1.8,0.4,2.6c1.4,0.8,2.1,1,3,0c0.9-0.9,0.2-0.3-1.1-0.6
		C1105.9,199.8,1104.7,199.3,1104.8,198z M1666.2,143c-2.3,0.2-4.1-0.4-4.1-0.4s-0.1,1.9-0.8,2.8c-0.7,0.9-0.2,1.9-0.2,1.9
		s-2.3-1-3.7-1.5c-1.4-0.5-2.6-0.1-3.3-2.1c-0.8-2-3.1-1.7-4.9-1.7c-1.8,0-1.3-2.3-1.3-2.3s0,0-1.1,0.1c-1.1,0.1-0.9,2.7-2.3,3.5
		c-1.4,0.8-5.8,1.4-5.8,1.4s2.8,2,3.4,3.7s1.7,3.3,1.7,3.3s-0.3,0.8-3.7,0.1c-3.4-0.7-3.2,0.7-6.9,2.2c-3.7,1.5-7.8,3.8-8.9,4.6
		c-1,0.8-1.1,0.4-4.3-0.4c-3.2-0.8-3.9,0.9-4.7,1.3c-0.8,0.4-0.5-1.9-0.5-1.9s-1.2,0-2.6,0.7c-14.6,7.4-4.5,7.1-5,8.6l-1.6,5.8
		c-2.2,6.4-3.6,3.1-5.5,8.1c-5.8,16.2-9.1-2.5-9.1-6.8c0-2.6-0.6-6,1.1-6.8c14.4-6.7,1.4-0.9,14.8-10.2c4.4-3,2-4.8,3-5.6
		c1-0.8,2.5-1.1,2.5-1.1s0,0-2.4-0.2c-2.4-0.2-2.4,0.3-4.3,2.3c-1.9,2-3.3,2.4-3,0.8c0.4-1.6,0.4-3.2-1-2.3c-1.4,0.8-2,0.7-4.6,1.3
		c-2.6,0.5-5.5,1.8-7.8,4.8s-1,2.6-0.3,3.4c0.8,0.7-3.8,0.5-6,0.4c-2.2-0.2-1-0.6,0.3-1c1.3-0.4-1.9-0.8-4.8-1.4
		c-2.8-0.6-1.7,0.5-3.4,1.1c-1.7,0.7-1.6-0.6-2.4-0.8c-0.8-0.2-4.6-0.4-7.2-0.7c-2.6-0.3-2.4,0.2-3.2,1.1c-0.7,0.9-5.6,5.2-7.7,7.7
		c-2.1,2.5-4.8,3-7.1,5.3c-2.4,2.3-2.8,2.2-0.8,2.5c1.9,0.4,2.2,0.2,2.5,2c0.3,1.8,1.2,2.4,3.3,2.4c2.1,0,1.5,0.5,1.9-1
		c0.4-1.6-0.5-3.3,1.2-2c1.7,1.4,3.2,2.4,3.7,4.4c0.5,2-0.1,3.4-1,6.7c-0.9,3.3-1.2,8-2.4,10.4c-1.2,2.4-2.2,4.2-3.5,6.8
		c-1.3,2.6-7.9,9.3-9.4,9.9c-1.5,0.6-2.4,0.7-3.1-0.7c-0.7-1.3-1.2-1.1-2.9,0.4c-1.7,1.5-2.4,2.4-3.1,4.8c-0.6,2.4-2.1,2.4-3.5,4.2
		c-1.5,1.8-1.9,1.4-0.8,3.4s2.9,4.2,3.1,6.2c0.2,2-0.9,4.8-1.6,6.1c-0.7,1.3-4.1,1.9-4,1.3s0.1-3.6,0-5.3c-0.1-1.7-1.4-1.7-1-2.3
		c0.5-0.5,2.3-1.4,1-2.7c-1.4-1.3-2.3-0.2-2.9-1.7c-0.6-1.5,0.3-2.7-0.1-3.2c-0.3-0.5-1.3-1.1-3.3-1.3c-2-0.2-2.4,1.8-2.9,0.1
		c-0.5-1.7,0.2-1.9-0.7-2.6c-0.9-0.7-1.7-0.2-4,1.7c-2.3,2-2.8,1.6-4.7,2.4c-1.9,0.8-1.9,1.3-1.5,2c0.5,0.7,2.1,3.5,3.4,3.8
		c1.4,0.3,2.3-0.6,4.4-0.6c2.1,0,2.4,0.3,1.9,1.1c-0.5,0.8-1.9,1.6-4.4,4.1c-2.5,2.5-1.7,2-0.9,3.1c0.8,1,2.1,2.3,3,4.2
		c0.9,2,0,2.7-0.1,3.8c-0.1,1.1-0.3,2.9,1.4,4.7c1.7,1.8,0.5,1.2,0.3,1.9c-0.2,0.7-3,5.8-4.3,8.4c-1.3,2.6-1.3,2.8-5.5,5.7
		c-4.2,2.9-6,3.2-8.3,3.6c-2.2,0.4-4.2,1.1-5.3,1.6c-1.2,0.5-0.7,1.4-0.8,2c-0.1,0.6-1.2,0.1-1-0.8s0.1-1.6-0.5-1.8
		c-0.6-0.2-2.4-1-4.2,0.8c-1.9,1.8-4.1,1.9-4.9,4.2c-0.8,2.3-0.6,1.5,0.2,2.5c0.8,1,4.9,4.8,5.8,6.9c1,2.1,1.2,3.7,1.2,5.9
		c0.1,2.3-4.6,6.5-6.7,7.8c-2.1,1.4-2.5,2.7-2.2,0.5c0.3-2.2-0.9-3.4-2.4-5c-1.5-1.6-6-2.9-6.8-3.1c-0.8-0.2,0.3-1.5-0.3-1.4
		c-0.6,0.1-1.9-0.3-1.7,1.8c0.2,2.1-1.4,1.4-1.7,3.5c-0.3,2.1-0.7,4.2,0.6,4.1c1.3-0.2,1.1,1.9,2.1,4.1c1,2.3,0.6,1,3.2,3.1
		c2.6,2.1,1.9,1.7,2.5,3.8c0.6,2.1,0.4,3.3,1.7,5.2c1.3,1.9,1.3,2.3-0.8,1.3c-2.1-1.1-3.9-2.4-4.7-3.7c-0.8-1.3-1.3-4.7-1.9-6.3
		c-0.5-1.7-4-3.7-5.1-4.8c-1.2-1.2-0.5-2.2,0.1-4.9c0.6-2.8-0.3-5.4-0.5-7.1c-0.2-1.7-1.5-6.4-2.2-8c-0.6-1.6-0.4-1.4-1.4,0
		c-1,1.4-1.8,2.2-2.7,2.2s-2.4-0.2-2.2-0.8c0.1-0.6,1.1-3,0.8-3.9c-0.3-0.9-1.2-3.8-2.5-4.8c-1.4-1-2.9-2.4-3.8-4.8
		c-0.9-2.4-1.1-1.7-2.8-0.5c-1.7,1.2-5.5,1.4-7.3,1.5c-1.8,0.2-0.3,1.1-0.8,1.9c-0.5,0.9-2.6,2.1-6.9,6.6c-4.3,4.5-5,4.7-6.1,5.1
		c-1.1,0.5-1.8,0.3-1.8,2.2c0,1.9,0.2,2.9,0,4.5c-0.2,1.7-0.7,2.3-1.2,3.4c-0.5,1.1-1,3-1.1,4c-0.1,1-1.1,2.2-2.5,3.2
		c-1.4,1-1.4,0.8-2.1-0.7c-0.6-1.5-4-7.2-6.7-12.6c-2.7-5.4-2.1-6.3-2.3-7.9c-0.3-1.6-0.3-10.9-0.2-11.6c0.1-0.4-1.3,1.1-1.7,1.9
		c-0.4,0.8-0.4,1.7-1.9,1.8c-1.5,0.1-1.9,0.2-3.3-1.3c-1.5-1.5-2.1-2.3-1.9-2.2c0.3,0,1.9-0.2,2.9-0.6c1-0.5,0.6-1,0.6-1
		s-1.1,0.1-2.3,0.2c-1.3,0.1-0.7-0.3-2.3-0.9c-1.7-0.7-2-0.7-2.3-1.5c-0.3-0.7-0.7-1.8-0.9-2.3c-0.2-0.6-0.4-0.6-0.7-1.3
		c-0.3-0.7-1.1,0.1-2.9,0.2c-1.8,0-1.4,0.1-3.5,1c-2.1,0.8-2.5,0.5-4.9,0.5c-2.4-0.1-4.1-1.1-5.3-1.5c-1.2-0.4-1.4-0.2-3.2-0.5
		s-1.4-1.2-1.9-1.9c-0.5-0.8-1.2-0.9-3.6-0.8c-2.4,0.2-2.4,0.1-3.8-0.3c-1.3-0.4-1.4-0.8-2.6-2c-1.1-1.1-0.8-0.2-1.5-0.8
		c-0.7-0.6-1.5-1.4-2-2.9c-0.6-1.6-0.5-1.9-1.1-2.6c-0.7-0.7-0.6-0.5-2.7-0.5c-2.1,0-1.1,0.1-1.4,0.3c-0.3,0.1-0.9,1.1-1.5,1.8
		c-0.6,0.7,0.5,1.7,1.3,2.7c0.8,1,0.1,0.9,1.4,2.4c1.3,1.5,0.9,1.3,1.8,3.4c0.9,2.1,1.5,2.6,1.8,3.2c0.2,0.6,0.4-0.2,0.6-0.8
		c0.2-0.6-0.1-2.6-0.1-2.6s0.4,0.8,0.8,2.3c0.4,1.5,0.1,1.5,0.4,2.4c0.3,0.9,0,0.8,1.6,0.8c1.6,0,2.6,0.1,4.4-0.4
		c1.8-0.4,2.5-2,3.4-2.5c0.8-0.5,0.8-2.2,1.4-2c0.6,0.2,0,2,0.5,3.2c0.5,1.2,0.6,0.8,1.9,1.3c1.2,0.5,1.6,0.8,2.8,1.3
		c1.3,0.5,0.4,0.5,1.1,1.8c0.7,1.3,0.6,0.6,1.3,1c0.7,0.4,0.4,0.1-0.1,1.6c-0.5,1.5-0.6,1.5-1.7,2.7c-1.1,1.2-1.1,0.8-1.3,0.8
		c-0.2,0-0.5-0.9-0.5-0.9s-0.7,1.5-0.8,3.2c-0.1,1.7,0.6,1.1-1.5,1.9c-2,0.8-3.3,1.2-4,1.8c-0.8,0.7-0.8,1.6-1.2,2
		c-0.5,0.4-1.1,0-2.4,0.5c-1.4,0.5-1,0.4-2.1,1.3c-1.2,0.9-0.1,0.8-1.6,1.4c-1.5,0.6-4.1,1.9-5.5,2c-1.4,0.1-1.1,0.5-1.4,1
		c-0.3,0.5-0.4,0.8-2.1,1c-1.7,0.3-3.8,0.5-4.9,1c-1.1,0.5-2.6,1.7-3.7,1.5c-1.1-0.2-0.8-0.3-1.2-1.3c-0.4-1-0.6-1.7-0.7-3.4
		c-0.2-1.6-0.8-4.1-1.7-5.7c-0.9-1.6-0.9-1.7-1.9-3.3c-1-1.7-1.7-3.1-2.6-3.7c-0.9-0.6-1.3-0.7-1.8-1.2c-0.4-0.5-0.2-2.1-0.6-3.5
		s-0.8-2.8-1.4-3.5c-0.7-0.8-1.7-1.7-2.6-3.3c-0.9-1.7-1-1.8-2.3-4.4c-1.3-2.6-1.8-2.9-2.7-4.6c-0.9-1.7-0.3-1.4-0.6-2.4
		c-0.3-1-1.2,1.7-1.8,2.2c-0.7,0.5-1,0.3-1.5-1.3c-0.5-1.5-1-2.9-1.4-2.3c-0.4,0.6-0.7,1.2-0.2,2.8c0.6,1.6,0.8,1.3,1.6,2.8
		c0.7,1.5,2.7,5.4,3.5,7c0.8,1.6,0.5,0.8,1.2,3.2c0.8,2.4,1.2,2.7,2.2,3.7c1,1,0.8,0.5,1.3,2.1c0.5,1.6,0.3,3.6,0.3,4.5
		c0.1,1,0.6,1.5,1.8,2.5c1.2,1,0.6,0.6,1.2,1.7c0.6,1.1,1.1,2.6,1.4,3.6c0.3,1,0.7,1.8,1.6,2.2s1.2,0.5,2.1,0.9
		c1,0.3,0.6,0.6,1.3,1.4s1.9,1.4,2.7,2.7c0.8,1.3,0.3,0.9,0.2,2.2c0,1.3-0.5,0.7,0.1,1.3s1.5,1.2,3.1,2.3c1.6,1.1,0.3,0.3,1.8,0.3
		c1.5,0,1.8-0.4,3.3-0.8c1.6-0.3,3.6-0.9,5.5-1.4c1.9-0.5,3.8-0.8,4.8-1.1c1-0.3,1,0.8,0.3,2.4c-0.8,1.7-1.1,3.1-1.8,4.4
		c-0.6,1.4-0.9,1.5-1.4,2.6c-0.5,1.1-3.6,5.6-4.3,7c-0.7,1.4-1.5,2.6-2.4,3.7c-1,1.2-4,3.3-5.4,4.4c-1.4,1.1-1.1,1.1-2.1,2.5
		c-1.1,1.3-4.2,5-5.1,6.4c-0.9,1.3-1.3,1.8-2,3.1c-0.6,1.3-2.5,3.1-2.6,4.1c-0.1,0.9-1.1,1.1-0.4,1.9c0.8,0.8,1.2,1,1.5,2
		c0.3,1-0.9,2.2-0.1,4.1c0.7,1.9,0.2,0.5,1.3,2.1c1.1,1.5,1,2.5,1.2,4.7c0.1,2.2,0.2,4.4-0.1,5.8s-0.8,2.4-1.3,3.7
		c-0.5,1.3-3.2,2.2-4.8,2.9c-1.6,0.7-1.5,0.4-2.3,1.3c-0.7,0.9-2.8,2.7-3.5,4.1c-0.7,1.4-1.2,1.2-1,2.1c0.3,0.9,0.9,2,1.6,3.6
		c0.7,1.6,0.2,1.5,0,2.9c-0.2,1.4-0.2,1.2-0.3,2.8c-0.2,1.7-2.2,1.7-4.4,2.6s-1.4,0.4-1.7,1.7c-0.3,1.2-0.1,3.6-0.2,5
		c-0.1,1.4-0.8,0.9-2,2.6c-1.2,1.8-1.7,2.6-3,4.7c-1.3,2.1-1.2,1.8-2.9,3.2c-1.6,1.3-3,1.7-3.7,3.2c-0.7,1.5-1.6,0.5-5.1,1.7
		c-3.5,1.1-1,0.6-4.3,1c-3.4,0.4-4.6,0.6-6.3,1c-1.8,0.3-1.5-0.1-2.6-1.3c-1.1-1.2-1.3-1.1-1.8-2.1c-0.5-1-0.1-1.2-0.3-3
		c-0.2-1.8-0.3-1.9-1-3c-0.7-1.1-0.6-1.3-1.4-3.1c-0.7-1.8-1.1-2.3-1.9-3.5c-0.8-1.2-1-0.8-1.8-1.6c-0.8-0.8-0.8-1.5-0.9-2.6
		c-0.2-1.1-0.4-3.7-0.8-6.4c-0.4-2.7,0-1.3-0.5-2.4c-0.4-1.2-0.9-2.6-1.7-4.1c-0.7-1.5-0.5-1.1-1.6-3c-1.1-1.9-1-1.6-1.7-3.3
		c-0.7-1.7-0.8-0.9-0.9-1.6c0-0.6,0.4-1.8,0.4-2.9c0-1.1,0.4-2.4,0.7-4.1c0.3-1.7-0.4-1.7,0.3-2.9c0.7-1.2,1.5-2.3,2-3.6
		c0.5-1.3,0.4-1.4,0.4-3.1c0-1.7-0.2-1.6-0.7-3c-0.5-1.4-0.7-3.1-1.3-5.3c-0.6-2.3-0.6-2.2-0.7-3.1c-0.1-0.9-0.5-2.9-0.9-4
		s-0.6-0.7-1.6-1.5c-0.9-0.8-0.3-0.4-1.1-1.3c-0.8-0.9-0.7-1.1-1.5-2.1c-0.8-0.9-0.9-1-1.6-2c-0.6-1.1-0.3-0.4-0.2-2.2
		c0.1-1.8,0.6-5.2,0.9-7.1c0.3-2,0.4-1.9-0.4-2.7s-1.3-2-1.9-2.2s-2,0.2-4,0.2c-2,0-2-0.5-2.8-1.5c-0.9-1-2-2.4-2.4-2.8
		c-0.4-0.4-1.1-0.4-4.6-0.1c-3.5,0.3-1.4,0.3-3.7,0.7c-2.3,0.4-3.2,1.6-5,2.2s-2.3,0.5-5.4-0.2c-3.1-0.6-4.7,0.7-6.3,1.4
		c-1.6,0.7-2.4,0.4-3.5-0.4c-1.2-0.8-1.8-1.5-3.6-2.3c-1.8-0.9-1.4-1.4-3.1-2.2c-1.8-0.9-1.2-0.9-2.6-2.3c-1.5-1.4-1.6-2.8-2.6-4.2
		c-1-1.4-1.9-3.4-3.2-5c-1.3-1.5-2.7-4.6-3.3-5.5c-0.7-0.9-1.2-1-1.2-1.4c0-0.4,1.3-3,1.8-4.3c0.5-1.3,0.7-1.2,0.9-2
		c0.2-0.8-0.3-3.3-0.8-4.6c-0.5-1.3-1.1-4.1-1.5-5.4c-0.4-1.3,0.2-1.3,0.7-2.1c0.5-0.7,1.7-2.3,2.9-4.5c1.2-2.3,1.9-3.4,2.5-4.5
		c0.6-1.1,2.1-4.3,3.1-5.2c1-0.9,3.4-2.6,4.5-3.2c1.1-0.5,1.9-0.8,2.1-1.3c0.2-0.5,0.6-4.4,0.9-6.1c0.3-1.7-0.1-2.6,1.1-3.2
		c1.2-0.6,3.1-1.8,4.1-2.4c1-0.6,1.2-1.4,1.7-2.6c0.5-1.2,0.7-2.8,1.5-3.3c0.8-0.5,0.6,0.2,1.6,0.9c1,0.7,1.2,0.7,1.7,0.8
		c0.5,0.1,0.9-0.4,2.1-0.4c1.2,0,1.3,0.1,2,0.5c0.7,0.4,0.3,0.4,2.3-0.9c2-1.2,3.6-2,6.3-3c2.6-1,4.4-1.5,5.6-1.7
		c1.2-0.1,0.6,0,2,0.6c1.4,0.5,1.4,0.8,1.7,0.4c0.3-0.4,1.2-1.5,1.8-1.5c0.6,0,1.2,0.3,2.7,0.5c1.5,0.3,2.1,0.1,2.7-0.2
		c0.6-0.3,1.4-1,1.5-1s1.4,0.4,2.4,0.8c1,0.4,1,0.4,0.8,0.7c-0.2,0.3-0.5,0.5-1,1.7c-0.5,1.1-0.3,0.5,0.2,1.7c0.5,1.2,0.8,1.1,0.6,2
		c-0.2,0.9-1.2,1.7-1.9,2.5c-0.7,0.8-0.5,1,1.2,2c1.7,1,1.3,0.8,3.3,1.7c2,0.9,2,0.6,4.3,1.2c2.3,0.7,2,0.8,2.8,1.7
		c0.8,0.9,0.8,1.8,2.2,2.3c1.4,0.5,2.8,0.5,3.6,1c0.8,0.5,1.4,1.2,2.5,1.4c1.1,0.2,1.1,0.3,1.6-0.4c0.5-0.8,0.9-1.5,0.8-1.9
		c-0.2-0.4-0.8-1-0.6-1.4c0.1-0.4,1-1.9,1.3-2.4c0.3-0.5,1-0.6,2.7-0.7c1.7-0.1,2.9-0.3,3.1,0.7c0.3,1,0.2,0.5,1.5,1.1
		c1.3,0.5,1.4,0.5,2.5,1c1.1,0.4,0.5,1,1.1,1c0.6,0,1.5-0.1,2.5,0.2c1,0.3,2.9,1.2,4.9,1.3c2,0.1,2.8-0.5,3.1-0.7
		c0.3-0.1,1.7-1.9,2.5-0.7c0.8,1.2,1.9,1.2,4,1.1c2.1-0.1,2.1-0.4,2.6-1c0.5-0.5,1.7-2.6,2.1-4c0.4-1.4,1.5-4.4,1.8-5.8
		c0.3-1.4,0-2.5-0.1-3.3c-0.1-0.8,0.1-1.4,0.4-2.3c0.3-0.9-1-0.4-1.5-0.2c-0.5,0.2-0.7-0.3-1.2-0.4c-0.5-0.1-1-0.3-1.4,0.7
		c-0.4,0.9-0.2,1.4-2.2,1.3c-2-0.1-1.6-0.2-2.2-0.9c-0.6-0.7-1.7-0.9-2.6-1.1s-1-0.2-1,0.3c-0.1,0.6-0.1,0.9-0.7,1.2
		c-0.6,0.2-2.1,0-3.3-0.6c-1.2-0.6-1.6-0.9-2.8-2c-1.2-1.2-1-1.2-1.5-3c-0.5-1.8-0.5-3.4-0.3-3.9c0.2-0.5,0.6-0.7-0.4-0.4
		c-0.9,0.3-1.5,0.4-0.9-0.9c0.6-1.4,1.2-1.4,1.8-1.6c0.6-0.2,1.6-0.2,2.9-0.3c1.2-0.1,2.2-0.7,2.6-0.9c0.4-0.2,1.3-0.5,0.9-0.6
		c-0.5-0.1-1.8-0.3-1.6-0.6s0.4-0.4,1.1-0.4c0.7-0.1,1.9-0.1,2.8-0.2c1-0.1,1.5,0.1,1.9-0.5c0.3-0.6,0.7-1.4,1.5-1.9
		c0.8-0.5,1.6-0.2,3.5-0.3c2-0.1,1.7,0.4,2.3,0.9c0.6,0.5,1.1,0.2,1.9,0.4c0.8,0.2,0.3,0.7,1,0.9c0.6,0.3,1.8,0.5,3.3,1
		c1.4,0.5,0.5,0.3,2.3,0.3s1.7,0,3.1-0.2c1.4-0.2,2-0.8,3-1.5c1-0.7,0.3-2.2-0.1-3.4c-0.4-1.2-1.9-1.9-2.6-2.5c-0.7-0.5-2.2-2.3-3-3
		c-0.8-0.7-1.8-0.9-2.7-1.4c-0.9-0.5-2.5-1.3-2.7-2c-0.2-0.7,0.3-0.7,1.7-1c1.3-0.3,0.9-0.6,1.2-1.3c0.3-0.7,0.4-0.7,1.5-1.1
		c1.1-0.4-1.3-1.2-1.6-1.7c-0.3-0.5,0.7-0.3,1.8-0.6c1.1-0.3,1.2-0.8,1.3-1.2c0.2-0.5,0.1-0.7-1.2-0.7s-2.9,0.6-5.1,1.1
		c-2.2,0.6-1.2,0.6-2.5,1.6c-1.3,1-1.4,0.6-1.2,1.1c0.2,0.6,0.3,1.1,1.6,1.8c1.3,0.7,0.8,0.7,1.1,0.8c0.4,0.1,1.3,0.2,0.9,0.4
		s-0.8,0.8-1.4,0.8c-0.6,0-0.9,0.6-1.9,1.2c-1,0.6-1.5,0.7-2.2,0.8c-0.8,0.1-1.3-0.1-1.2-1.4c0.1-1.3-0.4-0.4-1.2-0.7
		c-0.8-0.3-1.1-0.6-1.1-0.6s0.8-0.3,1.6-0.8s1.2-0.8,1.5-1.8c0.4-1-0.9-0.4-1.8-0.6s-0.6-0.2-1.5-0.3c-0.9-0.1-1.2-0.8-1.2-0.8
		s0.4,0.2,1.2,0.1c0.8-0.1,0.6-0.3,0.9-0.5c0.3-0.2,0.5-0.4,0.3-0.4c-0.2,0-1.1,0.1-1.8,0.1c-0.6,0-1-0.1-1.9,0
		c-0.9,0.1-0.5,0.5-1.2,0.9c-0.6,0.4-0.7,0.6-1,1.2c-0.3,0.6-0.5,0.5-0.7,0.9c-0.2,0.4-0.2,1.4-0.2,2.1c0,0.7-0.2,0.9-0.6,1.5
		c-0.4,0.6-0.4,0.3-1.1,0.7c-0.7,0.3-0.2,0.6-0.3,1.3c-0.1,0.7-0.3,0.9-0.4,1.8c-0.1,0.9-0.4,0.9-0.9,1.5c-0.5,0.6-0.8,0.6-0.9,1.3
		c-0.1,0.6-0.2,0.9,0,2.2c0.2,1.2,0.5,0.9,1.5,2.2c1,1.3,1.5,0.8,1.1,1.4c-0.3,0.6-0.3,0.4-1.5,0.3c-1.2-0.1-1.4,0-2.2,0.9
		c-0.9,0.8-1,1.3-1.5,1.6c-0.5,0.3-0.3-0.6-0.5-1c-0.2-0.4-2.2-0.6-3.5-1c-1.4-0.4-1.7-0.6-2.1-0.6c-0.3,0-0.9-0.1-2.3,0.7
		c-1.4,0.8-1.1,1.2-1,2.2c0.1,1,1.2,1.2,0.9,3.6c-0.3,2.4,1.2,1.3,1.8,2.8c0.6,1.5,0.1,1.3-0.3,1.5c-0.4,0.2-0.8,1.4-1.1,2.6
		c-0.3,1.2,0,1.4-0.3,1.3c-0.4-0.1-0.8,0.2-1.4-0.8c-0.7-1-1.2-0.1-1.3-0.6c-0.1-0.6-0.9-1.5-0.6-2.8c0.3-1.3,0.8-1.4-0.3-2.1
		c-1.2-0.7-0.9-0.8-1.4-2.2c-0.5-1.4-0.7-1.7-1.7-3c-1.1-1.3-1-0.9-0.7-2.2c0.3-1.3,0.5-3-0.1-3.9c-0.6-0.9-3.3-3.4-5.5-4.5
		c-2.2-1.2-2.6-0.3-3.6-2.1c-1-1.9-1.4-3.8-3-4.9c-1.6-1.1-0.8-1.2-2.3-0.7c-1.5,0.6-1.6,0.8-1.4,1.3c0.1,0.5,0.5,1.1,0.3,2.3
		c-0.2,1.2-0.5,0.8,1.1,1.8c1.6,1,0.9,0.8,1.7,2.5c0.8,1.8,0.9,2.1,1.6,2.8c0.6,0.7,0.9,1.3,2.5,1.7c1.6,0.4,1.4-0.1,1.8,0.3
		c0.4,0.4-1.1,0.5-0.8,0.7c0.3,0.2,0.6,0.7,2,1.5c1.4,0.8,2.7,1.7,3.1,2.4c0.4,0.7,1.5,3.1-0.2,1.3c-1.7-1.8-1.8-1-2.2,0.3
		c-0.5,1.3,0.4,2.2,0.4,3.1c-0.1,0.9-0.9,0.6-1.4,1.3s-0.8,1.6-1.5,2.1c-0.6,0.5-0.5-0.5-0.8-0.5c-0.4,0-0.5,0.5-0.9,1.3
		c-0.5,0.9,0,1.2,0.2,2.4c0.2,1.2,0.5,1.3-0.7,1.2c-1.3-0.1-1-1.2-2.1-2c-1.2-0.8-1.8-0.5-2.8-1.1c-1-0.6,0.4-0.8,2.8-1.1
		c2.4-0.3,2.7-0.5,3.4-1.1c0.7-0.6,0.5-0.7,1.3-1.9c0.8-1.1,0-1.6-0.6-3c-0.5-1.4-1.6-2-1.9-2.3c-0.4-0.3-1.2-1.1-1.9-1.9
		c-0.7-0.8-1.5-0.9-2.7-1.2c-1.2-0.3-1-1.4-1.7-1.7c-0.7-0.3-1.4-1.3-2.9-2.7c-1.5-1.4-1-2.5-1.7-3.8c-0.7-1.3-1.4-2.2-3-2.2
		c-1.5,0-2.7,1.1-4.2,2.6c-1.5,1.5-1.2,2.2-3,1.1c-1.8-1.1-2.4-1-3.7,0.1c-1.3,1.1-1.5,2.2-1.5,4.3c0,2.2-1.5,1.3-2.8,1.9
		c-1.2,0.6-2.3,2.1-4.2,5.6c-1.9,3.5,0.1,1.9-0.3,3.1c-0.4,1.2,0.1,2.2-1.6,3.7c-1.7,1.6-1-0.2-2,1.1c-1,1.3-2.4,2.3-4.9,2
		c-2.4-0.3-1.7,0.7-3.3,1c-1.5,0.4-2.4,0.9-2-0.8c0.4-1.7,0.1-1.5-2.9-1.4c-3,0.1-4,0.9-3.7,0.5c0.3-0.4,0.4-1.1,0.7-2.8
		c0.3-1.7,0.8-2.2,0.3-2.2c-0.5,0-1.4,0.2-0.7-2.8s1-3.5,0.6-5.3c-0.3-1.7,0.1-4.1-0.3-5.1c-0.4-1,0.8-2,0.3-2.6
		c-0.5-0.5-1.1-1.3-0.7-1.3c0.4,0,2,0.1,4,0.4c2.1,0.4,4.2-0.3,5.4-0.2c1.2,0.1,3.8,0.7,6.4,1.1c2.6,0.4,2.5-0.4,2.3-4.1
		c-0.3-3.8,0.2-5.5-0.6-6.3c-0.8-0.8-1.6-0.7-2.4-1.7c-0.8-1-0.2-2.5-2-3.1c-1.8-0.5-3.8-0.1-2.8-0.5c1-0.4,1.4-0.5,0.3-1.3
		c-1-0.8-1.3-1.6-0.5-1.7c0.8-0.1,3-0.1,3-0.1s0.2,1.1,1.4,0.6c1.2-0.5,2.6-1,2.3-1.7c-0.3-0.8-0.9-1.7-0.7-1.7s0.6,1.1,3.1,1.1
		c2.4,0,2.3-0.4,2.1-1.4c-0.2-1,1.6-1,2.8-1.8c1.2-0.8-0.5-1.8-0.2-2.6c0.3-0.8,1.7-1.3,4.2-1.4c2.5-0.2,2.1-0.6,1.8-0.9
		c-0.3-0.3,0.1-1.6,0.3-3.2c0.2-1.6-0.2-2.2,1.1-2.9c1.3-0.8,0.9-0.5,3.5-0.7c2.6-0.2,1-0.8,1.5-1c0.5-0.1,3.6-0.9,4.2-1.1
		c0.6-0.2,0.5-0.2,0-1.3c-0.5-1.1-1.2-1.8-1.8-7.1c-0.6-5.3-0.5-5.3,2.8-6.2c3.2-1,2.5-0.7,2.3,2.3c-0.3,2.9-1.7,2.9-2,5.1
		c-0.3,2.2-0.1,3.5,1.3,5.7c1.4,2.3,1.2,1.1,4.1,1.1c2.9,0,2.2,0.7,4.2,1.4c1.9,0.7,1.3-1.2,3.2-1.9c1.9-0.7,1.5,0.4,5.8-0.2
		c1.7-0.3,2.2-0.3,2.4-0.3c-0.1,0-0.6,0-0.1-0.3c1-0.6,1.3-1.7,2.8-1.9c1.5-0.2,2.5,0.4,2.4-1.9c-0.1-2.3-0.9-1.9-0.6-3.7
		c0.3-1.7,0.3-1,0.5-2.3c0.1-1.4-0.2-1.6,1.7-2.1c1.9-0.5,0.6,1.7,2.8,2.2c2.2,0.5,1.9,0.8,2.3-0.9c0.4-1.7,1.6-4,0.5-3.9
		c-1.1,0.1-1.4-0.1-2.4-1.7c-1.1-1.6-1.7-2-1-2c0.7,0,3.1-0.7,6.5-0.5c3.4,0.1,4.4,0.4,4.6,0.1c0.2-0.4-0.6-0.7,0.6-1.4
		c1.2-0.7,5,0.4,4.4-0.3c-0.6-0.7-3.9-1.6-6.2-1.2c-2.2,0.4-7.7,1-8.6,1c-0.8-0.1-2.4-0.7-2.8-1.1c-0.4-0.4-1.6-0.7-1.6-2.7
		c0-2,0.7-2.8-0.5-4.7c-1.2-1.9,2.1-3.5,4.4-5.6c2.3-2,1.7-3.7,3-3.8c1.4-0.1,1.9-0.8,1.2-1.5c-0.6-0.7-3-2.9-4.2-3.2
		c-1.2-0.2-2.9-1.6-4.7,1.6s0.1,3.4,0.5,5c0.3,1.6-2.5,2.8-4.6,4.3c-2.1,1.5-2.9,1.1-3.5,5c-0.6,3.8-1.3,3.9,1.1,5.3s2.8,2,1.7,3.1
		c-1.1,1.1-3.4,1.1-4.8,3.8c-1.4,2.7-0.8,4-1.4,5.2c-0.6,1.2-2.4,1.7-2.9,2.9c-0.5,1.2-0.5,3.5-2.7,3.1c-2.2-0.4-1-3.3-1.9-4.8
		c-1-1.5-1.7-2.8-2.9-4.6c-1.2-1.9-0.3-3.7-1.4-4.6c-1.1-1-1.4-2.9-1.4-2.9s0,0-0.4,0.9c-0.4,0.9-0.2,1.4-2.4,4.1
		c-2.2,2.7-5.5,2.9-7.1,2.2c-1.6-0.7-1.4-2.2-1.4-4.2c0-2-0.4-4.6-0.1-7.7c0.3-3.1,1.2-2.9,4.6-4.9s3.5-1.9,4.3-3.2
		c0.8-1.3,3.3-3.2,4.7-4.4c1.4-1.2,3.9-5.7,5.1-9c1.3-3.2,3.7-5.2,6-8.7c2.3-3.5,6.4-6.5,11.7-8.7c5.3-2.2,4.4-2.5,5.6-4.2
		c1.2-1.7,1.7-0.7,3.8-1.1c2.1-0.4,1.7,0-0.3,2c-2.1,2-3,4.2-1.2,2.6c1.7-1.6,3.1-3.5,5.8-3.4c2.7,0.1,1.6,0,4.2,1.2
		c2.6,1.2,3.1,1.3,1.6,2.3c-1.5,1-4,0.7-4,0.7s0.8,2,3.3,2.3c2.4,0.3,3.8-1.9,5.4-1.1c1.6,0.8,2.1,1.4-0.1,1.3
		c-2.2-0.2-2.8,1.2-0.1,2.2c2.7,1,3,1.1,6.5,1.6c3.5,0.5,5.1,3.1,7.8,4.2c2.7,1.1,5.8,0.2,4.9,2.6c-0.9,2.5,0.7,4.8-4,6
		c-4.7,1.1-4.6-0.4-8.5-1.6c-3.9-1.2-6.7-2.4-6.7-2.4s1,1.4,2.8,3.1c1.8,1.7,2,3.2,1.8,6.3c-0.2,3.1-1,3.9,2.1,5.4
		c3.1,1.5,2.6,1.1,3.6,0.8c1-0.2,2.6-0.5,2.2-1c-0.4-0.5-0.7-1.4-1.7-1.9c-1-0.5-1.1-1.6-0.1-2.2c1-0.5,2,0.5,4.2,0.4
		c2.3-0.1,0-0.8,1.1-2c1.1-1.1,1.2-3.1,3.8-4.1s5.5,0.5,6.2-0.7c0.7-1.1,1.5-2.5,0-4.2c-1.5-1.7-2.6-2.3-1.7-3.2
		c0.9-0.8,2.7-3.1,3.5-1.8c0.8,1.3,3,2.6,0.3,2.4c-2.7-0.2-0.8,4,1.6,3.8c2.4-0.2,2.2-1,4.2-2c2-1,5.9-4.1,8.7-5.1
		c2.8-1,3.3-0.7,4.4-0.2c1.1,0.5,1.1,1.4,4.1,0.8c3-0.6,3.9-1.3,6.8-1.8c2.8-0.5-0.2,1,1.1,1.4s1.4,0.8,2.4,0.1
		c1-0.7,4.1-1.7,2.6-2.8c-1.4-1.1-2.4-1.8-2.4-1.8s1-2.3,3.7-2.1c2.7,0.2,6.8,2.7,9.5,4.5c2.6,1.8,5.8,5.6,5.8,5.6s1.2-2,0.2-5.3
		c-1-3.3-3.4-2.5-3.4-5.6c0-3.1-2.3-2.3-1.5-4.5c0.8-2.2,3-3.1,3.5-5.9c0.6-2.8,1.1-5.1,3.1-5.1c2,0,6.3,0.6,6.3,0.6s0,2.6-1.6,6.4
		c-1.6,3.8,0.8,4.2,0.5,8.9c-0.4,4.7-0.5,5.3,0.6,6.3c1.1,1.1,3.2,2.4,2.4,4.4c-0.8,2-1.2,3.3-4,4.4c-2.9,1.1-6.6,0.5-5.2,1.4
		c1.4,0.9,3.1,1.7,5,2c1.9,0.3,1-0.1,2.5-1.4c1.5-1.3,5-3.8,4.9-5c-0.1-1.2-2-3.1-0.7-3.9c1.3-0.9,1.8-2.3,3.8-1.1
		c2,1.1,3.9,5.4,3.9,5.2c0-0.2-0.4-4.2-2.8-6.6c-2.4-2.4-6.3-0.1-6.3-2.2c0-2.1,1.1-5,0.8-7.2c-0.3-2.3-1.2-4.5,0.3-6.5
		c1.5-2,1.5-3.5,1.5-3.5s0.6,1.9,0.1,4.2s0.3,3.7,1.4,3.7c1.1,0,6,0.1,3.3-0.7c-2.6-0.8-3.4-1.5-0.8-2.9c2.6-1.4,2.5-0.5,6.4,0.4
		c3.9,0.9,4.8,1.6,6,1.5c1.3-0.1,1.1-0.2,0.6-1.3c-0.4-1.1-1-1.9-2.2-2.7c-1.2-0.8-2.1,0.2-2.4-1c-0.4-1.2-1.1-4.2-1.4-5.3
		c-0.3-1.1,1-0.2,3-0.2c2.1,0,7.7-0.3,12-0.4c4.3-0.1,0.1-4.6-0.3-7.8c-0.3-3.2,8-3.3,12-3.9c4-0.6,8.7-0.4,16.3-2.2
		c7.6-1.8,2.7-1.5,3.8-3.6c1.1-2.2,3-2.5,5.2-2.5c2.2,0,4.3,0.4,3.5,0.7c-0.8,0.3-3.3,1.6,0.6,2.4c3.9,0.8,2.9,0.8,0.8,1.5
		c-2.1,0.7-0.3,2,3.7,2c4,0,1.6-0.4,1-1.7c-0.6-1.3,0.6-0.8,3.9-0.3c3.3,0.5,4.6,1.1,6.4,2.8c1.8,1.7,2.1,1.3,2.8,3.6
		c0.6,2.3-0.1,2-2.8,4.1c-2.8,2.2-4.4,2.2-8.4,4.7c-4,2.5-3,3.8-5.2,5.5c-2.2,1.7-1.6,1.2,3,0c4.6-1.2,7.1-2,9.5-1.7
		c2.4,0.2,3.5,1.1,5.3,1.1s-0.1,0.3,5.5,0.3c5.6,0,4.8,0,2.8,1.6s0.4,2.1,2.9,2.1c2.5,0,5.6,0.1,7.9-0.2c2.3-0.4,0.3-2.1,3.1-2.2
		c2.8-0.1,3.7-0.4,6.6-0.4c3,0,2.1,1.2,3.1,2.3c1,1.1,2.4,1.8,1.5,3.9c-1,2.2-1.5,2.2-0.9,5.1c0.6,2.9,2.1,3.4,3.9,3.9
		c1.8,0.5,1.8-2.6,3.5-3.7c1.7-1.1,2.1,2.2,4.1,1.7c2-0.5,4.2-0.2,6,0.3c1.7,0.5,3.2,0.8,5.7,0.3c2.4-0.5,1.7-1.5,0.8-3
		c-0.8-1.5-0.9-1.4,0.6-2.9c1.5-1.6,2.6-0.8,7.6,0.5c5,1.3,3.4,1.3,6.2,2.1c2.8,0.8,1.9,0.6,6.2,2.6c4.3,2,3.5,4.3,5.5,5.6
		c2,1.3,2.1,0,6.1-0.4c4-0.4,3.9,0.5,8.3,1.6c4.4,1.1,3.2,2.6,3.2,3.8s-1.2,2.2,1.5,2.8c2.7,0.6,3.8,1.1,6.1,0.5
		c2.3-0.6,0.3,0.6,5.4,0.7c5.1,0.1,3.4-0.6,4.9,0.5c1.5,1.1,1.9,3.2,4.4,3c2.5-0.2,2.3-0.2,1.3-2.4c-1-2.2-1.7-2.6-0.2-2.5
		c1.5,0.1,4.5,0.7,10.1,1.6s5.8,1.9,10.4,4.8c4.6,2.9,5.8,3.1,9.2,5.7c1.3,1,1.5,1.3,1.6,1.3c0.1,0,0.4,0.1,1.7,0.7
		c3.6,1.7,3,1.1,6,2.6c3.1,1.5,5.7,3.6,5.7,3.6S1668.5,142.7,1666.2,143z M1366.3,203.8c0,0-0.3,0.5,1.5-1c1.8-1.4-0.8-0.1-1.9-0.4
		c-1-0.3-1.4-0.8-1-2.1s-0.1-1.3-1.2-3.1c0,0-0.6-0.4-1.8,0.4c-1.2,0.7-1.9-0.7-3.4-0.2c-1.5,0.5-3.1,0.3-4,2.5
		c-0.9,2.2-1.9,0.8-2.3,2.6c-0.3,1.8-3.1,2.8-3.1,2.8s1.1,1.1,1.9,2.1c0.8,1,0.3,0.4,1.1,3.7c0.8,3.4,1.4,3.1,2.6,3.5
		c1.2,0.5,3,1.6,3,1.6s-1.1-0.7-1.1,1.1s-1.7,3.1-1.6,5.7c0.2,2.6-2.4,5.1-0.3,5.3c2.1,0.2,1.4,1.1,3.7,1.7c2.2,0.6,3.5,1,6.8,1
		c3.3,0,1.5-1.3,1-3.1c-0.5-1.9-0.7-3.1-0.8-5.1c-0.1-2-0.9-1.5-1.4-2.8c-0.5-1.3,0.3-2,1.8-2c1.5,0,1.7-0.1,0.9-1.4
		c-0.8-1.4-0.3-1.9-1.4-2.5c-1-0.6-1.5,2-1.5,2s-0.6-0.6-0.4-3.1c0.3-2.5,0.5-1.3-0.3-1.8c-0.8-0.5-1.2,0.1-2.3-1.6
		c-1-1.7-0.1-1.3-1.3-3.4c-1.2-2-0.6-1,0.8-1c1.3,0,0.6-0.3,0-1c-0.6-0.7-1.1-1.7,0.6-1.6c1.7,0.1,4,0.5,4.8,0.5
		C1366.6,203.6,1366.3,203.8,1366.3,203.8z M1126.5,111.6c-0.6,1,1,2.3,2.2,1.9c1.2-0.4,1.5,0,2.2-0.5c0.7-0.5,0.7-1.3-0.1-2.1
		c-0.8-0.8-0.5-1.2-0.6-1.3C1128.8,108.8,1127.1,110.6,1126.5,111.6z M1444.3,45.6c-1.7,0.1-3.7,0.1-2.1,0.7c1.6,0.5,1,3.2,4,1.7
		c3.1-1.5,2.4-1.6,4.6-2.5c2.1-0.9,0.9-0.5-1.7-1.1C1447.5,43.9,1446,45.5,1444.3,45.6z"/>
	<g>
		<path class="st8" d="M1509.2,147.9c-10.1,4-9.9,12.6-9.9,12.6h-1.1c0-11.9,10.3-15,10.3-15S1509,146.9,1509.2,147.9L1509.2,147.9z
			"/>
		<path class="st8" d="M1498.4,154L1498.4,154c0.7-1.6,1.2-2.4,1.2-2.4c-3.2-7-9.2-9.2-9.2-9.2s-1.1,1.2-1.5,2.1l0,0
			C1488.8,144.5,1496,147.1,1498.4,154"/>
		<path class="st9" d="M1497.4,157.9c-0.7-2.9-2.9-7.6-9.7-10.3l0,0c0.2-1,0.8-2.4,0.8-2.4s7.1,2.2,9.6,9.7
			C1498.1,154.9,1497.7,156,1497.4,157.9L1497.4,157.9z"/>
		<path class="st9" d="M1499.9,150.9c-0.1-0.3-1.2-2.1-1.2-2.1c3.3-4.9,7.7-6.5,7.7-6.5s1.1,1.2,1.5,2.1l0,0
			C1508,144.5,1502.9,146.3,1499.9,150.9L1499.9,150.9z"/>
	</g>
	<g>
		<path class="st8" d="M1566.8,374.9c-10.1,4-9.9,12.6-9.9,12.6h-1.1c0-11.9,10.3-15,10.3-15S1566.6,373.8,1566.8,374.9
			L1566.8,374.9z"/>
		<path class="st8" d="M1555.9,380.9L1555.9,380.9c0.7-1.6,1.2-2.4,1.2-2.4c-3.2-7-9.2-9.2-9.2-9.2s-1.1,1.2-1.5,2.1l0,0
			C1546.4,371.5,1553.6,374.1,1555.9,380.9"/>
		<path class="st9" d="M1555,384.9c-0.7-2.9-2.9-7.6-9.7-10.3l0,0c0.2-1,0.8-2.4,0.8-2.4s7.1,2.2,9.6,9.7
			C1555.7,381.9,1555.3,383,1555,384.9L1555,384.9z"/>
		<path class="st9" d="M1557.5,377.9c-0.1-0.3-1.2-2.1-1.2-2.1c3.3-4.9,7.7-6.5,7.7-6.5s1.1,1.2,1.5,2.1l0,0
			C1565.5,371.5,1560.5,373.2,1557.5,377.9L1557.5,377.9z"/>
	</g>
	<g>
		<path class="st8" d="M1307.3,313.9c-10.1,4-9.9,12.6-9.9,12.6h-1.1c0-11.9,10.3-15,10.3-15S1307.1,312.9,1307.3,313.9
			L1307.3,313.9z"/>
		<path class="st8" d="M1296.4,320L1296.4,320c0.7-1.6,1.2-2.4,1.2-2.4c-3.2-7-9.2-9.2-9.2-9.2s-1.1,1.2-1.5,2.1l0,0
			C1286.9,310.6,1294.1,313.2,1296.4,320"/>
		<path class="st9" d="M1295.5,324c-0.7-2.9-2.9-7.6-9.7-10.3l0,0c0.2-1,0.8-2.4,0.8-2.4s7.1,2.2,9.6,9.7
			C1296.2,320.9,1295.8,322.1,1295.5,324L1295.5,324z"/>
		<path class="st9" d="M1298,317c-0.1-0.3-1.2-2.1-1.2-2.1c3.3-4.9,7.7-6.5,7.7-6.5s1.1,1.2,1.5,2.1l0,0
			C1306,310.6,1301,312.3,1298,317L1298,317z"/>
	</g>
	<g>
		<path class="st8" d="M1431.6,258.9c-10.1,4-9.9,12.6-9.9,12.6h-1.1c0-11.9,10.3-15,10.3-15S1431.4,257.8,1431.6,258.9
			L1431.6,258.9z"/>
		<path class="st8" d="M1420.8,264.9L1420.8,264.9c0.7-1.6,1.2-2.4,1.2-2.4c-3.2-7-9.2-9.2-9.2-9.2s-1.1,1.2-1.5,2.1l0,0
			C1411.2,255.5,1418.4,258.1,1420.8,264.9"/>
		<path class="st9" d="M1419.8,268.9c-0.7-2.9-2.9-7.6-9.7-10.3l0,0c0.2-1,0.8-2.4,0.8-2.4s7.1,2.2,9.6,9.7
			C1420.5,265.9,1420.1,267,1419.8,268.9L1419.8,268.9z"/>
		<path class="st9" d="M1422.3,261.9c-0.1-0.3-1.2-2.1-1.2-2.1c3.3-4.9,7.7-6.5,7.7-6.5s1.1,1.2,1.5,2.1l0,0
			C1430.4,255.5,1425.3,257.2,1422.3,261.9L1422.3,261.9z"/>
	</g>
	<g>
		<path class="st8" d="M1350.1,259.4c-5.6,2.2-5.5,7-5.5,7h-0.6c0-6.6,5.7-8.4,5.7-8.4S1350,258.8,1350.1,259.4L1350.1,259.4z"/>
		<path class="st8" d="M1344,262.8L1344,262.8c0.4-0.9,0.7-1.3,0.7-1.3c-1.8-3.9-5.1-5.2-5.1-5.2s-0.6,0.7-0.9,1.2v0
			C1338.7,257.5,1342.7,259,1344,262.8"/>
		<path class="st9" d="M1343.5,265c-0.4-1.6-1.6-4.2-5.4-5.7v0c0.1-0.6,0.4-1.3,0.4-1.3s4,1.2,5.4,5.4
			C1343.9,263.3,1343.7,264,1343.5,265L1343.5,265z"/>
		<path class="st9" d="M1344.9,261.1c-0.1-0.2-0.6-1.2-0.6-1.2c1.8-2.7,4.3-3.6,4.3-3.6s0.6,0.7,0.9,1.2v0
			C1349.4,257.5,1346.6,258.5,1344.9,261.1L1344.9,261.1z"/>
	</g>
	<g>
		<path class="st8" d="M1065.3,199.6c-10.1,4-9.9,12.6-9.9,12.6h-1.1c0-11.9,10.3-15,10.3-15S1065.1,198.6,1065.3,199.6
			L1065.3,199.6z"/>
		<path class="st8" d="M1054.5,205.7L1054.5,205.7c0.7-1.6,1.2-2.4,1.2-2.4c-3.2-7-9.2-9.2-9.2-9.2s-1.1,1.2-1.5,2.1l0,0
			C1044.9,196.2,1052.1,198.8,1054.5,205.7"/>
		<path class="st9" d="M1053.5,209.6c-0.7-2.9-2.9-7.6-9.7-10.3l0,0c0.2-1,0.8-2.4,0.8-2.4s7.1,2.2,9.6,9.7
			C1054.2,206.6,1053.8,207.7,1053.5,209.6L1053.5,209.6z"/>
		<path class="st9" d="M1056,202.6c-0.1-0.3-1.2-2.1-1.2-2.1c3.3-4.9,7.7-6.5,7.7-6.5s1.1,1.2,1.5,2.1l0,0
			C1064.1,196.2,1059,198,1056,202.6L1056,202.6z"/>
	</g>
	<g>
		<path class="st8" d="M1130,349c-10.1,4-9.9,12.6-9.9,12.6h-1.1c0-11.9,10.3-15,10.3-15S1129.8,348,1130,349L1130,349z"/>
		<path class="st8" d="M1119.1,355.1L1119.1,355.1c0.7-1.6,1.2-2.4,1.2-2.4c-3.2-7-9.2-9.2-9.2-9.2s-1.1,1.2-1.5,2.1l0,0
			C1109.6,345.6,1116.8,348.2,1119.1,355.1"/>
		<path class="st9" d="M1118.2,359c-0.7-2.9-2.9-7.6-9.7-10.3l0,0c0.2-1,0.8-2.4,0.8-2.4s7.1,2.2,9.6,9.7
			C1118.8,356,1118.4,357.1,1118.2,359L1118.2,359z"/>
		<path class="st9" d="M1120.7,352c-0.1-0.3-1.2-2.1-1.2-2.1c3.3-4.9,7.7-6.5,7.7-6.5s1.1,1.2,1.5,2.1l0,0
			C1128.7,345.6,1123.7,347.4,1120.7,352L1120.7,352z"/>
	</g>
</g>
</svg>
