<?xml version="1.0" encoding="utf-8"?>
<!-- Generator: Adobe Illustrator 27.0.0, SVG Export Plug-In . SVG Version: 6.00 Build 0)  -->
<svg version="1.1" id="Layer_1" xmlns="http://www.w3.org/2000/svg" xmlns:xlink="http://www.w3.org/1999/xlink" x="0px" y="0px"
	 viewBox="0 0 1920 423.3" style="enable-background:new 0 0 1920 423.3;" xml:space="preserve">
<style type="text/css">
	.st0{fill:#F1AABE;}
	.st1{fill:#DB2B5D;}
	.st2{fill:#5E1212;}
	.st3{fill:#CB2252;}
	.st4{fill:#B82E41;}
	.st5{fill:#8A1738;}
	.st6{fill:#FF8F6B;}
	.st7{fill:#DA4018;}
	.st8{fill:#B61F4A;}
	.st9{fill:#FFFFFF;}
	.st10{fill:#F65B2B;}
	.st11{fill:#F63C4E;}
	.st12{fill:#DF406D;}
	.st13{fill:#67A4C3;}
	.st14{fill:#FFBA55;}
	.st15{fill:#F9D8AE;}
	.st16{fill:#E9809E;}
</style>
<g>
	<g id="Grass">
		<g>
			<path class="st0" d="M1357.6,307.4c0.6-4,1.4-8.3,2.4-12.6c0.2-0.9,0.4-1.9,0.7-2.8c0.2-0.9,0.5-1.8,0.7-2.8
				c0.2-0.9,0.5-1.8,0.8-2.7c0.3-0.9,0.5-1.8,0.8-2.6c0.6-1.7,1.2-3.3,1.8-4.9c0.2-0.4,0.3-0.8,0.5-1.1c0.2-0.4,0.3-0.7,0.5-1.1
				c0.2-0.4,0.3-0.7,0.5-1c0.2-0.3,0.3-0.7,0.5-1c0.3-0.7,0.7-1.2,1-1.8c0.3-0.6,0.7-1.1,1-1.6c0.3-0.5,0.6-0.9,0.9-1.3
				c0.1-0.2,0.3-0.4,0.4-0.6c0.1-0.2,0.3-0.3,0.4-0.5c0.3-0.3,0.5-0.6,0.7-0.9c0.2-0.2,0.4-0.4,0.6-0.6c0.3-0.3,0.5-0.5,0.5-0.5
				s-0.2,0.2-0.5,0.4c-0.2,0.1-0.4,0.3-0.6,0.5c-0.2,0.2-0.5,0.5-0.8,0.8c-0.1,0.2-0.3,0.3-0.5,0.5c-0.2,0.2-0.3,0.4-0.5,0.6
				c-0.3,0.4-0.7,0.8-1,1.3c-0.4,0.5-0.7,1-1.1,1.5c-0.4,0.6-0.8,1.1-1.1,1.8c-0.2,0.3-0.4,0.6-0.6,1c-0.2,0.3-0.4,0.7-0.6,1
				c-0.2,0.3-0.4,0.7-0.6,1.1c-0.2,0.4-0.4,0.7-0.6,1.1c-0.8,1.5-1.5,3.1-2.2,4.8c-0.3,0.8-0.7,1.7-1,2.6c-0.3,0.9-0.7,1.8-1,2.7
				c-0.3,0.9-0.6,1.8-0.9,2.7c-0.3,0.9-0.6,1.8-0.9,2.8c-1.4,4.4-2.5,8.9-3.5,13C1355.3,307.2,1356.5,307.3,1357.6,307.4z"/>
			<path class="st0" d="M1257.6,304.7c0.5-3.2,1.2-6.6,1.9-9.9c0.2-0.9,0.4-1.9,0.7-2.8c0.2-0.9,0.5-1.8,0.7-2.8
				c0.2-0.9,0.5-1.8,0.8-2.7c0.3-0.9,0.5-1.8,0.8-2.6c0.6-1.7,1.2-3.3,1.8-4.9c0.2-0.4,0.3-0.8,0.5-1.1c0.2-0.4,0.3-0.7,0.5-1.1
				c0.2-0.4,0.3-0.7,0.5-1c0.2-0.3,0.3-0.7,0.5-1c0.3-0.7,0.7-1.2,1-1.8c0.3-0.6,0.7-1.1,1-1.6c0.3-0.5,0.6-0.9,0.9-1.3
				c0.1-0.2,0.3-0.4,0.4-0.6c0.1-0.2,0.3-0.3,0.4-0.5c0.3-0.3,0.5-0.6,0.7-0.9c0.2-0.2,0.4-0.4,0.6-0.6c0.3-0.3,0.5-0.5,0.5-0.5
				s-0.2,0.2-0.5,0.4c-0.2,0.1-0.4,0.3-0.6,0.5c-0.2,0.2-0.5,0.5-0.8,0.8c-0.1,0.2-0.3,0.3-0.5,0.5c-0.2,0.2-0.3,0.4-0.5,0.6
				c-0.3,0.4-0.7,0.8-1,1.3c-0.4,0.5-0.7,1-1.1,1.5c-0.4,0.6-0.8,1.1-1.1,1.8c-0.2,0.3-0.4,0.6-0.6,1c-0.2,0.3-0.4,0.7-0.6,1
				c-0.2,0.3-0.4,0.7-0.6,1.1c-0.2,0.4-0.4,0.7-0.6,1.1c-0.8,1.5-1.5,3.1-2.2,4.8c-0.3,0.8-0.7,1.7-1,2.6c-0.3,0.9-0.7,1.8-1,2.7
				c-0.3,0.9-0.6,1.8-0.9,2.7c-0.3,0.9-0.6,1.8-0.9,2.8c-1.1,3.6-2.1,7.2-2.9,10.6C1255.4,304.7,1256.5,304.7,1257.6,304.7z"/>
			<path class="st0" d="M1309,352.2c0,0,0.3,0,0.9-0.1c0.6-0.1,1.5-0.1,2.6-0.2c2.2-0.2,5.4-0.3,9.1-0.3c7.6,0,17.6,0.5,27.6,2.1
				c5,0.8,9.9,1.9,14.4,3.3c2.3,0.7,4.4,1.5,6.4,2.4c2,0.9,3.8,1.9,5.3,3c1.5,1.1,2.8,2.3,3.8,3.5c1,1.2,1.6,2.4,1.9,3.5
				c0.3,1.1,0.4,1.9,0.4,2.5c0,0.6,0,0.9,0,0.9s0-0.3,0-0.9c-0.1-0.6-0.1-1.5-0.5-2.5c-0.3-1-1-2.2-1.9-3.4c-1-1.2-2.3-2.3-3.8-3.4
				c-1.6-1-3.4-2-5.3-2.8c-2-0.8-4.1-1.6-6.4-2.2c-4.5-1.3-9.4-2.3-14.4-3c-9.9-1.4-19.9-1.7-27.4-1.6c-3.7,0.1-6.9,0.3-9,0.5
				c-1.1,0.1-1.9,0.2-2.5,0.3c-0.6,0.1-0.9,0.1-0.9,0.1c-0.4,0.1-0.8-0.2-0.9-0.7C1308.3,352.7,1308.6,352.3,1309,352.2
				C1309,352.2,1309,352.2,1309,352.2z"/>
			<path class="st0" d="M1194.3,284c0.2,0.3,0.3,0.6,0.5,0.9c0.2,0.3,0.4,0.7,0.6,1.1c0.2,0.4,0.4,0.8,0.6,1.3
				c0.1,0.2,0.2,0.5,0.3,0.7c0.1,0.2,0.2,0.5,0.3,0.7c0.2,0.5,0.4,1,0.6,1.6c0.1,0.3,0.2,0.6,0.3,0.8c0.1,0.3,0.2,0.6,0.3,0.9
				c0.4,1.2,0.7,2.4,1.1,3.7c0.2,0.7,0.3,1.3,0.5,2c0.1,0.7,0.3,1.4,0.4,2.1c0.3,1.4,0.5,2.8,0.7,4.2c0.1,0.9,0.2,1.8,0.3,2.6
				c0.9-0.1,1.8-0.1,2.7-0.2c-0.2-1-0.4-1.9-0.6-2.9c-0.3-1.4-0.7-2.9-1.1-4.2c-0.2-0.7-0.4-1.4-0.6-2.1c-0.2-0.7-0.4-1.3-0.7-2
				c-0.5-1.3-1-2.5-1.5-3.7c-0.1-0.3-0.3-0.6-0.4-0.9c-0.1-0.3-0.3-0.5-0.4-0.8c-0.2-0.5-0.5-1-0.8-1.5c-0.1-0.2-0.2-0.5-0.4-0.7
				c-0.1-0.2-0.3-0.5-0.4-0.7c-0.2-0.4-0.5-0.8-0.7-1.2c-0.2-0.4-0.5-0.7-0.7-1c-0.2-0.3-0.4-0.6-0.6-0.9c-0.4-0.5-0.7-0.9-0.9-1.2
				c-0.2-0.3-0.3-0.4-0.3-0.4s0.1,0.2,0.3,0.4C1193.7,283,1194,283.4,1194.3,284z"/>
			<path class="st0" d="M1205,223.1c0.3,0.5,0.6,1.1,1,1.8c0.3,0.7,0.7,1.4,1.1,2.2c0.1,0.2,0.2,0.4,0.3,0.6
				c0.1,0.2,0.2,0.4,0.3,0.7c0.2,0.4,0.4,0.9,0.6,1.4c0.2,0.5,0.4,1,0.7,1.5c0.2,0.5,0.4,1,0.7,1.6c0.2,0.5,0.5,1.1,0.7,1.7
				c0.1,0.3,0.2,0.6,0.4,0.9c0.1,0.3,0.2,0.6,0.3,0.9c0.2,0.6,0.5,1.2,0.7,1.8c0.2,0.6,0.5,1.3,0.7,1.9c0.4,1.3,0.9,2.7,1.4,4.1
				c0.4,1.4,0.9,2.8,1.3,4.3c0.2,0.7,0.4,1.5,0.6,2.3c0.2,0.8,0.4,1.5,0.6,2.3c0.4,1.6,0.8,3.1,1.2,4.7c0.2,0.8,0.4,1.6,0.6,2.4
				c0.2,0.8,0.4,1.6,0.5,2.5c0.2,0.8,0.3,1.7,0.5,2.5c0.2,0.8,0.3,1.7,0.5,2.5c0.3,1.7,0.6,3.4,0.9,5c0.3,1.7,0.6,3.4,0.8,5.1
				c0.3,1.7,0.5,3.4,0.7,5c0.5,3.3,0.9,6.6,1.2,9.8c0.4,3.2,0.6,6.3,0.9,9.2c0.1,1.3,0.2,2.6,0.3,3.9c1.3,0,2.6-0.1,3.9-0.1
				c-0.2-1.3-0.3-2.7-0.5-4.1c-0.4-2.9-0.8-6-1.3-9.2c-0.5-3.2-1.1-6.5-1.7-9.8c-0.3-1.7-0.6-3.4-1-5c-0.4-1.7-0.7-3.4-1.1-5.1
				c-0.4-1.7-0.7-3.4-1.2-5c-0.2-0.8-0.4-1.7-0.6-2.5c-0.2-0.8-0.4-1.7-0.6-2.5c-0.2-0.8-0.4-1.6-0.6-2.5c-0.2-0.8-0.5-1.6-0.7-2.4
				c-0.4-1.6-0.9-3.2-1.4-4.7c-0.2-0.8-0.5-1.5-0.7-2.3c-0.2-0.8-0.5-1.5-0.7-2.2c-0.5-1.5-1-2.9-1.5-4.3c-0.5-1.4-1.1-2.7-1.6-4
				c-0.2-0.7-0.5-1.3-0.8-1.9c-0.3-0.6-0.5-1.2-0.8-1.8c-0.1-0.3-0.3-0.6-0.4-0.9c-0.1-0.3-0.3-0.6-0.4-0.9
				c-0.3-0.6-0.5-1.1-0.8-1.6c-0.3-0.5-0.5-1.1-0.7-1.6c-0.3-0.5-0.5-1-0.7-1.4c-0.2-0.5-0.5-0.9-0.7-1.4c-0.1-0.2-0.2-0.4-0.3-0.6
				c-0.1-0.2-0.2-0.4-0.3-0.6c-0.5-0.8-0.9-1.5-1.2-2.2c-0.4-0.7-0.7-1.2-1.1-1.7c-0.3-0.5-0.6-0.9-0.8-1.2c-0.4-0.7-0.7-1-0.7-1
				s0.2,0.4,0.6,1.1C1204.4,222.2,1204.7,222.6,1205,223.1z"/>
			<path class="st0" d="M1263.8,304.6c0-0.8-0.1-1.6-0.1-2.4c-0.1-2.8-0.2-5.8-0.2-8.9c0-1.5,0-3.1,0-4.7c0.1-1.6,0.1-3.2,0.2-4.8
				c0.2-3.2,0.5-6.5,1-9.8c0.1-0.8,0.2-1.6,0.4-2.4c0.1-0.8,0.3-1.6,0.4-2.4c0.2-0.8,0.3-1.6,0.5-2.4c0.2-0.8,0.4-1.6,0.5-2.4
				c0.7-3.2,1.6-6.2,2.6-9.2c0.9-3,2-5.7,3.1-8.4c0.6-1.3,1.1-2.6,1.7-3.8c0.6-1.2,1.1-2.4,1.7-3.5c0.6-1.1,1.1-2.2,1.6-3.2
				c0.6-1,1.1-1.9,1.6-2.8c0.5-0.9,1-1.7,1.4-2.5c0.4-0.8,0.9-1.4,1.2-2.1c1.6-2.5,2.5-3.9,2.5-3.9s-1,1.4-2.6,3.7
				c-0.4,0.6-0.8,1.3-1.3,2c-0.5,0.7-1,1.5-1.5,2.4c-0.5,0.9-1.1,1.8-1.7,2.8c-0.6,1-1.2,2-1.8,3.1c-0.6,1.1-1.2,2.3-1.8,3.4
				c-0.6,1.2-1.2,2.5-1.9,3.7c-1.2,2.6-2.4,5.4-3.5,8.3c-1.1,2.9-2.1,6-3,9.2c-0.2,0.8-0.4,1.6-0.7,2.4c-0.2,0.8-0.4,1.6-0.6,2.4
				c-0.2,0.8-0.4,1.6-0.5,2.5c-0.2,0.8-0.4,1.6-0.5,2.5c-0.6,3.3-1.1,6.6-1.4,9.9c-0.2,1.6-0.3,3.3-0.4,4.9
				c-0.1,1.6-0.2,3.2-0.3,4.8c-0.1,3.1-0.2,6.2-0.2,9.1c0,0.8,0,1.6,0,2.4C1261.2,304.7,1262.5,304.6,1263.8,304.6z"/>
			<path class="st0" d="M1275.1,304.6c0-0.2,0-0.4,0.1-0.6c0.2-1.4,0.4-2.8,0.7-4.2c0.1-0.7,0.3-1.4,0.4-2.1c0.2-0.7,0.3-1.3,0.5-2
				c0.3-1.3,0.7-2.6,1.1-3.7c0.1-0.3,0.2-0.6,0.3-0.9c0.1-0.3,0.2-0.6,0.3-0.8c0.2-0.6,0.4-1.1,0.6-1.6c0.1-0.3,0.2-0.5,0.3-0.7
				c0.1-0.2,0.2-0.5,0.3-0.7c0.2-0.5,0.4-0.9,0.6-1.3c0.2-0.4,0.4-0.8,0.6-1.1c0.2-0.3,0.4-0.6,0.5-0.9c0.3-0.6,0.6-1,0.8-1.3
				c0.2-0.3,0.3-0.4,0.3-0.4s-0.1,0.1-0.3,0.4c-0.2,0.3-0.5,0.7-0.9,1.2c-0.2,0.3-0.4,0.6-0.6,0.9c-0.2,0.3-0.4,0.7-0.7,1
				c-0.2,0.4-0.5,0.8-0.7,1.2c-0.1,0.2-0.3,0.4-0.4,0.7c-0.1,0.2-0.2,0.5-0.4,0.7c-0.3,0.5-0.5,1-0.8,1.5c-0.1,0.3-0.3,0.5-0.4,0.8
				c-0.1,0.3-0.2,0.6-0.4,0.9c-0.5,1.2-1,2.4-1.5,3.7c-0.2,0.6-0.5,1.3-0.7,2c-0.2,0.7-0.4,1.4-0.6,2.1c-0.4,1.4-0.8,2.8-1.1,4.2
				c-0.1,0.3-0.2,0.7-0.2,1C1273.4,304.6,1274.2,304.6,1275.1,304.6z"/>
			<path class="st0" d="M1254.5,184.6c0.2,0.3,0.5,0.7,0.7,1c0.2,0.4,0.5,0.8,0.8,1.2c0.5,0.9,1.1,1.8,1.8,2.8
				c0.6,1.1,1.2,2.2,1.9,3.5c0.7,1.2,1.3,2.6,2.1,4c0.3,0.7,0.7,1.4,1.1,2.2c0.3,0.8,0.7,1.5,1,2.3c0.4,0.8,0.7,1.6,1.1,2.4
				c0.3,0.8,0.7,1.7,1,2.6c0.3,0.9,0.7,1.7,1,2.7c0.3,0.9,0.7,1.8,1,2.8c0.2,0.5,0.3,0.9,0.5,1.4c0.1,0.2,0.2,0.5,0.3,0.7
				c0.1,0.2,0.2,0.5,0.2,0.7c0.3,1,0.6,2,1,2.9c0.2,0.5,0.3,1,0.5,1.5c0.2,0.5,0.3,1,0.5,1.5c0.3,1,0.6,2.1,0.9,3.1
				c0.3,1,0.6,2.1,0.9,3.2c0.3,1.1,0.6,2.1,0.9,3.2c0.3,1.1,0.5,2.2,0.8,3.3c0.3,1.1,0.6,2.2,0.8,3.3c0.2,1.1,0.5,2.2,0.7,3.4
				c0.1,0.6,0.2,1.1,0.4,1.7c0.1,0.6,0.2,1.1,0.3,1.7c0.2,1.1,0.5,2.3,0.7,3.4c0.2,1.1,0.4,2.3,0.6,3.4c0.8,4.6,1.5,9.1,2.2,13.6
				c0.6,4.5,1.2,9,1.6,13.3c0.5,4.3,0.8,8.5,1.2,12.5c0.3,4,0.6,7.7,0.8,11.2c0.1,1.2,0.1,2.4,0.2,3.5c2,0,4,0,6,0.1
				c-0.1-1.3-0.3-2.6-0.4-4c-0.4-3.5-0.8-7.3-1.3-11.3c-0.5-4-1.1-8.2-1.8-12.5c-0.7-4.3-1.5-8.8-2.3-13.3
				c-0.9-4.5-1.8-9.1-2.9-13.7c-0.3-1.1-0.5-2.3-0.8-3.4c-0.3-1.1-0.6-2.3-0.8-3.4c-0.1-0.6-0.3-1.1-0.4-1.7
				c-0.2-0.6-0.3-1.1-0.5-1.7c-0.3-1.1-0.6-2.2-0.9-3.3c-0.3-1.1-0.6-2.2-0.9-3.3c-0.3-1.1-0.6-2.2-1-3.3c-0.3-1.1-0.7-2.1-1-3.2
				c-0.3-1.1-0.7-2.1-1-3.2c-0.4-1-0.7-2.1-1.1-3.1c-0.2-0.5-0.3-1-0.5-1.5c-0.2-0.5-0.4-1-0.6-1.5c-0.4-1-0.7-2-1.1-2.9
				c-0.1-0.2-0.2-0.5-0.3-0.7c-0.1-0.2-0.2-0.5-0.3-0.7c-0.2-0.5-0.4-0.9-0.6-1.4c-0.4-0.9-0.8-1.8-1.1-2.7
				c-0.4-0.9-0.8-1.8-1.2-2.6c-0.4-0.9-0.8-1.7-1.2-2.5c-0.4-0.8-0.8-1.6-1.2-2.4c-0.4-0.8-0.8-1.6-1.2-2.3
				c-0.4-0.7-0.8-1.5-1.2-2.2c-0.8-1.4-1.5-2.7-2.3-3.9c-0.8-1.2-1.4-2.3-2.1-3.4c-0.7-1-1.4-1.9-1.9-2.8c-0.3-0.4-0.6-0.8-0.8-1.2
				c-0.3-0.4-0.5-0.7-0.8-1c-0.5-0.6-0.9-1.2-1.2-1.6c-0.7-0.9-1-1.3-1-1.3s0.3,0.5,1,1.4C1253.6,183.4,1254,183.9,1254.5,184.6z"/>
			<path class="st0" d="M1294.2,292.4c0.1,0.2,0.2,0.3,0.2,0.5c0.1,0.2,0.2,0.4,0.3,0.6c0.2,0.5,0.3,1,0.5,1.6
				c0.7,2.3,1.1,5.5,1.3,8.6c0,0.3,0,0.7,0.1,1c0.9,0,1.8,0,2.7,0c-0.1-0.5-0.2-1-0.4-1.4c-0.8-3.2-1.9-6.3-3-8.5
				c-0.3-0.6-0.5-1-0.8-1.5c-0.1-0.2-0.3-0.4-0.4-0.6c-0.1-0.2-0.2-0.3-0.3-0.5c-0.2-0.3-0.4-0.5-0.5-0.6c-0.1-0.1-0.2-0.2-0.2-0.2
				s0,0.1,0.1,0.3C1293.9,291.9,1294,292.1,1294.2,292.4z"/>
			<path class="st0" d="M1292.6,268.1c0.2,0.2,0.5,0.5,0.7,0.9c0.1,0.2,0.3,0.3,0.4,0.5c0.1,0.2,0.3,0.4,0.4,0.6
				c0.3,0.4,0.6,0.8,0.9,1.3c0.3,0.5,0.7,1,1,1.6c0.3,0.6,0.7,1.2,1,1.8c0.2,0.3,0.3,0.6,0.5,1c0.2,0.3,0.3,0.7,0.5,1
				c0.2,0.4,0.3,0.7,0.5,1.1c0.2,0.4,0.3,0.7,0.5,1.1c0.6,1.5,1.2,3.2,1.8,4.9c0.3,0.9,0.5,1.7,0.8,2.6c0.3,0.9,0.5,1.8,0.8,2.7
				c0.2,0.9,0.5,1.8,0.7,2.8c0.2,0.9,0.5,1.9,0.7,2.8c0.8,3.4,1.4,6.9,2,10.2c1.1,0,2.2,0.1,3.4,0.1c-0.8-3.5-1.8-7.2-3-10.9
				c-0.3-0.9-0.6-1.9-0.9-2.8c-0.3-0.9-0.6-1.8-0.9-2.7c-0.3-0.9-0.7-1.8-1-2.7c-0.3-0.9-0.7-1.7-1-2.6c-0.7-1.7-1.4-3.3-2.2-4.8
				c-0.2-0.4-0.4-0.7-0.6-1.1c-0.2-0.4-0.4-0.7-0.6-1.1c-0.2-0.3-0.4-0.7-0.6-1c-0.2-0.3-0.4-0.6-0.6-1c-0.4-0.6-0.8-1.2-1.1-1.8
				c-0.4-0.6-0.8-1.1-1.1-1.5c-0.3-0.5-0.7-0.9-1-1.3c-0.2-0.2-0.3-0.4-0.5-0.6c-0.2-0.2-0.3-0.3-0.5-0.5
				C1293.2,268.5,1292.9,268.3,1292.6,268.1c-0.2-0.3-0.4-0.5-0.6-0.6c-0.3-0.3-0.5-0.4-0.5-0.4s0.2,0.2,0.5,0.5
				C1292.1,267.7,1292.3,267.9,1292.6,268.1z"/>
			<path class="st0" d="M1362.9,307.8c0.2-3,0.7-5.9,1.3-8.1c0.2-0.6,0.3-1.1,0.5-1.6c0.1-0.2,0.2-0.4,0.3-0.6
				c0.1-0.2,0.2-0.4,0.2-0.5c0.1-0.3,0.3-0.6,0.4-0.7c0.1-0.2,0.1-0.3,0.1-0.3s-0.1,0.1-0.2,0.2c-0.1,0.1-0.3,0.4-0.5,0.6
				c-0.1,0.1-0.2,0.3-0.3,0.5c-0.1,0.2-0.2,0.4-0.4,0.6c-0.3,0.4-0.5,0.9-0.8,1.5c-1.1,2.1-2.1,5.1-2.9,8.2
				C1361.3,307.7,1362.1,307.7,1362.9,307.8z"/>
			<path class="st0" d="M1356.6,235c0.6,5.7,1.4,11.4,2.2,16.9c0.8,5.6,1.7,11,2.6,16.3c1.8,10.6,3.8,20.4,5.6,28.7
				c0.9,4.1,1.7,7.9,2.4,11.3c2.2,0.2,4.4,0.4,6.6,0.6c-1-3.8-2.1-8.2-3.3-13.2c-2.1-8.3-4.4-17.9-6.6-28.3
				c-1.1-5.2-2.2-10.6-3.2-16.1c-1-5.5-2-11.1-2.8-16.7c-0.8-5.6-1.5-11.2-2.1-16.8c-0.6-5.6-0.9-11-1.1-16.3
				c-0.2-5.3-0.2-10.4,0-15.3c0.2-4.9,0.7-9.4,1.4-13.6c0.7-4.2,1.6-8,2.6-11.3c1-3.3,2.2-6.1,3.3-8.3c0.1-0.3,0.3-0.5,0.4-0.8
				c0.1-0.3,0.3-0.5,0.4-0.7c0.3-0.5,0.5-1,0.8-1.4c0.3-0.4,0.5-0.8,0.7-1.1c0.2-0.3,0.4-0.7,0.6-0.9c0.8-1.1,1.2-1.7,1.2-1.7
				s-0.4,0.6-1.3,1.6c-0.2,0.3-0.4,0.6-0.7,0.9c-0.2,0.3-0.5,0.7-0.8,1.1c-0.3,0.4-0.5,0.9-0.8,1.3c-0.1,0.2-0.3,0.5-0.4,0.7
				c-0.2,0.3-0.3,0.5-0.5,0.8c-1.2,2.2-2.5,5-3.7,8.2c-1.2,3.3-2.2,7.1-3.1,11.3c-0.8,4.2-1.5,8.8-1.9,13.7
				c-0.4,4.9-0.6,10.1-0.6,15.5c0,5.4,0.2,10.9,0.5,16.5C1355.5,223.6,1356,229.3,1356.6,235z"/>
			<path class="st0" d="M1368.9,252.9c0.2,0.4,0.5,0.8,0.7,1.2c0.3,0.5,0.5,1,0.9,1.6c0.3,0.6,0.6,1.2,0.9,1.9
				c0.2,0.3,0.3,0.7,0.5,1c0.2,0.4,0.3,0.7,0.5,1.1c0.2,0.4,0.3,0.8,0.5,1.2c0.2,0.4,0.3,0.8,0.5,1.2c0.2,0.4,0.3,0.9,0.5,1.3
				c0.2,0.4,0.3,0.9,0.5,1.4c0.2,0.5,0.3,0.9,0.5,1.4c0.2,0.5,0.3,1,0.5,1.5c0.2,0.5,0.3,1,0.5,1.5c0.1,0.5,0.3,1,0.4,1.6
				c0.3,1.1,0.6,2.1,0.9,3.2c0.3,1.1,0.5,2.2,0.8,3.4c0.2,1.2,0.5,2.3,0.7,3.5c0.1,0.6,0.2,1.2,0.3,1.8c0.1,0.6,0.2,1.2,0.3,1.8
				c0.2,1.2,0.3,2.4,0.5,3.6c0.3,2.4,0.6,4.8,0.8,7.2c0.2,2.4,0.4,4.7,0.5,7c0.1,2.4,0.2,4.8,0.2,7c2.2,0.2,4.3,0.4,6.5,0.6
				c-0.3-2.6-0.7-5.4-1.1-8.2c-0.4-2.3-0.8-4.7-1.2-7.1c-0.5-2.4-1-4.9-1.6-7.3c-0.3-1.2-0.6-2.4-0.9-3.6c-0.2-0.6-0.3-1.2-0.5-1.8
				c-0.2-0.6-0.3-1.2-0.5-1.8c-0.3-1.2-0.7-2.3-1.1-3.5c-0.4-1.1-0.8-2.3-1.2-3.4c-0.4-1.1-0.8-2.2-1.2-3.2c-0.2-0.5-0.4-1-0.6-1.5
				c-0.2-0.5-0.4-1-0.6-1.5c-0.2-0.5-0.4-1-0.6-1.4c-0.2-0.5-0.4-0.9-0.7-1.4c-0.2-0.5-0.4-0.9-0.6-1.3c-0.2-0.4-0.4-0.9-0.7-1.3
				c-0.2-0.4-0.4-0.8-0.6-1.2c-0.2-0.4-0.4-0.8-0.7-1.1c-0.2-0.4-0.4-0.7-0.6-1.1c-0.2-0.3-0.4-0.7-0.6-1c-0.4-0.6-0.8-1.2-1.1-1.8
				c-0.4-0.5-0.7-1-1-1.5c-0.3-0.4-0.6-0.8-0.9-1.2c-0.3-0.3-0.5-0.6-0.7-0.8c-0.4-0.5-0.5-0.7-0.5-0.7s0.2,0.3,0.5,0.8
				C1368.5,252.3,1368.7,252.6,1368.9,252.9z"/>
			<path class="st0" d="M1379.4,126.5c0.6,0.9,1.3,2,2,3.3c0.7,1.3,1.5,2.6,2.3,4.2c0.2,0.4,0.4,0.8,0.6,1.2
				c0.2,0.4,0.4,0.8,0.6,1.2c0.4,0.8,0.9,1.7,1.3,2.6c0.4,0.9,0.9,1.8,1.4,2.8c0.4,1,0.9,2,1.3,3c0.5,1,0.9,2.1,1.4,3.2
				c0.4,1.1,0.9,2.2,1.3,3.4c0.4,1.1,0.9,2.3,1.4,3.5c0.4,1.2,0.8,2.4,1.3,3.7c0.2,0.6,0.4,1.3,0.6,1.9c0.2,0.6,0.4,1.3,0.6,1.9
				c0.4,1.3,0.8,2.6,1.2,4c0.2,0.7,0.4,1.4,0.6,2c0.2,0.7,0.3,1.4,0.5,2.1c0.3,1.4,0.7,2.8,1.1,4.3c0.3,1.4,0.6,2.9,0.9,4.4
				c0.3,1.5,0.6,3,0.9,4.5c0.3,1.5,0.5,3,0.8,4.6c0.1,0.8,0.2,1.5,0.3,2.3c0.1,0.8,0.2,1.6,0.3,2.3c0.5,3.1,0.7,6.3,1.1,9.5
				c0.1,1.6,0.3,3.2,0.4,4.8c0.1,0.8,0.1,1.6,0.2,2.4c0,0.8,0.1,1.6,0.1,2.4c0.1,1.6,0.2,3.3,0.2,4.9c0,1.6,0.1,3.3,0.1,4.9
				c0.1,6.5,0.1,13.1-0.2,19.5c-0.3,6.4-0.6,12.8-1.1,18.9c-0.2,3.1-0.5,6.1-0.8,9c-0.3,3-0.6,5.8-0.8,8.6
				c-0.6,5.6-1.2,10.9-1.7,15.9c-0.5,4.9-1,9.4-1.4,13.5c-0.1,1.4-0.3,2.7-0.4,3.9c2.5,0.3,5,0.6,7.6,0.9c0.1-1.3,0.1-2.8,0.2-4.2
				c0.2-4,0.5-8.5,0.9-13.4c0.3-4.9,0.7-10.3,1.1-15.9c0.2-2.8,0.3-5.7,0.5-8.7c0.1-3,0.3-6,0.4-9.1c0.3-6.2,0.4-12.6,0.4-19.1
				c0-6.5-0.2-13.2-0.5-19.8c-0.1-1.7-0.2-3.3-0.3-5c-0.1-1.7-0.3-3.3-0.4-4.9c-0.1-0.8-0.1-1.6-0.2-2.5c-0.1-0.8-0.2-1.6-0.3-2.5
				c-0.2-1.6-0.4-3.3-0.6-4.9c-0.5-3.2-0.9-6.4-1.5-9.6c-0.1-0.8-0.3-1.6-0.4-2.4c-0.1-0.8-0.3-1.6-0.4-2.3c-0.3-1.5-0.7-3.1-1-4.6
				c-0.3-1.5-0.7-3-1.1-4.5c-0.4-1.5-0.7-3-1.1-4.4c-0.4-1.4-0.8-2.9-1.2-4.3c-0.2-0.7-0.4-1.4-0.6-2.1c-0.2-0.7-0.5-1.4-0.7-2
				c-0.5-1.3-0.9-2.7-1.3-4c-0.2-0.7-0.5-1.3-0.7-1.9c-0.2-0.6-0.5-1.3-0.7-1.9c-0.5-1.2-0.9-2.5-1.4-3.7c-0.5-1.2-1-2.3-1.5-3.5
				c-0.5-1.1-1-2.3-1.5-3.3c-0.5-1.1-1-2.1-1.5-3.1c-0.5-1-1-2-1.4-3c-0.5-0.9-1-1.9-1.5-2.7c-0.5-0.9-1-1.7-1.4-2.6
				c-0.2-0.4-0.4-0.8-0.7-1.2c-0.2-0.4-0.5-0.8-0.7-1.1c-0.9-1.5-1.7-2.8-2.5-4.1c-0.7-1.2-1.5-2.3-2.1-3.2
				c-0.6-0.9-1.2-1.7-1.6-2.3c-0.9-1.3-1.3-2-1.3-2s0.4,0.7,1.3,2C1378.3,124.7,1378.8,125.5,1379.4,126.5z"/>
			<path class="st0" d="M1392.2,213.1c0.3,0.2,0.6,0.4,0.9,0.7c0.3,0.2,0.7,0.5,1,0.8c0.4,0.3,0.7,0.6,1.1,0.9
				c1.6,1.3,3.5,3.1,5.5,5.2c2,2.1,4.1,4.7,6.1,7.6c2,2.9,4,6.3,5.9,9.9c1.9,3.6,3.6,7.6,5.2,11.8c1.6,4.2,3,8.6,4.2,13.1
				c1.2,4.5,2.3,9.2,3.2,13.8c0.9,4.7,1.7,9.4,2.3,14c0.6,4.6,1.1,9.2,1.4,13.7c0.3,3.7,0.5,7.3,0.7,10.8c2.1,0.3,4.2,0.7,6.3,1
				c-0.4-4-0.8-8.1-1.4-12.4c-0.6-4.5-1.3-9.2-2.2-13.9c-0.9-4.7-1.9-9.4-3.1-14.2c-1.2-4.7-2.5-9.4-4-13.9c-1.5-4.5-3.2-8.9-5-13.1
				c-1.8-4.2-3.8-8.1-5.9-11.7c-2.1-3.6-4.3-6.9-6.6-9.7c-2.2-2.9-4.5-5.3-6.6-7.4c-2.1-2-4.1-3.7-5.8-4.9c-0.4-0.3-0.8-0.6-1.2-0.9
				c-0.4-0.3-0.8-0.5-1.1-0.7c-0.3-0.2-0.7-0.4-0.9-0.6c-0.3-0.2-0.6-0.3-0.8-0.5c-1-0.6-1.5-0.9-1.5-0.9s0.5,0.3,1.4,1
				C1391.7,212.8,1391.9,212.9,1392.2,213.1z"/>
			<path class="st0" d="M1476.4,324.9c0-1.4,0.1-3.3,0.2-5.7c0.1-2.5,0.2-5.6,0.4-9.1c0.2-3.5,0.4-7.5,0.7-11.9c0.3-4.3,0.6-9,1-14
				c0.4-5,0.9-10.2,1.5-15.6c0.2-1.4,0.3-2.7,0.5-4.1c0.2-1.4,0.3-2.8,0.5-4.1c0.3-2.8,0.7-5.6,1.1-8.4c0.4-2.8,0.8-5.7,1.2-8.5
				c0.2-1.4,0.5-2.9,0.7-4.3c0.2-1.4,0.5-2.9,0.7-4.3c0.5-2.9,1-5.7,1.6-8.6c0.3-1.4,0.5-2.8,0.8-4.2c0.3-1.4,0.6-2.8,0.9-4.2
				c0.3-1.4,0.6-2.8,0.9-4.2c0.3-1.4,0.6-2.8,1-4.1c0.6-2.7,1.3-5.4,2-8c0.2-0.7,0.3-1.3,0.5-2c0.2-0.6,0.4-1.3,0.5-1.9
				c0.4-1.3,0.7-2.6,1.1-3.8c0.3-1.3,0.7-2.5,1.1-3.7c0.4-1.2,0.8-2.4,1.1-3.6c0.4-1.2,0.8-2.4,1.2-3.5c0.4-1.1,0.8-2.3,1.2-3.4
				c0.4-1.1,0.8-2.2,1.2-3.3c0.4-1.1,0.8-2.1,1.2-3.1c0.2-0.5,0.4-1,0.6-1.5c0.2-0.5,0.4-1,0.6-1.5c0.4-1,0.8-1.9,1.2-2.8
				c0.4-0.9,0.7-1.8,1.1-2.7c0.4-0.9,0.8-1.7,1.2-2.5c0.4-0.8,0.7-1.6,1.1-2.3c0.2-0.4,0.3-0.7,0.5-1.1c0.2-0.4,0.4-0.7,0.5-1
				c0.7-1.4,1.4-2.6,1.9-3.7c0.6-1.1,1.2-2.1,1.7-3c0.5-0.9,0.9-1.6,1.3-2.2c0.7-1.2,1.1-1.8,1.1-1.8s-0.4,0.6-1.1,1.8
				c-0.4,0.6-0.8,1.3-1.4,2.1c-0.5,0.8-1.2,1.8-1.8,2.9c-0.6,1.1-1.3,2.3-2.1,3.7c-0.2,0.3-0.4,0.7-0.6,1c-0.2,0.4-0.4,0.7-0.6,1.1
				c-0.4,0.7-0.8,1.5-1.2,2.3c-0.4,0.8-0.8,1.6-1.3,2.4c-0.4,0.8-0.8,1.7-1.3,2.6c-0.4,0.9-0.9,1.8-1.3,2.8c-0.2,0.5-0.4,1-0.7,1.4
				c-0.2,0.5-0.4,1-0.6,1.5c-0.4,1-0.9,2-1.3,3.1c-0.4,1.1-0.9,2.1-1.3,3.2c-0.4,1.1-0.9,2.2-1.3,3.4c-0.4,1.1-0.9,2.3-1.3,3.5
				c-0.4,1.2-0.9,2.4-1.3,3.6c-0.4,1.2-0.9,2.4-1.3,3.7c-0.4,1.3-0.8,2.5-1.2,3.8c-0.2,0.6-0.4,1.3-0.6,1.9c-0.2,0.6-0.4,1.3-0.6,2
				c-0.8,2.6-1.6,5.3-2.4,8c-0.4,1.4-0.8,2.7-1.1,4.1c-0.4,1.4-0.7,2.8-1.1,4.2c-0.4,1.4-0.7,2.8-1.1,4.2c-0.3,1.4-0.7,2.8-1,4.2
				c-0.7,2.8-1.3,5.7-2,8.5c-0.3,1.4-0.6,2.9-0.9,4.3c-0.3,1.4-0.6,2.9-0.9,4.3c-0.6,2.9-1.1,5.7-1.6,8.5c-0.5,2.8-1,5.6-1.5,8.4
				c-0.2,1.4-0.5,2.8-0.7,4.2c-0.2,1.4-0.4,2.7-0.6,4.1c-0.8,5.4-1.6,10.7-2.2,15.7c-0.6,5-1.2,9.7-1.7,14.1
				c-0.5,4.4-0.9,8.4-1.2,11.9c-0.3,3.6-0.6,6.7-0.8,9.2c-0.1,1.7-0.2,3.1-0.3,4.3C1471.1,323.6,1473.8,324.2,1476.4,324.9z"/>
			<path class="st0" d="M1488.3,328.1c0-0.9,0-1.9,0-2.9c0-3.7,0.1-7.9,0.3-12.5c0.1-2.3,0.3-4.6,0.5-7c0.2-2.4,0.5-4.8,0.8-7.2
				c0.2-1.2,0.3-2.4,0.5-3.6c0.1-0.6,0.2-1.2,0.3-1.8c0.1-0.6,0.2-1.2,0.3-1.8c0.2-1.2,0.5-2.3,0.7-3.5c0.3-1.1,0.5-2.3,0.8-3.4
				c0.3-1.1,0.5-2.2,0.9-3.2c0.2-0.5,0.3-1.1,0.4-1.6c0.1-0.5,0.3-1,0.5-1.5c0.2-0.5,0.3-1,0.5-1.5c0.2-0.5,0.3-1,0.5-1.4
				c0.2-0.5,0.3-0.9,0.5-1.4c0.2-0.4,0.3-0.9,0.5-1.3c0.2-0.4,0.3-0.8,0.5-1.2c0.2-0.4,0.4-0.8,0.5-1.2c0.2-0.4,0.3-0.8,0.5-1.1
				c0.2-0.4,0.3-0.7,0.5-1c0.3-0.7,0.6-1.3,0.9-1.9c0.3-0.6,0.6-1.1,0.9-1.6c0.3-0.5,0.5-0.9,0.7-1.2c0.2-0.4,0.4-0.7,0.6-0.9
				c0.3-0.5,0.5-0.8,0.5-0.8s-0.2,0.2-0.5,0.7c-0.2,0.2-0.4,0.5-0.7,0.8c-0.3,0.3-0.6,0.7-0.9,1.2c-0.3,0.4-0.7,0.9-1,1.5
				c-0.4,0.5-0.7,1.1-1.1,1.8c-0.2,0.3-0.4,0.6-0.6,1c-0.2,0.3-0.4,0.7-0.6,1.1c-0.2,0.4-0.4,0.7-0.7,1.1c-0.2,0.4-0.4,0.8-0.6,1.2
				c-0.2,0.4-0.4,0.8-0.7,1.3c-0.2,0.4-0.4,0.9-0.6,1.3c-0.2,0.5-0.4,0.9-0.7,1.4c-0.2,0.5-0.4,1-0.6,1.4c-0.2,0.5-0.4,1-0.6,1.5
				c-0.2,0.5-0.4,1-0.6,1.5c-0.4,1-0.8,2.1-1.2,3.2c-0.4,1.1-0.8,2.2-1.2,3.4c-0.4,1.1-0.7,2.3-1.1,3.5c-0.2,0.6-0.3,1.2-0.5,1.8
				c-0.2,0.6-0.3,1.2-0.5,1.8c-0.3,1.2-0.6,2.4-0.9,3.6c-0.6,2.4-1.1,4.9-1.6,7.3c-0.5,2.4-0.9,4.8-1.2,7.1c-0.7,4.6-1.2,9-1.6,12.7
				c0,0.5-0.1,0.9-0.1,1.3C1483.6,326.7,1486,327.4,1488.3,328.1z"/>
			<path class="st0" d="M1515.4,324.2c0.1,0.2,0.1,0.3,0.2,0.6c0.1,0.2,0.1,0.4,0.2,0.7c0.1,0.5,0.2,1,0.3,1.6
				c0.4,2.4,0.5,5.5,0.4,8.7c0,0.6,0,1.1-0.1,1.7c1,0.4,1.9,0.8,2.9,1.1c-0.1-1-0.2-2-0.4-3c-0.5-3.2-1.2-6.5-2.1-8.8
				c-0.2-0.6-0.4-1.1-0.6-1.5c-0.1-0.2-0.2-0.4-0.3-0.6c-0.1-0.2-0.2-0.4-0.3-0.5c-0.2-0.3-0.3-0.5-0.4-0.7
				c-0.1-0.2-0.2-0.2-0.2-0.2s0,0.1,0.1,0.3C1515.2,323.6,1515.3,323.8,1515.4,324.2z"/>
			<path class="st0" d="M1522.6,300.5c0.2,0.2,0.4,0.5,0.6,0.9c0.1,0.2,0.2,0.3,0.3,0.5c0.1,0.2,0.2,0.4,0.3,0.6
				c0.2,0.4,0.5,0.9,0.7,1.4c0.2,0.5,0.5,1,0.6,1.6c0.2,0.6,0.4,1.2,0.6,1.8c0.1,0.3,0.2,0.7,0.3,1c0.1,0.3,0.2,0.7,0.2,1
				c0.1,0.4,0.2,0.7,0.2,1.1c0.1,0.4,0.1,0.7,0.2,1.1c0.1,0.8,0.2,1.5,0.3,2.3c0.1,0.8,0.1,1.6,0.2,2.5c0.1,1.7,0.1,3.4,0.1,5.2
				c0,1.8-0.1,3.5-0.3,5.3c-0.2,1.8-0.4,3.6-0.6,5.3c-0.2,1.7-0.6,3.4-0.9,5.1c-0.2,1.2-0.5,2.4-0.8,3.5c1.1,0.5,2.3,1,3.4,1.5
				c0.2-1.4,0.4-2.9,0.6-4.5c0.2-1.7,0.4-3.5,0.5-5.3c0.1-1.8,0.2-3.6,0.2-5.5c0-1.8,0-3.7-0.2-5.5c-0.1-1.8-0.3-3.6-0.5-5.3
				c-0.1-0.9-0.3-1.7-0.4-2.5c-0.2-0.8-0.3-1.6-0.5-2.4c-0.1-0.4-0.2-0.8-0.3-1.1c-0.1-0.4-0.2-0.7-0.3-1.1c-0.1-0.4-0.2-0.7-0.3-1
				c-0.1-0.3-0.2-0.7-0.4-1c-0.2-0.7-0.5-1.2-0.8-1.8c-0.2-0.6-0.5-1.1-0.8-1.6c-0.2-0.5-0.6-0.9-0.8-1.3c-0.1-0.2-0.3-0.4-0.4-0.6
				c-0.1-0.2-0.3-0.3-0.4-0.5C1523.1,301,1522.9,300.7,1522.6,300.5c-0.1-0.3-0.3-0.5-0.5-0.6c-0.3-0.3-0.5-0.5-0.5-0.5
				s0.1,0.2,0.4,0.5C1522.3,300.1,1522.4,300.3,1522.6,300.5z"/>
			<path class="st0" d="M1540.4,348.2c-0.3-0.2-0.7-0.4-1.1-0.6c-0.4-0.2-0.8-0.4-1.2-0.6c-0.9-0.4-1.8-0.9-2.8-1.4
				c-0.5-0.3-1-0.5-1.6-0.8c-0.6-0.3-1.1-0.5-1.7-0.8c-1.2-0.6-2.4-1.1-3.8-1.8c-5.4-2.4-12-5.1-19.7-7.9
				c-7.7-2.8-16.5-5.5-26.2-8.2c-9.7-2.6-20.4-5.1-31.7-7.4c-11.3-2.2-23.3-4.3-35.8-6c-12.5-1.7-25.4-3.2-38.6-4.5
				c-13.2-1.2-26.6-2.2-40-2.9c-13.4-0.7-26.8-1.2-40.1-1.5c-13.2-0.3-26.2-0.3-38.8-0.2c-12.6,0.1-24.8,0.4-36.3,0.8
				c-11.5,0.4-22.4,1-32.5,1.6c-10.1,0.6-19.3,1.4-27.4,2.1c-8.2,0.8-15.3,1.5-21.1,2.3c-5.8,0.8-10.4,1.5-13.5,2
				c-0.8,0.1-1.5,0.3-2.1,0.4c-0.6,0.1-1.1,0.2-1.5,0.3c-0.8,0.2-1.2,0.2-1.2,0.2l0,0c-0.5,0.1-0.9,0.5-1,0.9c0,0.1-0.1,0.1-0.1,0.2
				c-0.1,0.2,0,0.4,0.1,0.6c0.2,0.6,0.9,1,1.5,0.9c0,0,0.2,0,0.5-0.1c4.6,1.1,9.2,2.1,13.9,3.2c5.1,1.1,10.2,2.2,15.3,3.2
				c10.3,2,20.5,3.8,30.9,5.4c5.2,0.8,10.3,1.5,15.5,2.2c5.2,0.7,10.4,1.3,15.6,1.8c5.2,0.5,10.4,1,15.6,1.3l2,0.1l2,0.1l3.9,0.2
				c2.6,0.1,5.2,0.2,7.8,0.3c1.3,0,2.6,0.1,3.9,0.1l3.9,0l1,0c0.3,0,0.6,0,0.9,0.1c0.6,0.1,1.2,0.3,1.2,0.7c0.1,0.2,0,0.4-0.1,0.7
				c-0.1,0.3-0.3,0.5-0.4,0.8c-0.4,0.5-0.8,1-1.2,1.4c-0.9,0.9-1.9,1.7-3,2.4c-1.1,0.7-2.2,1.4-3.3,2.1c-2.2,1.3-4.6,2.5-6.9,3.6
				c-4.7,2.1-9.6,3.9-14.7,5.4c-5,1.4-10.1,2.6-15.3,3.3c-10.3,1.6-20.8,1.8-31.2,0.6c-10.4-1.2-20.5-3.9-30.1-8
				c9.6,4.2,19.7,6.9,30.1,8.2c10.4,1.3,20.9,1.1,31.3-0.4c5.2-0.8,10.3-1.8,15.3-3.2c5-1.4,10-3.1,14.8-5.3c2.4-1.1,4.7-2.2,7-3.5
				c1.1-0.7,2.3-1.3,3.3-2.1c1.1-0.8,2.1-1.5,3.1-2.5c0.5-0.5,0.9-0.9,1.4-1.5c0.2-0.3,0.4-0.6,0.5-0.9c0.1-0.3,0.2-0.8,0.1-1.2
				c-0.1-0.2-0.2-0.4-0.3-0.6c-0.2-0.2-0.3-0.3-0.5-0.4c-0.4-0.2-0.7-0.3-1.1-0.3c-0.3-0.1-0.7-0.1-1-0.1l-1,0l-3.9-0.1
				c-1.3,0-2.6-0.1-3.9-0.1c-2.6-0.1-5.2-0.2-7.8-0.3l-3.9-0.2l-2-0.1l-1.9-0.2c-5.2-0.4-10.4-0.9-15.6-1.5
				c-5.2-0.6-10.4-1.2-15.5-1.9c-5.2-0.7-10.3-1.5-15.5-2.3c-10.3-1.7-20.5-3.6-30.8-5.6c-5.1-1-10.2-2.1-15.3-3.3
				c-3.2-0.7-6.3-1.4-9.4-2.2c4-0.2,7.9-0.4,11.9-0.6c5.9-0.3,11.9-0.6,17.8-0.8c11.9-0.5,23.7-0.8,35.6-1
				c11.9-0.2,23.7-0.2,35.6,0.1c5.9,0.2,11.8,0.4,17.7,0.9c2.9,0.2,5.9,0.5,8.8,0.8c1.5,0.2,2.9,0.4,4.4,0.6
				c0.7,0.1,1.4,0.2,2.2,0.4c0.7,0.1,1.5,0.3,2.2,0.4l0,0l0,0c0.8,0.1,1.5-0.4,1.6-1.1c0.1-0.8-0.4-1.5-1.1-1.6
				c-0.7-0.1-1.4-0.3-2.2-0.4c-0.8-0.1-1.5-0.3-2.2-0.4c-1.5-0.2-3-0.4-4.5-0.6c-3-0.3-6-0.6-8.9-0.8c-6-0.4-11.9-0.6-17.9-0.7
				c-11.9-0.2-23.8-0.1-35.7,0.2c-11.9,0.3-23.8,0.7-35.6,1.3c-4,0.2-8.1,0.4-12.1,0.6c4.8-0.6,10.3-1.2,16.5-1.8
				c8.1-0.8,17.3-1.6,27.3-2.3c10-0.7,20.9-1.3,32.4-1.8c11.5-0.5,23.7-0.9,36.2-1.1c12.6-0.2,25.6-0.2,38.8-0.1
				c13.2,0.2,26.6,0.6,40,1.2c13.4,0.6,26.8,1.5,39.9,2.6c13.2,1.1,26.1,2.5,38.5,4.2c12.5,1.7,24.5,3.6,35.8,5.8
				c11.3,2.2,22,4.6,31.7,7.1c9.7,2.6,18.6,5.3,26.3,8c7.7,2.7,14.3,5.4,19.7,7.7c1.3,0.6,2.6,1.2,3.8,1.7c0.6,0.3,1.2,0.5,1.7,0.8
				c0.6,0.3,1.1,0.5,1.6,0.8c1,0.5,2,1,2.8,1.4c0.4,0.2,0.8,0.4,1.2,0.6C1539.6,347.8,1540,348,1540.4,348.2
				c2.8,1.5,4.2,2.3,4.2,2.3S1543.1,349.7,1540.4,348.2z"/>
			<path class="st0" d="M1322.8,352.3c0-0.1,0.1-0.3,0.1-0.4c0.2-0.9,0.4-1.9,0.7-2.9c0.3-1,0.6-2,0.9-2.9c0.3-1,0.7-1.9,1.1-2.9
				c0.2-0.5,0.4-0.9,0.6-1.4c0.2-0.5,0.4-0.9,0.7-1.3c0.5-0.9,0.9-1.6,1.4-2.4c0.2-0.4,0.5-0.7,0.8-1c0.3-0.3,0.5-0.6,0.8-0.9
				c0.5-0.6,1-1.1,1.5-1.5c0.5-0.4,0.9-0.8,1.3-1c0.4-0.3,0.7-0.4,0.9-0.6c0.2-0.1,0.3-0.2,0.3-0.2s-0.1,0.1-0.3,0.1
				c-0.2,0.1-0.6,0.2-1,0.4c-0.4,0.2-0.9,0.5-1.5,0.8c-0.6,0.3-1.2,0.8-1.8,1.3c-0.3,0.3-0.6,0.5-1,0.8c-0.3,0.3-0.7,0.6-1,1
				c-0.6,0.7-1.3,1.4-1.9,2.2c-0.3,0.4-0.6,0.8-0.9,1.3c-0.3,0.4-0.6,0.9-0.9,1.3c-0.6,0.9-1.1,1.9-1.6,2.8c-0.5,1-1,1.9-1.4,2.9
				c-0.4,1-0.8,2-1.2,2.9c-0.2,0.5-0.4,1-0.6,1.6C1320.1,352.3,1321.4,352.3,1322.8,352.3z"/>
			<path class="st0" d="M1327.8,328.7c0.3,0.4,0.6,0.9,0.9,1.6c0.2,0.3,0.3,0.6,0.5,1c0.2,0.3,0.4,0.7,0.5,1.1
				c0.2,0.4,0.4,0.8,0.5,1.2c0.1,0.2,0.2,0.4,0.3,0.6c0.1,0.2,0.2,0.4,0.2,0.7c0.3,0.9,0.7,1.9,1,2.9c0.3,1,0.6,2.1,0.8,3.2
				c0.3,1.1,0.5,2.2,0.7,3.3c0.5,2.8,0.8,5.7,1,8.3c1.4,0.1,2.8,0.2,4.2,0.3c-0.6-2.8-1.5-6.1-2.5-9.3c-0.4-1.1-0.8-2.2-1.2-3.3
				c-0.4-1.1-0.9-2.1-1.3-3.1c-0.5-1-0.9-2-1.4-2.8c-0.1-0.2-0.2-0.4-0.4-0.7c-0.1-0.2-0.2-0.4-0.4-0.6c-0.2-0.4-0.5-0.8-0.7-1.2
				c-0.2-0.4-0.5-0.7-0.7-1c-0.2-0.3-0.4-0.6-0.7-0.9c-0.4-0.6-0.8-1-1.1-1.4c-0.3-0.4-0.6-0.7-0.8-0.9c-0.2-0.2-0.3-0.3-0.3-0.3
				s0.1,0.1,0.2,0.3C1327.3,327.9,1327.5,328.2,1327.8,328.7z"/>
			<path class="st0" d="M1318.4,256.6c0.4,0.7,0.9,1.4,1.4,2.2c0.5,0.8,1,1.7,1.6,2.6c0.5,1,1.1,2,1.7,3c0.6,1.1,1.1,2.2,1.7,3.4
				c0.2,0.3,0.3,0.6,0.5,0.9c0.1,0.3,0.3,0.6,0.4,0.9c0.3,0.6,0.6,1.3,0.9,1.9c0.6,1.3,1.2,2.7,1.8,4.1c0.3,0.7,0.6,1.4,0.9,2.2
				c0.3,0.7,0.6,1.5,0.8,2.2c0.3,0.8,0.6,1.5,0.8,2.3c0.3,0.8,0.5,1.6,0.8,2.4c1.1,3.2,2.1,6.5,3,9.9c0.5,1.7,0.9,3.4,1.3,5.1
				c0.4,1.7,0.8,3.5,1.2,5.2c0.4,1.7,0.8,3.5,1.1,5.2c0.2,0.9,0.3,1.7,0.5,2.6c0.2,0.9,0.3,1.7,0.5,2.6c0.6,3.5,1.1,6.9,1.5,10.2
				c0.4,3.3,0.8,6.5,1.1,9.6c0.3,3,0.5,5.9,0.7,8.6c0.2,2.7,0.3,5.1,0.4,7.3c0,0.8,0.1,1.5,0.1,2.2c1.7,0.2,3.4,0.4,5.2,0.7
				c-0.1-1-0.2-2-0.3-3.2c-0.2-2.2-0.4-4.7-0.7-7.4c-0.3-2.7-0.7-5.6-1.1-8.7c-0.4-3.1-1-6.3-1.5-9.7c-0.6-3.3-1.3-6.8-2.1-10.3
				c-0.2-0.9-0.4-1.7-0.6-2.6c-0.2-0.9-0.4-1.7-0.6-2.6c-0.4-1.8-0.9-3.5-1.3-5.2c-0.5-1.7-1-3.5-1.5-5.2c-0.5-1.7-1-3.4-1.6-5.1
				c-1.1-3.4-2.3-6.7-3.5-9.8c-0.3-0.8-0.6-1.6-0.9-2.3c-0.3-0.8-0.6-1.5-1-2.3c-0.3-0.7-0.6-1.5-1-2.2c-0.3-0.7-0.7-1.4-1-2.1
				c-0.7-1.4-1.3-2.8-2-4.1c-0.3-0.6-0.7-1.3-1-1.9c-0.2-0.3-0.3-0.6-0.5-0.9c-0.2-0.3-0.3-0.6-0.5-0.9c-0.7-1.2-1.3-2.3-1.9-3.4
				c-0.7-1-1.3-2-1.8-3c-0.6-0.9-1.2-1.8-1.7-2.6c-0.5-0.8-1-1.5-1.5-2.1c-0.9-1.3-1.7-2.2-2.2-2.9c-0.5-0.7-0.8-1-0.8-1
				s0.3,0.4,0.7,1.1C1316.8,254.2,1317.5,255.2,1318.4,256.6z"/>
			<path class="st0" d="M1354,355c0-0.8,0-1.8,0-2.8c0.1-4.5,0.4-10.6,1.3-16.6c0.2-1.5,0.5-3,0.7-4.5c0.1-0.7,0.3-1.5,0.4-2.2
				c0.2-0.7,0.3-1.4,0.5-2.1c0.3-1.4,0.7-2.7,1.1-4c0.1-0.3,0.2-0.6,0.3-0.9c0.1-0.3,0.2-0.6,0.3-0.9c0.1-0.3,0.2-0.6,0.3-0.9
				c0.1-0.3,0.2-0.5,0.3-0.8c0.2-0.5,0.4-1,0.7-1.5c0.2-0.5,0.4-0.9,0.7-1.3c0.2-0.4,0.4-0.8,0.6-1.1c0.1-0.2,0.2-0.3,0.3-0.5
				c0.1-0.2,0.2-0.3,0.3-0.4c0.2-0.3,0.4-0.5,0.5-0.7c0.2-0.2,0.3-0.4,0.4-0.5c0.2-0.3,0.4-0.4,0.4-0.4s-0.1,0.1-0.4,0.4
				c-0.1,0.1-0.3,0.3-0.5,0.4c-0.2,0.2-0.4,0.4-0.6,0.7c-0.1,0.1-0.2,0.3-0.4,0.4c-0.1,0.1-0.2,0.3-0.4,0.5
				c-0.3,0.3-0.5,0.7-0.8,1.1c-0.3,0.4-0.6,0.8-0.8,1.3c-0.3,0.5-0.6,0.9-0.8,1.4c-0.1,0.3-0.3,0.5-0.4,0.8
				c-0.1,0.3-0.3,0.5-0.4,0.8c-0.1,0.3-0.3,0.6-0.4,0.9c-0.1,0.3-0.3,0.6-0.4,0.9c-0.5,1.2-1.1,2.5-1.6,3.9
				c-0.2,0.7-0.5,1.4-0.7,2.1c-0.2,0.7-0.5,1.4-0.7,2.2c-0.4,1.5-0.9,3-1.3,4.5c-1.6,6-2.7,12.1-3.2,16.8c-0.1,0.8-0.2,1.6-0.3,2.3
				C1350.8,354.4,1352.4,354.7,1354,355z"/>
		</g>
	</g>
	<g id="Footballer_1_">
		<path class="st1" d="M1399.9,103c0,0,2.6-0.7,3.5,1.6c0.9,2.3-1.2,11.8-1.2,11.8s1.9-2.1,3.4-1c1.5,1,1.5,6.6,1.5,6.6l-12,1.6
			c0,0-5.6-12.3-5.6-12.7c0-0.4,2.2-11.2,2.2-11.2L1399.9,103z"/>
		<path class="st0" d="M1314.5,392c-3.1-2.7-1.5-9.3,23.3-10.4c106.7-4.7,167,6.3,166.8,8.8c-0.2,2.5-46.7-1.5-77.6,2.8
			C1358.8,402.8,1319.7,396.4,1314.5,392z"/>
		<path class="st0" d="M1433.7,402.7c15.7-8,74.5-9,80.9-5.1C1526.7,405.1,1451.4,399.5,1433.7,402.7z"/>
		<path class="st1" d="M1400,98.3c0,0,1.8,6.3-2.6,5.5c-4.4-0.8-1.3-11-1.3-11L1400,98.3z"/>
		<path class="st2" d="M1261,111.7c0,0-0.4,2.1,3.1,6.2c3.6,4,11.2-10.4,11.2-10.4l-11.5,0.2C1263.8,107.7,1261.1,109.1,1261,111.7z
			"/>
		<path class="st3" d="M1325.4,115.4c0,0-4.7,2.4-11.8,6c-3.5,1.8-7.7,3.9-12.1,6.1c-1.1,0.6-2.2,1.1-3.4,1.7
			c-1.1,0.6-2.3,1.1-3.5,1.7c-2.4,1.1-4.8,2.3-7.2,3.5c-4.8,2.3-9.7,4.7-14.2,6.8c-4.5,2.1-8.8,4.1-12.4,5.8
			c-1.8,0.8-3.5,1.6-4.9,2.3c-1.5,0.7-2.8,1.3-3.8,1.8c-2.1,1-3.4,1.5-3.4,1.5c-6.3,2.9-13.7,0.1-16.6-6.2
			c-2.6-5.8-0.5-12.5,4.7-15.8l0.1-0.1c0,0,1.1-0.7,3-1.9c1-0.6,2.1-1.4,3.5-2.2c1.3-0.9,2.9-1.8,4.5-2.9c3.3-2.1,7.2-4.6,11.3-7.3
			c4.1-2.7,8.4-5.6,12.7-8.5c2.2-1.4,4.3-2.9,6.5-4.3c1.1-0.7,2.1-1.4,3.2-2.1c1-0.7,2.1-1.4,3.1-2.1c4.1-2.8,7.9-5.4,11.2-7.7
			c6.5-4.5,10.9-7.5,10.9-7.5l0,0c8.3-5.7,19.7-3.6,25.5,4.7s3.6,19.7-4.7,25.5C1326.9,114.6,1326.1,115.1,1325.4,115.4z"/>
		<path class="st4" d="M1269.4,109.4c0,0,14,6.3,14,19.1s17.9-2.3,17.9-2.7c0-0.4-22.6-21-22.6-21L1269.4,109.4z"/>
		<path class="st3" d="M1281.8,94.9c-5.8-4.2-7.8,7.6-7.8,7.6s-5.9-3.8-6.8,3.2c-1.9-1.9-6.7,2-6.3,6.1c1.9-8.7,28.6,3.1,29.7,18.2
			l17.3-7.4L1281.8,94.9z"/>
		<path class="st5" d="M1143.2,212.5c-0.2,0-0.4-0.1-0.5-0.3c-5.9-9-9.1-17-9.5-23.8c-0.3-5.7,1.4-10.4,4.9-13.2
			c4.9-4.1,12.4-3.8,17.1,0.7c3.3,3.1,4.8,7.9,4.2,13.4c-0.7,6.7-4.3,14.3-10.6,22.6c-0.2,0.3-0.6,0.3-0.8,0.1
			c-0.3-0.2-0.3-0.6-0.1-0.8c6.2-8.1,9.7-15.5,10.4-22c0.6-5.2-0.8-9.6-3.8-12.5c-4.3-4.1-11.1-4.4-15.6-0.6
			c-3.2,2.7-4.8,7-4.5,12.3c0.4,6.6,3.5,14.4,9.3,23.2c0.2,0.3,0.1,0.6-0.2,0.8C1143.4,212.5,1143.3,212.5,1143.2,212.5z"/>
		<path class="st5" d="M1138.5,215.3c-6.7,0-15-2.9-17.7-8.8c-1.4-3.2-1.5-6.4-0.2-9.2c1.3-2.7,3.8-4.7,6.9-5.4
			c0.3-0.1,0.6,0.1,0.7,0.4c0.1,0.3-0.1,0.6-0.4,0.7c-2.7,0.7-5,2.4-6.1,4.8c-1.2,2.4-1.1,5.4,0.2,8.2c3.2,7.1,16,9.6,22,7.3
			c0.3-0.1,0.6,0,0.7,0.3c0.1,0.3,0,0.6-0.3,0.7C1142.7,215,1140.7,215.3,1138.5,215.3z"/>
		<path class="st6" d="M1366.6,61.6c0,0,2.7,0.2,7.4,0.6c1.2,0.1,2.6,0.2,4.1,0.4c0.7,0.1,1.5,0.1,2.3,0.2c0.8,0.1,1.6,0.2,2.4,0.3
			c3.3,0.4,7.1,0.8,11.2,1.2c4.1,0.5,8.5,1,13.1,1.5c4.6,0.6,9.5,1.2,14.6,1.9c5,0.7,10.2,1.4,15.5,2.1c2.6,0.4,5.3,0.8,8,1.1l2,0.3
			l1,0.2l0.1,0c0.3,0-0.5-0.1,0.6,0.1l0.1,0l0.3,0.1l0.5,0.1c1.4,0.3,2.8,0.6,4.1,0.9c5.4,1.2,10.8,2.5,16,3.9
			c5.3,1.4,10.4,2.8,15.4,4.4c5,1.5,9.7,3.1,14.2,4.8c4.5,1.7,8.7,3.3,12.6,5c1.9,0.9,3.8,1.7,5.6,2.6c1.8,0.9,3.4,1.7,5,2.5
			c3.1,1.7,5.8,3.3,8,4.8c2.2,1.5,3.9,2.8,5,3.7c0.6,0.5,1,0.8,1.3,1.1c0.3,0.3,0.4,0.4,0.4,0.4c3.2,2.8,3.5,7.7,0.7,10.8
			c-2.6,3-7.1,3.5-10.3,1.1l-0.3-0.2c0,0-0.1-0.1-0.3-0.2c-0.2-0.2-0.5-0.4-1-0.7c-0.8-0.6-2.2-1.5-3.9-2.5c-1.8-1-4.1-2.1-6.8-3.3
			c-2.8-1.2-6-2.4-9.6-3.6c-3.6-1.2-7.6-2.3-11.9-3.4c-4.3-1.1-8.9-2.1-13.6-2.9c-4.8-0.9-9.7-1.7-14.8-2.4
			c-5.1-0.7-10.2-1.3-15.4-1.8c-1.3-0.1-2.6-0.2-3.8-0.3l-0.5,0l-0.2,0l-0.1,0c1,0.1,0.2,0,0.5,0.1l-0.1,0l-1,0l-2,0
			c-2.6,0-5.3-0.1-7.9-0.1c-5.2-0.1-10.4-0.1-15.3-0.1c-2.5,0-4.9,0-7.3,0c-2.4,0-4.7,0.1-7,0.1c-2.3,0.1-4.5,0.1-6.6,0.1
			c-2.1,0.1-4.2,0.1-6.2,0.2c-2,0.1-3.9,0.2-5.6,0.2c-1.8,0.1-3.5,0.2-5.1,0.3c-0.8,0-1.6,0.1-2.3,0.1c-0.7,0-1.4,0.1-2.1,0.1
			c-1.3,0.1-2.6,0.2-3.7,0.3c-0.6,0-1.1,0.1-1.6,0.1c-0.5,0-1,0.1-1.5,0.1c-0.9,0.1-1.7,0.1-2.3,0.2c-1.3,0.1-1.9,0.2-1.9,0.2
			c-10.1,0.9-19-6.6-19.8-16.7s6.6-19,16.7-19.8c1-0.1,2.1-0.1,3.1,0L1366.6,61.6z"/>
		<path class="st3" d="M1510,108.6c1.9-5.6,6.6-11.1,9.9-14.4c-0.7-0.4-1.5-0.7-2.2-1.1c-1.8-0.8-3.6-1.7-5.6-2.6
			c-3.9-1.7-8.1-3.4-12.6-5c-4.5-1.6-9.3-3.2-14.2-4.8c-5-1.5-10.1-3-15.4-4.4c-5.3-1.4-10.6-2.7-16-3.9c-1.4-0.3-2.7-0.6-4.1-0.9
			l-0.5-0.1l-0.3-0.1l-0.1,0c-1.1-0.1-0.3,0-0.6-0.1l-0.1,0l-1-0.2l-2-0.3c-2.7-0.4-5.3-0.8-8-1.1c-5.3-0.7-10.5-1.4-15.5-2.1
			c-3.8-0.5-7.5-1-11-1.4l13,29.7c3.8,0,7.6,0,11.5,0.1c2.6,0,5.2,0.1,7.9,0.1l2,0l1,0l0.1,0c-0.2,0,0.6,0.1-0.5-0.1l0.1,0l0.2,0
			l0.5,0c1.2,0.1,2.5,0.2,3.8,0.3c5.1,0.5,10.3,1.1,15.4,1.8c5.1,0.7,10,1.5,14.8,2.4c4.8,0.9,9.3,1.9,13.6,2.9
			c4.3,1.1,8.3,2.2,11.9,3.4C1507.2,107.6,1508.6,108.1,1510,108.6z"/>
		<path class="st4" d="M1434.3,69.4l-5,25.8c0,0,0.3,0.3,0.8,0.9c1.7,0,3.4,0,5.1,0.1c2.6,0,5.2,0.1,7.9,0.1l1.4,0l0,0
			C1445,80.1,1434.3,69.4,1434.3,69.4L1434.3,69.4z"/>
		<path class="st6" d="M1569.9,119.8l-18.2-7.9c0.2-0.4,0.4-0.8,0.5-1.1c0.3,0,0.6,0,0.9,0c0.8,0,1.6-0.1,2.3-0.1
			c1.6-0.1,3.1-0.2,4.6-0.3c1.5-0.1,2.8-0.2,4-0.4c1.2-0.1,2.1-0.2,2.8-0.3c0.7-0.1,1.1-0.1,1.1-0.1c1.3-0.2,2.3-1.3,2.2-2.6
			c-0.1-1.4-1.2-2.5-2.6-2.4l0,0c0,0-0.4,0-1,0c-0.7,0-1.6,0-2.7,0.1c-1.1,0-2.5,0-3.9,0c-1.4,0-2.9,0-4.4-0.1
			c-0.8,0-1.5-0.1-2.2-0.1c-0.7,0-1.4-0.1-2.1-0.1c-0.4,0-0.8-0.1-1.2-0.1c-6.3-1.5-13.2-5.9-20.3-5.4c-3.9,0.3-7.5,2.6-8.7,8.3
			c-0.7,3.5-1.7,10.3,0.5,14.8c0,0.3,0,0.6,0,0.8c0,0.6,0,1.3,0,1.9c0,0.7,0,1.3-0.1,2c0,0.7-0.1,1.3-0.2,2
			c-0.1,0.7-0.1,1.3-0.2,1.9c-0.1,0.6-0.2,1.2-0.3,1.8c-0.1,0.5-0.2,1.1-0.3,1.5c-0.1,0.2-0.1,0.5-0.2,0.7c-0.1,0.2-0.1,0.4-0.2,0.6
			c-0.1,0.4-0.2,0.5-0.2,0.7c0,0,0,0.1,0,0.1c0,0.1-0.1,0.1-0.1,0.2c-0.1,0.1-0.1,0.2-0.1,0.3c-0.1,0.1-0.1,0.2-0.1,0.2l0,0
			c-0.6,1.1-0.3,2.5,0.7,3.3c1.1,0.8,2.7,0.6,3.6-0.5c0,0,0.1-0.1,0.2-0.2c0-0.1,0.1-0.1,0.2-0.2c0-0.1,0.1-0.1,0.1-0.2
			c0.1-0.1,0.1-0.2,0.2-0.3c0.2-0.4,0.5-1,0.7-1.4c0.1-0.2,0.2-0.5,0.3-0.7c0.1-0.3,0.2-0.5,0.3-0.8c0.2-0.6,0.4-1.1,0.6-1.8
			c0.2-0.6,0.4-1.3,0.6-2c0.2-0.7,0.4-1.4,0.5-2.1c0.2-0.7,0.3-1.5,0.5-2.2c0.1-0.7,0.3-1.5,0.4-2.2c0,0,0,0,0,0
			c2.5-0.6,5.8-1.8,11.3-1.3l15.1,17.8c0.8,1,2.3,1.2,3.4,0.4c1.1-0.8,1.4-2.4,0.6-3.5l-8.3-11.6l13.2,9.7c1.1,0.8,2.6,0.6,3.4-0.4
			c0.9-1.1,0.8-2.7-0.2-3.6l-16.1-14l17.5,5.7c1.2,0.4,2.6-0.2,3.1-1.4C1571.8,121.9,1571.2,120.4,1569.9,119.8z"/>
		<path class="st2" d="M1446.5,162.7c1.4,2.7,1.4,9.2-7,9.2c-9.9,0-8.2,13-18.9,11.4c-7.1-1.1-15-34.6-15-34.6l28.2,1.8
			L1446.5,162.7z"/>
		<path class="st6" d="M1429.9,183.5c0,0-5.4-32.9-17.9-45.3s-21.3,31-21.3,31L1429.9,183.5z"/>
		<path class="st7" d="M1392.8,160.7c7.7,0.2,21,1.1,32.9,5c-1.6-5.5-3.8-11.5-6.4-16.8l-25.7,9.2
			C1393.2,159,1393,159.8,1392.8,160.7z"/>
		<path class="st8" d="M1280.6,98.5c2.3-17.2,56.1-35.8,71.6-35.8c38.4,0,45.4,36.1,45.4,36.1c-3.1,27.3,33.3,27.2,48.9,64
			c-22.8-21.5-103,14.8-114.8,16.8C1333.9,156.8,1278.3,115.7,1280.6,98.5z"/>
		<path class="st5" d="M1446.5,162.7c-15.6-36.8-52-36.7-48.9-64c0,0,0,0,0,0c0,0-24.6-9.8-54-35c0,0-16.9,5.8-34.3,13.9
			c-10.1,10.1-16.8,25.5-19.5,32.5c3.5,5,7.1,12.3,11,20.7c14.8,17,32.2,35.9,30.9,48.7C1343.5,177.6,1423.7,141.2,1446.5,162.7z"/>
		<path class="st9" d="M1267.3,105.7c-1.9-1.9-6.7,2-6.3,6.1c1.9-8.7,28.6,3.1,29.7,18.2l9.6-4.1c-4.6-18.9-26.2-23.4-26.2-23.4
			S1268.2,98.8,1267.3,105.7z"/>
		<path class="st9" d="M1317.5,105.1c29-2.6,28.8-31.2,26-41.4c-14,2.8-36.3,10.7-50.3,20.1C1293.1,93.1,1298,106.9,1317.5,105.1z"
			/>
		<path class="st1" d="M1399.4,158.8c-0.1,0-35-10.6-79.3-5.1c7.2,9.6,12.3,18.6,11.6,25.8C1338.7,178.3,1370.3,164.9,1399.4,158.8z
			"/>
		<path class="st10" d="M1314.3,99.1c25.1-2.3,24.3-27.1,21.5-33.5c-1.4,0.5-7.2-1.6-7.2-1.6c-10.9,4.2-23.1,10.2-32.5,16.7
			C1295.3,88.3,1296.6,100.7,1314.3,99.1z"/>
		<path class="st2" d="M1345,270.7c-1.4,4.6,1.8,15.3,12.3,28.1c10.5,12.8,23.1-43.5,23.1-43.5S1348.3,259.5,1345,270.7z"/>
		<path class="st2" d="M1346.9,237.4c-5.8,0.5-14.2-11.5-12.9-23.1c1.3-11.5,38.8,0,38.8,0S1365.4,235.9,1346.9,237.4z"/>
		<path class="st2" d="M1324.5,158.6c-1.6,0.4-4,3.7-4,5.7c0,2,15.5-2.9,15.5-2.9S1328.9,157.5,1324.5,158.6z"/>
		<path class="st6" d="M1357.3,259.9c0,0-18.9,91.9,2.3,105c24.9,15.4,120.5-11.5,140-3.8l-6.4-25.9c-6.5,3.1-70.7-14.6-102.4-3.3
			c0,0,14.2-18.5,20-52.7L1357.3,259.9z"/>
		<path class="st3" d="M1517.7,341c-2.9-5.3-24-6-24-6c-6.5,3.1-71.2-14.5-102.9-3.2c0,0-20,17.5-12,37.7c5,0.3,10.5,0.3,16.3,0
			c0.2,0.5,1.2,2.1,2.5,2.3c1.6,0.3,50.9-2.3,52.1-2.7c1.2-0.3,7.9-6,9-6.9c17.9-2.3,32.8-3.6,39.3-1.2
			C1498,361.1,1520.5,346.3,1517.7,341z"/>
		<path class="st7" d="M1401.3,312.3c1.6-3.9,3.3-8.4,4.9-13.5c0-10.1-2.2-22.1-2.2-22.1l-0.1,0l-46.6-16.8c0,0-2.3,9.9-3.4,19.5
			C1370.4,284,1386.3,307.1,1401.3,312.3z"/>
		<path class="st8" d="M1345,270.7c0,0,6.5-30,27.9-59.2c5.4-7.4,67.1-10,67.1-10c19.1,32-20.3,92.2-29.4,105.2
			c-1.2,1.7-3.6,2-5.1,0.6c-8.9-7.8-29.9-37-46.7-41.1C1353.7,264.9,1347.8,264,1345,270.7z"/>
		<path class="st6" d="M1393.5,229.6c-20.5,5.8-112.7-27.1-114.6-26.5c-1.9,0.6-20.8,11-33.5,13.6c-14.2,2.9-37.3,0-71.3,7.4
			l-17.5-15.9l98.7-34.4c0,0,17.2-11.4,25.6-9.3c8.5,2.1,8.2,3.9,10.8,3.7c2.6-0.1,49.7-14.5,66.4-9.8
			C1374.7,163.4,1393.5,229.6,1393.5,229.6z"/>
		<path class="st7" d="M1393.5,229.6c0,0-1.1-4.1-3.1-10.3l-48-59.5H1329c15.8,7.8,26.9,42.8,21.7,64.3
			C1369.3,228.7,1386.1,231.7,1393.5,229.6z"/>
		<path class="st5" d="M1438.5,218.9l-67.7-7.3c-12.4,17.2-18.2,35-22.1,46.3C1413.1,256.4,1431.5,242.6,1438.5,218.9z"/>
		<path class="st8" d="M1324.5,158.6c21.6,1.7,57.5,67.3,22.5,78.8c33-3.3,72.7,16.2,89.1-12.8
			C1451.4,197.4,1428.8,137.2,1324.5,158.6z"/>
		<path class="st3" d="M1267.4,167.4L1267.4,167.4c-6.4,2.8-12.1,6.5-12.1,6.5l-105.7,36.7l6.4,21.1l18.1-7.5
			c34-7.4,57.1-4.4,71.3-7.4c12.6-2.6,31.5-13,33.5-13.6C1294.5,175.7,1267.4,167.4,1267.4,167.4z"/>
		<path class="st9" d="M1280.9,164.6c-8.5-2.1-25.6,9.3-25.6,9.3v0c0,0,12.4,15.4,17.1,32.4c3.5-1.7,5.9-2.9,6.5-3.1
			c0.2-0.1,2,0.4,4.9,1.3c12.4-18.8,8-36,8-36C1289.1,168.5,1289.4,166.7,1280.9,164.6z"/>
		<path class="st5" d="M1164.5,213.3c0,1.3-3.1,6.6-8,10c-4.8,3.4-4.8-3.8-4.8-3.8L1164.5,213.3z"/>
		<path class="st11" d="M1176.5,229.7c0,4.9-0.3,10.3-1.4,12.1c-5.4,8.5-24.9-0.5-30.6-2.7c-3.8-1.4-15.9-0.9-28.5-7.4
			c-6.4-3.4-24-12.7-27.2-11.4c3.7-5.5,28.4-1,32.4-2.1c4-1.1,26.2-7,29.9-8.1c2.1,4.3,9-1.1,11.5,0.3c7,3.8-7.2,10.6-7.2,10.6
			s4,6.6,9.3,6C1168.9,226.4,1176.5,225.1,1176.5,229.7z"/>
		<path class="st9" d="M1151.1,235.3c15.3-4.3,24.2-5.6,25.5-5.6c0-4.6,2.4-6.6,2.4-6.6c-3.3-5.1-10,3.3-14.2,3.8
			c-5.3,0.6-9.3-6-9.3-6s-2.6-5.1-5.4-6.6c-2.8-1.5-30,4-30,4l-4,13.4C1125.9,236.4,1135.7,239.6,1151.1,235.3z"/>
		<path class="st12" d="M1194.4,195c0,0,6.4-8.3,7.5-9c1.2-0.6,48.7-13.9,50.3-14c1.6-0.1,3,1.8,3,1.8L1194.4,195z"/>
		<path class="st9" d="M1368.7,270.8c16.1,9.8,27.4,36.5,32,36.5c3.8,0,3.8-3,3.8-3S1381.7,263.4,1368.7,270.8z"/>
		<path class="st9" d="M1395.1,369.5c-6-10.5-7.2-31,0.1-39c-1.5,0.4-3,0.8-4.4,1.3c0,0,1.1-1.4,2.7-4.1c0,0-29.2-8.7-43.7,8.7v0
			c0.7,13.5,3.5,24.5,9.8,28.4C1366.8,369.3,1379.7,370.3,1395.1,369.5z"/>
		<path class="st5" d="M1295.4,167.6c0,0,0,0,0,0.1c0,0,0,0.1,0,0.1c0,0.1,0,0.2,0,0.2c0,0.1,0,0.2,0,0.3c0,0.1,0,0.2,0,0.3
			c0,0.2,0,0.5,0.1,0.8c0.1,1.1,0.1,2.7,0,4.6c0,0.9-0.1,2-0.2,3c-0.1,1.1-0.2,2.2-0.3,3.4c-0.2,1.2-0.3,2.4-0.5,3.6
			c-0.2,1.2-0.5,2.4-0.8,3.6c-0.3,1.2-0.6,2.4-1,3.6c-0.1,0.3-0.2,0.6-0.3,0.9c-0.1,0.3-0.2,0.6-0.3,0.9c-0.2,0.6-0.4,1.1-0.7,1.7
			c-0.2,0.5-0.5,1.1-0.7,1.6c-0.2,0.5-0.5,1-0.8,1.5c-0.3,0.5-0.5,0.9-0.8,1.4c-0.3,0.4-0.5,0.8-0.8,1.2c-0.5,0.8-1.1,1.5-1.6,2.1
			c-0.5,0.6-1,1.1-1.3,1.5c-0.4,0.4-0.7,0.7-0.9,0.9c-0.2,0.2-0.3,0.3-0.3,0.3c-0.4,0.4-1,0.3-1.4,0c-0.3-0.4-0.3-1,0-1.3l0.1-0.1
			c0,0,0.1-0.1,0.3-0.3c0.2-0.2,0.5-0.5,0.8-0.9c0.3-0.4,0.7-0.8,1.2-1.4c0.4-0.6,0.9-1.2,1.3-2c0.2-0.4,0.5-0.8,0.7-1.2
			c0.2-0.4,0.4-0.9,0.7-1.3c0.2-0.5,0.4-0.9,0.6-1.4c0.2-0.5,0.4-1,0.6-1.5c0.2-0.5,0.4-1,0.5-1.6c0.1-0.3,0.2-0.5,0.3-0.8
			c0.1-0.3,0.2-0.6,0.2-0.8c0.3-1.1,0.6-2.3,0.8-3.4c0.2-1.2,0.4-2.3,0.6-3.5c0.2-1.2,0.3-2.3,0.3-3.4c0.1-1.1,0.1-2.2,0.2-3.2
			c0-1,0-2,0-2.9c0-1.8-0.1-3.3-0.2-4.2c0-0.2-0.1-0.5-0.1-0.6c0-0.1,0-0.2,0-0.3c0-0.1,0-0.1,0-0.1c0,0,0-0.1,0-0.1
			c0-0.1,0-0.1,0-0.1c0-0.1,0-0.1,0-0.1l0,0c-0.2-1,0.4-2.1,1.5-2.3S1295.2,166.5,1295.4,167.6
			C1295.4,167.5,1295.4,167.6,1295.4,167.6z"/>
		<path class="st5" d="M1348.4,335.1c0,0,0.1-0.1,0.4-0.4c0.3-0.2,0.6-0.6,1.1-1c1-0.9,2.5-2.2,4.4-3.4c1-0.6,2-1.3,3.2-1.9
			c1.2-0.6,2.5-1.2,3.8-1.7c1.4-0.5,2.8-0.9,4.2-1.3c0.4-0.1,0.7-0.2,1.1-0.2c0.4-0.1,0.7-0.2,1.1-0.2c0.7-0.1,1.5-0.3,2.2-0.3
			l1.1-0.1c0.4,0,0.8-0.1,1.1-0.1c0.7-0.1,1.5-0.1,2.2-0.1c0.7,0,1.5,0,2.2,0c0.7,0,1.4,0,2.1,0.1c1.4,0.1,2.8,0.2,4,0.4
			c0.6,0.1,1.3,0.2,1.8,0.2c0.6,0.1,1.2,0.2,1.7,0.3c1.1,0.2,2.1,0.4,3,0.6c0.9,0.2,1.7,0.4,2.3,0.5c1.3,0.3,2,0.5,2,0.5
			c0.5,0.1,0.8,0.7,0.7,1.2c-0.1,0.5-0.6,0.8-1.1,0.7l0,0c0,0-0.7-0.1-1.9-0.4c-0.6-0.1-1.4-0.3-2.2-0.4c-0.9-0.2-1.8-0.3-2.9-0.4
			c-0.5-0.1-1.1-0.1-1.7-0.2c-0.6-0.1-1.2-0.1-1.8-0.2c-1.2-0.1-2.5-0.2-3.9-0.2c-0.7,0-1.4,0-2,0c-0.7,0-1.4,0-2.1,0.1
			c-0.7,0.1-1.4,0.1-2.1,0.2c-0.4,0-0.7,0.1-1.1,0.1l-1,0.2c-0.7,0.1-1.4,0.3-2.1,0.4c-0.3,0.1-0.7,0.2-1,0.2
			c-0.3,0.1-0.7,0.2-1,0.3c-1.3,0.4-2.6,0.8-3.8,1.3c-1.2,0.5-2.3,1.1-3.4,1.6c-1,0.6-2,1.2-2.8,1.8c-1.7,1.2-3,2.4-3.8,3.2
			c-0.4,0.4-0.8,0.8-1,1c-0.2,0.2-0.4,0.4-0.4,0.4c-0.7,0.8-2,0.8-2.7,0.1C1347.6,337.1,1347.6,335.9,1348.4,335.1
			C1348.4,335.1,1348.4,335.1,1348.4,335.1L1348.4,335.1z"/>
		<path class="st3" d="M1353.9,63.4c0.8-3.9,13.9-9.5,22.2-9.5c5.9,0,29.6,5.4,53.7,4.2c0,0,16.6,36.2,2.8,41.6
			c-15.2-4.9-35.1-1-35.1-1L1353.9,63.4z"/>
		<path class="st1" d="M1343.5,63.7c0,0,5.7-7.9,18-4.1C1369.9,68,1343.5,63.7,1343.5,63.7z"/>
		<path class="st5" d="M1499.8,359.9l-2.6-6.3l-5.9-1.9c0.3,1.4,6,7,5.4,9c0.5,0.1,1.1,0.3,1.4,0.4
			C1498,361.1,1498.7,360.6,1499.8,359.9z"/>
		<path class="st9" d="M1263.1,210.6c-3.3-15.1-14-32.1-17.2-36.9c0,0,2-0.7,3.9-1c3.9,6,13.5,21.7,16.9,36.3
			C1265.2,209.8,1263.1,210.6,1263.1,210.6z"/>
		<path class="st9" d="M1254.8,213.9c-3.4-16.2-15.6-34.5-17.8-37.9c0,0,2.6-0.8,3.9-1.1c3.5,5.3,14,22,17.5,37.5
			C1257.1,213.4,1254.8,213.9,1254.8,213.9z"/>
		<polygon class="st5" points="1194.4,195 1236.4,180.4 1196.3,192.6 		"/>
		<path class="st9" d="M1339.3,156c-4.8,0.7-9.7,1.5-14.9,2.6c21.6,1.7,57.5,67.3,22.5,78.8c4.4-0.4,8.9-0.5,13.5-0.3
			C1390.5,223.6,1361.5,166.2,1339.3,156z"/>
		<path class="st9" d="M1362.9,254.4c-4.5-1.1-9.5-2-13.2,0.9c-3.4,9.3-4.7,15.4-4.7,15.4c2.8-6.7,8.7-5.8,13.8-4.6
			c16.9,4.1,37.9,33.3,46.7,41.1c1.5,1.4,3.9,1.1,5.1-0.6c1.1-1.6,2.6-3.8,4.5-6.7C1403,287.3,1381,258.8,1362.9,254.4z"/>
		<path class="st13" d="M1369.4,256.9c-2.2-1.1-4.4-2-6.5-2.5c-4.5-1.1-9.5-2-13.2,0.9c-0.3,0.9-0.6,1.8-0.9,2.7
			C1356.3,257.8,1363.1,257.4,1369.4,256.9z"/>
		<path class="st2" d="M1531.4,359.9c5.2,17.9-5.6,40,1.9,39.6C1540.9,399.1,1537.5,369.6,1531.4,359.9z"/>
		<path class="st2" d="M1514.2,322.6c1.5,0.4,10,0.4,10,0.4l1.7,4.5c0,0-3.8,6.6-4,8.5C1519.5,337.1,1514.2,322.6,1514.2,322.6z"/>
		<path class="st2" d="M1526.5,350.3c1.5,0.4,8.3,1.5,8.3,1.5l1.6,5.5c0,0-3.1,3.3-3.9,5.1C1529,360.9,1526.5,350.3,1526.5,350.3z"
			/>
		<path class="st2" d="M1536.4,380.5c1-1.1,6-6,6-6l-1.8-5.4c0,0-4.5-1-6.1-2C1532.5,370.3,1536.4,380.5,1536.4,380.5z"/>
		<path class="st2" d="M1536.8,391.5c0.7-0.7,4.9-2.4,4.9-2.4l0.3-5.1c0,0-3.6-1.1-4.8-2.5C1535.7,383.3,1536.8,391.5,1536.8,391.5z
			"/>
		<path class="st2" d="M1535,397.9c0.6-0.3,3.6-0.7,3.6-0.7l1.1-3.3c0,0-2.1-1.4-2.7-2.5C1535.7,392.3,1535,397.9,1535,397.9z"/>
		<path class="st11" d="M1491.6,332.2c0,0,13.4-11.1,17.4-11.4c10-0.7,14.4,20.4,16,26.2c1.1,3.9,8.7,13.3,10.9,27.4
			c1.1,7.2-5.5,23.2-2.6,25c-6.6,0.3-8.2-18.6-11.4-21.2s-23.2-15.4-23.9-17.2c2.2-4.2-6.7-6.4-7-10c-0.7-9.6,12.8-2,12.8-2
			s3-7.2-0.7-11C1500.4,335,1491.2,336.8,1491.6,332.2z"/>
		<path class="st9" d="M1518.1,344.1c-12.5-9.8-18.8-16.1-19.6-17.2c-3.7,2.7-6.9,5.3-6.9,5.3c-0.4,4.6,8.7,2.7,11.6,5.8
			c3.6,3.9,0.7,11,0.7,11s-2.6,5.1-2.1,8.3c0.5,3.2,26.2,24.4,26.2,24.4l8-7.3C1533.9,363.7,1530.7,353.9,1518.1,344.1z"/>
		<path class="st9" d="M1522.4,378.8L1522.4,378.8c2.9,3.9,4.7,20.9,11,20.7c-1.7-1.9,4.7-13.9,2.6-25
			C1528.6,372.5,1522.4,378.8,1522.4,378.8z"/>
		<path class="st5" d="M1522.4,376.6c-0.1,0-0.1,0-0.2,0l-7.4-2.5c-0.2-0.1-0.3-0.2-0.4-0.5l-1.1-6.6l-5.3,2.1
			c-0.2,0.1-0.4,0.1-0.5,0c-0.2-0.1-0.3-0.3-0.3-0.4l-0.7-6.6l-7.2,0.9c-0.3,0-0.6-0.2-0.6-0.5c0-0.3,0.2-0.6,0.5-0.6l7.8-1
			c0.2,0,0.3,0,0.4,0.1c0.1,0.1,0.2,0.2,0.2,0.4l0.7,6.4l5.3-2.1c0.2-0.1,0.3-0.1,0.5,0c0.2,0.1,0.3,0.2,0.3,0.4l1.1,6.9l7,2.4
			c0.3,0.1,0.5,0.4,0.4,0.7C1522.9,376.5,1522.6,376.6,1522.4,376.6z"/>
		<path class="st5" d="M1479.1,392.5c-1,0-2-0.1-3-0.4c-6.2-1.5-10.4-7.8-9.6-14.2c0.6-4.5,3.6-8.5,8.4-11.3c5.8-3.4,14-5,24.5-4.8
			c0.3,0,0.6,0.3,0.6,0.6c0,0.3-0.3,0.6-0.6,0.6c0,0,0,0,0,0c-10.2-0.2-18.2,1.4-23.9,4.7c-4.5,2.6-7.3,6.3-7.8,10.5
			c-0.8,5.9,3.1,11.5,8.7,12.9c4,1,8.5-0.3,12.6-3.7c5.1-4.2,9.5-11.4,13.2-21.2c0.1-0.3,0.4-0.5,0.7-0.3c0.3,0.1,0.5,0.4,0.3,0.7
			c-3.7,10.1-8.3,17.4-13.5,21.7C1486.3,391,1482.6,392.5,1479.1,392.5z"/>
		<path class="st5" d="M1494.9,390.7c-0.5,0-1.1,0-1.6-0.1c-2.9-0.5-5.5-2.4-7.1-5.1c-0.2-0.3-0.1-0.6,0.2-0.8
			c0.3-0.2,0.6-0.1,0.8,0.2c1.4,2.4,3.7,4.1,6.3,4.5c2.7,0.5,5.5-0.4,7.8-2.4c5.9-5.1,4.7-18,0.9-23.2c-0.2-0.3-0.1-0.6,0.1-0.8
			c0.3-0.2,0.6-0.1,0.8,0.1c4.2,5.6,5.4,19.2-1,24.7C1499.9,389.7,1497.4,390.7,1494.9,390.7z"/>
		<path class="st11" d="M1509.2,108.4c0,0,0-0.1,0-0.2c0-0.1,0.1-0.3,0.2-0.6c0.1-0.2,0.2-0.5,0.3-0.9c0.1-0.3,0.2-0.7,0.4-1.1
			c0.2-0.4,0.3-0.8,0.5-1.3c0.2-0.4,0.4-0.9,0.7-1.4c0.1-0.2,0.2-0.5,0.4-0.7c0.1-0.2,0.3-0.5,0.4-0.7c0.3-0.5,0.6-1,0.9-1.5
			c0.3-0.5,0.6-0.9,1-1.4c0.3-0.5,0.7-0.9,1-1.3c0.3-0.4,0.7-0.8,1-1.2c0.3-0.4,0.6-0.7,0.9-1c0.3-0.3,0.6-0.6,0.8-0.9
			c0.3-0.2,0.5-0.5,0.7-0.6c0.4-0.4,0.6-0.6,0.6-0.6c0.6-0.6,1.6-0.6,2.2,0c0.6,0.6,0.6,1.6,0,2.2c0,0-0.1,0.1-0.1,0.1l-0.1,0.1
			c0,0-0.2,0.2-0.6,0.5c-0.2,0.1-0.4,0.3-0.7,0.5c-0.3,0.2-0.5,0.5-0.8,0.7c-0.3,0.3-0.6,0.5-0.9,0.9c-0.3,0.3-0.7,0.7-1,1
			c-0.3,0.4-0.7,0.7-1,1.1c-0.3,0.4-0.7,0.8-1,1.2c-0.3,0.4-0.7,0.8-0.9,1.3c-0.1,0.2-0.3,0.4-0.4,0.6c-0.1,0.2-0.3,0.4-0.4,0.6
			c-0.3,0.4-0.5,0.8-0.7,1.2c-0.2,0.4-0.4,0.8-0.6,1.1c-0.2,0.4-0.3,0.7-0.5,1c-0.1,0.3-0.2,0.6-0.3,0.8c-0.1,0.2-0.1,0.4-0.2,0.5
			c0,0.1-0.1,0.2-0.1,0.2l0,0c-0.1,0.4-0.6,0.6-1,0.5C1509.4,109.2,1509.1,108.8,1509.2,108.4z"/>
		<path class="st11" d="M1517.3,93.3c0,0,0,0-0.1,0.1c-0.1,0.1-0.2,0.2-0.3,0.4c-0.3,0.4-0.7,0.9-1.2,1.5c-0.2,0.3-0.5,0.7-0.8,1
			c-0.3,0.4-0.5,0.8-0.8,1.2c-0.3,0.4-0.5,0.9-0.8,1.3c-0.3,0.5-0.5,0.9-0.8,1.4c-0.3,0.5-0.5,0.9-0.7,1.4c-0.2,0.5-0.5,0.9-0.6,1.4
			c-0.1,0.2-0.2,0.5-0.3,0.7c-0.1,0.2-0.2,0.4-0.2,0.7c-0.2,0.4-0.3,0.8-0.4,1.2c-0.1,0.4-0.2,0.7-0.3,1c-0.1,0.3-0.1,0.6-0.2,0.8
			c-0.1,0.5-0.2,0.7-0.2,0.7l0,0.1c-0.1,0.4-0.5,0.7-0.9,0.6c-0.4-0.1-0.6-0.5-0.6-0.9c0,0,0-0.3,0.1-0.8c0-0.2,0.1-0.5,0.1-0.9
			c0.1-0.3,0.2-0.7,0.2-1.1c0.1-0.4,0.2-0.9,0.3-1.3c0.1-0.2,0.1-0.5,0.2-0.7c0.1-0.2,0.2-0.5,0.2-0.7c0.2-0.5,0.4-1,0.6-1.5
			c0.2-0.5,0.4-1,0.6-1.6c0.2-0.5,0.5-1,0.7-1.5c0.2-0.5,0.5-1,0.7-1.5c0.3-0.5,0.5-0.9,0.7-1.3c0.2-0.4,0.5-0.8,0.7-1.2
			c0.4-0.7,0.8-1.3,1.1-1.7c0.1-0.2,0.3-0.4,0.3-0.5c0.1-0.1,0.1-0.2,0.1-0.2c0.5-0.7,1.5-0.8,2.2-0.3c0.7,0.5,0.8,1.5,0.3,2.2
			C1517.3,93.3,1517.3,93.3,1517.3,93.3L1517.3,93.3z"/>
		<path class="st11" d="M1448.6,70.5c0,0,0,0.1,0.1,0.3c0.1,0.2,0.2,0.5,0.3,0.8c0.2,0.7,0.6,1.7,0.9,2.9c0.2,0.6,0.4,1.3,0.6,2
			c0.2,0.7,0.4,1.4,0.6,2.2c0.2,0.8,0.4,1.6,0.5,2.4c0.2,0.8,0.3,1.6,0.5,2.5c0.2,0.8,0.3,1.7,0.4,2.5c0.1,0.4,0.1,0.8,0.2,1.2
			c0,0.4,0.1,0.8,0.1,1.2c0,0.4,0.1,0.8,0.1,1.2c0,0.4,0.1,0.7,0.1,1.1c0.1,0.7,0.1,1.4,0.1,2c0,0.6,0,1.2,0.1,1.7c0,0.5,0,1,0,1.3
			c0,0.7,0,1.2,0,1.2c0,0.4-0.3,0.8-0.8,0.8c-0.4,0-0.7-0.3-0.8-0.7l0,0c0,0,0-0.4-0.1-1.1c0-0.4,0-0.8-0.1-1.3
			c0-0.5-0.1-1.1-0.2-1.7c0-0.6-0.2-1.3-0.2-2c0-0.3-0.1-0.7-0.2-1.1c-0.1-0.4-0.1-0.7-0.2-1.1c-0.1-0.4-0.1-0.8-0.2-1.1
			c-0.1-0.4-0.2-0.8-0.2-1.2c-0.2-0.8-0.3-1.6-0.5-2.4c-0.2-0.8-0.4-1.6-0.6-2.4c-0.2-0.8-0.4-1.5-0.7-2.3c-0.2-0.7-0.4-1.4-0.7-2.1
			c-0.2-0.7-0.4-1.3-0.6-1.9c-0.4-1.1-0.8-2.1-1-2.7c-0.1-0.3-0.2-0.6-0.3-0.7c-0.1-0.2-0.1-0.3-0.1-0.3l0,0c-0.3-0.8,0-1.7,0.8-2
			C1447.3,69.3,1448.2,69.6,1448.6,70.5C1448.6,70.4,1448.6,70.5,1448.6,70.5z"/>
		<path class="st11" d="M1452.5,71.8c0,0,0.1,0.4,0.2,1.1c0.1,0.7,0.2,1.7,0.4,2.8c0.1,0.6,0.1,1.2,0.2,1.9c0.1,0.7,0.2,1.4,0.2,2.1
			c0.1,0.7,0.1,1.5,0.2,2.3c0,0.4,0.1,0.8,0.1,1.2c0,0.4,0.1,0.8,0.1,1.2c0,0.8,0.1,1.6,0.1,2.3c0.1,0.8,0.1,1.5,0.1,2.3
			c0,0.7,0,1.5,0.1,2.1c0,0.3,0,0.7,0,1c0,0.3,0,0.6,0,0.9c0,2.4,0,3.9,0,3.9c0,0.4-0.4,0.8-0.8,0.8c-0.4,0-0.7-0.3-0.8-0.7l0,0
			c0,0-0.1-1.6-0.2-3.9c0-0.3,0-0.6,0-0.9c0-0.3-0.1-0.6-0.1-1c-0.1-0.7-0.1-1.4-0.2-2.1c-0.1-0.7-0.1-1.5-0.2-2.2
			c-0.1-0.8-0.2-1.5-0.3-2.3c0-0.4-0.1-0.8-0.1-1.2c-0.1-0.4-0.1-0.8-0.2-1.1c-0.1-0.8-0.2-1.5-0.3-2.2c-0.1-0.7-0.2-1.4-0.4-2.1
			c-0.1-0.7-0.2-1.3-0.3-1.8c-0.2-1.1-0.4-2.1-0.6-2.7c-0.1-0.3-0.1-0.6-0.2-0.8c0-0.2-0.1-0.3-0.1-0.3l0,0
			c-0.2-0.8,0.3-1.7,1.2-1.8c0.8-0.2,1.7,0.3,1.8,1.2C1452.5,71.8,1452.5,71.8,1452.5,71.8z"/>
		<path class="st11" d="M1458,73.3c0,0,0,0.4-0.1,1c-0.1,0.7-0.2,1.6-0.3,2.7c-0.1,0.6-0.1,1.2-0.2,1.8c-0.1,0.6-0.1,1.3-0.2,2
			c-0.1,1.4-0.2,2.9-0.3,4.4c-0.1,0.7-0.1,1.5-0.2,2.2c-0.1,0.7-0.1,1.5-0.1,2.2c-0.1,1.4-0.1,2.7-0.2,3.8c-0.1,2.3-0.2,3.8-0.2,3.8
			l0,0c0,0.4-0.4,0.8-0.8,0.7c-0.4,0-0.7-0.4-0.7-0.8c0,0,0-1.5-0.1-3.8c0-1.1,0-2.5-0.1-3.9c0-0.7,0-1.4,0-2.2c0-0.7,0-1.5,0-2.3
			c0-1.5,0-3,0.1-4.4c0-0.7,0-1.4,0.1-2c0-0.7,0-1.3,0.1-1.8c0-1.1,0.1-2.1,0.1-2.7c0-0.7,0.1-1,0.1-1c0-0.8,0.8-1.5,1.6-1.5
			c0.8,0,1.5,0.8,1.5,1.6C1458.1,73.2,1458.1,73.2,1458,73.3L1458,73.3z"/>
		<path class="st9" d="M1429.9,58.1c-3.6,0.2-7.3,0.2-10.8,0.1c3,7.2,12,30.3,6.1,39.8c2.6,0.4,5.1,0.9,7.5,1.7
			C1446.5,94.3,1429.9,58.1,1429.9,58.1z"/>
		<path class="st0" d="M1525.8,401c0,0-0.5,1-1.3,2.5c-0.4,0.7-0.9,1.6-1.4,2.5c-0.3,0.5-0.6,0.9-0.9,1.4c-0.3,0.5-0.6,0.9-0.9,1.4
			c-0.3,0.5-0.6,0.9-1,1.4c-0.3,0.5-0.7,0.9-1,1.3c-0.3,0.4-0.6,0.8-1,1.2c-0.3,0.4-0.6,0.7-0.9,1.1c-0.3,0.3-0.6,0.6-0.8,0.9
			c-0.2,0.3-0.5,0.5-0.7,0.7c-0.4,0.4-0.6,0.6-0.6,0.6c-0.7,0.7-1.8,0.7-2.5,0c-0.7-0.7-0.7-1.8,0-2.5c0.1-0.1,0.2-0.1,0.3-0.2
			l0.1,0c0,0,0.2-0.1,0.6-0.4c0.2-0.1,0.4-0.3,0.7-0.5c0.3-0.2,0.6-0.4,0.9-0.6c0.3-0.2,0.7-0.5,1-0.8c0.4-0.3,0.7-0.6,1.1-0.9
			c0.4-0.3,0.8-0.7,1.2-1.1c0.4-0.4,0.8-0.8,1.2-1.1c0.4-0.4,0.8-0.8,1.2-1.2c0.4-0.4,0.7-0.8,1.1-1.2c0.7-0.8,1.3-1.5,1.9-2.2
			C1525.1,401.9,1525.8,401,1525.8,401z"/>
		<path class="st0" d="M1539.9,408.6c0,0,0.1-0.1,0.2-0.2c0.1-0.1,0.1-0.1,0.2-0.3c0.1-0.1,0.2-0.3,0.3-0.4c0.2-0.3,0.5-0.7,0.8-1.2
			c0.3-0.5,0.7-1,1-1.6c0.4-0.6,0.7-1.2,1.1-1.9c0.2-0.3,0.4-0.7,0.6-1.1c0.2-0.4,0.4-0.8,0.6-1.2c0.3-0.8,0.7-1.6,1.1-2.5
			c0.2-0.4,0.3-0.9,0.5-1.3c0.1-0.4,0.3-0.9,0.4-1.3l0.2-0.7l0.1-0.3l0.1-0.3c0.1-0.5,0.2-0.9,0.3-1.4c0.1-0.2,0.1-0.5,0.2-0.7
			c0.1-0.2,0.1-0.5,0.1-0.7c0.1-0.5,0.2-0.9,0.2-1.3c0-0.2,0.1-0.4,0.1-0.7c0-0.2,0.1-0.4,0.1-0.6c0-0.4,0.1-0.8,0.1-1.3
			c0-0.4,0.1-0.8,0.1-1.2c0-0.4,0-0.8,0-1.1c0-0.4,0-0.7,0-1c0-0.3,0-0.6,0-0.9c0-0.6,0-1.1-0.1-1.5c0-0.9-0.1-1.3-0.1-1.3
			s0.1,0.5,0.3,1.3c0.1,0.4,0.2,0.9,0.4,1.5c0.1,0.3,0.1,0.6,0.2,0.9c0.1,0.3,0.1,0.7,0.2,1c0.1,0.4,0.1,0.7,0.2,1.1
			c0.1,0.4,0.1,0.8,0.1,1.2c0,0.4,0.1,0.9,0.1,1.3c0,0.2,0,0.5,0,0.7c0,0.2,0,0.5,0,0.7c0,0.5,0,0.9,0,1.4c0,0.2,0,0.5,0,0.7
			c0,0.2,0,0.5,0,0.7c0,0.5-0.1,1-0.1,1.5l0,0.4l0,0.4l-0.1,0.8c-0.1,0.5-0.1,1-0.2,1.5c-0.1,0.5-0.2,1-0.3,1.5
			c-0.1,1-0.4,1.9-0.6,2.9c-0.1,0.5-0.2,0.9-0.4,1.4c-0.1,0.4-0.2,0.9-0.4,1.3c-0.3,0.8-0.5,1.6-0.8,2.4c-0.3,0.7-0.5,1.4-0.8,2
			c-0.3,0.6-0.5,1.1-0.7,1.5c-0.1,0.2-0.2,0.4-0.3,0.6c-0.1,0.2-0.2,0.3-0.2,0.5c-0.1,0.2-0.2,0.3-0.2,0.3c-0.8,1.5-2.7,2.1-4.2,1.3
			s-2.1-2.7-1.3-4.2C1539.6,408.9,1539.8,408.8,1539.9,408.6L1539.9,408.6z"/>
		<path class="st0" d="M1561.5,384.1c0,0,0,0,0.1-0.1c0-0.1,0.1-0.2,0.2-0.4c0.1-0.2,0.1-0.4,0.2-0.6c0.1-0.2,0.2-0.5,0.2-0.8
			c0.1-0.3,0.1-0.6,0.2-1c0-0.2,0-0.4,0.1-0.6c0-0.2,0.1-0.4,0.1-0.6c0-0.2,0-0.4,0-0.6c0-0.2,0-0.4,0-0.6c0-0.4-0.1-0.9-0.1-1.3
			c0-0.2-0.1-0.4-0.1-0.6c0-0.2-0.1-0.4-0.1-0.6c-0.1-0.4-0.3-0.8-0.4-1.2c-0.2-0.4-0.3-0.7-0.5-1.1c0-0.1-0.1-0.2-0.1-0.3
			c0-0.1-0.1-0.2-0.1-0.2c-0.1-0.2-0.2-0.3-0.3-0.5c-0.2-0.3-0.3-0.6-0.5-0.8c-0.2-0.2-0.3-0.4-0.4-0.6c-0.2-0.3-0.4-0.5-0.4-0.5
			s0.2,0.2,0.4,0.4c0.1,0.1,0.3,0.3,0.5,0.5c0.2,0.2,0.4,0.4,0.6,0.7c0.1,0.1,0.2,0.3,0.3,0.4c0.1,0.1,0.1,0.1,0.2,0.2
			c0.1,0.1,0.1,0.2,0.2,0.2c0.2,0.3,0.5,0.7,0.7,1.1c0.2,0.4,0.4,0.8,0.6,1.2c0.1,0.2,0.2,0.4,0.3,0.7c0.1,0.2,0.2,0.4,0.2,0.7
			c0.1,0.5,0.3,0.9,0.3,1.4c0,0.2,0.1,0.5,0.1,0.7c0,0.2,0,0.5,0.1,0.7c0,0.2,0,0.4,0,0.7c0,0.2,0,0.4,0,0.6c0,0.4,0,0.8-0.1,1.2
			c0,0.4-0.1,0.7-0.1,1c-0.1,0.3-0.1,0.6-0.2,0.8c-0.1,0.2-0.1,0.4-0.1,0.5c0,0.1-0.1,0.2-0.1,0.2c-0.2,0.5-0.8,0.8-1.3,0.7
			s-0.8-0.8-0.7-1.3C1561.4,384.3,1561.4,384.2,1561.5,384.1L1561.5,384.1z"/>
		<path class="st2" d="M1173,244.1c-1.1,1-5.4,8.4-5.4,8.4l-4.7-0.8c0,0-3.7-6.6-5.4-7.7C1157.9,241.3,1173,244.1,1173,244.1z"/>
		<path class="st2" d="M1138.9,237.3c-1,1.1-5.2,6.7-5.2,6.7l-5.6-1.1c0,0-1.8-3.6-2.8-5.8C1128.4,234.7,1138.9,237.3,1138.9,237.3z
			"/>
		<path class="st2" d="M1107.5,232.2c0.5,1.4,2.5,8.1,2.5,8.1l5.6,0.9c0,0,3-3.1,4.8-4.5C1118.5,233.3,1107.5,232.2,1107.5,232.2z"
			/>
		<path class="st2" d="M1094.3,230.3c0.4,0.8,0.6,5.4,0.6,5.4l4.7,2c0,0,2.2-3,4-3.7C1102.4,231.9,1094.3,230.3,1094.3,230.3z"/>
		<path class="st9" d="M1120,218.3L1120,218.3c-6.3,0.3-27.7-3.1-31.2,2c3.2-1.3,20.8,8.1,27.2,11.4c0.6,0.3,1.1,0.6,1.7,0.8
			L1120,218.3z"/>
		<path class="st2" d="M1095.6,219.9c3.4,0.7,30.5,10,39.3,10.4c14.5,0.6,31.7,6.2,35.7,9.6c4,3.4,5.2,12.3-15.2,6
			c-14.3-4.4-21.9-9.2-41.4-9.6C1090.4,235.8,1078.8,216.5,1095.6,219.9z"/>
		<path class="st6" d="M1308.9,119.1c4.2-0.6,6.6-0.3,7.2,3.9c0.6,3.9-6.8,11-10.5,12.1l-55.4,18.4c-13.3,4.1-19.8-4.3-20.8-11.1
			c-1-6.8,4.4-17.3,17.1-18.6C1272.8,121.1,1308.9,119.1,1308.9,119.1z"/>
		<path class="st3" d="M1246.5,123.8c-12.7,1.3-18.1,11.8-17.1,18.6c1,6.8,7.4,15.2,20.8,11.1l43.7-14.5l0,0
			c-6-6.2-2.1-18.8-2.1-18.8C1279,121,1261.2,122.3,1246.5,123.8z"/>
		<path class="st3" d="M1244.1,123.5c0,0,3.4-4.5,7.6-2.3C1256.1,125.5,1244.1,123.5,1244.1,123.5z"/>
		<circle class="st3" cx="1244.1" cy="125.7" r="3.2"/>
		<path class="st11" d="M1293.3,139.4c0,0-0.1-0.1-0.1-0.2c-0.1-0.1-0.2-0.3-0.4-0.5c-0.3-0.5-0.7-1.2-1.2-2
			c-0.2-0.4-0.4-0.9-0.7-1.4c-0.2-0.5-0.4-1-0.6-1.6c-0.2-0.6-0.4-1.2-0.5-1.8c-0.2-0.6-0.3-1.3-0.4-1.9c-0.1-0.3-0.1-0.6-0.1-1
			c0-0.3-0.1-0.6-0.1-1c0-0.6-0.1-1.3,0-1.9c0-0.6,0.1-1.2,0.1-1.8c0-0.3,0.1-0.6,0.1-0.8c0-0.3,0.1-0.5,0.1-0.8
			c0.1-0.5,0.2-0.9,0.3-1.3c0.1-0.4,0.2-0.7,0.3-1c0.2-0.5,0.3-0.9,0.3-0.9c0.3-0.8,1.2-1.2,2-0.9c0.8,0.3,1.2,1.2,0.9,2
			c0,0,0,0.1,0,0.1l0,0.1c0,0-0.1,0.3-0.3,0.7c-0.1,0.2-0.2,0.5-0.3,0.8c-0.1,0.3-0.2,0.7-0.4,1.1c-0.1,0.2-0.1,0.4-0.2,0.6
			c0,0.2-0.1,0.5-0.2,0.7c-0.1,0.5-0.2,1-0.2,1.5c-0.1,0.5-0.1,1.1-0.1,1.7c0,0.3,0,0.6,0,0.9c0,0.3,0,0.6,0.1,0.9
			c0.1,0.6,0.1,1.2,0.2,1.7c0.1,0.6,0.2,1.1,0.4,1.7c0.1,0.5,0.3,1,0.5,1.5c0.2,0.5,0.3,0.9,0.5,1.3c0.3,0.8,0.7,1.5,0.9,1.9
			c0.1,0.2,0.2,0.4,0.3,0.5c0.1,0.1,0.1,0.2,0.1,0.2l0,0c0.2,0.4,0.1,0.8-0.2,1.1C1293.9,139.8,1293.5,139.7,1293.3,139.4z"/>
		<path class="st11" d="M1288.2,120.5c0,0,0,0.1,0,0.2c0,0.1,0,0.3,0,0.6c0,0.5,0.1,1.3,0.1,2.2c0,0.5,0.1,0.9,0.1,1.5
			c0.1,0.5,0.1,1.1,0.2,1.6c0.1,0.6,0.2,1.1,0.3,1.7c0.1,0.6,0.2,1.2,0.3,1.8c0.1,0.6,0.3,1.2,0.4,1.8c0.2,0.6,0.3,1.1,0.5,1.7
			c0.2,0.5,0.3,1.1,0.5,1.5c0.2,0.5,0.4,0.9,0.5,1.3c0.2,0.4,0.4,0.8,0.5,1.1c0.2,0.3,0.3,0.6,0.5,0.8c0.3,0.5,0.4,0.7,0.4,0.7
			l0,0.1c0.2,0.4,0.1,0.8-0.3,1c-0.3,0.2-0.8,0.1-1-0.2c0,0-0.2-0.3-0.5-0.7c-0.2-0.2-0.4-0.5-0.6-0.9c-0.2-0.3-0.4-0.7-0.7-1.1
			c-0.2-0.4-0.4-0.9-0.7-1.4c-0.2-0.5-0.4-1-0.7-1.6c-0.2-0.6-0.4-1.1-0.7-1.7c-0.2-0.6-0.4-1.2-0.6-1.8c-0.2-0.6-0.4-1.2-0.5-1.8
			c-0.2-0.6-0.3-1.2-0.4-1.8c-0.1-0.6-0.2-1.1-0.3-1.7c-0.1-0.5-0.2-1-0.3-1.5c-0.2-0.9-0.3-1.7-0.3-2.3c0-0.3-0.1-0.5-0.1-0.7
			c0-0.1,0-0.2,0-0.2c-0.1-0.8,0.5-1.6,1.4-1.7c0.8-0.1,1.6,0.5,1.7,1.4C1288.2,120.5,1288.2,120.5,1288.2,120.5L1288.2,120.5z"/>
		<circle class="st0" cx="1578" cy="350.5" r="3.5"/>
		<circle class="st0" cx="1596.7" cy="311.4" r="5.6"/>
		<circle class="st0" cx="1555.3" cy="314.8" r="2.3"/>
		<circle class="st0" cx="1069.5" cy="255.7" r="4.2"/>
		<circle class="st0" cx="1022.8" cy="71.7" r="7.2"/>
		<circle class="st0" cx="1128.4" cy="157.2" r="2.6"/>
		<circle class="st0" cx="969.8" cy="220.8" r="2.6"/>
		<path class="st0" d="M1105.2,252.8c0,0,1.1,0.3,3.3,0.9c2.1,0.5,5.2,1.4,9.2,2.3c1,0.2,2,0.5,3.1,0.7c0.5,0.1,1.1,0.3,1.7,0.4
			c0.6,0.1,1.2,0.2,1.8,0.4c2.4,0.5,5,1,7.8,1.6c2.8,0.5,5.8,1.1,8.9,1.6c3.1,0.5,6.4,1.1,9.9,1.6c6.9,1,14.4,2,22.4,2.7
			c8,0.8,16.4,1.4,25.1,1.9c4.4,0.2,8.8,0.4,13.3,0.5c1.1,0,2.3,0.1,3.4,0.1c0.6,0,1.1,0,1.7,0c0.6,0,1.1,0,1.7,0
			c2.3,0,4.6,0.1,6.9,0.1c2.3,0,4.6,0,6.9,0c1.2,0,2.3,0,3.5,0c1.2,0,2.3,0,3.5,0c2.3,0,4.7-0.1,7-0.1c2.3-0.1,4.7-0.1,7-0.2
			c9.3-0.3,18.7-0.8,27.8-1.5c1.1-0.1,2.3-0.2,3.4-0.2c1.1-0.1,2.3-0.2,3.4-0.3c2.3-0.2,4.5-0.4,6.8-0.6c4.5-0.4,8.9-0.8,13.3-1.3
			c8.7-0.9,17.1-2,25.1-3.1c4-0.6,7.9-1.1,11.6-1.7c1.9-0.3,3.7-0.6,5.5-0.9c1.8-0.3,3.6-0.6,5.3-0.9c3.5-0.6,6.8-1.2,9.9-1.7
			c3.2-0.6,6.1-1.2,8.9-1.7c2.8-0.5,5.4-1.1,7.8-1.6c1.2-0.3,2.4-0.5,3.5-0.7c1.1-0.2,2.2-0.5,3.2-0.7c2-0.4,3.8-0.8,5.3-1.2
			c1.6-0.4,2.9-0.7,3.9-0.9c2.1-0.5,3.3-0.8,3.3-0.8s-1.1,0.3-3.3,0.8c-1.1,0.3-2.4,0.6-3.9,1c-1.5,0.4-3.3,0.8-5.3,1.3
			c-1,0.2-2,0.5-3.1,0.8c-1.1,0.3-2.3,0.5-3.5,0.8c-2.4,0.5-5,1.2-7.8,1.7c-2.8,0.6-5.8,1.3-8.9,1.9c-3.1,0.6-6.4,1.3-9.9,1.9
			c-1.7,0.3-3.5,0.7-5.3,1c-1.8,0.3-3.6,0.6-5.5,1c-3.7,0.7-7.6,1.3-11.6,1.9c-8,1.2-16.4,2.5-25.1,3.6c-4.4,0.6-8.8,1.1-13.3,1.6
			c-2.2,0.2-4.5,0.5-6.8,0.7c-1.1,0.1-2.3,0.2-3.4,0.3c-1.1,0.1-2.3,0.2-3.4,0.3c-9.2,0.9-18.5,1.5-27.9,2c-2.3,0.1-4.7,0.2-7,0.4
			c-2.3,0.1-4.7,0.2-7,0.3c-1.2,0-2.3,0.1-3.5,0.1c-1.2,0-2.3,0.1-3.5,0.1c-2.3,0-4.6,0.1-7,0.1c-2.3,0-4.6,0-6.9,0
			c-0.6,0-1.1,0-1.7,0c-0.6,0-1.1,0-1.7,0c-1.1,0-2.3,0-3.4,0c-4.5,0-9-0.2-13.4-0.3c-8.8-0.3-17.3-0.7-25.4-1.4
			c-8.1-0.6-15.7-1.5-22.7-2.3c-3.5-0.5-6.8-1-10-1.4c-3.2-0.5-6.2-1-9-1.5c-2.8-0.5-5.5-1-7.9-1.5c-0.6-0.1-1.2-0.2-1.8-0.3
			c-0.6-0.1-1.2-0.2-1.7-0.4c-1.1-0.2-2.2-0.5-3.2-0.7c-4.1-0.8-7.2-1.7-9.3-2.2c-2.1-0.5-3.3-0.8-3.3-0.8c-1.6-0.4-2.6-2-2.2-3.6
			S1103.5,252.4,1105.2,252.8C1105.1,252.8,1105.1,252.8,1105.2,252.8z"/>
		<path class="st7" d="M1329.1,93.4c7.1-12.1,5.3-22.5,2.8-28.2c-4.3-3.3-24.6,26.1-23.5,28C1308.5,93.1,1319.9,96.2,1329.1,93.4z"
			/>
		<path class="st2" d="M1263.6,50.6c0,0,0,0,0.1,0.1c0.1,0,0.2,0.1,0.3,0.1c0.3,0.1,0.7,0.3,1.3,0.4c0.5,0.1,1.2,0.3,1.8,0.4
			c0.7,0.1,1.4,0.2,2.1,0.2c0.4,0,0.7,0,1.1,0c0.3,0,0.7,0,1-0.1c0.3,0,0.6-0.1,0.9-0.1c0.3-0.1,0.6-0.1,0.8-0.2
			c0.2-0.1,0.5-0.1,0.7-0.2c0.2-0.1,0.3-0.1,0.5-0.2c0.3-0.1,0.4-0.2,0.4-0.2l0.1,0c0.8-0.3,1.6,0.1,1.9,0.8
			c0.3,0.8-0.1,1.6-0.8,1.9c-0.1,0-0.2,0.1-0.3,0.1c0,0-0.2,0-0.6,0.1c-0.2,0-0.4,0.1-0.7,0.1c-0.3,0-0.5,0-0.8,0c-0.3,0-0.6,0-1,0
			c-0.3,0-0.7-0.1-1.1-0.1c-0.4-0.1-0.7-0.1-1.1-0.2c-0.4-0.1-0.8-0.2-1.1-0.3c-0.7-0.2-1.5-0.5-2.1-0.8c-0.7-0.3-1.3-0.6-1.8-0.8
			c-0.5-0.3-0.9-0.5-1.2-0.7c-0.1-0.1-0.2-0.2-0.3-0.2C1263.6,50.6,1263.6,50.6,1263.6,50.6z"/>
		<path class="st2" d="M1338.6,24.2c0,0-0.1,0-0.2,0c-0.1,0-0.3,0.1-0.5,0.1c-0.4,0.1-0.9,0.3-1.6,0.6c-0.3,0.1-0.7,0.3-1,0.5
			c-0.4,0.2-0.7,0.4-1.1,0.6c-0.4,0.2-0.8,0.4-1.2,0.7c-0.4,0.2-0.8,0.5-1.1,0.8c-0.4,0.3-0.7,0.6-1.1,0.8c-0.3,0.3-0.7,0.6-1,0.9
			c-0.3,0.3-0.6,0.6-0.8,0.9c-0.2,0.3-0.5,0.5-0.7,0.8c-0.2,0.3-0.4,0.5-0.5,0.7c-0.2,0.2-0.2,0.4-0.3,0.6c-0.2,0.3-0.3,0.5-0.3,0.5
			l-0.1,0.1c-0.5,0.9-1.7,1.2-2.6,0.6c-0.9-0.5-1.2-1.7-0.6-2.6c0.1-0.1,0.2-0.3,0.3-0.4c0,0,0.2-0.2,0.5-0.5
			c0.2-0.2,0.4-0.4,0.6-0.6c0.2-0.2,0.5-0.4,0.8-0.7c0.3-0.2,0.7-0.5,1-0.7c0.4-0.3,0.8-0.5,1.2-0.7c0.4-0.2,0.9-0.4,1.3-0.7
			c0.5-0.2,0.9-0.4,1.4-0.6c0.5-0.2,0.9-0.4,1.4-0.5c0.5-0.2,0.9-0.3,1.3-0.4c0.4-0.1,0.9-0.2,1.3-0.3c0.4-0.1,0.8-0.2,1.1-0.2
			c0.7-0.1,1.3-0.2,1.7-0.2c0.2,0,0.4,0,0.5,0C1338.6,24.2,1338.6,24.2,1338.6,24.2z"/>
		<path class="st2" d="M1330.3,77.6c-3.1-8.1,10.6-19.5,7.1-33.1C1335.2,35.9,1327,31,1327,31s-0.2-15.4-13.8-18.1
			c-15.8-3.1-36.3,17-46,0.2c-7.1,7.5,1.2,14.8,3.8,15.6c-7.8,3.7-9.3,12.8-9.3,12.8s8.4-3.9,9.8-2.2c-5.1,5-13.1,4.8-13.1,4.8
			c6.2,10.6,19.8,7.2,19.8,7.2s35.7,14.3,46.9,23.3C1327.5,76.5,1329.8,77.3,1330.3,77.6z"/>
		<path class="st6" d="M1288.2,94.9c3.7,3.1,14.3,3.1,21.9-2c7.6-5.1,13.6-14.4,13.3-16.5c-0.4-2.2-1.3-21.7-1.3-21.7l-4.5-24.7
			l-39.2,4.4c0,0-6,12.7-3.7,22.3c1.4,6.2,5.2,7.3,5.2,9.7C1280,68.7,1283.7,91.1,1288.2,94.9z"/>
		
			<ellipse transform="matrix(0.9736 -0.2283 0.2283 0.9736 16.7647 300.6035)" class="st10" cx="1307.9" cy="77.8" rx="9.7" ry="6.7"/>
		<path class="st2" d="M1298,73.4c-1-0.3-0.5-1.9,0.5-1.6C1299.5,72.1,1299,73.7,1298,73.4L1298,73.4z"/>
		<path class="st2" d="M1319.9,54.4l-6.9,5.6c0,0,2.3-6.7-0.2-10.6c0,0-5.7,1.1-8.1,0.7c-7.8-21.6-22.6-9.1-22.6-9.1
			s-4.3-2.7-8.3,3.6l2.3-16l36.6-7.5l9.7,6.7l6.2,20.7L1319.9,54.4z"/>
		<path class="st6" d="M1318.5,60.5c0,0,0.2-9.1,6.2-10.3c11.2-2.3,11.1,16.4,2.3,20.2c-4.1,1.8-7.6-2.4-7.6-2.4L1318.5,60.5z"/>
		<path class="st7" d="M1330.4,56.7c0,0,0,0-0.1-0.1c0-0.1-0.1-0.2-0.2-0.4c-0.1-0.1-0.2-0.3-0.3-0.5c-0.2-0.2-0.3-0.4-0.5-0.6
			c-0.2-0.2-0.5-0.4-0.8-0.5c-0.3-0.2-0.6-0.3-1-0.3c-0.7-0.2-1.4-0.1-2.1,0.3c-0.6,0.3-1.1,0.9-1.5,1.5c-0.2,0.3-0.3,0.6-0.4,0.9
			c-0.1,0.3-0.2,0.6-0.3,0.9c-0.1,0.3-0.1,0.5-0.1,0.8c0,0.2-0.1,0.4-0.1,0.6c0,0.3,0,0.5,0,0.5l0,0c0,0.5-0.5,0.9-1,0.9
			s-0.9-0.5-0.9-1c0,0,0-0.1,0-0.1c0,0,0-0.2,0.1-0.6c0-0.2,0.1-0.4,0.1-0.7c0.1-0.3,0.1-0.6,0.3-0.9c0.1-0.3,0.2-0.7,0.4-1
			c0.2-0.4,0.4-0.7,0.7-1.1c0.5-0.7,1.3-1.4,2.2-1.7c0.5-0.2,0.9-0.3,1.4-0.3c0.5,0,0.9,0.1,1.4,0.2c0.4,0.1,0.8,0.3,1.1,0.5
			c0.3,0.2,0.6,0.5,0.8,0.7c0.2,0.3,0.4,0.5,0.6,0.7c0.1,0.2,0.2,0.4,0.3,0.6c0.1,0.2,0.1,0.3,0.2,0.4c0,0.1,0.1,0.1,0.1,0.1
			c0,0.1,0,0.3-0.1,0.3C1330.6,56.9,1330.5,56.8,1330.4,56.7z"/>
		<path class="st7" d="M1321,61.4c0,0,0.1-4.8,3.3-5.5c6-1.2,6,8.8,1.2,10.8c-2.2,1-4-1.3-4-1.3L1321,61.4z"/>
		<circle class="st14" cx="1324.3" cy="70.3" r="2.3"/>
		<path class="st10" d="M1285.3,53.9c0,0,0,0.1,0,0.3c0,0.1,0,0.2,0.1,0.3c0,0.1,0.1,0.3,0.1,0.4c0,0.1,0.1,0.3,0.1,0.5
			c0.1,0.2,0.1,0.3,0.2,0.5c0.1,0.2,0.2,0.3,0.2,0.5c0.1,0.2,0.2,0.4,0.3,0.5c0.1,0.2,0.2,0.3,0.3,0.5c0.1,0.2,0.2,0.3,0.3,0.5
			c0.1,0.1,0.2,0.3,0.3,0.4c0.1,0.1,0.2,0.2,0.3,0.3c0.1,0.1,0.2,0.2,0.3,0.3c0.1,0.1,0.2,0.1,0.2,0.2c0.1,0.1,0.2,0.2,0.2,0.2l0,0
			c0.2,0.1,0.2,0.4,0.1,0.5s-0.4,0.2-0.5,0.1c0,0,0,0,0,0c0,0-0.1-0.1-0.2-0.2c-0.1-0.1-0.2-0.1-0.2-0.2c-0.1-0.1-0.2-0.2-0.3-0.3
			c-0.1-0.1-0.2-0.3-0.3-0.4c-0.1-0.1-0.2-0.3-0.3-0.5c-0.1-0.2-0.2-0.3-0.3-0.5c-0.1-0.2-0.2-0.4-0.3-0.6c-0.1-0.2-0.2-0.4-0.2-0.6
			c-0.1-0.2-0.1-0.4-0.2-0.6c-0.1-0.2-0.1-0.4-0.1-0.5c0-0.2-0.1-0.3-0.1-0.5c0-0.2-0.1-0.3-0.1-0.4c0-0.1,0-0.2,0-0.3
			C1285.3,54,1285.3,53.9,1285.3,53.9z"/>
		<path class="st10" d="M1280.7,53.6c0,0-0.1,0.1-0.2,0.2c-0.1,0.1-0.1,0.2-0.2,0.3c-0.1,0.1-0.1,0.3-0.2,0.4c0,0.2-0.1,0.3-0.1,0.5
			c0,0.2-0.1,0.4-0.1,0.6c0,0.2,0,0.4,0,0.6c0,0.2,0,0.4,0,0.6c0.1,0.8,0.3,1.6,0.5,2.2c0.1,0.1,0.1,0.3,0.2,0.4
			c0.1,0.1,0.1,0.2,0.2,0.3c0.1,0.1,0.1,0.2,0.1,0.2l0,0c0.1,0.2,0.1,0.4-0.1,0.5s-0.4,0.1-0.5-0.1c0,0,0,0,0,0c0,0-0.1-0.1-0.1-0.3
			c0-0.1-0.1-0.2-0.1-0.3c-0.1-0.1-0.1-0.3-0.2-0.4c-0.2-0.6-0.4-1.5-0.3-2.4c0-0.2,0-0.4,0-0.7c0-0.2,0.1-0.4,0.1-0.6
			c0-0.2,0.1-0.4,0.1-0.6c0.1-0.2,0.1-0.3,0.2-0.5c0.1-0.1,0.1-0.3,0.2-0.4c0.1-0.1,0.1-0.2,0.2-0.3
			C1280.7,53.6,1280.7,53.6,1280.7,53.6z"/>
		<path class="st2" d="M1306.1,55.9l-18.1,4.2c0,0-1.6-3.9,3.7-5.3C1296.9,53.3,1306.1,55.9,1306.1,55.9z"/>
		<path class="st2" d="M1272.7,55.9l1.3,3.8l7.4,0.9c0,0-0.5-1.4-1.5-2.2S1272.7,55.9,1272.7,55.9z"/>
		<path class="st7" d="M1281.6,76.4c0.4,2,0.9,4.1,1.4,6.1c0,0,6.9,0.3,10.2-3.2C1295.6,76.7,1286.7,76.4,1281.6,76.4z"/>
		<path class="st6" d="M1284.5,65.9l-4.5,13.3c0,0,6.6,4.6,13.3,0c2.4-1.7,0.6-3.5,0.6-3.5L1284.5,65.9z"/>
		<path class="st2" d="M1272.7,14.2c0,0,0.1,0.1,0.4,0.2c0.3,0.1,0.6,0.3,1.1,0.5c0.1,0.1,0.3,0.1,0.4,0.2c0.1,0.1,0.3,0.1,0.4,0.1
			c0.3,0.1,0.6,0.2,1,0.3c0.2,0,0.4,0.1,0.6,0.1c0.2,0,0.4,0.1,0.6,0.1c0.4,0.1,0.8,0.1,1.3,0.1c0.9,0,1.9,0,2.9-0.1
			c1-0.1,2.1-0.3,3.3-0.5c2.2-0.5,4.6-1.1,7.1-1.7c2.4-0.6,5-1.1,7.4-1.4c1.2-0.2,2.4-0.2,3.5-0.3c0.6,0,1.1,0,1.7,0
			c0.5,0,1.1,0,1.6,0c0.5,0,1,0.1,1.4,0.1c0.5,0,0.9,0.1,1.3,0.1c0.4,0,0.8,0.1,1.1,0.2c0.4,0.1,0.7,0.1,1,0.2
			c1.2,0.2,1.8,0.4,1.8,0.4c1.6,0.3,2.5,1.9,2.2,3.4s-1.9,2.5-3.4,2.2c-0.1,0-0.2-0.1-0.4-0.1l-0.1,0c0,0-0.5-0.2-1.5-0.5
			c-0.2-0.1-0.5-0.2-0.8-0.2c-0.3-0.1-0.6-0.2-0.9-0.3c-0.3-0.1-0.7-0.2-1.1-0.3c-0.4-0.1-0.8-0.2-1.2-0.3c-0.4-0.1-0.9-0.2-1.3-0.2
			c-0.5-0.1-1-0.1-1.5-0.2c-1-0.1-2.1-0.2-3.2-0.2c-2.2-0.1-4.7,0.1-7.1,0.3c-2.5,0.2-5,0.5-7.3,0.7c-1.2,0.1-2.4,0.1-3.4,0
			c-1.1,0-2.1-0.2-3.1-0.4c-0.5-0.1-0.9-0.2-1.3-0.3c-0.2-0.1-0.4-0.1-0.6-0.2c-0.2-0.1-0.4-0.1-0.6-0.2c-0.4-0.1-0.7-0.3-1-0.4
			c-0.1-0.1-0.3-0.1-0.4-0.2c-0.1-0.1-0.3-0.2-0.4-0.2c-0.5-0.3-0.8-0.5-1.1-0.7C1272.8,14.3,1272.7,14.2,1272.7,14.2z"/>
		<path class="st2" d="M1285.3,45.8c0,0,0.2,0.1,0.4,0.2c0.1,0.1,0.3,0.1,0.5,0.2c0.2,0.1,0.5,0.1,0.7,0.2c0.1,0,0.3,0.1,0.4,0.1
			c0.2,0,0.3,0.1,0.5,0.1c0.2,0,0.3,0.1,0.5,0.1c0.2,0,0.4,0,0.6,0.1c0.8,0.1,1.6,0.1,2.6,0c0.9-0.1,2-0.3,3-0.5
			c1.1-0.3,2.2-0.6,3.3-1c2.3-0.8,4.6-1.8,7.1-2.7c1.2-0.5,2.5-0.9,3.7-1.4c1.2-0.4,2.5-0.8,3.7-1.1c0.3-0.1,0.6-0.2,0.9-0.2
			c0.3-0.1,0.6-0.1,0.9-0.2c0.6-0.1,1.2-0.2,1.8-0.3c0.6-0.1,1.2-0.2,1.7-0.3c0.6-0.1,1.1-0.1,1.6-0.2c1-0.1,2-0.1,2.9-0.1
			c0.2,0,0.4,0,0.6,0c0.2,0,0.4,0,0.6,0c0.4,0,0.7,0,1,0.1c0.6,0,1.1,0.1,1.4,0.1c0.3,0,0.5,0.1,0.5,0.1c1.6,0.2,2.7,1.6,2.6,3.2
			c-0.2,1.6-1.6,2.7-3.2,2.6c-0.1,0-0.3,0-0.4-0.1l-0.1,0c0,0-0.1,0-0.4-0.1c-0.3-0.1-0.7-0.2-1.2-0.3c-0.3,0-0.5-0.1-0.8-0.2
			c-0.2,0-0.3-0.1-0.5-0.1c-0.2,0-0.3,0-0.5-0.1c-0.7-0.1-1.5-0.2-2.4-0.3c-0.5,0-0.9,0-1.4-0.1c-0.5,0-1,0-1.5,0
			c-0.5,0-1.1,0-1.6,0.1c-0.3,0-0.6,0-0.8,0.1c-0.3,0-0.6,0.1-0.9,0.1c-1.2,0.1-2.4,0.3-3.6,0.6c-1.2,0.2-2.5,0.5-3.7,0.8
			c-2.5,0.6-5,1.3-7.5,1.7c-1.2,0.2-2.4,0.4-3.5,0.6c-1.1,0.1-2.2,0.1-3.2,0.1c-1-0.1-1.9-0.2-2.7-0.4c-0.2,0-0.4-0.1-0.6-0.1
			c-0.2-0.1-0.4-0.1-0.5-0.2c-0.2-0.1-0.3-0.1-0.5-0.2c-0.1-0.1-0.3-0.1-0.4-0.2c-0.3-0.1-0.5-0.2-0.7-0.3c-0.2-0.1-0.4-0.2-0.5-0.3
			C1285.5,45.9,1285.3,45.8,1285.3,45.8z"/>
		<path class="st2" d="M1287.6,13.7c0,0,0-0.1,0-0.4c0-0.2,0.1-0.6,0.3-1c0.2-0.4,0.5-0.8,1-1.3c0.5-0.4,1-0.9,1.7-1.3
			c0.7-0.4,1.5-0.7,2.3-1c0.9-0.3,1.8-0.5,2.7-0.6c0.5-0.1,1-0.1,1.5-0.2c0.5,0,1-0.1,1.5,0c1,0,2.1,0.1,3.1,0.2
			c1,0.1,2.1,0.3,3.1,0.6c0.5,0.1,1,0.2,1.5,0.4c0.5,0.1,1,0.3,1.4,0.4c0.5,0.1,0.9,0.3,1.4,0.5c0.4,0.2,0.9,0.3,1.3,0.5
			c0.8,0.3,1.6,0.7,2.3,1c0.7,0.4,1.4,0.7,1.9,1c0.6,0.3,1.1,0.6,1.4,0.8c0.8,0.5,1.2,0.7,1.2,0.7c1.4,0.8,1.8,2.6,1,4
			c-0.8,1.4-2.6,1.8-4,1c-0.1-0.1-0.3-0.2-0.4-0.3l-0.1-0.1c0,0-0.4-0.3-1-0.9c-0.3-0.3-0.7-0.6-1.1-1c-0.4-0.4-1-0.7-1.5-1.2
			c-0.6-0.4-1.2-0.9-1.9-1.3c-0.3-0.2-0.7-0.4-1.1-0.7c-0.4-0.2-0.7-0.4-1.1-0.6c-0.4-0.2-0.8-0.4-1.2-0.6c-0.4-0.2-0.8-0.4-1.2-0.6
			c-0.8-0.4-1.7-0.7-2.6-1c-0.9-0.3-1.8-0.5-2.7-0.7c-0.5-0.1-0.9-0.1-1.4-0.2c-0.5,0-0.9-0.1-1.3-0.1c-0.9,0-1.7,0-2.6,0.1
			c-0.8,0.1-1.6,0.3-2.2,0.5c-0.7,0.2-1.3,0.5-1.7,0.8c-0.5,0.3-0.8,0.7-1.1,1c-0.2,0.3-0.4,0.6-0.5,0.9
			C1287.6,13.6,1287.6,13.7,1287.6,13.7z"/>
		<path class="st2" d="M1299.2,9.4c0,0,0.1-0.1,0.3-0.3c0.2-0.2,0.6-0.4,1-0.7c0.2-0.1,0.5-0.3,0.8-0.4c0.3-0.1,0.6-0.3,1-0.4
			c0.2-0.1,0.4-0.1,0.6-0.2c0.2-0.1,0.4-0.1,0.6-0.2c0.4-0.1,0.9-0.2,1.3-0.3c0.9-0.1,1.9-0.2,3-0.2c1.1,0,2.2,0.1,3.4,0.4
			c1.2,0.2,2.4,0.5,3.5,1c1.2,0.5,2.3,1,3.4,1.7l0.4,0.3l0.4,0.3c0.3,0.2,0.5,0.4,0.8,0.6c0.5,0.4,1,0.8,1.5,1.3
			c0.5,0.4,0.9,0.9,1.3,1.4c0.2,0.2,0.4,0.5,0.6,0.8c0.2,0.3,0.4,0.5,0.5,0.8c0.3,0.5,0.7,1,0.9,1.6c0.1,0.3,0.3,0.5,0.4,0.8
			c0.1,0.3,0.2,0.5,0.3,0.8c0.1,0.3,0.2,0.5,0.3,0.8c0.1,0.3,0.2,0.5,0.3,0.8c0.1,0.3,0.2,0.5,0.3,0.8c0.1,0.2,0.1,0.5,0.2,0.7
			c0.3,1,0.4,1.9,0.6,2.7c0.1,0.8,0.2,1.5,0.2,2.1c0.1,1.1,0.1,1.8,0.1,1.8c0.1,1.3-0.9,2.4-2.2,2.4c-1.3,0.1-2.4-0.9-2.4-2.2
			c0-0.1,0-0.2,0-0.3l0-0.1c0,0,0-0.6,0.1-1.5c0-0.5,0-1.1,0-1.8c-0.1-0.7-0.1-1.4-0.2-2.3c0-0.2-0.1-0.4-0.1-0.6
			c0-0.2-0.1-0.4-0.1-0.6c0-0.2-0.1-0.4-0.1-0.7c-0.1-0.2-0.1-0.4-0.2-0.7c-0.1-0.2-0.1-0.5-0.2-0.7c-0.1-0.2-0.2-0.5-0.3-0.7
			c-0.2-0.5-0.4-0.9-0.6-1.4c-0.1-0.2-0.3-0.5-0.4-0.7c-0.1-0.2-0.3-0.5-0.4-0.7c-0.3-0.4-0.6-0.9-1-1.3c-0.3-0.4-0.7-0.8-1.1-1.2
			c-0.2-0.2-0.4-0.4-0.6-0.6l-0.3-0.3l-0.3-0.3c-0.9-0.7-1.8-1.3-2.9-1.9c-1-0.5-2.1-1-3.1-1.3c-1-0.3-2.1-0.6-3.1-0.7
			c-1-0.2-2-0.2-2.9-0.2c-0.4,0-0.9,0-1.3,0.1c-0.2,0-0.4,0-0.6,0.1c-0.2,0-0.4,0.1-0.6,0.1c-0.4,0.1-0.7,0.2-1,0.3
			c-0.3,0.1-0.6,0.2-0.8,0.3c-0.5,0.2-0.9,0.4-1.1,0.6C1299.3,9.3,1299.2,9.4,1299.2,9.4z"/>
		<path class="st2" d="M1258.4,39.2c0,0,0-0.1,0-0.2c0-0.1,0-0.3,0-0.6c0.1-0.5,0.3-1.2,0.7-2.1c0.4-0.8,1-1.7,1.7-2.6
			c0.7-0.9,1.6-1.8,2.5-2.6c0.5-0.4,0.9-0.8,1.4-1.1c0.5-0.4,1-0.7,1.5-1c0.5-0.3,1-0.6,1.4-0.8c0.5-0.2,0.9-0.5,1.3-0.7
			c0.4-0.2,0.8-0.4,1.2-0.5c0.4-0.1,0.7-0.3,0.9-0.3c0.5-0.2,0.8-0.3,0.8-0.3c0.8-0.3,1.6,0.1,1.8,0.9c0.3,0.8-0.1,1.6-0.9,1.8
			c-0.1,0-0.1,0-0.2,0.1l0,0c0,0-0.3,0-0.8,0.1c-0.2,0.1-0.5,0.1-0.9,0.2c-0.3,0.1-0.7,0.2-1.1,0.3c-0.4,0.1-0.8,0.3-1.3,0.4
			c-0.5,0.2-0.9,0.3-1.4,0.6c-0.5,0.2-1,0.4-1.5,0.7c-0.5,0.3-1,0.5-1.5,0.8c-1,0.6-1.9,1.3-2.7,2c-0.8,0.7-1.5,1.5-2,2.2
			c-0.5,0.7-0.8,1.4-1,1.8c-0.1,0.2-0.1,0.4-0.1,0.6C1258.4,39.1,1258.4,39.2,1258.4,39.2z"/>
		<path class="st6" d="M1306.5,134.7c2.2-0.5,8.9-2.9,9.6-3.4c1.7-1.1,8.3-5.2,8.8-9.8c0.4-4.6,0.9-5.4,1.3-5.8
			c0.4-0.4,4.4-7.6,5.4-9.8c1.6-3.5-2.8-5.9-4.9-3s-6.7,10.5-10.6,11.2C1316.1,114.1,1302.6,130.8,1306.5,134.7z"/>
		<path class="st6" d="M1316.8,113.9c0.6-5.9-1-10.6-1-10.6l3.1-9.7c0,0,7.9-10.7,8.2-14c0.2-2.7-2.8-2.8-2.8-2.8
			s-10.3,12.9-10.4,13.9c-0.1,1.1-5.8,16.2-5.8,16.2l0.4,16.5C1308.5,123.4,1316.8,121.9,1316.8,113.9z"/>
		<polygon class="st10" points="1314.3,93.6 1321.2,90.3 1318.6,94.4 		"/>
		<path class="st6" d="M1307.1,96c0,0,3.5-6.4,4.4-6.7c0.9-0.2,13.7-4.2,13.7-4.2s2.3,2.2,0.2,4.3c-1.6,1.5-9,3.8-11,4.4
			c-0.3,0.1-4.8,14.3-4.8,14.3L1307.1,96z"/>
		<polygon class="st10" points="1309.3,100.3 1309.3,105.9 1310.4,105.7 1310.4,101 1313.2,98.7 1316.8,100.1 1317.8,97.3 
			1312.1,96.1 		"/>
		<path class="st6" d="M1299.9,122.1c0,0,2.9-24.1,3.8-26c0.7-1.4,7.6-4.5,8.3-4.6c0.7-0.1,10.4,3.4,10.4,3.4s1.2,2.9-1.9,3.5
			c-2.8,0.6-7.7-1.1-7.7-1.1l-3.5,3l3.2,19.8L1299.9,122.1z"/>
		<path class="st10" d="M1307.6,114c-2.2-0.1-2.2-3.9-2.2-3.9l-2-0.3v-4.7l5,2L1307.6,114z"/>
		<path class="st6" d="M1294.1,122.7c0,0,4.6-22.9,8-22.8c3.4,0.2,9.4,3.5,9.9,5.4c0.6,2-2.4,8.7-2.4,8.7s-3.1,0.9-3.1-1.9
			s0.1-4.3,0.1-4.3l-2.5-1.1l1.2,15.9H1294.1z"/>
		<circle class="st9" cx="1365.8" cy="105.9" r="7.2"/>
		<polygon class="st5" points="1415.6,367.1 1458.9,362.1 1456.1,364.4 		"/>
		<path class="st15" d="M1317.5,276.6c-0.3,0-0.5-0.2-0.6-0.5c0-0.3,0.2-0.6,0.5-0.6c0.3,0,25.4-3.2,54.3-9.5
			c38.2-8.4,65.7-18.6,79.4-29.5c0.2-0.2,0.6-0.2,0.8,0.1c0.2,0.2,0.2,0.6-0.1,0.8c-17.5,13.9-53.1,23.8-79.9,29.7
			C1343,273.4,1317.8,276.5,1317.5,276.6C1317.6,276.6,1317.5,276.6,1317.5,276.6z"/>
		<path class="st15" d="M1490.7,164.8c0,0,5.1-2.4,12.4-6.8c1.8-1.1,3.8-2.3,5.8-3.6c2.1-1.3,4.2-2.7,6.4-4.2
			c1.1-0.7,2.2-1.5,3.3-2.3c1.1-0.8,2.2-1.6,3.4-2.4c2.2-1.6,4.5-3.3,6.7-5.1l1.7-1.3c0.5-0.4,1.1-0.9,1.6-1.3
			c1.1-0.9,2.2-1.8,3.2-2.7c2.1-1.8,4.1-3.7,6.1-5.5c1-0.9,1.9-1.8,2.8-2.7c0.9-0.9,1.8-1.8,2.6-2.7c0.2-0.2,0.4-0.4,0.6-0.6
			c0.2-0.2,0.4-0.4,0.6-0.7c0.4-0.4,0.8-0.9,1.2-1.3c0.8-0.8,1.5-1.7,2.2-2.5c1.4-1.6,2.6-3.1,3.7-4.4c1.1-1.3,2-2.5,2.7-3.5
			c1.4-2,2.3-3.1,2.3-3.1l0,0c0.2-0.3,0.5-0.3,0.8-0.1c0.3,0.2,0.3,0.5,0.1,0.8c0,0,0,0,0,0c0,0-0.8,1.1-2.3,3.1
			c-0.8,1-1.7,2.2-2.8,3.5c-1.1,1.3-2.4,2.8-3.8,4.4c-0.7,0.8-1.4,1.6-2.2,2.4c-0.4,0.4-0.8,0.8-1.2,1.3c-0.2,0.2-0.4,0.4-0.6,0.6
			c-0.2,0.2-0.4,0.4-0.6,0.6c-0.9,0.9-1.7,1.8-2.7,2.6c-0.9,0.9-1.9,1.8-2.8,2.7c-2,1.8-4,3.6-6.2,5.4c-1.1,0.9-2.1,1.8-3.3,2.7
			c-0.6,0.4-1.1,0.9-1.7,1.3l-1.7,1.3c-2.2,1.7-4.5,3.4-6.8,5c-1.1,0.8-2.3,1.6-3.4,2.4c-1.1,0.8-2.2,1.5-3.4,2.3
			c-2.2,1.5-4.4,2.8-6.5,4.1c-2.1,1.3-4.1,2.4-5.9,3.5C1495.8,162.4,1490.7,164.8,1490.7,164.8z"/>
		<path class="st9" d="M1405.1,346.9c-1.5-8.5-0.8-15.1,0.7-18.3c-1.5,0.2-2.9,0.3-4.3,0.6c-1.3,4.6-1.5,11.2-0.2,18.4
			c1.5,8.8,4.9,17,9.7,23.8c1.5-0.1,3-0.1,4.6-0.2C1410.4,364.5,1406.7,356,1405.1,346.9z"/>
		<path class="st9" d="M1406.6,371.6c-6.4-8.2-8.2-17.7-8.6-24.4c-0.4-7.6,0.9-14.1,2.5-17.8c-1.5,0.3-3,0.6-4.4,0.9
			c-1.4,4.3-2.3,10.3-1.9,17.1c0.4,6.7,2.1,16,7.8,24.4C1403.3,371.7,1404.8,371.6,1406.6,371.6z"/>
		<path class="st9" d="M1436.8,190.4l0.2-0.1c-2.8-6.8-7.4-13.3-14.1-19c-20.1-11-52.5-14.6-81-11.7l0.4,3.8
			C1381.7,159.5,1427.9,168.5,1436.8,190.4z"/>
		<path class="st9" d="M1437.5,191.6c-1.2-3.1-2.7-6.1-4.6-9c-19.4-13.2-54.9-17.7-85.8-14.6l0.4,3.8
			C1382.4,168.3,1422.5,174.9,1437.5,191.6z"/>
	</g>
	<g id="Ball">
		<path class="st0" d="M1105.4,156.9c0,0,0,0.1,0.1,0.4c0,0.1,0.1,0.3,0.1,0.4c0.1,0.2,0.1,0.3,0.2,0.6c0.1,0.4,0.3,1,0.5,1.6
			c0.2,0.6,0.5,1.3,0.7,2.1c0.3,0.8,0.5,1.6,0.8,2.5c0.1,0.4,0.2,0.9,0.4,1.4c0.1,0.2,0.1,0.5,0.2,0.7c0.1,0.2,0.1,0.5,0.2,0.7
			c0.1,0.5,0.2,1,0.3,1.5c0.1,0.5,0.2,1,0.3,1.6c0.1,0.5,0.2,1.1,0.2,1.6c0.1,0.5,0.1,1.1,0.2,1.6c0,0.5,0.1,1.1,0.1,1.6
			c0,0.3,0,0.5,0.1,0.8c0,0.3,0,0.5,0,0.8c0,0.5,0,1.1,0,1.6c0,0.5,0,1,0,1.5c0,0.5,0,1-0.1,1.5c0,0.5-0.1,1-0.1,1.4
			c0,0.5-0.1,0.9-0.1,1.3c0,0.4-0.1,0.8-0.2,1.2c-0.1,0.8-0.3,1.5-0.4,2.2c-0.1,0.6-0.3,1.2-0.4,1.6c-0.2,0.9-0.3,1.4-0.3,1.4
			s0.1-0.5,0.2-1.4c0.1-0.5,0.2-1,0.3-1.7c0.1-0.6,0.1-1.4,0.2-2.2c0-0.4,0.1-0.8,0.1-1.2c0-0.4,0-0.9,0-1.3c0-0.5,0-0.9,0-1.4
			c0-0.5,0-1,0-1.5c0-0.5,0-1-0.1-1.5c0-0.5-0.1-1-0.1-1.5c0-0.3,0-0.5-0.1-0.8c0-0.3-0.1-0.5-0.1-0.8c-0.1-0.5-0.2-1-0.2-1.6
			c-0.1-0.5-0.2-1-0.3-1.6c-0.1-0.5-0.2-1-0.3-1.5c-0.1-0.5-0.2-1-0.4-1.5c-0.1-0.5-0.3-1-0.4-1.4c-0.1-0.2-0.1-0.5-0.2-0.7
			c-0.1-0.2-0.2-0.5-0.2-0.7c-0.2-0.4-0.3-0.9-0.4-1.3c-0.3-0.8-0.6-1.7-0.9-2.4c-0.3-0.7-0.6-1.4-0.8-2c-0.3-0.6-0.5-1.1-0.7-1.6
			c-0.1-0.2-0.2-0.4-0.3-0.6c-0.1-0.2-0.1-0.3-0.2-0.4c-0.1-0.2-0.1-0.4-0.1-0.4c-0.2-0.6,0.1-1.3,0.7-1.5
			C1104.5,155.9,1105.2,156.2,1105.4,156.9C1105.4,156.8,1105.4,156.8,1105.4,156.9L1105.4,156.9z"/>
		<path class="st0" d="M1000.2,212.7c0,0,0.1,0,0.3,0c0.2,0,0.5,0,0.8,0c0.7,0,1.7,0,2.9,0c0.6,0,1.2,0,1.9,0.1
			c0.7,0,1.4,0.1,2.1,0.2c0.7,0.1,1.5,0.2,2.3,0.2c0.8,0.1,1.6,0.2,2.3,0.4c0.8,0.2,1.6,0.3,2.3,0.5c0.8,0.2,1.5,0.3,2.2,0.6
			c0.7,0.2,1.4,0.4,2,0.6c0.3,0.1,0.6,0.2,0.9,0.3c0.1,0.1,0.3,0.1,0.4,0.2c0.1,0.1,0.3,0.1,0.4,0.2c0.5,0.2,1,0.4,1.5,0.6
			c0.4,0.2,0.8,0.4,1.1,0.6c0.6,0.3,0.9,0.5,0.9,0.5s-0.4-0.1-1-0.4c-0.3-0.1-0.7-0.3-1.1-0.4c-0.5-0.1-1-0.3-1.5-0.4
			c-0.1,0-0.3-0.1-0.4-0.1c-0.1,0-0.3-0.1-0.4-0.1c-0.3-0.1-0.6-0.1-0.9-0.2c-0.6-0.2-1.3-0.3-2-0.4c-0.7-0.1-1.4-0.2-2.2-0.3
			c-0.7-0.1-1.5-0.1-2.3-0.2c-0.8,0-1.5,0-2.3-0.1c-0.8,0-1.5,0-2.2,0c-0.7,0-1.4,0.1-2.1,0.1c-0.7,0-1.3,0.1-1.8,0.2
			c-1.1,0.1-2.1,0.2-2.7,0.3c-0.3,0-0.6,0.1-0.7,0.1c-0.2,0-0.3,0-0.3,0l0,0c-0.8,0.2-1.6-0.4-1.8-1.2c-0.2-0.8,0.4-1.6,1.2-1.8
			C1000.1,212.7,1000.2,212.7,1000.2,212.7z"/>
		<path class="st16" d="M1023.4,240.3c0,0,0.3-0.2,1-0.6c0.1,0,0.2-0.1,0.2-0.1c0.1-0.1,0.2-0.1,0.3-0.2c0.2-0.1,0.5-0.2,0.7-0.4
			c0.1-0.1,0.3-0.1,0.4-0.2c0.1-0.1,0.3-0.1,0.4-0.2c0.3-0.1,0.6-0.2,0.9-0.4c0.3-0.1,0.6-0.2,1-0.3c0.3-0.1,0.7-0.2,1.1-0.3
			c0.4-0.1,0.7-0.2,1.1-0.3c0.4-0.1,0.8-0.2,1.2-0.2c0.8-0.2,1.6-0.2,2.5-0.4c0.8-0.1,1.7-0.1,2.5-0.1c0.8,0,1.7,0,2.5,0.1
			c0.4,0,0.8,0.1,1.2,0.1c0.4,0,0.8,0.1,1.2,0.2c0.4,0.1,0.8,0.1,1.1,0.2c0.4,0.1,0.7,0.2,1.1,0.2c0.7,0.1,1.3,0.3,1.9,0.5
			c0.6,0.2,1.1,0.4,1.6,0.5c0.2,0.1,0.5,0.2,0.7,0.2c0.2,0.1,0.4,0.2,0.5,0.2c0.7,0.3,1,0.5,1,0.5s-0.4-0.1-1.1-0.3
			c-0.2,0-0.4-0.1-0.6-0.1c-0.2,0-0.4-0.1-0.7-0.1c-0.5-0.1-1-0.2-1.6-0.3c-0.6-0.1-1.2-0.1-1.9-0.2c-0.3,0-0.7,0-1.1,0
			c-0.4,0-0.7,0-1.1,0c-0.4,0-0.7,0-1.1,0.1c-0.4,0-0.8,0-1.2,0.1c-0.8,0.1-1.6,0.2-2.3,0.4c-0.8,0.1-1.5,0.3-2.3,0.5
			c-0.7,0.2-1.4,0.4-2.1,0.7c-0.3,0.1-0.7,0.2-1,0.4c-0.3,0.1-0.6,0.3-0.9,0.4c-0.3,0.1-0.6,0.3-0.8,0.4c-0.3,0.1-0.5,0.3-0.8,0.4
			c-0.2,0.1-0.5,0.3-0.7,0.4c-0.1,0.1-0.2,0.1-0.3,0.2c-0.1,0.1-0.2,0.1-0.2,0.2c-0.2,0.1-0.3,0.2-0.4,0.3c-0.1,0.1-0.1,0.1-0.2,0.1
			c-0.1,0.1-0.1,0.1-0.2,0.2c-0.5,0.5-0.8,0.7-0.8,0.7l0,0c-1,0.9-2.4,0.8-3.3-0.2c-0.9-1-0.8-2.4,0.2-3.3
			C1023.2,240.5,1023.3,240.4,1023.4,240.3z"/>
		<path class="st16" d="M1018.3,200c0,0,0.7,0.4,1.9,1.3c0.6,0.3,1.4,0.8,2.3,1.3c1,0.5,2,1.1,3.3,1.7c1.3,0.6,2.6,1.3,4.2,1.9
			c0.8,0.3,1.6,0.7,2.4,1c0.8,0.3,1.7,0.7,2.6,1.1c1.8,0.7,3.8,1.5,5.8,2.2c1,0.4,2.1,0.8,3.2,1.1c1.1,0.4,2.2,0.8,3.3,1.2
			c1.1,0.4,2.3,0.8,3.5,1.2c1.2,0.4,2.4,0.8,3.6,1.2c2.5,0.8,5,1.6,7.7,2.4c5.3,1.6,10.9,3.2,16.7,4.7c5.8,1.5,11.9,2.9,18.1,4.3
			c1.5,0.3,3.1,0.7,4.7,1c0.8,0.2,1.6,0.3,2.3,0.5c0.8,0.2,1.6,0.3,2.4,0.5c1.6,0.3,3.1,0.6,4.7,0.9c1.6,0.3,3.2,0.6,4.7,0.8
			c3.2,0.6,6.3,1,9.5,1.6c0.8,0.1,1.6,0.2,2.4,0.4c0.8,0.1,1.6,0.2,2.4,0.3c1.6,0.2,3.2,0.5,4.7,0.6c6.3,0.8,12.5,1.5,18.5,1.9
			c1.5,0.1,3,0.2,4.5,0.3c1.5,0.1,2.9,0.2,4.4,0.2c0.7,0,1.4,0.1,2.2,0.1c0.7,0,1.4,0.1,2.1,0.1c1.4,0,2.8,0.1,4.2,0.1
			c2.8,0.1,5.5,0.1,8.1,0.1c2.6,0,5.1-0.1,7.5-0.2c2.4,0,4.7-0.2,6.9-0.4c1.1-0.1,2.2-0.1,3.2-0.2c1-0.1,2-0.2,3-0.3
			c1-0.1,1.9-0.2,2.8-0.3c0.5,0,0.9-0.1,1.3-0.1c0.4,0,0.9-0.1,1.3-0.2c1.7-0.2,3.2-0.4,4.6-0.6c0.7-0.1,1.4-0.2,2-0.3
			c0.6-0.1,1.2-0.2,1.7-0.3c1.1-0.2,2-0.4,2.7-0.5c1.5-0.3,2.3-0.4,2.3-0.4s-0.8,0.2-2.3,0.4c-0.7,0.1-1.7,0.3-2.7,0.5
			c-0.5,0.1-1.1,0.2-1.7,0.3c-0.6,0.1-1.3,0.2-2,0.3c-1.4,0.2-2.9,0.5-4.6,0.7c-0.4,0.1-0.8,0.1-1.3,0.2c-0.4,0.1-0.9,0.1-1.3,0.2
			c-0.9,0.1-1.9,0.2-2.8,0.3c-1,0.1-2,0.2-3,0.3c-1,0.1-2.1,0.2-3.2,0.3c-2.2,0.2-4.5,0.4-6.9,0.5c-2.4,0.1-4.9,0.3-7.5,0.3
			c-2.6,0-5.3,0.1-8.1,0.1c-1.4,0-2.8,0-4.2,0c-0.7,0-1.4,0-2.1-0.1c-0.7,0-1.4-0.1-2.2-0.1c-1.5-0.1-2.9-0.1-4.4-0.2
			c-1.5-0.1-3-0.2-4.5-0.3c-6-0.3-12.3-0.9-18.6-1.6c-1.6-0.2-3.2-0.4-4.7-0.6c-0.8-0.1-1.6-0.2-2.4-0.3c-0.8-0.1-1.6-0.2-2.4-0.3
			c-3.2-0.5-6.4-0.9-9.6-1.4c-1.6-0.3-3.2-0.5-4.8-0.8c-1.6-0.3-3.2-0.6-4.8-0.8c-0.8-0.1-1.6-0.3-2.4-0.4c-0.8-0.2-1.6-0.3-2.4-0.5
			c-1.6-0.3-3.1-0.6-4.7-0.9c-6.2-1.3-12.3-2.6-18.2-4c-5.9-1.4-11.5-2.9-16.9-4.4c-2.7-0.8-5.3-1.5-7.8-2.3
			c-1.2-0.4-2.5-0.7-3.7-1.1c-1.2-0.4-2.4-0.8-3.5-1.1c-1.2-0.4-2.3-0.8-3.4-1.1c-1.1-0.4-2.2-0.7-3.2-1.1c-2.1-0.8-4.1-1.4-5.9-2.2
			c-0.9-0.4-1.8-0.7-2.7-1c-0.9-0.4-1.7-0.7-2.5-1c-1.6-0.6-3-1.3-4.3-1.9c-1.3-0.6-2.4-1.2-3.5-1.7c-1-0.6-1.9-1-2.6-1.4
			c-1.3-0.8-2-1.2-2-1.2c-0.8-0.5-1.1-1.6-0.5-2.4C1016.3,199.7,1017.4,199.4,1018.3,200C1018.2,200,1018.2,200,1018.3,200
			L1018.3,200z"/>
		<path class="st0" d="M1096,184.2c0,0,0.4-0.6,1.1-1.7c0.3-0.6,0.7-1.2,1.1-2c0.2-0.4,0.4-0.9,0.6-1.3c0.1-0.2,0.2-0.5,0.3-0.7
			c0.1-0.3,0.2-0.5,0.3-0.8c0.9-2.2,1.8-4.9,2.2-8.2c0-0.4,0.1-0.8,0.1-1.2c0-0.2,0.1-0.4,0.1-0.6c0-0.2,0-0.4,0-0.6
			c0-0.4,0.1-0.9,0.1-1.3c0-0.4,0-0.9,0-1.4c-0.1-1.8-0.2-3.7-0.6-5.7c-0.4-2-0.9-4-1.7-6c-0.8-2-1.7-4-2.9-6c-1.2-2-2.5-3.9-4-5.8
			c-1.5-1.8-3.3-3.6-5.1-5.2c-1.9-1.6-3.9-3.2-6.1-4.5c-0.5-0.4-1.1-0.7-1.7-1l-0.8-0.5l-0.9-0.5l-0.9-0.5l-0.4-0.2l-0.4-0.2
			c-0.6-0.3-1.2-0.6-1.7-0.8c-4.8-2.2-9.9-3.6-15.2-4.4c-5.3-0.7-10.6-0.7-15.8,0.1c-0.6,0.1-1.3,0.2-1.9,0.3
			c-0.6,0.1-1.3,0.3-1.9,0.4c-0.6,0.2-1.3,0.3-1.9,0.5c-0.6,0.2-1.2,0.4-1.8,0.6c-2.4,0.8-4.8,1.7-7,2.9c-2.2,1.1-4.3,2.5-6.2,3.9
			c-1.9,1.4-3.6,3-5.2,4.7c-0.2,0.2-0.4,0.4-0.6,0.6c-0.2,0.2-0.4,0.4-0.5,0.7c-0.2,0.2-0.4,0.4-0.5,0.7l-0.3,0.3l0,0c0,0,0,0.1,0,0
			l-0.1,0.1l-0.1,0.2c-0.3,0.5-0.7,0.9-1,1.4l-0.2,0.3l-0.2,0.3c-0.1,0.2-0.3,0.5-0.4,0.7c-0.1,0.2-0.3,0.4-0.4,0.7l-0.2,0.3
			l-0.2,0.4c-0.2,0.5-0.5,0.9-0.7,1.4c-0.1,0.2-0.2,0.5-0.3,0.7c-0.1,0.2-0.2,0.5-0.3,0.7c-0.2,0.5-0.4,0.9-0.6,1.4
			c-0.2,0.5-0.3,0.9-0.5,1.4l-0.1,0.3l-0.1,0.4c-0.1,0.2-0.1,0.5-0.2,0.7c-0.1,0.5-0.3,0.9-0.4,1.4c-0.1,0.5-0.2,0.9-0.3,1.4
			c0,0.2-0.1,0.4-0.1,0.7c0,0.2-0.1,0.4-0.1,0.7c-0.1,0.4-0.1,0.9-0.2,1.3c-0.1,0.9-0.1,1.7-0.2,2.5c0,0.8,0,1.6,0,2.4
			c0.1,0.8,0.1,1.5,0.1,2.2c0.1,0.7,0.2,1.4,0.2,2c0.1,0.6,0.2,1.3,0.3,1.8c0,0.1,0.1,0.3,0.1,0.4c0,0.1,0.1,0.3,0.1,0.4
			c0.1,0.3,0.1,0.5,0.2,0.8c0.1,0.5,0.2,1,0.4,1.4c0.1,0.4,0.3,0.8,0.4,1.2c0.1,0.4,0.2,0.7,0.3,1c0.5,1.2,0.7,1.8,0.7,1.8
			s-0.3-0.6-0.8-1.8c-0.1-0.3-0.3-0.6-0.4-1c-0.1-0.4-0.3-0.8-0.5-1.2c-0.2-0.4-0.3-0.9-0.5-1.4c-0.1-0.3-0.2-0.5-0.3-0.8
			c0-0.1-0.1-0.3-0.1-0.4c0-0.1-0.1-0.3-0.1-0.4c-0.7-2.3-1.2-5.2-1.3-8.6c-0.1-3.4,0.4-7.2,1.7-11.2c0.1-0.5,0.4-1,0.5-1.5
			c0.1-0.2,0.2-0.5,0.3-0.8c0.1-0.3,0.2-0.5,0.3-0.7c0.2-0.5,0.5-1,0.7-1.5l0.2-0.4l0.2-0.4c0.1-0.2,0.3-0.5,0.4-0.7
			c0.1-0.2,0.3-0.5,0.4-0.8c0.1-0.1,0.1-0.3,0.2-0.4l0.2-0.3c0.3-0.5,0.6-0.9,0.9-1.4l0.1-0.2l0.1-0.1l0.1-0.1l0.3-0.4
			c0.2-0.2,0.4-0.5,0.5-0.7c0.2-0.2,0.4-0.5,0.5-0.7c0.2-0.2,0.4-0.5,0.6-0.7c1.6-1.8,3.3-3.6,5.3-5.2c2-1.6,4.2-3,6.5-4.3
			c2.3-1.2,4.8-2.3,7.3-3.2c0.6-0.2,1.3-0.4,1.9-0.6c0.7-0.2,1.3-0.4,2-0.5c0.7-0.2,1.3-0.3,2-0.4c0.7-0.1,1.4-0.2,2-0.4
			c5.4-0.9,11.1-1,16.6-0.2c5.5,0.8,10.9,2.4,16,4.7c0.6,0.3,1.2,0.6,1.9,0.9l0.5,0.2l0.4,0.2l0.9,0.5l0.9,0.5l0.9,0.5
			c0.6,0.4,1.2,0.7,1.7,1.1c2.3,1.5,4.4,3.1,6.3,4.9c1.9,1.8,3.7,3.6,5.3,5.6c1.6,2,2.9,4.1,4.1,6.2c1.1,2.1,2.1,4.3,2.8,6.4
			c0.7,2.2,1.2,4.3,1.5,6.4c0.1,0.5,0.1,1,0.2,1.5c0,0.5,0.1,1,0.1,1.5c0,0.5,0,1,0.1,1.5c0,0.5,0,1,0,1.4c0,0.5,0,0.9-0.1,1.4
			c0,0.5-0.1,0.9-0.1,1.4c0,0.2,0,0.4-0.1,0.7c0,0.2-0.1,0.4-0.1,0.7c-0.1,0.4-0.1,0.9-0.2,1.3c-0.6,3.3-1.7,6.1-2.8,8.2
			c-0.1,0.3-0.3,0.5-0.4,0.8c-0.1,0.3-0.3,0.5-0.4,0.7c-0.3,0.5-0.5,0.9-0.8,1.3c-0.5,0.8-0.9,1.4-1.3,2
			C1096.4,183.6,1096,184.2,1096,184.2z"/>
		
			<ellipse transform="matrix(0.2112 -0.9774 0.9774 0.2112 673.4725 1167.5593)" class="st9" cx="1060.1" cy="166.5" rx="39.7" ry="47.5"/>
		<path class="st0" d="M1100,147.6c2.2,5.2,3.2,10.9,2.8,16.6c-1.7,21.9-24.2,37.2-50.1,34.2c-15.6-1.8-28.9-9.9-36.7-20.8
			c6.2,14.8,22,26.4,41.1,28.7c26,3.1,48.4-12.2,50.1-34.2C1107.9,163.3,1105.1,154.8,1100,147.6z"/>
		<path class="st5" d="M1066.7,203C1066.7,203,1066.7,203,1066.7,203c-2,0-4.1-0.1-6.1-0.4c-23.8-2.8-41.9-21.5-40.3-41.7
			c0.7-8.9,5.2-17,12.6-22.9c7.4-5.8,17.1-9,27.4-9c2,0,4,0.1,6.1,0.4c23.8,2.8,41.9,21.5,40.3,41.7c-0.7,8.9-5.2,17-12.6,22.9
			C1086.8,199.8,1077,203,1066.7,203z M1060.3,130c-20.9,0-37.7,13.3-39.1,31c-1.5,19.7,16.2,37.9,39.5,40.7c2,0.2,4,0.4,6,0.4
			c20.9,0,37.7-13.3,39.1-31c1.5-19.7-16.2-37.9-39.5-40.7C1064.3,130.1,1062.3,130,1060.3,130z"/>
		<path class="st2" d="M1069.5,164.8C1069.4,164.8,1069.4,164.8,1069.5,164.8l-48.1-7.9c-0.2,0-0.4-0.3-0.4-0.5
			c0-0.2,0.3-0.4,0.5-0.4l47.3,7.8l-10.3-33.4c-0.1-0.2,0.1-0.5,0.3-0.6c0.2-0.1,0.5,0.1,0.6,0.3l10.5,34.1c0,0.1,0,0.3-0.1,0.4
			C1069.7,164.8,1069.6,164.8,1069.5,164.8z"/>
		<path class="st5" d="M1044.8,198.7c-0.1,0-0.2,0-0.3-0.1c-0.2-0.1-0.2-0.4-0.1-0.6l24.6-33.9c0.1-0.1,0.2-0.2,0.3-0.2
			c0.1,0,0.3,0,0.4,0.1l26.1,28.8c0.2,0.2,0.2,0.5,0,0.6c-0.2,0.2-0.5,0.2-0.6,0l-25.7-28.4l-24.3,33.4
			C1045.1,198.6,1045,198.7,1044.8,198.7z"/>
		<path class="st2" d="M1069.5,164.8c-0.2,0-0.4-0.1-0.4-0.3c-0.1-0.2,0-0.5,0.3-0.6l32.6-11.5c0.2-0.1,0.5,0,0.6,0.3
			c0.1,0.2,0,0.5-0.3,0.6l-32.6,11.5C1069.6,164.8,1069.5,164.8,1069.5,164.8z"/>
		<polygon class="st5" points="1059.9,177.5 1080.7,176.7 1082.8,159.6 1065.5,151.4 1050.8,161.3 		"/>
		<path class="st5" d="M1065.4,127.1c-0.8-0.1-1.6-0.3-2.4-0.4c-6.3-0.7-12.4-0.4-18.1,0.9c-0.4,0.6-1.5,2.5-1.7,5.1
			c0,0,11.1-0.1,17.2,2.2c1.2-0.3,7.6-4,12-4C1069.8,128.5,1066.2,127.4,1065.4,127.1z"/>
		<path class="st5" d="M1101.6,188.1c0.2-1.4,0.4-3,0.4-3.6c0,0-5.2,3.2-10.4,4.2c-3.4,6.6-10.2,11.5-10.2,11.5
			c1,0.8,3.1,1.3,4.2,1.6C1092.3,198.6,1097.8,193.9,1101.6,188.1z"/>
		<path class="st5" d="M1095.9,142.6c0,0-1.3-1-2.8-1.1c0,0,4.6,8.3,4.3,12.9c3.2,2.2,8.7,10.1,8.7,10.1l0.7-0.7
			C1105.6,156.1,1101.7,148.7,1095.9,142.6z"/>
		<path class="st5" d="M1031.8,188.5c1.3,0.8,10.8,3.2,17.6,3.4c0.6,0.9,4.7,7.4,9.1,10c-3.5,2-9.9,2.7-10.3,2.6
			c-10.7-2.4-15.5-7.9-16.5-9C1030.8,194.4,1031.8,188.5,1031.8,188.5z"/>
		<path class="st5" d="M1027.2,144.5c0.1,1.5,1.3,7.8,3.6,13.5c-2.3,2.4-8,10.5-9.4,12c-2.7-1.3-6.7-4.7-6.9-5.6
			c-0.6-2.8,0.8-13,3.2-16.1C1018.2,147.5,1021.2,144.8,1027.2,144.5z"/>
		
			<ellipse transform="matrix(0.8902 -0.4555 0.4555 0.8902 49.6068 490.2289)" class="st0" cx="1041.9" cy="142.2" rx="2.8" ry="1.6"/>
		<path class="st0" d="M1044,115.4c0,0-0.7,0.1-1.9,0.4c-0.6,0.1-1.3,0.3-2.1,0.5c-0.8,0.2-1.7,0.4-2.7,0.7
			c-0.2,0.1-0.5,0.1-0.7,0.2c-0.3,0.1-0.5,0.2-0.8,0.2c-0.5,0.2-1.1,0.3-1.6,0.5c-0.5,0.2-1.1,0.4-1.7,0.6c-0.3,0.1-0.6,0.2-0.9,0.3
			c-0.3,0.1-0.6,0.2-0.9,0.4c-1.2,0.5-2.3,1-3.5,1.6c-1.2,0.6-2.4,1.2-3.5,1.9c-1.2,0.7-2.3,1.4-3.4,2.2c-1.1,0.8-2.1,1.6-3.1,2.4
			c-1,0.8-1.9,1.6-2.7,2.4c-0.8,0.8-1.6,1.6-2.3,2.3c-0.7,0.8-1.3,1.5-1.8,2.1c-0.5,0.7-0.9,1.2-1.3,1.7c-0.3,0.5-0.6,0.9-0.7,1.2
			c-0.2,0.3-0.2,0.4-0.2,0.4s0.1-0.2,0.2-0.5c0.1-0.3,0.3-0.8,0.5-1.3c0.5-1.1,1.3-2.6,2.6-4.3c0.6-0.8,1.3-1.7,2.1-2.6
			c0.8-0.9,1.7-1.8,2.6-2.7c0.5-0.4,1-0.9,1.5-1.3c0.3-0.2,0.5-0.4,0.8-0.6c0.3-0.2,0.5-0.4,0.8-0.6c1.1-0.8,2.3-1.6,3.5-2.3
			c1.2-0.7,2.4-1.4,3.7-2c0.6-0.3,1.2-0.6,1.9-0.8c0.6-0.3,1.2-0.5,1.9-0.7c0.3-0.1,0.6-0.2,0.9-0.3c0.3-0.1,0.6-0.2,0.9-0.3
			c0.6-0.2,1.2-0.3,1.8-0.5c0.6-0.2,1.1-0.3,1.7-0.4c0.3-0.1,0.5-0.1,0.8-0.2c0.3,0,0.5-0.1,0.8-0.1c1-0.2,2-0.3,2.8-0.4
			c0.8-0.1,1.6-0.1,2.2-0.1C1043.3,115.4,1044,115.4,1044,115.4z"/>
		<path class="st2" d="M1045.9,194.9c0,0,0.3,0.1,0.8,0.4c0.5,0.2,1.2,0.6,2.2,1c1,0.4,2.1,0.9,3.5,1.5c1.3,0.6,2.9,1.1,4.6,1.8
			c0.8,0.3,1.7,0.6,2.6,1c0.9,0.3,1.9,0.7,2.8,1c1,0.3,2,0.7,3,1c1,0.3,2.1,0.6,3.2,1c2.1,0.7,4.4,1.3,6.7,1.9
			c1.1,0.3,2.3,0.6,3.4,0.9c1.2,0.3,2.3,0.6,3.5,0.9c2.3,0.5,4.7,1.1,7,1.6c2.3,0.5,4.6,0.9,6.8,1.3c2.2,0.4,4.4,0.7,6.4,1.1
			c0.5,0.1,1,0.2,1.5,0.2c0.5,0.1,1,0.1,1.5,0.2c1,0.1,1.9,0.3,2.8,0.4c1.8,0.2,3.4,0.5,4.9,0.6c1.5,0.2,2.7,0.3,3.8,0.4
			c2.1,0.2,3.3,0.3,3.3,0.3s-1.2-0.1-3.3-0.2c-1.1-0.1-2.3-0.2-3.8-0.3c-1.5-0.1-3.1-0.3-4.9-0.4c-0.9-0.1-1.8-0.2-2.8-0.3
			c-0.5,0-1-0.1-1.5-0.1c-0.5,0-1-0.1-1.5-0.2c-2.1-0.3-4.2-0.5-6.5-0.8c-2.2-0.4-4.5-0.7-6.9-1.1c-2.3-0.4-4.7-0.9-7.1-1.3
			c-1.2-0.3-2.4-0.5-3.5-0.8c-1.2-0.3-2.3-0.5-3.5-0.8c-2.3-0.6-4.6-1.1-6.8-1.7c-1.1-0.3-2.2-0.6-3.2-0.9c-1-0.3-2.1-0.6-3.1-0.9
			c-1-0.3-2-0.6-2.9-0.9c-0.9-0.3-1.8-0.6-2.7-0.9c-1.7-0.6-3.3-1.1-4.7-1.7c-1.4-0.5-2.6-1-3.6-1.4c-1-0.4-1.8-0.7-2.3-1
			c-0.5-0.2-0.8-0.4-0.8-0.4c-0.7-0.3-1-1.1-0.7-1.8S1045.2,194.5,1045.9,194.9C1045.9,194.9,1045.9,194.9,1045.9,194.9
			L1045.9,194.9z"/>
		<path class="st2" d="M1066.8,153.4c0,0,0.3,0.2,1,0.5c0.6,0.3,1.6,0.7,2.8,1.3c1.2,0.5,2.7,1.2,4.4,1.9c1.7,0.7,3.6,1.5,5.8,2.3
			c2.1,0.8,4.4,1.7,6.9,2.5c2.5,0.9,5.1,1.7,7.8,2.6c1.4,0.4,2.7,0.9,4.1,1.3c1.4,0.4,2.8,0.8,4.3,1.2c1.4,0.4,2.9,0.8,4.3,1.2
			c0.7,0.2,1.5,0.4,2.2,0.6l2.2,0.5c2.9,0.7,5.9,1.4,8.8,2c1.5,0.3,2.9,0.6,4.4,0.8c1.4,0.3,2.9,0.5,4.3,0.7
			c1.4,0.2,2.8,0.4,4.1,0.6c1.4,0.2,2.7,0.4,4,0.5c2.6,0.3,5,0.6,7.3,0.7c2.3,0.2,4.4,0.3,6.2,0.4c1.8,0.1,3.5,0.1,4.8,0.1
			c2.7,0,4.2,0,4.2,0s-1.5,0-4.2,0.1c-1.3,0-2.9,0-4.8,0c-1.9-0.1-3.9-0.1-6.2-0.2c-2.3-0.1-4.7-0.3-7.4-0.5c-1.3-0.1-2.6-0.3-4-0.4
			c-1.4-0.2-2.8-0.3-4.2-0.5c-1.4-0.2-2.8-0.4-4.3-0.6c-1.4-0.2-2.9-0.5-4.4-0.7c-3-0.5-5.9-1.1-8.9-1.8l-2.2-0.5
			c-0.7-0.2-1.5-0.3-2.2-0.5c-1.5-0.3-2.9-0.7-4.4-1.1c-1.5-0.4-2.9-0.8-4.3-1.1c-1.4-0.4-2.8-0.8-4.2-1.2c-2.7-0.8-5.4-1.6-7.9-2.4
			c-2.5-0.8-4.8-1.6-7-2.4c-2.2-0.8-4.1-1.5-5.9-2.1c-1.7-0.7-3.2-1.3-4.5-1.8c-1.2-0.5-2.2-0.9-2.9-1.2c-0.7-0.3-1-0.4-1-0.4
			c-0.7-0.3-1-1.1-0.7-1.8S1066.1,153,1066.8,153.4C1066.7,153.3,1066.8,153.3,1066.8,153.4L1066.8,153.4z"/>
		<path class="st16" d="M1004.1,251.7c0,0-1.3,0.6-3.2,1.7c-0.9,0.5-2,1.2-3.2,1.9c-0.6,0.4-1.2,0.7-1.7,1.1
			c-0.6,0.4-1.2,0.8-1.8,1.2c-0.6,0.4-1.2,0.8-1.7,1.3c-0.6,0.4-1.1,0.8-1.6,1.3c-0.5,0.4-1,0.8-1.5,1.2c-0.4,0.4-0.9,0.8-1.3,1.1
			c-0.4,0.4-0.7,0.7-1,1c-0.3,0.3-0.5,0.6-0.7,0.8c-0.4,0.4-0.6,0.7-0.6,0.7l-0.1,0.1c-0.8,0.9-2.3,1-3.2,0.1
			c-0.9-0.8-1-2.3-0.1-3.2c0.1-0.1,0.2-0.2,0.3-0.3c0,0,0.3-0.2,0.9-0.6c0.3-0.2,0.6-0.4,1-0.7c0.4-0.3,0.8-0.5,1.3-0.8
			c0.5-0.3,1-0.6,1.6-0.9c0.5-0.3,1.2-0.6,1.8-1c0.6-0.3,1.3-0.7,1.9-1c0.6-0.3,1.3-0.6,2-0.9c0.7-0.3,1.4-0.6,2-0.9
			c0.7-0.3,1.3-0.5,2-0.8c1.3-0.5,2.5-0.9,3.5-1.3C1002.6,252,1004.1,251.7,1004.1,251.7z"/>
		<path class="st0" d="M1004.5,185.6c0,0,0.1,0,0.2,0.1c0.1,0,0.2,0.1,0.4,0.2c0.4,0.2,0.9,0.4,1.5,0.7c0.6,0.3,1.3,0.7,2,1.1
			c0.7,0.4,1.5,0.9,2.2,1.4c0.4,0.3,0.7,0.5,1.1,0.8c0.4,0.3,0.7,0.5,1,0.8c0.3,0.3,0.7,0.5,0.9,0.8c0.3,0.2,0.6,0.5,0.8,0.7
			c0.2,0.2,0.5,0.4,0.7,0.6c0.2,0.2,0.4,0.4,0.5,0.5c0.3,0.3,0.4,0.4,0.4,0.4s-0.2-0.1-0.5-0.3c-0.2-0.1-0.4-0.2-0.6-0.4
			c-0.2-0.1-0.5-0.3-0.8-0.5c-0.3-0.2-0.6-0.3-0.9-0.5c-0.3-0.2-0.7-0.4-1-0.5c-0.4-0.2-0.7-0.4-1.1-0.5c-0.4-0.2-0.8-0.3-1.2-0.5
			c-0.8-0.3-1.6-0.6-2.4-0.9c-0.8-0.3-1.5-0.5-2.1-0.7c-0.6-0.2-1.1-0.3-1.5-0.4c-0.2,0-0.3-0.1-0.4-0.1c-0.1,0-0.1,0-0.1,0l0,0
			c-0.7-0.2-1.2-0.9-1-1.6c0.2-0.7,0.9-1.2,1.6-1C1004.3,185.5,1004.4,185.6,1004.5,185.6z"/>
		<path class="st0" d="M1033.8,185.9C1033.8,185.9,1033.8,185.9,1033.8,185.9c0.1,0,0.2,0,0.3,0c0.2,0,0.4-0.1,0.7-0.1
			c0.6,0,1.4-0.1,2.3,0c0.9,0.1,2,0.2,3.2,0.5c0.6,0.1,1.1,0.3,1.7,0.5c0.6,0.2,1.1,0.5,1.7,0.7c0.6,0.3,1.1,0.6,1.6,0.9
			c0.5,0.3,1,0.7,1.4,1c0.4,0.4,0.8,0.7,1.2,1.1c0.2,0.2,0.4,0.4,0.5,0.5c0.2,0.2,0.3,0.3,0.5,0.5c0.3,0.3,0.6,0.6,0.8,0.9
			c0.2,0.3,0.4,0.5,0.6,0.8c0.3,0.4,0.5,0.7,0.5,0.7s-0.2-0.2-0.5-0.6c-0.2-0.2-0.4-0.4-0.7-0.7c-0.2-0.3-0.6-0.5-0.9-0.8
			c-0.2-0.1-0.3-0.3-0.5-0.4c-0.2-0.1-0.4-0.3-0.6-0.4c-0.4-0.3-0.8-0.6-1.3-0.9c-0.5-0.3-1-0.5-1.5-0.8c-0.5-0.2-1-0.4-1.6-0.6
			c-0.5-0.2-1.1-0.3-1.6-0.4c-0.5-0.1-1.1-0.2-1.6-0.3c-1-0.1-2-0.1-2.8,0c-0.8,0.1-1.5,0.2-1.9,0.3c-0.2,0.1-0.4,0.1-0.5,0.1
			c-0.1,0-0.1,0-0.1,0c0,0,0,0,0,0c-0.7,0.2-1.5-0.1-1.7-0.8c-0.2-0.7,0.1-1.5,0.8-1.7C1033.7,185.9,1033.7,185.9,1033.8,185.9
			L1033.8,185.9z"/>
		<path class="st16" d="M1016.6,199.8c0,0-5.7,2.7-1.4,7.1c3,3,23.6,12.1,23.6,12.1s-17.4,4-15.1,7.6c1.6,2.6,15.1-0.3,15.1-0.3
			s-4.6,4.2-1.2,5.3s23.6-8.1,46.1-6.9C1036.2,213.9,1016.6,199.8,1016.6,199.8z"/>
	</g>
</g>
</svg>
