<?xml version="1.0" encoding="utf-8"?>
<!-- Generator: Adobe Illustrator 26.3.1, SVG Export Plug-In . SVG Version: 6.00 Build 0)  -->
<svg version="1.1" id="Layer_1" xmlns="http://www.w3.org/2000/svg" xmlns:xlink="http://www.w3.org/1999/xlink" x="0px" y="0px"
	 viewBox="0 0 1195 833" style="enable-background:new 0 0 1195 833;" xml:space="preserve">
<style type="text/css">
	.st0{fill:#FFFFFF;fill-opacity:0;}
	.st1{fill:#D2284E;}
	.st2{fill:#FFFFFF;}
	.st3{clip-path:url(#SVGID_00000008139134288443195720000005765687891727630769_);}
	.st4{fill:#B01E36;}
	.st5{clip-path:url(#SVGID_00000056426080749561547760000015144124977594885763_);}
</style>
<rect class="st0" width="1195" height="833"/>
<g>
	<g>
		<path class="st1" d="M-567.2,214.6c-0.7,0.3-1.2,0.2-1.9-0.1c-19.6-8.7-36.1-21.6-49.4-38.3c-4.6-5.7-7-12.3-7-19.7
			c0-12.3,0-24.6,0-36.8h-134.7c-21.9,0-39.8,17.9-39.8,39.8v161.9c0,21.9,17.9,39.8,39.8,39.8h161.9c21.9,0,39.8-17.9,39.8-39.8
			V210.6C-561.3,212-564.2,213.4-567.2,214.6z"/>
	</g>
	<g>
		<path class="st1" d="M-568.8,207.1c-17.3-7.8-32.1-19.2-43.9-34.1c-3.8-4.8-5.8-10.3-5.8-16.2c0-17.9,0-35.9,0-53.8V88.1
			c1.7,0.7,3.5,1.5,5.3,2.2c5.6,2.2,12.3,4.5,19.8,4.5c0.4,0,0.8,0,1.2,0c7.5-0.2,14.9-2.6,22.7-7.3c0.6-0.4,0.8-0.4,0.8-0.4
			c0,0,0.2,0,0.8,0.3c8.6,4.8,16.2,7.1,24,7.1c0.3,0,0.7,0,1,0c7.1-0.2,13.6-2.4,18.9-4.5c1.5-0.6,3.1-1.2,4.7-1.9
			c0,2.3,0,4.6,0,6.9v3.5c0,5.4,0,10.9,0,16.3c0,13.1,0,26.7,0.1,40c0.1,7.6-2.3,14.4-7.2,20.6
			C-537.5,189.5-551.7,200.1-568.8,207.1z M-611,95.9c-0.9,0-1.7,0.3-2.3,0.9c-1,1-1,2.3-1,2.9c0,10.9,0,21.8,0,32.7
			c0,7.9,0,15.8,0,23.7c0,5.2,1.5,9.9,4.6,13.7c10.6,13.5,23.8,24.2,39.2,31.8c0.6,0.3,1.2,0.4,1.9,0.4c0.8,0,1.5-0.3,2-0.5
			c15.5-7.1,28.4-17.3,38.2-30.3c3.4-4.5,5-9.5,5-15.1c0-13.6,0-27.4,0-40.8l0-20.6c0,0-4.6,1.4-4.8,1.4c-4.7,1.4-8.8,2.3-12.8,2.6
			c-1,0.1-1.9,0.1-2.9,0.1c-7,0-14-1.8-22.2-5.6c-0.9-0.4-1.7-0.6-2.5-0.6c-0.8,0-1.7,0.2-2.5,0.6c-7.7,3.8-14.5,5.6-21.3,5.8
			c-0.2,0-0.5,0-0.7,0c-5,0-10.3-0.9-16.2-2.9C-609.9,96.1-610.5,95.9-611,95.9z"/>
		<path class="st1" d="M-574.2,161.3c-6.3-6.4-12.7-12.7-19.1-19c0.9-0.9,1.8-1.7,2.6-2.6c0.1-0.1,0.3-0.3,0.4-0.4
			c1.1,1.1,2.2,2.2,3.3,3.3c3.3,3.3,6.5,6.5,9.8,9.8c0.4,0.4,1.4,1.4,3,1.4c1.5,0,2.5-1,2.9-1.4c4.6-4.6,9.2-9.2,13.7-13.8
			c4.1-4.1,8.2-8.2,12.3-12.3c1,1,2,2,3,3C-552.9,140-563.6,150.6-574.2,161.3z"/>
	</g>
	<g>
		<g>
			<path class="st2" d="M-621.4,241.6c-0.8,31.9-26.8,57.4-59,56.8c-31.9-0.6-57.4-26.9-56.7-59.2c0.7-32.1,27-57.5,59.2-56.8
				C-646.2,183.1-620.8,209.5-621.4,241.6z M-625.1,240.4c0-30.1-24.3-54.3-54.3-54.2c-29.6,0-54,24.4-54,54
				c0,30.2,24.2,54.5,54.2,54.5C-649.4,294.7-625.1,270.3-625.1,240.4z"/>
		</g>
	</g>
	<g>
		<path class="st2" d="M-675.7,270.2l-0.2-0.1c-0.7-0.5-0.9-1.2-1-1.8c-0.4-1.9-0.8-3.7-1.2-5.6c-0.7-3.3-1.5-6.6-2.2-9.9
			c0-0.1,0-0.1,0-0.2l0,0c0,0,0,0-0.2,0c-4.6-0.8-9.2-1.6-13.8-2.4l-1-0.2c-0.7-0.1-1.2-0.4-1.4-0.8c-0.2-0.4-0.3-1,0-1.6
			c0,0,6.1-16.8,7.5-20.7c0.1-0.3,0.4-1.2,1.4-1.3c0.1,0,0.1,0,0.2,0c0.8,0,1.3,0.6,1.5,0.9l2.1,3c1.3,1.8,2.6,3.7,3.8,5.5
			c0.1,0.1,0.1,0.1,0.3,0.1c1.8,0,3.6,0,5.3,0h4.9c0.1,0,0.2,0,0.3,0c0.9,0.1,1.5,0.8,1.5,1.6c0,0.9-0.6,1.6-1.5,1.7
			c-0.1,0-0.2,0-0.2,0l-5.6,0c-1.8,0-3.6,0-5.4,0c-0.9,0-1.5-0.3-2-1c-1.2-1.8-2.4-3.5-3.7-5.2l-1-1.5l-5.9,16.4l5.6,1
			c2.9,0.5,5.7,1,8.6,1.5c0.8,0.1,1.4,0.7,1.6,1.5c1.2,5.6,2.5,11.3,3.8,16.9c0.2,1-0.3,1.6-0.8,2l-0.2,0.2L-675.7,270.2
			L-675.7,270.2z"/>
		<path class="st2" d="M-675.5,269.5c-0.5-0.3-0.6-0.8-0.7-1.4c-1.1-5.2-2.3-10.3-3.4-15.5c-0.1-0.5-0.3-0.6-0.8-0.7
			c-4.9-0.9-9.9-1.7-14.8-2.6c-0.9-0.2-1.2-0.6-0.9-1.5c2.5-6.9,5-13.8,7.5-20.7c0.2-0.4,0.4-0.8,0.9-0.9s0.8,0.3,1.1,0.6
			c2,2.8,4,5.7,5.9,8.5c0.2,0.3,0.5,0.4,0.9,0.4c3.3,0,6.6,0,10,0c0.2,0,0.4,0,0.5,0c0.5,0.1,0.9,0.4,0.9,0.9c0,0.5-0.4,0.9-0.9,1
			c-0.1,0-0.2,0-0.4,0c-3.6,0-7.2,0-10.8,0c-0.6,0-1-0.2-1.4-0.7c-1.6-2.4-3.2-4.7-4.9-7c-0.2-0.2-0.3-0.4-0.6-0.8
			c-2.2,6.1-4.4,12.2-6.7,18.3c1.2,0.2,2.4,0.4,3.6,0.6c3.8,0.7,7.6,1.4,11.4,2c0.6,0.1,0.9,0.4,1,1c1.2,5.7,2.5,11.3,3.8,16.9
			c0.1,0.6-0.1,1-0.5,1.3C-675,269.5-675.2,269.5-675.5,269.5z"/>
		<path class="st2" d="M-657.4,270.2l-0.2-0.1c-0.8-0.6-0.9-1.4-0.9-2c0-6.2,0-12.5,0-18.7v-11.9c0-0.9-0.3-1.5-1.1-1.8
			c-0.2-0.1-0.4-0.1-0.7-0.1c-0.9,0-1.7,0.7-1.7,1.7c0,0.5,0,0.9,0,1.4c0,0.3,0,0.6,0,0.9c0,1.1-0.7,1.8-1.6,1.8
			c-1,0-1.6-0.8-1.6-1.8c0-0.3,0-0.5,0-0.8c0-0.8,0-1.6,0.1-2.3c0.4-2.4,2.4-4.2,4.9-4.2c0.1,0,0.3,0,0.4,0c2.6,0.2,4.6,2.4,4.6,5
			c0,4,0,8.1,0,12.1v8.3c0,3.5,0,7,0,10.4c0,0.6-0.1,1.4-0.9,2l-0.2,0.1L-657.4,270.2L-657.4,270.2z"/>
		<path class="st2" d="M-657.2,269.5c-0.5-0.3-0.6-0.8-0.6-1.4c0-10.2,0-20.4,0-30.6c0-1.1-0.4-2-1.5-2.4c-1.5-0.7-3.2,0.4-3.3,2.1
			c0,0.8,0,1.6,0,2.4c0,0.7-0.4,1.1-1,1.1c-0.6,0-0.9-0.4-0.9-1.1c0-1-0.1-2,0.1-3c0.4-2.3,2.4-3.8,4.6-3.6c2.2,0.2,3.9,2,4,4.3
			c0,5.6,0,11.2,0,16.8c0,4.7,0,9.3,0,14c0,0.6-0.1,1-0.6,1.4C-656.7,269.5-657,269.5-657.2,269.5z"/>
		<path class="st2" d="M-683,224c-3.8-0.1-7.2-2.9-8-6.7c-0.5-2.2,0-4.5,1.3-6.4c1.3-1.9,3.2-3.2,5.5-3.6c0,0,0.1,0,0.2-0.1l0.2-0.1
			h2.1l0.1,0c0.3,0.1,0.5,0.1,0.8,0.2c0.6,0.2,1.2,0.4,1.8,0.6c3.5,1.8,5.3,5.7,4.3,9.6c-0.9,3.7-4.3,6.3-8.2,6.3H-683z
			 M-682.8,210.6c-2.8,0-5.1,2.3-5.1,5.1c0,2.8,2.3,5.1,5.1,5.1c2.8,0,5.1-2.3,5.1-5.1S-680,210.6-682.8,210.6v-0.7V210.6z"/>
		<path class="st2" d="M-681.8,208c0.8,0.3,1.7,0.4,2.5,0.8c3.3,1.6,4.9,5.2,4,8.8c-0.9,3.4-4,5.8-7.6,5.8c-3.5-0.1-6.6-2.6-7.3-6.1
			c-0.9-4.2,1.9-8.4,6.2-9.1c0.1,0,0.3-0.1,0.4-0.1C-683.1,208-682.5,208-681.8,208z M-677,215.7c0-3.2-2.6-5.8-5.8-5.8
			s-5.8,2.6-5.8,5.8c0,3.2,2.6,5.8,5.8,5.8C-679.6,221.4-677,218.8-677,215.7z"/>
		<path class="st2" d="M-686.2,270.2l-0.2-0.1c-0.8-0.6-0.9-1.4-0.9-2c0-2.3,0-4.7,0-7v-2.5h-17.1l-0.3,0c-0.1,0-0.3,0-0.4,0
			c-0.8-0.2-1.4-0.8-1.4-1.6s0.5-1.4,1.4-1.6c0.1,0,0.2,0,0.4,0l0.3,0h18.3c1.5,0,2.1,0.6,2.1,2.1v3c0,2.6,0,5.1,0,7.7
			c0,0.6-0.1,1.4-0.9,2l-0.2,0.1L-686.2,270.2L-686.2,270.2L-686.2,270.2L-686.2,270.2z"/>
		<path class="st2" d="M-686,269.5c-0.5-0.3-0.6-0.8-0.6-1.4c0-3.1,0-6.3,0-9.4c0-0.2,0-0.4,0-0.7c-0.3,0-0.5,0-0.7,0
			c-5.7,0-11.4,0-17,0c-0.2,0-0.4,0-0.6,0c-0.5-0.1-0.8-0.4-0.8-1c0-0.5,0.3-0.8,0.8-0.9c0.2,0,0.4,0,0.5,0c6.1,0,12.2,0,18.3,0
			c1.1,0,1.4,0.3,1.4,1.4c0,3.6,0,7.1,0,10.7c0,0.6-0.1,1-0.6,1.4C-685.5,269.5-685.8,269.5-686,269.5z"/>
	</g>
</g>
<g>
	<g>
		<path class="st1" d="M-914.7,214.6c-0.7,0.3-1.2,0.2-1.9-0.1c-19.6-8.7-36.1-21.6-49.4-38.3c-4.6-5.7-7-12.3-7-19.7
			c0-12.3,0-24.6,0-36.8h-134.7c-21.9,0-39.8,17.9-39.8,39.8v161.9c0,21.9,17.9,39.8,39.8,39.8h161.9c21.9,0,39.8-17.9,39.8-39.8
			V210.6C-908.8,212-911.7,213.4-914.7,214.6z"/>
	</g>
	<g>
		<path class="st1" d="M-916.3,207.1c-17.3-7.8-32.1-19.2-43.9-34.1c-3.8-4.8-5.8-10.3-5.8-16.2c0-17.9,0-35.9,0-53.8V88.1
			c1.7,0.7,3.5,1.5,5.3,2.2c5.6,2.2,12.3,4.5,19.8,4.5c0.4,0,0.8,0,1.2,0c7.5-0.2,14.9-2.6,22.7-7.3c0.6-0.4,0.8-0.4,0.8-0.4
			c0,0,0.2,0,0.8,0.3c8.6,4.8,16.2,7.1,24,7.1c0.3,0,0.7,0,1,0c7.1-0.2,13.6-2.4,18.9-4.5c1.5-0.6,3.1-1.2,4.7-1.9
			c0,2.3,0,4.6,0,6.9v3.5c0,5.4,0,10.9,0,16.3c0,13.1,0,26.7,0.1,40c0.1,7.6-2.3,14.4-7.2,20.6C-885,189.5-899.2,200.1-916.3,207.1z
			 M-958.6,95.9c-0.9,0-1.7,0.3-2.3,0.9c-1,1-1,2.3-1,2.9c0,10.9,0,21.8,0,32.7c0,7.9,0,15.8,0,23.7c0,5.2,1.5,9.9,4.6,13.7
			c10.6,13.5,23.8,24.2,39.2,31.8c0.6,0.3,1.2,0.4,1.9,0.4c0.8,0,1.5-0.3,2-0.5c15.5-7.1,28.4-17.3,38.2-30.3c3.4-4.5,5-9.5,5-15.1
			c0-13.6,0-27.4,0-40.8l0-20.6c0,0-4.6,1.4-4.8,1.4c-4.7,1.4-8.8,2.3-12.8,2.6c-1,0.1-1.9,0.1-2.9,0.1c-7,0-14-1.8-22.2-5.6
			c-0.9-0.4-1.7-0.6-2.5-0.6c-0.8,0-1.7,0.2-2.5,0.6c-7.7,3.8-14.5,5.6-21.3,5.8c-0.2,0-0.5,0-0.7,0c-5,0-10.3-0.9-16.2-2.9
			C-957.4,96.1-958,95.9-958.6,95.9z"/>
		<path class="st1" d="M-921.8,161.3c-6.3-6.4-12.7-12.7-19.1-19c0.9-0.9,1.8-1.7,2.6-2.6c0.1-0.1,0.3-0.3,0.4-0.4
			c1.1,1.1,2.2,2.2,3.3,3.3c3.3,3.3,6.5,6.5,9.8,9.8c0.4,0.4,1.4,1.4,3,1.4c1.5,0,2.5-1,2.9-1.4c4.6-4.6,9.2-9.2,13.7-13.8
			c4.1-4.1,8.2-8.2,12.3-12.3c1,1,2,2,3,3C-900.5,140-911.1,150.6-921.8,161.3z"/>
	</g>
	<g>
		<g>
			<path class="st2" d="M-968.9,241.6c-0.8,31.9-26.8,57.4-58.9,56.8c-31.9-0.6-57.4-26.9-56.7-59.2c0.7-32.1,27-57.5,59.2-56.8
				C-993.8,183.1-968.3,209.5-968.9,241.6z M-972.6,240.4c0-30.1-24.3-54.3-54.3-54.2c-29.6,0-54,24.4-53.9,54
				c0,30.2,24.2,54.5,54.2,54.5C-996.9,294.7-972.6,270.3-972.6,240.4z"/>
		</g>
	</g>
	<g>
		<g>
			<g>
				<g>
					<g>
						<defs>
							
								<ellipse id="SVGID_1_" transform="matrix(0.1891 -0.982 0.982 0.1891 -1063.4335 -817.4207)" cx="-1026.6" cy="235.2" rx="43.5" ry="43.5"/>
						</defs>
						<clipPath id="SVGID_00000070076280852678379940000017657986132518323642_">
							<use xlink:href="#SVGID_1_"  style="overflow:visible;"/>
						</clipPath>
						<g style="clip-path:url(#SVGID_00000070076280852678379940000017657986132518323642_);">
							<path class="st2" d="M-1039.8,290.2c0,0-0.1-0.1-0.1-0.1c-3.9-1.2-5.5-3.8-4.6-7.8c2.1-10.2,4.3-20.4,6.5-30.6
								c0.1-0.3,0.1-0.6,0.2-0.9c-0.3,0-0.4,0-0.6,0.1c-1.6,0.3-3,0-4.2-1c-3.6-2.8-7.2-5.6-10.7-8.4c-2.6-2.1-2.4-6.2,0.3-8.3
								c3.6-2.8,7.2-5.5,10.9-8.2c0.7-0.6,1.5-1.1,2.2-1.6c1.7-1.3,3.4-2.8,5.9-2.5c-0.1-0.2-0.2-0.4-0.3-0.4
								c-3.5-4.1-3.4-8.8-2.1-13.6c1.1-3.9,4-6.1,7.9-7c0.2,0,0.4-0.1,0.6-0.2c0.9,0,1.9,0,2.8,0c0.7,0.2,1.4,0.3,2.1,0.6
								c4.3,1.7,6.7,4.9,7,9.4c0.2,2.4,0.3,4.9-0.7,7.2c-0.6,1.3-1.4,2.6-2.1,3.9c2.4-0.3,4.1,1.3,5.9,2.6c4.3,3.2,8.6,6.4,12.8,9.7
								c3,2.3,3,6.3,0.1,8.7c-0.5,0.4-1.1,0.9-1.7,1.3c-2.5,2-5.1,4-7.7,6c-2.3,1.9-2.9,2-6,1.7c0.3,1.5,0.6,2.9,0.9,4.3
								c2,9.3,3.9,18.6,5.9,27.9c0.7,3.2-1.1,6.2-4.2,7.1c-0.2,0.1-0.4,0.2-0.6,0.2c-0.6,0-1.3,0-1.9,0c-0.1,0-0.2-0.1-0.2-0.1
								c-2.6-0.6-4.2-2.3-4.8-4.9c-1.9-7.8-3.8-15.7-5.8-23.5c-0.1-0.3-0.2-0.7-0.3-1c-0.3,0.4-0.3,0.7-0.4,1
								c-1.9,7.9-3.9,15.9-5.8,23.8c-0.6,2.4-2.1,3.9-4.5,4.6c-0.2,0-0.3,0.1-0.5,0.2C-1038.5,290.2-1039.1,290.2-1039.8,290.2z
								 M-1026.6,223.7c-2.5,0-5,0-7.5,0c-1.1,0-2,0.2-2.8,1c-0.8,0.7-1.7,1.3-2.6,2c-3.9,2.9-7.8,5.8-11.7,8.8
								c-1.3,1-1.5,2.7-0.2,3.7c3.5,2.8,7,5.5,10.5,8.2c0.5,0.4,1.3,0.5,1.9,0.4c0.9-0.1,1.5-0.7,1.8-1.6c0.2-1-0.1-1.8-0.8-2.5
								c-2-1.7-4-3.4-6-5.1c-1.1-1-1.1-1.9,0.1-2.8c2.4-1.8,4.7-3.6,7.1-5.4c0.6-0.5,1.2-0.8,1.9-0.4c0.8,0.4,0.8,1.1,0.8,1.8
								c0,4.6,0.1,9.2,0,13.8c0,1.7-0.2,3.4-0.5,5c-2.2,10.9-4.6,21.8-6.9,32.7c-0.2,0.9-0.2,1.8,0.4,2.5c0.7,1,1.7,1.5,3,1.3
								c1.4-0.2,2.2-1.2,2.6-2.6c0.9-3.9,1.9-7.8,2.8-11.7c1.1-4.6,2.2-9.2,3.4-13.7c0.3-1.4,1.4-2.2,2.8-2.2c1.4,0,2.4,0.8,2.8,2.2
								c0.1,0.2,0.1,0.5,0.2,0.8c2,8.2,4,16.4,6,24.6c0.5,1.9,2,3,3.6,2.6c1.8-0.4,2.7-1.9,2.3-3.8c-2-9.3-4-18.6-5.9-28
								c-0.7-3.2-1.5-6.3-1.5-9.6c0-4.7,0-9.4,0-14.2c0-0.7,0.1-1.4,0.9-1.7c0.7-0.3,1.3-0.1,1.9,0.4c2.3,1.8,4.6,3.6,6.9,5.3
								c1.4,1.1,1.5,2,0.1,3.1c-2,1.7-3.9,3.3-5.9,4.9c-0.8,0.6-1.1,1.5-0.8,2.5c0.2,0.9,0.9,1.6,1.9,1.6c0.7,0,1.5-0.3,2.1-0.7
								c3.3-2.5,6.6-5.1,9.8-7.7c1.7-1.3,1.7-2.9-0.1-4.2c-4.8-3.6-9.5-7.1-14.3-10.7c-0.7-0.5-1.4-0.8-2.3-0.8
								C-1021.4,223.7-1024,223.7-1026.6,223.7z M-1019,211.6C-1019,211.6-1019,211.6-1019,211.6c-0.1-0.8-0.1-1.7-0.2-2.5
								c-0.4-3.6-3.3-6.4-7-6.6c-3.6-0.2-7,2.1-7.7,5.6c-0.4,1.9-0.4,3.9-0.2,5.9c0.3,3.6,3.3,6.3,6.8,6.6c3.7,0.3,7-2,7.9-5.6
								C-1019.1,213.9-1019.1,212.8-1019,211.6z M-1037.3,234.4c-1.3,1-2.5,1.9-3.8,2.9c1.3,1.1,2.5,2.1,3.8,3.2
								C-1037.3,238.3-1037.3,236.4-1037.3,234.4z M-1016,240.4c1.3-1.1,2.5-2.1,3.8-3.2c-1.3-1-2.5-1.9-3.8-2.9
								C-1016,236.4-1016,238.3-1016,240.4z"/>
						</g>
					</g>
				</g>
			</g>
		</g>
	</g>
</g>
<g>
	<g>
		<g>
			<path class="st1" d="M-914.7,521.9c-0.7,0.3-1.2,0.2-1.9-0.1c-19.6-8.7-36.1-21.5-49.4-38.4c-4.6-5.7-7-12.3-7-19.7
				c0-12.3,0-24.6,0-36.8h-134.7c-21.9,0-39.8,17.9-39.8,39.8v161.9c0,21.9,17.9,39.8,39.8,39.8h161.9c21.9,0,39.8-17.9,39.8-39.8
				V517.9C-908.8,519.3-911.7,520.7-914.7,521.9z"/>
		</g>
		<g>
			<path class="st1" d="M-916.3,514.5c-17.3-7.8-32.1-19.2-43.9-34.1c-3.8-4.8-5.8-10.3-5.8-16.2c0-18,0-35.9,0-53.8v-14.8
				c1.7,0.7,3.5,1.5,5.3,2.2c5.6,2.2,12.3,4.5,19.8,4.5c0.4,0,0.8,0,1.2,0c7.5-0.2,14.9-2.6,22.7-7.3c0.6-0.4,0.8-0.4,0.8-0.4
				c0,0,0.2,0,0.8,0.3c8.6,4.8,16.2,7.1,24,7.1c0.3,0,0.7,0,1,0c7.1-0.2,13.6-2.4,18.9-4.5c1.5-0.6,3.1-1.2,4.7-1.9
				c0,2.3,0,4.6,0,6.9v3.5c0,5.4,0,10.9,0,16.3c0,13.1,0,26.7,0.1,40c0.1,7.6-2.3,14.4-7.2,20.6C-885,496.8-899.2,507.4-916.3,514.5
				z M-958.6,403.2c-0.9,0-1.7,0.3-2.3,0.9c-1,1-1,2.3-1,2.9c0,10.9,0,21.8,0,32.7c0,7.9,0,15.8,0,23.7c0,5.2,1.5,9.9,4.6,13.7
				c10.6,13.5,23.8,24.2,39.2,31.8c0.6,0.3,1.2,0.4,1.9,0.4c0.8,0,1.5-0.3,2-0.5c15.5-7.1,28.4-17.3,38.2-30.3c3.4-4.5,5-9.5,5-15.1
				c0-13.6,0-27.4,0-40.8l0-20.6c0,0-4.6,1.4-4.8,1.4c-4.7,1.4-8.8,2.3-12.8,2.6c-1,0.1-1.9,0.1-2.9,0.1c-7,0-14-1.8-22.2-5.6
				c-0.9-0.4-1.7-0.6-2.5-0.6c-0.8,0-1.7,0.2-2.5,0.6c-7.7,3.8-14.5,5.6-21.3,5.8c-0.2,0-0.5,0-0.7,0c-5,0-10.3-0.9-16.2-2.9
				C-957.4,403.4-958,403.2-958.6,403.2z"/>
			<path class="st1" d="M-921.8,468.6c-6.3-6.4-12.7-12.7-19.1-19c0.9-0.9,1.8-1.7,2.6-2.6c0.1-0.1,0.3-0.3,0.4-0.4
				c1.1,1.1,2.2,2.2,3.3,3.3c3.3,3.3,6.5,6.5,9.8,9.8c0.4,0.4,1.4,1.4,3,1.4c1.5,0,2.5-1,2.9-1.4c4.6-4.6,9.2-9.2,13.7-13.8
				c4.1-4.1,8.2-8.2,12.3-12.3c1,1,2,2,3,3C-900.5,447.3-911.1,458-921.8,468.6z"/>
		</g>
		<g>
			<g>
				<path class="st2" d="M-968.9,549c-0.8,31.9-26.8,57.3-58.9,56.8c-31.9-0.6-57.4-26.9-56.7-59.2c0.7-32.1,27-57.5,59.2-56.8
					C-993.8,490.5-968.3,516.8-968.9,549z M-972.6,547.8c0-30-24.3-54.3-54.3-54.2c-29.6,0-54,24.4-53.9,54
					c0,30.2,24.2,54.5,54.2,54.5C-996.9,602-972.6,577.6-972.6,547.8z"/>
			</g>
		</g>
	</g>
	<g>
		<path class="st2" d="M-1010.3,578.9v-12.4h-2.6v-3.3h9.4c0,0-0.7-4.4-0.9-5.3l-0.9-5.4c-0.6-3.6-1.2-7.2-1.8-10.7
			c-0.3-1.9-1.5-2.9-3.4-2.9h-2.5c-0.9,0-1.8,0-2.7,0c0,0,0,0,0,0c-0.7-1.1-1.5-2.1-2.5-3.1c0.2-0.1,0.5-0.1,0.7-0.1l1.4,0
			c1,0,2,0,3.1,0c1.5,0,2.8,0,3.9,0.1c2.6,0.2,4.8,2.4,5.3,5.2l0.3,2c1.2,7,2.4,14.3,3.6,21.4c0.1,0.6,0.1,1.3,0,2
			c0,0.1,0,0.2,0,0.3h-7.1v12.4L-1010.3,578.9L-1010.3,578.9z"/>
		<path class="st2" d="M-1022.5,578.9v-5.8h-8.6v5.8h-3.3v-4.6c0-4.5,0-9,0-13.4c0-3.3,2.2-5.5,5.6-5.5l2.3,0c0.6,0,1.3,0,1.9,0
			c0.6,0,1,0.1,1.4,0.2c2.4,0.6,4,2.6,4,5.2c0,4.5,0,8.9,0,13.4v4.8L-1022.5,578.9L-1022.5,578.9z M-1028.9,558.7
			c-1.4,0-2.2,0.8-2.2,2.2c0,2.4,0,4.8,0,7.2v0.5c0,0.1,0,0.2,0,0.4l0,0.9h8.5c0,0,0-7,0-8.9c0-1.4-0.8-2.2-2.2-2.2h-2
			L-1028.9,558.7L-1028.9,558.7z"/>
		<path class="st2" d="M-1048.2,578.9v-17.5h-4.8v-5.6c0-4.6,0-9.1,0-13.7c0-3.9,2.8-6.7,6.7-6.7h9.4c0.6,0,1.1,0.1,1.7,0.2
			c-1,0.9-1.9,2-2.5,3.1c0,0,0,0-0.1,0c-1.6,0-3.1,0-4.7,0c-1.3,0-2.6,0-3.8,0c-1.9,0-3.3,1.4-3.3,3.2c0,3.8,0,7.7,0,11.5v3.5
			c0,0.1,0,0.2,0,0.3l0,0.8h4.7v20.8L-1048.2,578.9L-1048.2,578.9z"/>
		<path class="st2" d="M-1013.4,531.7c-0.2,0-0.4,0-0.6,0c-2.9-0.3-5.3-2.5-5.8-5.3c-0.6-3.5,1.7-6.8,5.2-7.5c0.1,0,0.2-0.1,0.4-0.1
			h1.7c1,0.3,2.1,0.6,3.1,1.3c2.3,1.8,3.1,4.9,2.1,7.6C-1008.4,530-1010.8,531.7-1013.4,531.7z M-1013.4,522c-1.7,0-3.1,1.4-3.2,3.1
			c0,1.7,1.4,3.2,3.1,3.2l0,0c1.8,0,3.2-1.4,3.2-3.1c0-0.8-0.3-1.6-0.9-2.2S-1012.6,522-1013.4,522L-1013.4,522L-1013.4,522z"/>
		<path class="st2" d="M-1041.9,531.7c-3.1-0.1-5.7-2.4-6.2-5.5c-0.5-3.4,1.8-6.6,5.2-7.3c0.1,0,0.2-0.1,0.4-0.1h1.7
			c0.1,0,0.3,0.1,0.4,0.1c0.3,0.1,0.7,0.2,1,0.3c3,1.1,4.7,4.2,4.1,7.3c-0.6,3-3.3,5.3-6.4,5.3L-1041.9,531.7z M-1041.7,522
			c-1.7,0-3.1,1.4-3.2,3.1c0,0.8,0.3,1.6,0.9,2.2s1.4,0.9,2.2,0.9c1.7,0,3.2-1.4,3.2-3.1C-1038.5,523.5-1039.9,522-1041.7,522
			L-1041.7,522z"/>
		<path class="st2" d="M-1026.8,551.7c-1.7,0-3.3-0.7-4.6-1.9c-1.2-1.2-1.9-2.9-1.9-4.6c0-3.5,2.9-6.5,6.5-6.5
			c1.7,0,3.3,0.7,4.6,1.9c1.2,1.2,1.9,2.9,1.9,4.6C-1020.3,548.8-1023.2,551.7-1026.8,551.7L-1026.8,551.7L-1026.8,551.7z
			 M-1026.8,542c-1.7,0-3.1,1.4-3.2,3.1c0,0.8,0.3,1.6,0.9,2.2c0.6,0.6,1.4,0.9,2.2,0.9c1.7,0,3.2-1.4,3.2-3.1
			C-1023.6,543.5-1025,542-1026.8,542L-1026.8,542z"/>
	</g>
</g>
<g>
	<g>
		<g>
			<path class="st1" d="M-567.2,521.9c-0.7,0.3-1.2,0.2-1.9-0.1c-19.6-8.7-36.1-21.5-49.4-38.4c-4.6-5.7-7-12.3-7-19.7
				c0-12.3,0-24.6,0-36.8h-134.7c-21.9,0-39.8,17.9-39.8,39.8v161.9c0,21.9,17.9,39.8,39.8,39.8h161.9c21.9,0,39.8-17.9,39.8-39.8
				V517.9C-561.3,519.3-564.2,520.7-567.2,521.9z"/>
		</g>
		<g>
			<path class="st1" d="M-568.8,514.5c-17.3-7.8-32.1-19.2-43.9-34.1c-3.8-4.8-5.8-10.3-5.8-16.2c0-18,0-35.9,0-53.8v-14.8
				c1.7,0.7,3.5,1.5,5.3,2.2c5.6,2.2,12.3,4.5,19.8,4.5c0.4,0,0.8,0,1.2,0c7.5-0.2,14.9-2.6,22.7-7.3c0.6-0.4,0.8-0.4,0.8-0.4
				c0,0,0.2,0,0.8,0.3c8.6,4.8,16.2,7.1,24,7.1c0.3,0,0.7,0,1,0c7.1-0.2,13.6-2.4,18.9-4.5c1.5-0.6,3.1-1.2,4.7-1.9
				c0,2.3,0,4.6,0,6.9v3.5c0,5.4,0,10.9,0,16.3c0,13.1,0,26.7,0.1,40c0.1,7.6-2.3,14.4-7.2,20.6
				C-537.5,496.8-551.7,507.4-568.8,514.5z M-611,403.2c-0.9,0-1.7,0.3-2.3,0.9c-1,1-1,2.3-1,2.9c0,10.9,0,21.8,0,32.7
				c0,7.9,0,15.8,0,23.7c0,5.2,1.5,9.9,4.6,13.7c10.6,13.5,23.8,24.2,39.2,31.8c0.6,0.3,1.2,0.4,1.9,0.4c0.8,0,1.5-0.3,2-0.5
				c15.5-7.1,28.4-17.3,38.2-30.3c3.4-4.5,5-9.5,5-15.1c0-13.6,0-27.4,0-40.8l0-20.6c0,0-4.6,1.4-4.8,1.4c-4.7,1.4-8.8,2.3-12.8,2.6
				c-1,0.1-1.9,0.1-2.9,0.1c-7,0-14-1.8-22.2-5.6c-0.9-0.4-1.7-0.6-2.5-0.6c-0.8,0-1.7,0.2-2.5,0.6c-7.7,3.8-14.5,5.6-21.3,5.8
				c-0.2,0-0.5,0-0.7,0c-5,0-10.3-0.9-16.2-2.9C-609.9,403.4-610.5,403.2-611,403.2z"/>
			<path class="st1" d="M-574.2,468.6c-6.3-6.4-12.7-12.7-19.1-19c0.9-0.9,1.8-1.7,2.6-2.6c0.1-0.1,0.3-0.3,0.4-0.4
				c1.1,1.1,2.2,2.2,3.3,3.3c3.3,3.3,6.5,6.5,9.8,9.8c0.4,0.4,1.4,1.4,3,1.4c1.5,0,2.5-1,2.9-1.4c4.6-4.6,9.2-9.2,13.7-13.8
				c4.1-4.1,8.2-8.2,12.3-12.3c1,1,2,2,3,3C-552.9,447.3-563.6,458-574.2,468.6z"/>
		</g>
		<g>
			<g>
				<path class="st2" d="M-621.4,549c-0.8,31.9-26.8,57.3-59,56.8c-31.9-0.6-57.4-26.9-56.7-59.2c0.7-32.1,27-57.5,59.2-56.8
					C-646.2,490.5-620.8,516.8-621.4,549z M-625.1,547.8c0-30-24.3-54.3-54.3-54.2c-29.6,0-54,24.4-54,54
					c0,30.2,24.2,54.5,54.2,54.5C-649.4,602-625.1,577.6-625.1,547.8z"/>
			</g>
		</g>
	</g>
	<g>
		<path class="st2" d="M-693,570.2c-3.4,0-6.9,0-10.3,0c-2.9,0-5.2-1.8-5.8-4.5c-0.1-0.5-0.2-1-0.2-1.5c0-8.5,0-16.9,0-25.4
			c0-3.5,2.5-6.1,6.1-6.1c1.6,0,3.2,0,4.8,0h9.3c0,0,0-1.3,0-1.5c0-0.4,0-0.8,0-1.2c0.1-2.8,1.9-4.8,4.6-5.3c0.3,0,0.6,0,0.9,0
			c1.8,0,3.5,0,5.2,0c1.2,0,2.4,0,3.7,0c3.2,0,5.5,2.3,5.5,5.5c0,0.3,0,0.7,0,1v1.4h1.6c1.1,0,2.3,0,3.4,0h0.3c1.3,0,2.5,0,3.8,0
			c1.9,0,3.4,0,4.8,0h0.1c3.5,0,5.7,2.5,6,4.9c0,0.1,0,0.2,0.1,0.3v27.2c-0.1,0.3-0.2,0.5-0.3,0.8c-0.2,0.6-0.4,1.3-0.8,1.8
			c-1.1,1.7-2.8,2.6-5,2.6L-693,570.2z M-656.6,567.8c0.5,0,0.8,0,1.2,0c0.1,0,0.2,0,0.3,0c1,0,1.9-0.3,2.6-1
			c0.7-0.7,1.1-1.7,1.1-2.9c0-6,0-12,0-17.9l0-7c0-0.2,0-0.4,0-0.5c-0.1-1.7-1.2-3-2.7-3.1c-0.5,0-1.1-0.1-1.8-0.1
			c-0.5,0-0.9,0-1.4,0h-0.1c-0.4,0-0.8,0-1.3,0h-0.9v32.5h0.9c0.3,0,0.7,0,1,0h0.1C-657.3,567.8-657,567.8-656.6,567.8z M-703,535.2
			c-2.5,0-3.8,1.4-3.8,3.8v25c0,0.2,0,0.3,0,0.5c0.1,1.7,1.2,3,2.7,3.1c0.5,0,1.1,0.1,1.8,0.1c0.5,0,0.9,0,1.4,0c0.4,0,0.9,0,1.3,0
			h0.9v-32.5h-2.6L-703,535.2L-703,535.2z M-696.1,567.7h34v-32.5h-34V567.7z M-679.1,527.2c-1.6,0-3.2,0-4.8,0
			c-1.3,0-2.5,1-2.6,2.3c-0.1,0.5,0,1.1,0,1.6c0,0.2,0,0.5,0,0.7v0.9h14.9v-0.9c0-0.2,0-0.4,0-0.6c0-0.6,0-1.1,0-1.7
			c-0.1-1.3-1.3-2.3-2.6-2.3C-675.9,527.2-677.5,527.2-679.1,527.2z"/>
	</g>
</g>
<g>
	<path class="st4" d="M570.6,357H410.5c-18.3,0-33.2-15-33.2-33.2V163.7c0-18.3,15-33.2,33.2-33.2h160.1c18.3,0,33.2,14.9,33.2,33.2
		v160.1C603.8,342.1,588.8,357,570.6,357z"/>
	<g>
		<path class="st2" d="M572,245.5c-1.1,44.9-37.7,80.8-83.1,80c-45-0.8-80.9-37.9-80-83.4c0.9-45.2,38-81,83.4-80
			C537,163,572.9,200.1,572,245.5z M566.8,243.8c-0.1-42.3-34.2-76.5-76.5-76.4c-41.7,0-76,34.4-76,76.1c0,42.6,34.1,76.8,76.4,76.8
			C532.5,320.2,566.8,285.8,566.8,243.8z"/>
	</g>
	<g>
		<g>
			<path class="st2" d="M480.7,289.7v-26.6h-7.3v-8.6c0-7,0-13.9,0-20.9c0-5.9,4.3-10.2,10.2-10.2h14.3c0.9,0,1.7,0.1,2.5,0.3
				c-1.6,1.4-2.9,3-3.8,4.7c0,0.1,0,0.1-0.1,0.1c-2.4,0-4.7,0-7.1,0c-2,0-3.9,0-5.8,0c-2.9,0-5,2.1-5,4.9c0,5.8,0,11.7,0,17.5v5.3
				c0,0.1,0,0.3,0,0.4l0.1,1.3h7.2v31.8H480.7L480.7,289.7z"/>
			<path class="st2" d="M500.4,289.7h-5.1v-31.8h7.2l0.1-1.3c0-0.1,0-0.3,0-0.4v-5.3c0-5.8,0-11.6,0-17.5c0-2.8-2.1-4.9-5-4.9
				c-2,0-3.9,0-5.8,0c-2.4,0-4.7,0-7.1,0c-0.1,0-0.2,0-0.1-0.1c-1-1.7-2.2-3.3-3.8-4.7c0.8-0.2,1.6-0.3,2.5-0.3h14.3
				c5.9,0,10.2,4.3,10.2,10.2c0,7,0,13.9,0,20.9v8.6h-7.3L500.4,289.7L500.4,289.7z"/>
		</g>
		<path class="st2" d="M490.2,217.6c-4.6-0.1-8.7-3.7-9.4-8.4c-0.8-5.2,2.7-10.1,7.9-11.2c0.2,0,0.4-0.1,0.5-0.2h2.6
			c0.2,0.1,0.4,0.1,0.6,0.2c0.5,0.1,1,0.3,1.5,0.5c4.5,1.7,7.1,6.4,6.3,11.1c-0.9,4.6-5,8-9.8,8L490.2,217.6z M490.5,202.9
			c-2.6,0-4.8,2.1-4.8,4.8c0,1.3,0.5,2.5,1.4,3.4c0.9,0.9,2.1,1.4,3.4,1.4c2.6,0,4.8-2.1,4.8-4.8
			C495.3,205.1,493.2,202.9,490.5,202.9L490.5,202.9z"/>
	</g>
</g>
<g>
	<path class="st4" d="M570.6,668H410.5c-18.3,0-33.2-15-33.2-33.2V474.7c0-18.3,15-33.2,33.2-33.2h160.1c18.3,0,33.2,15,33.2,33.2
		v160.1C603.8,653.1,588.8,668,570.6,668z"/>
	<g>
		<g>
			<path class="st2" d="M515.1,600.6v-18.9h-4v-5.1h14.4c0,0-1.1-6.7-1.4-8.2l-1.4-8.2c-0.9-5.5-1.8-10.9-2.8-16.4
				c-0.5-2.8-2.3-4.4-5.2-4.4H511c-1.4,0-2.8,0-4.2,0c0,0,0,0-0.1,0c-1-1.7-2.2-3.2-3.8-4.8c0.4-0.1,0.8-0.2,1.1-0.2l2.1,0
				c1.6,0,3.1-0.1,4.7-0.1c2.3,0,4.2,0.1,5.9,0.2c4,0.3,7.4,3.7,8.1,7.9l0.5,3c1.8,10.7,3.7,21.8,5.5,32.7c0.2,0.9,0.1,1.9,0.1,3
				c0,0.2,0,0.3,0,0.5h-10.8v19L515.1,600.6L515.1,600.6z"/>
			<path class="st2" d="M496.4,600.6v-8.8h-13.1v8.8h-5.1v-7.1c0-6.8,0-13.7,0-20.5c0-5,3.4-8.4,8.5-8.4l3.6,0c1,0,1.9,0,2.9,0
				c0.9,0,1.6,0.1,2.2,0.2c3.7,0.9,6.1,4,6.1,7.9c0,6.8,0,13.6,0,20.5v7.3L496.4,600.6L496.4,600.6z M486.7,569.8
				c-2.2,0-3.4,1.2-3.4,3.4c0,3.7,0,7.3,0,10.9v0.7c0,0.2,0,0.4,0,0.6l0.1,1.3h13c0,0,0-10.6,0-13.6c0-2.1-1.2-3.3-3.3-3.3H490
				H486.7L486.7,569.8z"/>
			<path class="st2" d="M457.3,600.6V574H450v-8.6c0-7,0-13.9,0-20.9c0-5.9,4.3-10.2,10.2-10.2h14.3c0.9,0,1.7,0.1,2.5,0.3
				c-1.6,1.4-2.9,3-3.8,4.7c0,0,0,0.1-0.1,0.1c-2.4,0-4.7,0-7.1,0c-2,0-3.9,0-5.8,0c-2.9,0-5,2.1-5,4.9c0,5.8,0,11.7,0,17.5v5.3
				c0,0.1,0,0.3,0,0.4l0.1,1.3h7.2v31.8L457.3,600.6L457.3,600.6z"/>
			<path class="st2" d="M510.3,528.6c-0.3,0-0.6,0-0.9,0c-4.5-0.5-8.1-3.8-8.8-8.2c-0.9-5.3,2.6-10.4,7.9-11.4
				c0.2,0,0.4-0.1,0.5-0.2h2.6c1.6,0.4,3.2,1,4.7,2c3.5,2.7,4.8,7.4,3.1,11.5C518,526,514.2,528.6,510.3,528.6z M510.3,513.9
				c-2.6,0-4.8,2.1-4.8,4.7c0,2.6,2.1,4.8,4.7,4.9l0,0c2.7,0,4.8-2.1,4.9-4.7c0-1.3-0.5-2.5-1.4-3.4
				C512.8,514.4,511.6,513.9,510.3,513.9L510.3,513.9L510.3,513.9z"/>
			<path class="st2" d="M466.9,528.6c-4.6-0.1-8.7-3.7-9.4-8.4c-0.8-5.2,2.7-10.1,7.9-11.2c0.2,0,0.4-0.1,0.5-0.2h2.6
				c0.2,0.1,0.4,0.1,0.6,0.2c0.5,0.1,1,0.3,1.5,0.5c4.5,1.7,7.1,6.4,6.3,11.1c-0.9,4.6-5,8-9.8,8L466.9,528.6z M467.2,513.9
				c-2.6,0-4.8,2.1-4.8,4.8c0,1.3,0.5,2.5,1.4,3.4c0.9,0.9,2.1,1.4,3.4,1.4c2.6,0,4.8-2.2,4.8-4.8
				C472,516.1,469.9,513.9,467.2,513.9L467.2,513.9z"/>
			<path class="st2" d="M489.9,559.1c-2.6,0-5.1-1-6.9-2.9c-1.9-1.9-2.9-4.4-2.9-7c0-5.4,4.4-9.8,9.9-9.8c2.6,0,5.1,1,7,2.9
				c1.9,1.9,2.9,4.4,2.9,7C499.8,554.7,495.4,559.1,489.9,559.1L489.9,559.1L489.9,559.1z M490,544.4c-2.6,0-4.8,2.2-4.8,4.8
				c0,1.3,0.5,2.5,1.4,3.4c0.9,0.9,2.1,1.4,3.4,1.4c2.6,0,4.8-2.2,4.8-4.8C494.8,546.6,492.6,544.4,490,544.4L490,544.4z"/>
		</g>
		<g>
			<path class="st2" d="M572,556.4c-1.1,44.9-37.7,80.8-83.1,80c-45-0.8-80.9-37.8-80-83.4c0.9-45.2,38-81,83.4-80
				C537,474,572.9,511.1,572,556.4z M566.8,554.7c-0.1-42.3-34.2-76.5-76.5-76.4c-41.7,0-76,34.4-76,76.1
				c0,42.6,34.1,76.8,76.4,76.8C532.5,631.2,566.8,596.8,566.8,554.7z"/>
		</g>
	</g>
</g>
<path class="st4" d="M570.8,1267.7H410.6c-18.3,0-33.2-14.9-33.2-33.2v-160.1c0-18.3,15-33.2,33.2-33.2h160.1
	c18.3,0,33.2,14.9,33.2,33.2v160.1C604,1252.8,589,1267.7,570.8,1267.7z"/>
<path class="st4" d="M920,1267.7H759.9c-18.3,0-33.2-14.9-33.2-33.2v-160.1c0-18.3,15-33.2,33.2-33.2H920
	c18.3,0,33.2,14.9,33.2,33.2v160.1C953.2,1252.8,938.3,1267.7,920,1267.7z"/>
<g>
	<path class="st2" d="M919.3,1156.3c-1.1,44.8-37.7,80.7-82.9,79.8c-44.9-0.8-80.8-37.8-79.8-83.3c0.9-45.1,38-80.8,83.2-79.9
		C884.4,1074,920.2,1111,919.3,1156.3z M914.1,1154.6c-0.1-42.3-34.2-76.4-76.4-76.3c-41.7,0-75.9,34.3-75.9,76
		c0,42.5,34,76.7,76.2,76.7C879.9,1230.9,914.2,1196.5,914.1,1154.6z"/>
</g>
<g>
	<g>
		<path class="st2" d="M845.6,1206.8c-0.4-0.1-0.8-0.1-1.2-0.1h-0.2l-0.1-0.1c-1-0.7-1.3-1.7-1.5-2.7l-2-9.2
			c-1.3-5.8-2.6-11.7-3.9-17.5c-0.1-0.6-0.3-0.7-0.9-0.8c-8.5-1.5-17.1-3-25.6-4.5c-1-0.2-1.6-0.6-2-1.1s-0.3-1.3,0-2.2
			c2.2-6,10.8-29.9,13-35.8c0.3-0.8,0.8-1.7,2-1.8c0.1,0,0.2,0,0.3,0c1,0,1.6,0.7,2,1.4l3,4.2c2.4,3.5,4.9,7,7.3,10.5
			c0.3,0.4,0.6,0.6,1.1,0.6c5.8,0,11.5,0,17.2,0h0.5c0.2,0,0.3,0,0.5,0c1.2,0.1,2,1,2,2.1c0,1.2-0.8,2.1-2.1,2.2c-0.2,0-0.5,0-0.7,0
			h-9.3c-3.1,0-6.2,0-9.3,0l0,0c-1.3,0-2.1-0.5-2.8-1.5c-1.6-2.4-3.3-4.7-4.9-7.1c-1.2-1.7-2.3-3.3-3.5-5l-0.4-0.6
			c-3.7,10.2-7.3,20.2-11,30.3c1.9,0.3,14.5,2.6,14.5,2.6c3.6,0.6,7.2,1.3,10.9,1.9c1.2,0.2,1.9,0.9,2.2,2.1l1.2,5.6
			c1.7,7.8,3.5,15.8,5.3,23.7c0.3,1.4-0.4,2.2-1.1,2.8l-0.2,0.2L845.6,1206.8z"/>
		<path class="st2" d="M823.5,1131.3c0.8,0,1.2,0.5,1.6,1.1c3.4,4.9,6.9,9.8,10.3,14.8c0.4,0.6,0.8,0.8,1.5,0.8c5.8,0,11.5,0,17.2,0
			c0.2,0,0.3,0,0.5,0s0.3,0,0.5,0c0.9,0.1,1.6,0.8,1.6,1.6c0,0.9-0.6,1.6-1.6,1.7c-0.2,0-0.4,0-0.6,0c-3.1,0-6.2,0-9.3,0
			c-3.1,0-6.2,0-9.4,0c0,0,0,0-0.1,0c-1,0-1.8-0.4-2.4-1.3c-2.8-4.1-5.6-8.1-8.4-12.1c-0.3-0.4-0.5-0.8-1-1.4
			c-3.9,10.7-7.7,21.1-11.5,31.7c2.1,0.4,4.2,0.7,6.2,1.1c6.6,1.2,13.1,2.3,19.7,3.5c1,0.2,1.6,0.7,1.8,1.7
			c2.2,9.8,4.3,19.6,6.5,29.3c0.2,1.1-0.2,1.7-1,2.3c-0.4-0.1-0.8-0.1-1.2-0.1c-0.9-0.6-1.1-1.4-1.2-2.4c-2-8.9-4-17.8-5.9-26.8
			c-0.2-0.8-0.5-1.1-1.3-1.2c-8.5-1.5-17.1-3-25.6-4.5c-1.6-0.3-2.1-1.1-1.6-2.7c4.3-11.9,8.7-23.9,13-35.8c0.3-0.8,0.7-1.4,1.5-1.5
			C823.3,1131.3,823.4,1131.3,823.5,1131.3 M823.5,1130.3c-0.1,0-0.2,0-0.3,0c-1.7,0.2-2.2,1.6-2.4,2.1c-2.2,6-4.3,11.9-6.5,17.9
			c-2.2,6-4.3,11.9-6.5,17.9c-0.4,1.1-0.4,1.9,0,2.6c0.4,0.7,1.2,1.2,2.3,1.4c8.6,1.5,17.1,3.1,25.7,4.5c0.4,0.1,0.4,0.1,0.5,0.5
			c1.3,5.8,2.5,11.5,3.8,17.3c0.7,3.2,1.4,6.3,2.1,9.5c0.2,1,0.5,2.2,1.7,3l0.2,0.2h0.3c0.4,0,0.8,0,1.1,0.1l0.5,0.1l0.3-0.3
			c0.7-0.6,1.7-1.6,1.3-3.3c-1.8-7.9-3.6-15.9-5.3-23.7l-1.2-5.6c-0.3-1.4-1.2-2.3-2.6-2.5c-3.6-0.6-7.2-1.3-10.8-1.9
			c-3-0.5-5.9-1.1-8.9-1.6c-1.7-0.3-3.3-0.6-5.1-0.9c3.5-9.6,7-19.2,10.5-28.8c1.1,1.6,2.2,3.2,3.4,4.8c1.6,2.3,3.3,4.7,4.9,7.1
			c0.8,1.2,1.8,1.7,3.2,1.7h0.1c3.1,0,6.2,0,9.3,0h4.7h4.7c0.2,0,0.5,0,0.7,0c1.5-0.2,2.6-1.3,2.5-2.7c-0.1-1.4-1.1-2.5-2.5-2.6
			c-0.2,0-0.4,0-0.6,0h-0.2h-0.2c-5.8,0-11.5,0-17.2,0c-0.4,0-0.5-0.1-0.7-0.4c-2.4-3.5-4.9-7-7.3-10.4c-1-1.4-2-2.9-3-4.3
			C825.6,1131.4,824.9,1130.3,823.5,1130.3L823.5,1130.3z"/>
	</g>
	<g>
		<path class="st2" d="M875.8,1206.7l-0.1-0.1c-1.1-0.8-1.3-1.9-1.3-2.8c0-17.7,0-35.3,0-53c0-1.9-0.7-3.1-2.3-3.8
			c-0.5-0.2-1-0.3-1.4-0.3c-1.9,0-3.5,1.6-3.6,3.5c0,0.8,0,1.6,0,2.4c0,0.5,0,1.1,0,1.6c0,1.5-0.9,2.4-2.2,2.4c-1.3,0-2.2-1-2.2-2.4
			c0-0.5,0-0.9,0-1.4c0-1.3,0-2.6,0.2-3.9c0.6-3.9,3.9-6.7,7.8-6.7c0.2,0,0.4,0,0.7,0c4.1,0.3,7.3,3.8,7.3,8c0,9.7,0,19.4,0,29.1v6
			c0,6.1,0,12.2,0,18.3c0,0.9-0.1,2-1.3,2.8l-0.1,0.1l-0.1,0c-0.4,0-0.8,0-1.3,0H875.8z"/>
		<path class="st2" d="M870.8,1142.9c0.2,0,0.4,0,0.6,0c3.8,0.3,6.8,3.5,6.8,7.5c0,9.7,0,19.4,0,29.1c0,8.1,0,16.2,0,24.2
			c0,1-0.2,1.8-1.1,2.4c-0.4,0-0.8,0-1.2,0c-0.8-0.6-1.1-1.4-1.1-2.4c0-17.7,0-35.3,0-53c0-2-0.7-3.4-2.6-4.2
			c-0.5-0.2-1.1-0.3-1.6-0.3c-2.1,0-4,1.7-4.1,4c0,1.3,0,2.7,0,4.1c0,1.2-0.7,1.9-1.7,1.9c0,0,0,0,0,0c-1,0-1.6-0.7-1.6-1.9
			c0-1.7-0.1-3.5,0.2-5.2C864,1145.4,867.2,1142.9,870.8,1142.9 M870.8,1141.9L870.8,1141.9c-4.2,0-7.7,3-8.3,7.1
			c-0.2,1.3-0.2,2.7-0.2,3.9c0,0.5,0,0.9,0,1.4c0,1.7,1.1,2.9,2.6,2.9h0h0c1.5,0,2.6-1.2,2.7-2.9c0-0.6,0-1.1,0-1.7
			c0-0.8,0-1.6,0-2.4c0.1-1.7,1.5-3,3.1-3c0.4,0,0.8,0.1,1.2,0.3c1.4,0.6,2,1.6,2,3.3c0,17.7,0,35.3,0,53c0,1,0.2,2.3,1.5,3.2
			l0.3,0.2h0.3c0.4,0,0.9,0,1.3,0l0.3,0l0.2-0.2c1.3-1,1.5-2.3,1.5-3.2c0-6.1,0-12.2,0-18.2v-6.1c0-9.7,0-19.4,0-29.1
			c0-4.5-3.3-8.1-7.8-8.5C871.3,1141.9,871,1141.9,870.8,1141.9L870.8,1141.9z"/>
	</g>
	<g>
		<path class="st2" d="M831.4,1126.8c-6.3-0.1-11.9-4.7-13.2-11c-0.8-3.7,0-7.4,2.1-10.6c2.1-3.1,5.3-5.2,9-5.9
			c0.1,0,0.2-0.1,0.4-0.1c0.1,0,0.3-0.1,0.3-0.1h3.5l0.1,0c0.5,0.2,0.9,0.3,1.4,0.4c1,0.3,2,0.6,2.9,1.1c5.8,2.9,8.8,9.4,7.2,15.8
			c-1.5,6.1-7.1,10.4-13.5,10.4L831.4,1126.8z M831.7,1103.4c-5.2,0-9.5,4.3-9.5,9.5c0,5.2,4.2,9.5,9.5,9.5s9.5-4.3,9.5-9.5
			C841.2,1107.7,837,1103.4,831.7,1103.4z"/>
		<path class="st2" d="M833.4,1099.6c1.4,0.5,3,0.8,4.3,1.4c5.6,2.8,8.5,9.1,6.9,15.2c-1.5,5.9-6.8,10-13,10c-0.1,0-0.1,0-0.2,0
			c-6.1-0.1-11.4-4.6-12.7-10.6c-1.5-7.3,3.4-14.5,10.7-15.8c0.2,0,0.5-0.1,0.7-0.2C831.2,1099.6,832.3,1099.6,833.4,1099.6
			 M831.7,1122.9c5.5,0,10-4.5,10-10s-4.5-10-10-10s-10,4.5-10,10C821.8,1118.4,826.2,1122.9,831.7,1122.9 M833.6,1098.6h-0.2H830
			h-0.2l-0.1,0c-0.1,0-0.2,0.1-0.3,0.1c-0.1,0-0.2,0.1-0.3,0.1c-3.8,0.7-7.1,2.8-9.3,6.1c-2.2,3.3-3,7.1-2.2,10.9
			c1.4,6.5,7.2,11.3,13.7,11.4h0.2c6.6,0,12.4-4.4,14-10.8c1.7-6.6-1.4-13.3-7.5-16.3c-1-0.5-2-0.8-3-1.1c-0.5-0.1-0.9-0.3-1.4-0.4
			L833.6,1098.6L833.6,1098.6z M831.7,1121.9c-5,0-9-4-9-9c0-5,4-9,9-9s9,4,9,9C840.7,1117.9,836.7,1121.9,831.7,1121.9
			L831.7,1121.9z"/>
	</g>
	<g>
		<path class="st2" d="M826,1206.7l-0.1-0.1c-1.1-0.8-1.3-1.9-1.3-2.8c0-4.1,0-8.2,0-12.3v-4.8h-30.3l-0.5,0c-0.2,0-0.4,0-0.6-0.1
			c-1.2-0.2-1.8-1-1.8-2.2c0-1.1,0.7-1.9,1.9-2.1c0.2,0,0.3,0,0.5,0l0.5,0H826c2.2,0,2.9,0.7,2.9,2.9v4.7c0,4.6,0,9.2,0,13.8
			c0,1.3-0.4,2.2-1.3,2.8l-0.1,0.1l-0.2,0c-0.4,0-0.8,0-1.3,0L826,1206.7L826,1206.7z"/>
		<path class="st2" d="M793.7,1182.8c0.2,0,0.4,0,0.5,0c10.6,0,21.2,0,31.8,0c1.9,0,2.4,0.5,2.4,2.4c0,6.2,0,12.3,0,18.5
			c0,1-0.2,1.8-1.1,2.4c-0.4,0-0.8,0-1.2,0c-0.8-0.6-1.1-1.4-1.1-2.4c0-5.4,0-10.9,0-16.3c0-0.4,0-0.7,0-1.2c-0.5,0-0.9,0-1.3,0
			c-9.8,0-19.7,0-29.5,0c-0.2,0-0.3,0-0.5,0c-0.2,0-0.3,0-0.5,0c-0.9-0.2-1.4-0.7-1.4-1.7c0-0.9,0.5-1.4,1.5-1.6
			C793.5,1182.9,793.6,1182.8,793.7,1182.8 M793.7,1181.8c-0.2,0-0.4,0-0.6,0c-1.4,0.3-2.3,1.2-2.3,2.6c0,1.4,0.8,2.4,2.2,2.7
			c0.3,0.1,0.5,0.1,0.7,0.1c0.1,0,0.2,0,0.3,0c0.1,0,0.2,0,0.2,0h29.5h0.3v0.2v4.1c0,4,0,8.2,0,12.2c0,1,0.2,2.3,1.5,3.2l0.3,0.2
			h0.3c0.4,0,0.9,0,1.3,0l0.3,0l0.2-0.2c1.3-1,1.5-2.3,1.5-3.2c0-4.6,0-9.3,0-13.9v-4.6c0-2.5-0.9-3.4-3.4-3.4h-31.8
			c-0.1,0-0.2,0-0.2,0C793.9,1181.9,793.8,1181.8,793.7,1181.8L793.7,1181.8z"/>
	</g>
</g>
<g>
	<g>
		<path class="st2" d="M572.2,1156.2c-1.1,44.9-37.7,80.8-83.1,80c-45-0.8-80.9-37.8-80-83.4c0.9-45.2,38-81,83.4-80
			C537.2,1073.7,573,1110.8,572.2,1156.2z M566.9,1154.4c-0.1-42.3-34.2-76.5-76.5-76.4c-41.7,0-76,34.4-76,76.1
			c0,42.6,34.1,76.8,76.4,76.8C532.7,1230.9,567,1196.5,566.9,1154.4z"/>
	</g>
	<g>
		<g>
			<g>
				<g>
					<defs>
						
							<ellipse id="SVGID_00000057132689886823140050000009649447788061935525_" transform="matrix(0.1891 -0.982 0.982 0.1891 -728.2219 1412.0416)" cx="490.8" cy="1146.9" rx="61.3" ry="61.3"/>
					</defs>
					<clipPath id="SVGID_00000077316394371673127920000015358112895221866917_">
						<use xlink:href="#SVGID_00000057132689886823140050000009649447788061935525_"  style="overflow:visible;"/>
					</clipPath>
					<g style="clip-path:url(#SVGID_00000077316394371673127920000015358112895221866917_);">
						<path class="st2" d="M472.3,1224.6c-0.1-0.1-0.1-0.1-0.2-0.2c-5.5-1.7-7.7-5.4-6.5-11.1c3-14.4,6.1-28.8,9.1-43.2
							c0.1-0.4,0.1-0.8,0.2-1.3c-0.4,0-0.6,0-0.9,0.1c-2.2,0.4-4.2,0-6-1.4c-5.1-3.9-10.1-7.8-15.1-11.9c-3.7-3-3.5-8.7,0.5-11.7
							c5.1-3.9,10.2-7.7,15.3-11.6c1-0.8,2.1-1.6,3.1-2.3c2.4-1.9,4.8-4,8.3-3.5c-0.2-0.3-0.2-0.5-0.4-0.6c-5-5.7-4.8-12.4-3-19.1
							c1.5-5.5,5.7-8.6,11.2-9.9c0.3-0.1,0.5-0.2,0.8-0.2c1.3,0,2.6,0,4,0c1,0.3,2,0.5,3,0.9c6,2.4,9.4,6.8,9.9,13.3
							c0.2,3.4,0.5,6.9-0.9,10.2c-0.8,1.9-2,3.6-3,5.5c3.4-0.4,5.8,1.8,8.3,3.7c6.1,4.5,12.1,9.1,18.1,13.7
							c4.2,3.2,4.2,8.9,0.1,12.2c-0.8,0.6-1.6,1.2-2.3,1.8c-3.6,2.8-7.2,5.7-10.8,8.5c-3.3,2.6-4.1,2.9-8.4,2.4
							c0.4,2.1,0.8,4.1,1.2,6.1c2.8,13.1,5.5,26.2,8.3,39.3c0.9,4.5-1.6,8.7-6,10c-0.3,0.1-0.6,0.2-0.9,0.3c-0.9,0-1.8,0-2.7,0
							c-0.1-0.1-0.2-0.2-0.3-0.2c-3.7-0.9-5.9-3.2-6.8-6.8c-2.7-11.1-5.4-22.1-8.1-33.1c-0.1-0.5-0.2-1-0.4-1.4
							c-0.4,0.5-0.5,1-0.6,1.4c-2.7,11.2-5.5,22.3-8.2,33.5c-0.8,3.3-3,5.5-6.3,6.4c-0.2,0.1-0.5,0.2-0.7,0.2
							C474.2,1224.6,473.3,1224.6,472.3,1224.6z M490.8,1130.8c-3.5,0-7.1,0-10.6,0c-1.5,0-2.8,0.3-4,1.3c-1.2,1-2.4,1.9-3.7,2.8
							c-5.5,4.1-11,8.2-16.4,12.4c-1.9,1.4-2.1,3.8-0.3,5.2c4.9,3.9,9.8,7.8,14.8,11.6c0.7,0.5,1.8,0.7,2.7,0.6
							c1.3-0.1,2.2-1,2.5-2.3c0.3-1.4-0.1-2.6-1.2-3.5c-2.8-2.4-5.7-4.8-8.5-7.1c-1.6-1.3-1.6-2.7,0.1-4c3.3-2.6,6.7-5.1,10-7.7
							c0.9-0.7,1.7-1.1,2.7-0.6c1.1,0.5,1.2,1.5,1.2,2.5c0,6.5,0.1,13,0,19.5c0,2.3-0.2,4.8-0.7,7.1c-3.2,15.4-6.4,30.8-9.7,46.1
							c-0.2,1.3-0.2,2.5,0.5,3.6c1,1.5,2.4,2.2,4.2,1.9c2-0.3,3.2-1.7,3.6-3.6c1.3-5.5,2.7-11,4-16.5c1.6-6.4,3.2-12.9,4.8-19.4
							c0.5-2,2-3.2,4-3.2c1.9,0,3.4,1.2,4,3.1c0.1,0.3,0.2,0.7,0.3,1.1c2.8,11.6,5.7,23.2,8.5,34.7c0.6,2.7,2.8,4.2,5.1,3.7
							c2.5-0.6,3.9-2.7,3.3-5.4c-2.8-13.1-5.6-26.2-8.3-39.4c-0.9-4.5-2.2-8.9-2.2-13.5c0-6.7,0-13.3,0-20c0-1,0.2-1.9,1.2-2.4
							c1-0.4,1.8-0.1,2.6,0.6c3.3,2.5,6.5,5,9.8,7.5c2,1.6,2.1,2.8,0.1,4.4c-2.8,2.3-5.6,4.7-8.3,7c-1.1,0.9-1.5,2.1-1.1,3.5
							c0.4,1.3,1.3,2.3,2.6,2.3c1,0,2.1-0.4,3-1c4.7-3.5,9.2-7.2,13.8-10.8c2.4-1.9,2.3-4.1-0.1-6c-6.7-5-13.4-10.1-20.1-15.1
							c-1-0.8-2-1.1-3.2-1.1C498.1,1130.9,494.5,1130.8,490.8,1130.8z M501.6,1113.9c0,0-0.1,0-0.1,0c-0.1-1.2-0.1-2.3-0.2-3.5
							c-0.6-5.1-4.7-9-9.8-9.3c-5.1-0.3-9.9,2.9-10.9,7.9c-0.5,2.7-0.5,5.6-0.3,8.3c0.4,5,4.6,8.9,9.6,9.2c5.3,0.4,9.9-2.8,11.1-7.8
							C501.4,1117.1,501.4,1115.5,501.6,1113.9z M475.8,1145.9c-1.9,1.4-3.5,2.7-5.3,4.1c1.8,1.5,3.5,2.9,5.3,4.4
							C475.8,1151.5,475.8,1148.8,475.8,1145.9z M505.8,1154.5c1.9-1.6,3.5-3,5.3-4.5c-1.8-1.4-3.5-2.7-5.3-4.1
							C505.8,1148.8,505.8,1151.5,505.8,1154.5z"/>
					</g>
				</g>
			</g>
		</g>
	</g>
</g>
<path class="st4" d="M920,1580.6H759.9c-18.3,0-33.2-14.9-33.2-33.2v-160.1c0-18.3,15-33.2,33.2-33.2H920
	c18.3,0,33.2,14.9,33.2,33.2v160.1C953.2,1565.6,938.3,1580.6,920,1580.6z"/>
<g>
	<g>
		<g>
			<path class="st2" d="M920,1469c-1,44.1-37,79.4-81.6,78.6c-44.2-0.8-79.4-37.2-78.5-81.9c0.9-44.4,37.3-79.5,81.9-78.6
				C885.6,1388,920.8,1424.4,920,1469z M914.8,1467.3c-0.1-41.6-33.6-75.1-75.2-75.1c-41,0-74.7,33.8-74.7,74.8
				c0,41.8,33.5,75.4,75,75.4C881.2,1542.3,914.9,1508.6,914.8,1467.3z"/>
		</g>
	</g>
	<path class="st2" d="M820.8,1498.8c-4.8,0-9.5,0-14.3,0c-4,0-7.1-2.5-8-6.2c-0.2-0.6-0.2-1.3-0.2-2.1c0-11.7,0-23.4,0-35.1
		c0-4.9,3.5-8.4,8.4-8.4c2.2,0,4.5,0,6.7,0h12.9c0,0,0-1.8,0-2.1c0-0.6,0-1.1,0-1.7c0.1-3.8,2.6-6.7,6.3-7.3
		c0.4-0.1,0.8-0.1,1.3-0.1c2.4,0,4.8,0,7.2,0c1.7,0,3.4,0,5,0c4.5,0,7.6,3.2,7.7,7.6c0,0.5,0,0.9,0,1.4v2h2.2c1.6,0,3.2,0,4.7,0h0.5
		c1.7,0,3.5,0,5.2,0c2.6,0,4.7,0,6.7,0h0.2c4.8,0,7.9,3.5,8.3,6.8c0,0.1,0.1,0.3,0.1,0.4v37.6c-0.1,0.4-0.3,0.7-0.4,1.1
		c-0.3,0.9-0.6,1.7-1.1,2.4c-1.5,2.3-3.9,3.5-6.9,3.5L820.8,1498.8z M871.1,1495.3c0.7,0,1.2,0,1.7,0c0.2,0,0.3,0,0.4,0
		c1.4,0,2.7-0.5,3.6-1.4c1-1,1.5-2.4,1.5-4c0-8.3,0-16.7,0-24.8l0-9.7c0-0.2,0-0.5,0-0.8c-0.1-2.3-1.7-4.1-3.8-4.3
		c-0.8-0.1-1.6-0.1-2.6-0.1c-0.6,0-1.2,0-1.9,0H870c-0.6,0-1.2,0-1.8,0H867v44.9h1.2c0.5,0,1,0,1.5,0h0.1
		C870.2,1495.3,870.7,1495.3,871.1,1495.3z M807,1450.3c-3.4,0-5.3,1.9-5.3,5.3v34.6c0,0.2,0,0.5,0,0.7c0.2,2.3,1.7,4.1,3.8,4.3
		c0.8,0.1,1.6,0.1,2.6,0.1c0.6,0,1.2,0,1.9,0c0.6,0,1.2,0,1.8,0h1.2v-44.9h-3.6H807L807,1450.3z M816.5,1495.3h47v-44.9h-47V1495.3z
		 M840,1439.2c-2.2,0-4.5,0-6.7,0c-1.8,0-3.4,1.4-3.6,3.2c-0.1,0.8-0.1,1.5,0,2.2c0,0.3,0,0.6,0,0.9v1.2h20.6v-1.2
		c0-0.3,0-0.6,0-0.9c0-0.8,0-1.5,0-2.3c-0.2-1.7-1.8-3.2-3.6-3.2C844.4,1439.2,842.2,1439.2,840,1439.2z"/>
</g>
<g>
	<path class="st4" d="M570.2,1580.9H410.1c-18.3,0-33.2-14.9-33.2-33.2v-160.1c0-18.3,15-33.2,33.2-33.2h160.1
		c18.3,0,33.2,14.9,33.2,33.2v160.1C603.5,1566,588.5,1580.9,570.2,1580.9z"/>
	<g>
		<path class="st2" d="M519.6,1522.6V1500h-4.7v-6.1h17.2c0,0-1.3-8-1.6-9.8l-1.7-9.9c-1.1-6.5-2.2-13.1-3.3-19.6
			c-0.6-3.4-2.8-5.3-6.2-5.3h-4.5c-1.7,0-3.3,0-5,0c0,0,0,0-0.1,0c-1.2-2-2.7-3.9-4.5-5.7c0.5-0.1,0.9-0.2,1.3-0.2l2.5,0
			c1.9,0,3.7-0.1,5.6-0.1c2.8,0,5,0.1,7.1,0.3c4.8,0.4,8.8,4.4,9.7,9.5l0.6,3.6c2.2,12.8,4.4,26,6.5,39.1c0.2,1.1,0.1,2.3,0.1,3.6
			c0,0.2,0,0.4,0,0.6h-12.9v22.7L519.6,1522.6L519.6,1522.6z"/>
		<path class="st2" d="M497.2,1522.6V1512h-15.7v10.6h-6.1v-8.4c0-8.2,0-16.3,0-24.5c0-6,4.1-10.1,10.1-10.1l4.3,0
			c1.2,0,2.3,0,3.5,0c1.1,0,1.9,0.1,2.6,0.3c4.4,1.1,7.3,4.8,7.3,9.5c0,8.2,0,16.3,0,24.5v8.8L497.2,1522.6L497.2,1522.6z
			 M485.6,1485.6c-2.6,0-4,1.4-4,4.1c0,4.4,0,8.7,0,13.1v0.9c0,0.2,0,0.4,0,0.7l0.1,1.6h15.6c0,0,0-12.7,0-16.3c0-2.6-1.4-4-4-4
			h-3.7H485.6L485.6,1485.6z"/>
		<path class="st2" d="M450.5,1522.6v-31.8h-8.8v-10.3c0-8.3,0-16.7,0-25c0-7,5.1-12.2,12.2-12.2H471c1,0,2,0.1,3,0.4
			c-1.9,1.7-3.4,3.6-4.6,5.7c0,0.1,0,0.1-0.2,0.1c-2.9,0-5.7,0-8.5,0c-2.3,0-4.6,0-7,0c-3.5,0-6,2.5-6,5.9c0,7,0,14,0,20.9v6.3
			c0,0.2,0,0.3,0,0.5l0.1,1.6h8.6v38L450.5,1522.6L450.5,1522.6z"/>
		<path class="st2" d="M513.9,1436.4c-0.4,0-0.8,0-1.1-0.1c-5.4-0.6-9.7-4.6-10.5-9.8c-1.1-6.4,3.1-12.4,9.5-13.7
			c0.2,0,0.5-0.1,0.7-0.2h3.1c1.9,0.5,3.9,1.2,5.6,2.4c4.2,3.2,5.7,8.9,3.8,13.8C523.1,1433.3,518.6,1436.4,513.9,1436.4z
			 M513.8,1418.8c-3.1,0-5.7,2.6-5.8,5.7c0,3.2,2.5,5.8,5.7,5.8l0,0c3.2,0,5.8-2.6,5.8-5.7c0-1.5-0.6-3-1.6-4.1
			C516.9,1419.4,515.4,1418.8,513.8,1418.8L513.8,1418.8L513.8,1418.8z"/>
		<path class="st2" d="M461.9,1436.4c-5.6-0.1-10.4-4.4-11.3-10.1c-0.9-6.2,3.2-12.1,9.5-13.4c0.2,0,0.5-0.1,0.7-0.2h3.1
			c0.2,0.1,0.5,0.1,0.7,0.2c0.6,0.2,1.2,0.3,1.8,0.6c5.4,2,8.6,7.6,7.5,13.3c-1,5.6-6,9.6-11.7,9.6L461.9,1436.4z M462.3,1418.8
			c-3.2,0-5.7,2.6-5.8,5.7c0,1.5,0.6,3,1.7,4.1c1.1,1.1,2.5,1.7,4,1.7c3.2,0,5.8-2.6,5.8-5.7C468,1421.4,465.5,1418.8,462.3,1418.8
			L462.3,1418.8z"/>
		<path class="st2" d="M489.5,1472.9c-3.1,0-6.1-1.2-8.3-3.5c-2.3-2.3-3.5-5.2-3.5-8.4c0-6.5,5.3-11.8,11.8-11.8
			c3.2,0,6.1,1.2,8.4,3.5c2.2,2.2,3.5,5.2,3.5,8.4C501.3,1467.6,496,1472.9,489.5,1472.9L489.5,1472.9L489.5,1472.9z M489.5,1455.3
			c-3.2,0-5.7,2.6-5.8,5.7c0,1.5,0.6,3,1.7,4.1c1.1,1.1,2.5,1.7,4,1.7c3.2,0,5.8-2.6,5.8-5.7
			C495.3,1457.9,492.7,1455.3,489.5,1455.3L489.5,1455.3z"/>
	</g>
	<g>
		<path class="st2" d="M571.7,1469.4c-1.1,44.9-37.7,80.8-83.1,80c-45-0.8-80.9-37.8-80-83.4c0.9-45.2,38-81,83.4-80
			C536.7,1386.9,572.5,1424,571.7,1469.4z M566.4,1467.6c-0.1-42.3-34.2-76.5-76.5-76.4c-41.7,0-76,34.4-76,76.1
			c0,42.6,34.1,76.8,76.4,76.8C532.2,1544.1,566.5,1509.7,566.4,1467.6z"/>
	</g>
</g>
<g>
	<path class="st4" d="M919.9,357H759.8c-18.3,0-33.2-15-33.2-33.2V163.7c0-18.3,15-33.2,33.2-33.2h160.1c18.3,0,33.2,14.9,33.2,33.2
		v160.1C953.1,342.1,938.2,357,919.9,357z"/>
	<g>
		<path class="st2" d="M921.2,245.5c-1.1,44.8-37.7,80.7-82.9,79.8c-44.9-0.8-80.8-37.8-79.8-83.3c0.9-45.1,38-80.8,83.2-79.9
			C886.3,163.2,922.1,200.2,921.2,245.5z M916,243.8c-0.1-42.3-34.2-76.4-76.4-76.3c-41.7,0-75.9,34.3-75.9,76
			c0,42.5,34,76.7,76.2,76.7C881.8,320.1,916,285.7,916,243.8z"/>
	</g>
	<g>
		<path class="st2" d="M838.9,289.7v-25.4c0-0.7-0.5-1.2-1.2-1.2h-5c-0.7,0-1.2-0.5-1.2-1.2v-7.4c0-7,0-13.9,0-20.9
			c0-5.9,4.3-10.2,10.2-10.2H856c0,0,0,0,0,0c1,0,1.5,1.2,0.8,2c-0.8,1-1.6,2-2.2,3.1c0,0.1,0,0.1-0.2,0.1c-2.4,0-4.7,0-7.1,0
			c-2,0-3.9,0-5.8,0c-2.9,0-5,2.1-5,4.9c0,5.8,0,11.7,0,17.5v5.3c0,0.1,0,0.3,0,0.4l0.1,1.3h6c0.7,0,1.2,0.5,1.2,1.2v29.4
			c0,0.7-0.5,1.2-1.2,1.2L838.9,289.7L838.9,289.7z"/>
		<path class="st2" d="M841.1,217.6c-4.7-0.1-8.7-3.7-9.4-8.4c-0.8-5.2,2.7-10.1,7.9-11.2c0.2,0,0.4-0.1,0.5-0.2h2.6
			c0.2,0.1,0.4,0.1,0.6,0.2c0.5,0.1,1,0.3,1.5,0.5c4.5,1.7,7.2,6.4,6.3,11.1c-0.8,4.6-5,8-9.8,8L841.1,217.6z M841.4,202.9
			c-2.6,0-4.8,2.1-4.8,4.8c0,1.3,0.5,2.5,1.4,3.4c0.9,0.9,2.1,1.4,3.4,1.4c2.7,0,4.8-2.1,4.8-4.8C846.2,205.1,844,202.9,841.4,202.9
			L841.4,202.9z"/>
		<g>
			<path class="st2" d="M866.3,289c-1-0.5-1.3-1.3-1.4-2c-2.4-13-4.7-25.9-7.1-38.8c-0.2-1.4-0.9-2.1-2.1-2.4
				c-0.2-0.1-0.4-0.1-0.6-0.1c-0.7,0-1.4,0.3-1.9,0.9c-0.5,0.6-0.7,1.3-0.6,2.1c0.1,0.6,0.2,1.2,0.3,1.8c0.1,0.4,0.2,0.8,0.2,1.2
				c0.1,0.6,0,1.1-0.3,1.6c-0.3,0.4-0.6,0.6-1.1,0.7c-0.1,0-0.2,0-0.3,0c-0.9,0-1.5-0.6-1.7-1.6c-0.1-0.4-0.1-0.7-0.2-1
				c-0.2-0.9-0.4-1.9-0.4-2.9c-0.1-3.2,2.3-5.8,5.5-6.1c0.2,0,0.4,0,0.6,0c2.9,0,5.4,2.1,6,5c1.3,7.1,2.6,14.2,3.9,21.4l0.8,4.4
				c0.8,4.5,1.6,8.9,2.5,13.4c0.1,0.7,0.2,1.6-0.6,2.4l-0.1,0.1l-0.1,0c-0.3,0.1-0.6,0.1-1,0.2l-0.2,0L866.3,289z"/>
			<path class="st2" d="M855.2,242.7c2.6,0,5,1.9,5.5,4.6c1.3,7.1,2.6,14.2,3.9,21.4c1.1,5.9,2.2,11.8,3.3,17.8
				c0.1,0.8,0.1,1.4-0.5,1.9c-0.3,0.1-0.6,0.1-0.9,0.2c-0.7-0.3-1-0.9-1.1-1.6c-2.4-13-4.7-25.9-7.1-38.8c-0.3-1.4-1-2.4-2.5-2.8
				c-0.2-0.1-0.5-0.1-0.7-0.1c-1.8,0-3.3,1.6-3,3.5c0.1,1,0.4,2,0.5,3c0.2,0.9-0.2,1.5-1,1.6c-0.1,0-0.2,0-0.2,0
				c-0.6,0-1.1-0.4-1.2-1.2c-0.2-1.3-0.6-2.6-0.6-3.8c-0.1-2.9,2.1-5.3,5-5.6C854.9,242.7,855,242.7,855.2,242.7 M855.2,241.7
				c-0.2,0-0.4,0-0.7,0c-3.5,0.4-6,3.2-5.9,6.6c0,1,0.2,2,0.4,3c0.1,0.3,0.1,0.7,0.2,1c0.2,1.2,1.1,2,2.2,2c0.1,0,0.2,0,0.4,0
				c0.6-0.1,1.1-0.4,1.4-0.9c0.4-0.5,0.5-1.2,0.4-1.9c-0.1-0.4-0.2-0.8-0.2-1.2c-0.1-0.6-0.2-1.2-0.3-1.7c-0.1-0.6,0.1-1.2,0.5-1.7
				c0.4-0.4,0.9-0.7,1.5-0.7c0.2,0,0.3,0,0.5,0.1c1,0.2,1.5,0.8,1.7,2l0,0.1c2.4,12.9,4.7,25.8,7.1,38.8c0.1,0.8,0.5,1.8,1.7,2.4
				l0.3,0.1l0.3-0.1c0.3-0.1,0.7-0.1,1-0.2l0.3-0.1l0.2-0.2c0.9-1,0.8-2,0.7-2.8c-0.8-4.5-1.7-8.9-2.5-13.3l-0.8-4.4
				c-1.3-7.1-2.6-14.2-3.9-21.4C861.1,244,858.4,241.7,855.2,241.7L855.2,241.7z"/>
		</g>
		<polygon class="st2" points="820.7,267.2 811.8,267.2 811.8,272.3 820.7,272.3 820.7,272.3 828,272.3 828,289.7 833.1,289.7 
			833.1,267.2 		"/>
	</g>
</g>
<g>
	<path class="st4" d="M839.6,479.6c-41,0-74.7,33.8-74.7,74.8c0,41.8,33.5,75.5,75,75.4c41.2,0,74.9-33.8,74.8-75.1
		C914.7,513.1,881.1,479.6,839.6,479.6z M829.2,506.9c0.2,0,0.4-0.1,0.5-0.2h2.6c0.2,0.1,0.4,0.1,0.6,0.2c0.5,0.1,1,0.3,1.5,0.5
		c4.5,1.7,7.2,6.4,6.3,11.1c-0.8,4.7-5,8-9.8,8l-0.2,0c-4.7-0.1-8.7-3.7-9.4-8.4C820.5,512.9,824,508,829.2,506.9z M818.9,565.6
		l0.1,1.3h7.2v31.8l-5.1,0V572h-7.3v-8.6c0-7,0-13.9,0-20.9c0-5.9,4.3-10.2,10.2-10.2h14.3c0.9,0,1.7,0.1,2.5,0.3
		c-1.6,1.4-2.9,3-3.8,4.7c0,0,0,0.1-0.2,0.1c-2.4,0-4.7,0-7.1,0c-2,0-3.9,0-5.8,0c-2.9,0-5,2.1-5,4.9c0,5.8,0,11.7,0,17.5v5.3
		C818.9,565.3,818.9,565.4,818.9,565.6z M865.9,591c0,3.5-1.6,5.1-5,5.4c-0.1,0-0.2,0-0.4,0.1c-0.1,1.2,0.2,2.8-1.8,2.9
		c-1.1,0-1.4-0.7-1.6-2.9c-4.1,0-8.3,0-12.4,0c-0.4,2.5-0.7,2.9-1.8,2.9c-1.1,0-1.4-0.6-1.7-2.9c-0.2,0-0.3-0.1-0.5-0.1
		c-3.1-0.2-4.8-2-4.8-5.1c0-4.9,0-9.8,0-14.7c0-3.7,0.1-7.4,0-11c-0.1-3.2,2-5.8,5.5-5.5c1,0.1,2,0,3.2,0c0-3.9,0-7.7,0-11.6
		c-0.4,0-0.7,0-1.1-0.1c-0.9-0.1-1.6-0.8-1.6-1.7c0-0.9,0.7-1.6,1.6-1.6c1.5,0,3,0,4.5,0c3.4,0,6.7,0,10.1,0c0.8,0,1.4,0.3,1.7,1.1
		c0.2,0.7,0.1,1.4-0.5,1.8c-0.3,0.2-0.7,0.3-1.1,0.4c-0.3,0.1-0.6,0-1,0.1c0,3.9,0,7.7,0,11.7c1.2,0,2.4,0,3.6,0
		c3.3,0,5.1,1.8,5.1,5.2C865.9,573.8,865.9,582.4,865.9,591z"/>
	<path class="st4" d="M831,521.5c2.7,0,4.8-2.2,4.8-4.8c0-2.7-2.2-4.8-4.8-4.8c-2.6,0-4.8,2.1-4.8,4.8c0,1.3,0.5,2.5,1.4,3.4
		C828.5,521,829.7,521.5,831,521.5z"/>
	<path class="st4" d="M862.6,572c0-2.6,0-5,0-7.5c0-0.9-0.6-1.2-1.4-1.2c-1.3,0-2.5,0-3.8,0c-5.5,0-11,0-16.4,0
		c-1.1,0-1.7,0.4-1.7,1.4c0,2.4,0,4.8,0,7.3C847,569.9,854.8,569.9,862.6,572z"/>
	<path class="st4" d="M853.8,548.3c-2,0-3.8,0-5.8,0c0,3.9,0,7.7,0,11.6c2,0,3.9,0,5.8,0C853.8,556,853.8,552.1,853.8,548.3z"/>
	<path class="st4" d="M861.8,575.2c-7.3-1.9-14.5-1.9-21.8,0c-0.6,0.2-0.8,0.4-0.8,1.1c0,5,0,10,0,14.9c0,1.4,0.4,1.8,1.9,1.8
		c3.3,0,6.6,0,9.9,0c3.3,0,6.6,0,9.9,0c1.5,0,1.8-0.4,1.8-1.8c0-5,0-10,0-14.9C862.6,575.6,862.4,575.3,861.8,575.2z"/>
	<path class="st4" d="M919.9,441.4H759.8c-18.3,0-33.2,15-33.2,33.2v160.1c0,18.3,14.9,33.2,33.2,33.2h160.1
		c18.3,0,33.2-15,33.2-33.2V474.7C953.1,456.4,938.2,441.4,919.9,441.4z M838.3,635c-44.2-0.8-79.4-37.2-78.5-81.9
		c0.9-44.4,37.3-79.5,81.9-78.6c43.8,1,79.1,37.4,78.2,81.9C918.9,600.5,882.9,635.8,838.3,635z"/>
	<path class="st2" d="M841.7,474.5c-44.5-0.9-81,34.2-81.9,78.6c-0.9,44.8,34.4,81.1,78.5,81.9c44.5,0.8,80.6-34.5,81.6-78.5
		C920.7,511.9,885.5,475.4,841.7,474.5z M839.9,629.8c-41.5,0-75-33.6-75-75.4c0-41,33.7-74.7,74.7-74.8c41.5,0,75.1,33.5,75.2,75.1
		C914.8,596,881.2,629.8,839.9,629.8z"/>
	<path class="st2" d="M830.7,526.6l0.2,0c4.8,0,9-3.4,9.8-8c0.9-4.8-1.8-9.5-6.3-11.1c-0.5-0.2-1-0.3-1.5-0.5
		c-0.2-0.1-0.4-0.1-0.6-0.2h-2.6c-0.2,0.1-0.3,0.1-0.5,0.2c-5.2,1.1-8.7,6-7.9,11.2C822,522.8,826,526.5,830.7,526.6z M831,511.9
		c2.6,0,4.8,2.2,4.8,4.8c0,2.6-2.2,4.8-4.8,4.8c-1.3,0-2.5-0.5-3.4-1.4c-0.9-0.9-1.4-2.1-1.4-3.4C826.2,514,828.4,511.9,831,511.9z"
		/>
	<path class="st2" d="M818.9,542.3c0-2.8,2.1-4.9,5-4.9c2,0,3.9,0,5.8,0c2.4,0,4.7,0,7.1,0c0.1,0,0.2,0,0.2-0.1
		c1-1.7,2.2-3.3,3.8-4.7c-0.8-0.2-1.7-0.3-2.5-0.3H824c-5.9,0-10.2,4.3-10.2,10.2c0,7,0,13.9,0,20.9v8.6h7.3v26.6l5.1,0v-31.8H819
		l-0.1-1.3c0-0.2,0-0.3,0-0.4v-5.3C818.9,554,818.9,548.2,818.9,542.3z"/>
	<path class="st2" d="M860.8,560c-1.2,0-2.4,0-3.6,0c0-3.9,0-7.8,0-11.7c0.4,0,0.7,0,1-0.1c0.4-0.1,0.8-0.2,1.1-0.4
		c0.6-0.5,0.7-1.1,0.5-1.8c-0.3-0.8-0.9-1.1-1.7-1.1c-3.4,0-6.7,0-10.1,0c-1.5,0-3,0-4.5,0c-1,0-1.6,0.7-1.6,1.6
		c0,0.9,0.6,1.6,1.6,1.7c0.4,0.1,0.7,0.1,1.1,0.1c0,3.9,0,7.7,0,11.6c-1.1,0-2.1,0.1-3.2,0c-3.6-0.3-5.7,2.3-5.5,5.5
		c0.1,3.7,0,7.4,0,11c0,4.9,0,9.8,0,14.7c0,3.1,1.8,5,4.8,5.1c0.2,0,0.4,0,0.5,0.1c0.3,2.3,0.6,2.9,1.7,2.9c1.1,0,1.4-0.5,1.8-2.9
		c4.1,0,8.3,0,12.4,0c0.2,2.2,0.5,2.9,1.6,2.9c2,0,1.7-1.6,1.8-2.9c0.2-0.1,0.3-0.1,0.4-0.1c3.5-0.2,5-1.9,5-5.4
		c0-8.6,0-17.3,0-25.9C865.9,561.8,864.1,560,860.8,560z M848,548.3c1.9,0,3.8,0,5.8,0c0,3.9,0,7.7,0,11.6c-1.9,0-3.8,0-5.8,0
		C848,556,848,552.2,848,548.3z M839.2,564.7c0-1,0.6-1.4,1.7-1.4c5.5,0,11,0,16.4,0c1.2,0,2.5,0,3.8,0c0.8,0,1.4,0.4,1.4,1.2
		c0,2.5,0,4.9,0,7.5c-7.8-2.1-15.5-2.1-23.4,0C839.2,569.4,839.1,567,839.2,564.7z M862.6,591.2c0,1.5-0.4,1.8-1.8,1.8
		c-3.3,0-6.6,0-9.9,0c-3.3,0-6.6,0-9.9,0c-1.4,0-1.9-0.4-1.9-1.8c0-5,0-10,0-14.9c0-0.7,0.2-1,0.8-1.1c7.3-2,14.5-1.9,21.8,0
		c0.7,0.2,0.8,0.5,0.8,1.1C862.6,581.3,862.6,586.2,862.6,591.2z"/>
</g>
</svg>
