<?xml version="1.0" encoding="utf-8"?>
<!-- Generator: Adobe Illustrator 26.3.1, SVG Export Plug-In . SVG Version: 6.00 Build 0)  -->
<svg version="1.1" id="Layer_1" xmlns="http://www.w3.org/2000/svg" xmlns:xlink="http://www.w3.org/1999/xlink" x="0px" y="0px"
	 viewBox="0 0 80 80" style="enable-background:new 0 0 80 80;" xml:space="preserve">
<style type="text/css">
	.st0{fill:#B01E36;}
</style>
<g>
	<g>
		<path class="st0" d="M304.1,241.7c-3.1-0.1-5.8-2.5-6.3-5.6c-0.5-3.5,1.8-6.8,5.3-7.5c0.1,0,0.3-0.1,0.4-0.1h1.7l0.1,0
			c0.1,0,0.1,0,0.2,0.1c0.4,0.1,0.8,0.2,1.1,0.3c3,1.1,4.8,4.2,4.2,7.4c-0.6,3.1-3.3,5.3-6.5,5.3L304.1,241.7z M304.3,230.8
			c-2.4,0-4.3,1.9-4.3,4.3c0,1.2,0.4,2.2,1.3,3.1c0.8,0.8,1.9,1.3,3,1.3c2.4,0,4.3-1.9,4.3-4.3C308.6,232.8,306.7,230.8,304.3,230.8
			z"/>
		<path class="st0" d="M297.7,283.1v-10.5h-5.4v-21.2c0-3.9,2.9-6.8,6.8-6.8h10.6c0.1,0,0.2,0,0.3,0c-0.7,0.7-1.2,1.5-1.7,2.3
			c-1.7,0-3.3,0-4.9,0c-1.5,0-2.9,0-4.3,0c-2.6,0-4.4,1.9-4.4,4.4c0,4.3,0,8.7,0,13v3.9c0,0.1,0,0.1,0,0.2c0,0,0.1,1.8,0.1,1.8h5.3
			v12.9H297.7z"/>
	</g>
	<g>
		<path class="st0" d="M313.7,262.1C313.6,262.1,313.6,262.1,313.7,262.1c0,2.3-0.1,4.5,0,6.7c0.2,2.7,2.7,4.9,5.4,5
			c2.9,0.1,5.4-1.8,6-4.5c0.1-0.3,0.1-0.6,0.1-0.9c0-0.2,0-0.4,0-0.6c0-1.9,0-3.8,0-5.7c-0.1,0-0.2,0-0.3,0c-0.7,0-1.3,0-2,0
			c-0.7,0-1.2-0.5-1.2-1.2c0-0.6,0.5-1.2,1.2-1.2c1.2,0,2.4,0,3.5,0c0.6,0,1.1,0.5,1.1,1.1c0,2.5,0.1,5,0,7.5
			c-0.1,3.8-3,6.9-6.7,7.6c-0.1,0-0.2,0-0.3,0.1c0,1.6,0.4,3,1.6,4.1c0.8,0.8,1.9,0.9,3,0.7c2.3-0.4,4.2-1.6,5.5-3.5
			c3.1-4.7,4-9.7,1.7-15c-2.1-5-6.1-7.7-11.5-8.4c-2.6-0.3-5.1,0.2-7.5,1.3c-0.3,0.1-0.6,0.2-0.8,0.2c-0.5-0.1-0.9-0.5-1-1
			c-0.1-0.5,0.2-1,0.6-1.2c1.4-0.7,3-1.3,4.6-1.5c4.8-0.7,9.2,0.3,13,3.4c3.4,2.8,5.5,6.4,6,10.7c0.5,4.6-0.5,8.8-3.1,12.6
			c-1.4,2-3.2,3.5-5.5,4.2c-1.3,0.4-2.7,0.6-4.1,0.3c-2.2-0.4-3.5-1.9-4.1-4c-0.3-0.9-0.4-1.8-0.5-2.8c0-0.2-0.1-0.3-0.3-0.3
			c-3.9-0.7-6.7-4.1-6.7-8.1c0-2.3,0-4.6,0-6.8c0-0.9,0.5-1.3,1.3-1.3c1.1,0,2.2,0,3.3,0c0.8,0,1.3,0.5,1.3,1.2
			c0,0.7-0.5,1.2-1.3,1.2C315.1,262.1,314.4,262.1,313.7,262.1z"/>
		<path class="st0" d="M313.6,279.7c0,2.5-2,4.5-4.4,4.7c-2.5,0.1-4.7-1.7-4.9-4.2c-0.1-1.3,0.2-2.4,1-3.4c0.2-0.2,0.1-0.3,0-0.5
			c-1.8-3.1-2.5-6.4-2.2-9.9c0.4-3.8,1.9-7,4.5-9.7c0.5-0.5,1.2-0.5,1.7-0.1c0.5,0.5,0.5,1.2,0,1.7c-1.9,2-3.2,4.4-3.7,7.1
			c-0.7,3.4-0.1,6.7,1.6,9.7c0.1,0.2,0.2,0.2,0.5,0.2C310.8,274.3,313.6,276.6,313.6,279.7z M311.3,279.6c0-1.3-1.1-2.3-2.4-2.3
			c-1.3,0-2.3,1.1-2.3,2.3c0,1.3,1,2.4,2.3,2.4C310.2,282,311.3,280.9,311.3,279.6z"/>
	</g>
</g>
<g>
	<g>
		<path class="st0" d="M23.2,19.6c-3.9-0.1-7.3-3.1-7.9-7.1c-0.7-4.4,2.3-8.5,6.6-9.4c0.2,0,0.4-0.1,0.5-0.1h2.1l0.1,0
			c0.1,0,0.2,0.1,0.3,0.1c0.5,0.1,0.9,0.3,1.4,0.4c3.8,1.4,6,5.3,5.3,9.3c-0.7,3.9-4.2,6.7-8.2,6.7L23.2,19.6z M23.4,5.9
			c-3,0-5.4,2.4-5.4,5.4c0,1.5,0.6,2.8,1.6,3.8c1,1,2.4,1.6,3.8,1.6c3,0,5.4-2.4,5.4-5.4C28.8,8.3,26.4,5.9,23.4,5.9z"/>
		<path class="st0" d="M15.2,71.5V58.3H8.4V31.7c0-4.9,3.6-8.6,8.6-8.6h13.3c0.1,0,0.2,0,0.4,0c-0.8,0.9-1.6,1.9-2.2,2.9
			c-2.1,0-4.1,0-6.2,0c-1.8,0-3.6,0-5.5,0c-3.2,0-5.6,2.3-5.6,5.5c0,5.4,0,10.9,0,16.3v4.9c0,0.1,0,0.2,0,0.3c0,0,0.1,2.3,0.1,2.3
			h6.7v16.2H15.2z"/>
	</g>
	<g>
		<path class="st0" d="M57.7,70.8c-0.9,1.9-3.1,3.1-5.7,1.9c-0.5,1-1.3,1.8-2.4,2.2c-1.1,0.4-2.2,0.2-3.2-0.3
			c-0.5,0.5-0.8,1.1-1.3,1.5c-1.5,1.2-3.5,1.1-5,0c-4-3.2-8.1-6.4-12.1-9.5c-0.2-0.2-0.5-0.2-0.8-0.3c-0.7,0-1.5,0-2.2,0
			c-1,0-1.6-0.5-1.6-1.5c0-6.1,0-12.3,0-18.4c0-1.1,0.7-1.7,1.8-1.4c1.3,0.3,2.6,0.7,3.9,1c0.4,0.1,0.7,0,1-0.2
			c2.2-1.3,4.6-2.3,7.2-2.8c1.3-0.2,2.6-0.2,3.8,0.2c0.2,0,0.4,0,0.6-0.1c3.2-2.1,6.6-2.4,10.1-1.3c2,0.6,3.8,1.5,5.8,2.2
			c2.1,0.7,4.2,1.4,6.3,2.1c0.4,0.1,0.9,0.1,1.4,0c1.5-0.3,2.9-0.7,4.3-1.1c1.1-0.3,1.9,0.3,1.9,1.5c0,6.1,0,12.2,0,18.3
			c0,1.1-0.5,1.6-1.6,1.6c-0.4,0-0.8,0-1.3,0c-1.6-0.2-3.2,0.2-4.7,0.8c-0.2,0.1-0.4,0.3-0.4,0.4C63.1,70.7,60.8,72.1,57.7,70.8z
			 M39,45.7c-0.3,0-0.5,0-0.8,0c-2.5,0.3-4.6,1.3-6.7,2.5c-0.1,0.1-0.3,0.3-0.3,0.5c-0.3,2.3-0.5,4.7-0.8,7
			c-0.3,2.7-0.6,5.4-0.9,8.1c0,0.4,0,0.6,0.3,0.8c2.7,2.1,5.4,4.3,8.1,6.4c1.2,1,2.4,1.9,3.6,2.9c0.6,0.5,1.4,0.5,1.9-0.1
			c0.5-0.5,0.5-1.3-0.1-1.9c-0.1-0.1-0.3-0.3-0.4-0.4c-1.1-1.1-2.2-2.2-3.3-3.3c-0.5-0.5-0.5-1.1-0.2-1.6c0.3-0.5,0.9-0.8,1.5-0.6
			c0.3,0.1,0.6,0.3,0.8,0.5c1.8,1.8,3.5,3.5,5.3,5.3c0.2,0.2,0.5,0.4,0.8,0.5c0.6,0.2,1.2-0.1,1.5-0.6c0.3-0.5,0.2-1.1-0.2-1.6
			c-1.2-1.2-2.4-2.4-3.5-3.5c-0.7-0.7-1.4-1.4-2.1-2.1c-0.4-0.4-0.5-0.9-0.3-1.4c0.2-0.5,0.6-0.8,1.1-0.8c0.5-0.1,0.9,0.2,1.2,0.5
			c2.4,2.4,4.8,4.7,7.1,7.1c0.1,0.1,0.3,0.3,0.4,0.4c0.8,0.6,2,0.1,2.1-0.9c0.1-0.5-0.2-0.9-0.5-1.2c-1.7-1.7-3.4-3.4-5.1-5.1
			c-0.8-0.8-1.5-1.5-2.2-2.3c-0.4-0.4-0.5-1.1-0.2-1.6c0.3-0.5,0.9-0.8,1.5-0.6c0.3,0.1,0.6,0.3,0.9,0.6c3,2.9,5.9,5.9,8.9,8.9
			c0.2,0.2,0.3,0.3,0.5,0.5c0.5,0.3,1.1,0.3,1.5,0c0.4-0.3,0.7-0.9,0.5-1.4c-0.1-0.3-0.3-0.6-0.6-0.9c-4-4-8.1-8.1-12.1-12.1
			c-0.1-0.1-0.2-0.2-0.3-0.3c-1.1,0.6-2,1.3-3.1,1.8c-2.4,1.1-4.7,0.7-6.8-0.8c-1.8-1.3-2.4-3.8-1.3-5.8c0.5-1,1.2-1.8,1.8-2.7
			C38.8,46,38.9,45.9,39,45.7z M64.9,64c-0.4-5.1-0.8-10.2-1.2-15.2c-0.1,0-0.2-0.1-0.2-0.1c-2.3-0.7-4.5-1.4-6.8-2.2
			c-1.8-0.6-3.5-1.4-5.4-2c-2.6-0.8-5.1-0.8-7.5,0.6c-2.1,1.2-3.6,3.1-4.7,5.2c-0.5,0.8-0.1,1.9,0.7,2.4c1.5,1,3.4,1,5.1-0.2
			c1.7-1.1,3-2.7,4.2-4.3c0.5-0.7,1.3-0.9,1.9-0.4c0.6,0.5,0.7,1.3,0.2,2c-0.5,0.7-1,1.4-1.5,2c0,0,0,0.1,0.1,0.1
			c4.2,4.2,8.4,8.4,12.7,12.7c0.1,0.1,0.3,0.2,0.4,0.1C63.6,64.4,64.2,64.2,64.9,64z M66.4,48.6c0.4,5,0.8,10,1.2,15
			c0.5,0,1,0,1.4,0c0-5.2,0-10.4,0-15.6C68.1,48.2,67.3,48.4,66.4,48.6z M27,63.6c0.5-5,1.1-10,1.6-15c-0.8-0.2-1.6-0.4-2.4-0.6
			c0,5.2,0,10.4,0,15.6C26.4,63.6,26.7,63.6,27,63.6z"/>
	</g>
</g>
</svg>
