<?xml version="1.0" encoding="utf-8"?>
<!-- Generator: Adobe Illustrator 26.3.1, SVG Export Plug-In . SVG Version: 6.00 Build 0)  -->
<svg version="1.1" id="Layer_1" xmlns="http://www.w3.org/2000/svg" xmlns:xlink="http://www.w3.org/1999/xlink" x="0px" y="0px"
	 viewBox="0 0 80 80" style="enable-background:new 0 0 80 80;" xml:space="preserve">
<style type="text/css">
	.st0{fill:#B01E36;}
</style>
<g>
	<path class="st0" d="M29.9,77.2c-1-0.6-2.2-1-3-1.7c-1.3-1.1-1.6-2.8-1.6-4.4c0-4.6,0-9.1,0-13.7c0-0.5-0.2-1-0.4-1.5
		c-0.3-1-0.8-2-0.9-3c-0.1-1.7-0.1-3.5,0-5.2c0.2-2.7,2.5-4.9,5.2-5c2.7-0.1,5.4,0,8.1-0.1c0.4,0,0.7,0,1.2,0c0-0.9,0-1.8,0-2.6
		c0-3,1.7-4.7,4.7-4.7c2.7,0,5.3,0,8,0c2.9,0,4.6,1.8,4.6,4.7c0,0.8,0,1.7,0,2.6c1,0,1.8,0,2.7,0c2.1,0,4.2,0,6.3,0
		c3.1,0.1,5.4,2.4,5.5,5.5c0.1,1.5,0.1,3.1,0,4.6c-0.1,1-0.4,2-0.9,2.9c-0.4,0.7-0.5,1.4-0.5,2.2c0,4.2,0,8.4,0,12.6
		c0,4-1,5.4-4.7,6.8C52.7,77.2,41.3,77.2,29.9,77.2z M61.5,58.7c1.3-0.9,2.5-1.6,3.7-2.5c1.6-1.3,2.5-2.9,2.3-5.1
		c-0.1-0.8,0-1.5,0-2.3c0-2.7-1-3.7-3.7-3.7c-9.5,0-19,0-28.6,0c-1.9,0-3.7,0-5.6,0c-1.7,0-2.8,1.1-3,2.8c-0.1,1,0,2,0,3
		c0,3.5,2.5,6.6,5.9,7.4c0.4-1.2,0.7-1.4,2-1.4c1.7,0,3.4,0,5.1,0c1,0,1.5,0.5,1.6,1.5c0,0.4,0,0.7,0,1.1c0,1.3,0,1.3,1.3,1.5
		c0.7,0.1,1.4,0.1,2.1,0.2c1.3,0.1,2.7,0,4,0.2c0.4,0,1,0.5,1.2,0.9c0.2,0.3,0,1-0.2,1.3c-0.3,0.3-0.9,0.5-1.4,0.5
		c-2.1,0-4.1-0.2-6.2-0.3c-0.6,0-0.9,0-1.2,0.7c-0.8,1.9-2.8,2.9-4.8,2.4c-2-0.5-3.2-2.1-3.3-4.4c0-0.3-0.1-0.8-0.3-1
		c-1.4-0.8-2.8-1.5-4.2-2.2c0,4.2-0.1,8.4,0,12.6c0,1.6,1.3,2.5,3.1,2.5c10.6,0,21.1,0,31.7,0c2.1,0,3.2-1.1,3.2-3.2
		c0-3.8,0-7.6,0-11.3c0-0.2,0-0.4-0.1-0.7c-1.1,0.6-2.1,1.2-3.1,1.6c-0.9,0.4-1.4,0.9-1.4,2c-0.1,2.4-2.1,4.2-4.3,4.1
		c-2.3-0.1-4.1-1.9-4.1-4.3c0-1.3,0-2.7,0-4c0-1.2,0.5-1.7,1.7-1.7c1.5,0,3.1,0,4.6,0C60.4,57,61.4,57.1,61.5,58.7z M41.2,42.4
		c3.9,0,7.8,0,11.7,0c0-1.1,0.1-2.1,0-3.1c-0.1-0.9-0.6-1.3-1.5-1.4c-0.5,0-1,0-1.4,0c-2.3,0-4.6,0-7,0c-1.1,0-1.7,0.4-1.8,1.3
		C41.1,40.3,41.2,41.3,41.2,42.4z M55.7,59.8c0,1,0,2,0,2.9c0,0.9,0.7,1.5,1.5,1.5c0.8,0,1.5-0.5,1.5-1.4c0.1-1,0-2,0-3.1
		C57.7,59.8,56.7,59.8,55.7,59.8z M35.3,59.8c0,1.1,0,2.1,0,3.1c0.1,0.8,0.7,1.4,1.5,1.4c0.8,0,1.4-0.5,1.5-1.3c0.1-1,0-2.1,0-3.2
		C37.3,59.8,36.4,59.8,35.3,59.8z"/>
	<g>
		<path class="st0" d="M25.6,21c-4.2-0.1-7.8-3.4-8.4-7.6c-0.7-4.7,2.4-9.1,7.1-10c0.2,0,0.4-0.1,0.5-0.1H27l0.1,0
			c0.1,0,0.2,0.1,0.3,0.1c0.5,0.1,1,0.3,1.5,0.5c4,1.5,6.4,5.7,5.6,10C33.8,18,30.1,21,25.8,21L25.6,21z M25.9,6.4
			c-3.2,0-5.8,2.6-5.8,5.8c0,1.6,0.6,3,1.7,4.1c1.1,1.1,2.5,1.7,4.1,1.7c3.2,0,5.8-2.6,5.8-5.8C31.7,9,29.1,6.4,25.9,6.4z"/>
		<path class="st0" d="M17.1,76.6V62.4H9.8V34c0-5.3,3.8-9.1,9.1-9.2h14.3c0.1,0,0.3,0,0.4,0c-0.9,1-1.7,2-2.3,3.1
			c-2.2,0-4.4,0-6.6,0c-1.9,0-3.9,0-5.8,0c-3.4,0-5.9,2.5-5.9,5.9c0,5.8,0,11.6,0,17.4v5.3c0,0.1,0,0.2,0,0.3c0,0.1,0.1,2.5,0.1,2.5
			h7.2v17.3H17.1z"/>
	</g>
</g>
</svg>
