<?xml version="1.0" encoding="utf-8"?>
<!-- Generator: Adobe Illustrator 26.3.1, SVG Export Plug-In . SVG Version: 6.00 Build 0)  -->
<svg version="1.1" id="Layer_1" xmlns="http://www.w3.org/2000/svg" xmlns:xlink="http://www.w3.org/1999/xlink" x="0px" y="0px"
	 viewBox="0 0 80 80" style="enable-background:new 0 0 80 80;" xml:space="preserve">
<style type="text/css">
	.st0{fill:#B01E36;}
</style>
<g>
	<g>
		<path class="st0" d="M22.9,20.7c-4.2-0.1-7.8-3.4-8.4-7.6c-0.7-4.7,2.4-9.1,7.1-10c0.2,0,0.4-0.1,0.5-0.1h2.3l0.1,0
			c0.1,0,0.2,0.1,0.3,0.1c0.5,0.1,1,0.3,1.5,0.5c4,1.5,6.4,5.7,5.6,10c-0.8,4.2-4.4,7.2-8.8,7.2L22.9,20.7z M23.2,6.1
			c-3.2,0-5.8,2.6-5.8,5.8c0,1.6,0.6,3,1.7,4.1c1.1,1.1,2.5,1.7,4.1,1.7c3.2,0,5.8-2.6,5.8-5.8C29,8.7,26.4,6.1,23.2,6.1z"/>
		<path class="st0" d="M14.4,76.3V62.1H7.1V33.7c0-5.3,3.8-9.1,9.1-9.2h14.3c0.1,0,0.3,0,0.4,0c-0.9,1-1.7,2-2.3,3.1
			c-2.2,0-4.4,0-6.6,0c-1.9,0-3.9,0-5.8,0c-3.4,0-5.9,2.5-5.9,5.9c0,5.8,0,11.6,0,17.5v5.3c0,0.1,0,0.2,0,0.3c0,0.1,0.1,2.5,0.1,2.5
			h7.2v17.3H14.4z"/>
	</g>
	<g>
		<path class="st0" d="M22.7,72c0-9.2,0-18.4,0-27.7c0-0.1,0.1-0.1,0.1-0.2c0.3-2.5,2.7-4.9,6-4.9c3.3,0.1,6.7,0,10.1,0
			c0.2,0,0.4,0,0.6,0c0-0.3,0-0.5,0-0.7c0.1-1.9,1.6-3.4,3.5-3.5c3.2,0,6.4,0,9.7,0c1.9,0,3.4,1.6,3.5,3.5c0,0.2,0,0.4,0,0.7
			c0.2,0,0.4,0,0.6,0c3.4,0,6.9,0,10.3,0c2.5,0,4.3,1.2,5.3,3.4c0.2,0.5,0.3,1.1,0.5,1.6c0,9.2,0,18.4,0,27.7c0,0-0.1,0.1-0.1,0.1
			C72.1,75.3,70,77,66.7,77c-6,0-12.1,0-18.1,0c-6.7,0-13.3,0-20,0c-2.3,0-4.1-1-5.2-3C23.1,73.4,22.9,72.7,22.7,72z M56.2,42.5
			c0,0.3,0,0.5,0,0.7c-0.1,1.9-1.6,3.5-3.5,3.5c-3.2,0-6.5,0-9.7,0c-1.6,0-3-1.2-3.4-2.8c-0.1-0.4-0.1-0.9-0.2-1.4
			c-0.2,0-0.3,0-0.5,0c-3.4,0-6.8,0-10.2,0c-1.8,0-2.9,1.1-2.9,2.9c0,8.5,0,17.1,0,25.6c0,1.8,1.1,2.9,2.9,2.9c12.7,0,25.4,0,38.2,0
			c1.8,0,2.9-1.1,2.9-2.9c0-8.5,0-17.1,0-25.6c0-1.8-1-2.9-2.9-2.9c-3.4,0-6.8,0-10.2,0C56.5,42.5,56.4,42.5,56.2,42.5z M47.8,43.5
			c1.5,0,3,0,4.5,0c0.7,0,0.8-0.1,0.8-0.8c0-1.2,0-2.5,0-3.7c0-0.6-0.1-0.8-0.8-0.8c-3,0-5.9,0-8.9,0c-0.7,0-0.8,0.1-0.8,0.8
			c0,1.2,0,2.4,0,3.6c0,0.7,0.1,0.8,0.8,0.8C44.8,43.5,46.3,43.5,47.8,43.5z"/>
		<path class="st0" d="M38.4,62.4c1.5,0,2.9-0.1,4.4,0c2.7,0.2,4.9,2.6,5,5.3c0,0.5,0,0.9,0,1.4c0,0.9-0.7,1.6-1.6,1.5
			c-0.8,0-1.5-0.7-1.5-1.5c0-0.3,0-0.7,0-1c0-1.5-1.1-2.6-2.6-2.7c-2.5,0-4.9,0-7.4,0c-1.5,0-2.6,1.2-2.6,2.7c0,0.4,0,0.7,0,1.1
			c-0.1,0.8-0.7,1.4-1.5,1.5c-0.8,0-1.5-0.6-1.6-1.3c-0.2-1.8,0.1-3.6,1.3-5c1.2-1.3,2.7-2,4.4-2C36,62.3,37.2,62.3,38.4,62.4
			C38.4,62.3,38.4,62.4,38.4,62.4z"/>
		<path class="st0" d="M33.2,55c0-2.9,2.3-5.2,5.2-5.2c2.9,0,5.2,2.4,5.2,5.3c0,2.9-2.3,5.2-5.2,5.2C35.5,60.2,33.2,57.9,33.2,55z
			 M36.3,54.9c0,1.2,0.9,2.1,2,2.1c1.2,0,2.1-0.9,2.1-2c0-1.2-0.9-2.1-2-2.1C37.3,52.9,36.3,53.8,36.3,54.9z"/>
		<path class="st0" d="M59.3,50.8c1.9,0,3.7,0,5.6,0c1,0,1.8,0.6,1.8,1.5c0,0.9-0.7,1.6-1.8,1.6c-3.7,0-7.4,0-11.2,0
			c-1.2,0-2-1-1.6-2.1c0.2-0.7,0.8-1,1.6-1C55.5,50.8,57.4,50.8,59.3,50.8z"/>
		<path class="st0" d="M59.3,62.3c-1.9,0-3.9,0-5.8,0c-0.7,0-1.3-0.4-1.5-1.1c-0.2-0.6,0-1.3,0.5-1.7c0.3-0.2,0.7-0.3,1-0.3
			c3.8,0,7.6,0,11.4,0c1,0,1.6,0.7,1.6,1.6c0,0.9-0.7,1.5-1.7,1.5C63.1,62.3,61.2,62.3,59.3,62.3C59.3,62.3,59.3,62.3,59.3,62.3z"/>
		<path class="st0" d="M59.3,67.6c1.9,0,3.9,0,5.8,0c0.7,0,1.3,0.5,1.5,1.2c0.2,0.6-0.1,1.4-0.7,1.7c-0.2,0.1-0.5,0.2-0.7,0.2
			c-3.9,0-7.7,0-11.6,0c-0.8,0-1.4-0.6-1.5-1.3c-0.1-0.8,0.3-1.5,1-1.7c0.2-0.1,0.5-0.1,0.8-0.1C55.6,67.6,57.5,67.6,59.3,67.6
			C59.3,67.6,59.3,67.6,59.3,67.6z"/>
	</g>
</g>
</svg>
