<?xml version="1.0" encoding="utf-8"?>
<!-- Generator: Adobe Illustrator 26.3.1, SVG Export Plug-In . SVG Version: 6.00 Build 0)  -->
<svg version="1.1" id="Layer_1" xmlns="http://www.w3.org/2000/svg" xmlns:xlink="http://www.w3.org/1999/xlink" x="0px" y="0px"
	 viewBox="0 0 80 80" style="enable-background:new 0 0 80 80;" xml:space="preserve">
<style type="text/css">
	.st0{fill:#B01E36;}
</style>
<g>
	<g>
		<path class="st0" d="M304.1,241.7c-3.1-0.1-5.8-2.5-6.3-5.6c-0.5-3.5,1.8-6.8,5.3-7.5c0.1,0,0.3-0.1,0.4-0.1h1.7l0.1,0
			c0.1,0,0.1,0,0.2,0.1c0.4,0.1,0.8,0.2,1.1,0.3c3,1.1,4.8,4.2,4.2,7.4c-0.6,3.1-3.3,5.3-6.5,5.3L304.1,241.7z M304.3,230.8
			c-2.4,0-4.3,1.9-4.3,4.3c0,1.2,0.4,2.2,1.3,3.1c0.8,0.8,1.9,1.3,3,1.3c2.4,0,4.3-1.9,4.3-4.3C308.6,232.8,306.7,230.8,304.3,230.8
			z"/>
		<path class="st0" d="M297.7,283.1v-10.5h-5.4v-21.2c0-3.9,2.9-6.8,6.8-6.8h10.6c0.1,0,0.2,0,0.3,0c-0.7,0.7-1.2,1.5-1.7,2.3
			c-1.7,0-3.3,0-4.9,0c-1.5,0-2.9,0-4.3,0c-2.6,0-4.4,1.9-4.4,4.4c0,4.3,0,8.7,0,13v3.9c0,0.1,0,0.1,0,0.2c0,0,0.1,1.8,0.1,1.8h5.3
			v12.9H297.7z"/>
	</g>
	<g>
		<path class="st0" d="M313.7,262.1C313.6,262.1,313.6,262.1,313.7,262.1c0,2.3-0.1,4.5,0,6.7c0.2,2.7,2.7,4.9,5.4,5
			c2.9,0.1,5.4-1.8,6-4.5c0.1-0.3,0.1-0.6,0.1-0.9c0-0.2,0-0.4,0-0.6c0-1.9,0-3.8,0-5.7c-0.1,0-0.2,0-0.3,0c-0.7,0-1.3,0-2,0
			c-0.7,0-1.2-0.5-1.2-1.2c0-0.6,0.5-1.2,1.2-1.2c1.2,0,2.4,0,3.5,0c0.6,0,1.1,0.5,1.1,1.1c0,2.5,0.1,5,0,7.5
			c-0.1,3.8-3,6.9-6.7,7.6c-0.1,0-0.2,0-0.3,0.1c0,1.6,0.4,3,1.6,4.1c0.8,0.8,1.9,0.9,3,0.7c2.3-0.4,4.2-1.6,5.5-3.5
			c3.1-4.7,4-9.7,1.7-15c-2.1-5-6.1-7.7-11.5-8.4c-2.6-0.3-5.1,0.2-7.5,1.3c-0.3,0.1-0.6,0.2-0.8,0.2c-0.5-0.1-0.9-0.5-1-1
			c-0.1-0.5,0.2-1,0.6-1.2c1.4-0.7,3-1.3,4.6-1.5c4.8-0.7,9.2,0.3,13,3.4c3.4,2.8,5.5,6.4,6,10.7c0.5,4.6-0.5,8.8-3.1,12.6
			c-1.4,2-3.2,3.5-5.5,4.2c-1.3,0.4-2.7,0.6-4.1,0.3c-2.2-0.4-3.5-1.9-4.1-4c-0.3-0.9-0.4-1.8-0.5-2.8c0-0.2-0.1-0.3-0.3-0.3
			c-3.9-0.7-6.7-4.1-6.7-8.1c0-2.3,0-4.6,0-6.8c0-0.9,0.5-1.3,1.3-1.3c1.1,0,2.2,0,3.3,0c0.8,0,1.3,0.5,1.3,1.2
			c0,0.7-0.5,1.2-1.3,1.2C315.1,262.1,314.4,262.1,313.7,262.1z"/>
		<path class="st0" d="M313.6,279.7c0,2.5-2,4.5-4.4,4.7c-2.5,0.1-4.7-1.7-4.9-4.2c-0.1-1.3,0.2-2.4,1-3.4c0.2-0.2,0.1-0.3,0-0.5
			c-1.8-3.1-2.5-6.4-2.2-9.9c0.4-3.8,1.9-7,4.5-9.7c0.5-0.5,1.2-0.5,1.7-0.1c0.5,0.5,0.5,1.2,0,1.7c-1.9,2-3.2,4.4-3.7,7.1
			c-0.7,3.4-0.1,6.7,1.6,9.7c0.1,0.2,0.2,0.2,0.5,0.2C310.8,274.3,313.6,276.6,313.6,279.7z M311.3,279.6c0-1.3-1.1-2.3-2.4-2.3
			c-1.3,0-2.3,1.1-2.3,2.3c0,1.3,1,2.4,2.3,2.4C310.2,282,311.3,280.9,311.3,279.6z"/>
	</g>
</g>
<g>
	<g>
		<path class="st0" d="M26.8,20.5c-4.2-0.1-7.7-3.3-8.3-7.5c-0.7-4.6,2.4-9,7-9.9c0.2,0,0.4-0.1,0.5-0.1h2.2l0.1,0
			c0.1,0,0.2,0.1,0.3,0.1c0.5,0.1,1,0.3,1.5,0.5c4,1.5,6.3,5.6,5.5,9.9c-0.7,4.1-4.4,7.1-8.7,7.1L26.8,20.5z M27.1,6.1
			c-3.1,0-5.7,2.6-5.7,5.7c0,1.5,0.6,3,1.7,4.1c1.1,1.1,2.5,1.7,4,1.7c3.2,0,5.7-2.6,5.7-5.7C32.8,8.6,30.2,6.1,27.1,6.1z"/>
		<path class="st0" d="M18.4,75.4v-14h-7.2V33.3c0-5.2,3.8-9,9-9.1h14.1c0.1,0,0.3,0,0.4,0c-0.9,1-1.6,2-2.3,3.1c-2.2,0-4.4,0-6.5,0
			c-1.9,0-3.8,0-5.8,0c-3.4,0-5.9,2.5-5.9,5.8c0,5.8,0,11.5,0,17.2v5.2c0,0.1,0,0.2,0,0.3c0,0.1,0.1,2.4,0.1,2.4h7.1v17.1H18.4z"/>
	</g>
	<g>
		<path class="st0" d="M39.5,47.5C39.4,47.5,39.4,47.6,39.5,47.5c-0.1,3-0.2,5.9,0,8.9c0.3,3.6,3.6,6.5,7.2,6.7c3.8,0.2,7.2-2.4,8-6
			c0.1-0.4,0.1-0.8,0.2-1.2c0-0.3,0-0.5,0-0.8c0-2.5,0-5,0-7.5c-0.2,0-0.3,0-0.4,0c-0.9,0-1.8,0-2.7,0c-0.9,0-1.5-0.7-1.6-1.5
			c0-0.8,0.7-1.5,1.5-1.6c1.6,0,3.1,0,4.7,0c0.9,0,1.5,0.7,1.5,1.5c0,3.3,0.1,6.6,0,10c-0.2,5-4,9.2-8.9,10.1C49,66,48.9,66,48.7,66
			c0,2.1,0.6,4,2.1,5.4c1.1,1,2.5,1.2,3.9,0.9c3.1-0.5,5.5-2.1,7.2-4.7c4.1-6.2,5.3-12.9,2.3-19.9c-2.8-6.6-8.1-10.3-15.3-11.1
			c-3.5-0.4-6.8,0.3-10,1.8c-0.3,0.2-0.7,0.2-1.1,0.2c-0.7-0.1-1.2-0.6-1.3-1.3c-0.1-0.7,0.2-1.3,0.9-1.6c1.9-1,3.9-1.7,6.1-2
			c6.4-1,12.2,0.4,17.3,4.5c4.6,3.7,7.3,8.4,7.9,14.2c0.7,6.1-0.6,11.7-4.1,16.7c-1.8,2.7-4.2,4.6-7.3,5.6c-1.8,0.6-3.6,0.8-5.5,0.4
			c-2.9-0.6-4.7-2.5-5.5-5.3c-0.3-1.2-0.5-2.4-0.7-3.7c0-0.3-0.1-0.4-0.4-0.4c-5.2-1-8.9-5.4-9-10.7c0-3,0-6.1,0-9.1
			c0-1.1,0.6-1.7,1.7-1.7c1.4,0,2.9,0,4.3,0c1,0,1.7,0.6,1.7,1.5c0,0.9-0.7,1.6-1.7,1.6C41.4,47.5,40.4,47.5,39.5,47.5z"/>
		<path class="st0" d="M39.4,70.8c0,3.3-2.6,6-5.8,6.2c-3.4,0.2-6.2-2.3-6.5-5.6c-0.2-1.7,0.3-3.2,1.3-4.5c0.2-0.3,0.2-0.4,0-0.7
			c-2.4-4.1-3.4-8.5-2.9-13.2c0.5-5,2.5-9.3,6-12.9c0.6-0.7,1.6-0.7,2.2-0.1c0.7,0.6,0.7,1.6,0,2.3c-2.5,2.7-4.2,5.8-4.9,9.4
			c-0.9,4.5-0.1,8.8,2.1,12.9c0.2,0.3,0.3,0.3,0.6,0.2C35.6,63.8,39.4,66.7,39.4,70.8z M36.3,70.8c0-1.7-1.4-3.1-3.1-3.1
			c-1.7,0-3.1,1.4-3.1,3.1c0,1.7,1.4,3.1,3.1,3.1C34.9,73.9,36.3,72.5,36.3,70.8z"/>
	</g>
</g>
</svg>
