<?xml version="1.0" encoding="utf-8"?>
<!-- Generator: Adobe Illustrator 26.3.1, SVG Export Plug-In . SVG Version: 6.00 Build 0)  -->
<svg version="1.1" id="Layer_1" xmlns="http://www.w3.org/2000/svg" xmlns:xlink="http://www.w3.org/1999/xlink" x="0px" y="0px"
	 viewBox="0 0 80 80" style="enable-background:new 0 0 80 80;" xml:space="preserve">
<style type="text/css">
	.st0{fill:#76777A;}
	.st1{fill:#AB1D38;}
</style>
<g>
	<path class="st0" d="M79.03,27.2C42.36,41.7,43.05,73,43.05,73h-4.13c0.16-43.08,37.38-54.5,37.38-54.5s2.18,4.91,2.7,8.59
		L79.03,27.2z"/>
	<path class="st0" d="M39.68,49.23l0.06-0.14c2.46-5.64,4.25-8.51,4.25-8.51C32.43,15.01,10.54,7,10.54,7S6.65,11.3,5,14.74
		l-0.02,0.11C4.98,14.86,31.25,24.3,39.68,49.23"/>
	<path class="st1" d="M36.28,63.57C33.65,53,25.67,35.97,0.97,26.21l0.02-0.12c0.53-3.75,2.75-8.75,2.75-8.75
		s25.76,7.89,34.91,35.26c0,0-1.46,4.06-2.35,10.69L36.28,63.57z"/>
	<path class="st1" d="M45.34,38.1c-0.39-1.23-4.2-7.52-4.2-7.52C53.01,12.89,69.01,7,69.01,7s3.9,4.3,5.55,7.74l0.02,0.11
		c0,0-18.29,6.4-29.21,23.29L45.34,38.1z"/>
</g>
</svg>
