<?xml version="1.0" encoding="utf-8"?>
<!-- Generator: Adobe Illustrator 26.3.1, SVG Export Plug-In . SVG Version: 6.00 Build 0)  -->
<svg version="1.1" id="Layer_1" xmlns="http://www.w3.org/2000/svg" xmlns:xlink="http://www.w3.org/1999/xlink" x="0px" y="0px"
	 viewBox="0 0 196 196" style="enable-background:new 0 0 196 196;" xml:space="preserve">
<style type="text/css">
	.st0{fill:#76777A;}
	.st1{fill:#AB1D38;}
</style>
<g>
	<path class="st0" d="M193.81,66.58C103.78,102.18,105.5,179,105.5,179H95.37c0.4-105.74,91.76-133.78,91.76-133.78
		s5.35,12.04,6.63,21.08L193.81,66.58z"/>
	<path class="st0" d="M97.21,120.65l0.14-0.35c6.03-13.84,10.43-20.88,10.43-20.88C79.42,36.67,25.7,17,25.7,17
		s-9.55,10.55-13.6,19.01l-0.06,0.28C12.04,36.29,76.53,59.46,97.21,120.65"/>
	<path class="st1" d="M88.87,155.86c-6.44-25.95-26.03-67.74-86.67-91.72l0.06-0.3C3.56,54.64,9,42.38,9,42.38
		s63.24,19.38,85.69,86.54c0,0-3.58,9.97-5.76,26.23L88.87,155.86z"/>
	<path class="st1" d="M111.11,93.33c-0.96-3.01-10.31-18.46-10.31-18.46C129.93,31.45,169.21,17,169.21,17s9.57,10.55,13.62,19.01
		l0.04,0.28c0,0-44.89,15.71-71.71,57.17L111.11,93.33z"/>
</g>
</svg>
