<?xml version="1.0" encoding="utf-8"?>
<!-- Generator: Adobe Illustrator 26.3.1, SVG Export Plug-In . SVG Version: 6.00 Build 0)  -->
<svg version="1.1" id="Layer_1" xmlns="http://www.w3.org/2000/svg" xmlns:xlink="http://www.w3.org/1999/xlink" x="0px" y="0px"
	 viewBox="0 0 512 374" style="enable-background:new 0 0 512 374;" xml:space="preserve">
<style type="text/css">
	.st0{fill:#3F3D56;}
	.st1{fill:#FFB6B6;}
	.st2{fill:#2F2E41;}
	.st3{opacity:0.1;enable-background:new    ;}
	.st4{fill:#E6E6E6;}
	.st5{fill:#B01E36;}
	.st6{fill:#FFFFFF;}
</style>
<g>
	<path class="st0" d="M397,332.2c0,0.4-0.3,0.6-0.6,0.6H115.6c-0.4,0-0.6-0.3-0.6-0.6c0-0.4,0.3-0.6,0.6-0.6h280.7
		C396.7,331.5,397,331.8,397,332.2z"/>
	<polygon class="st1" points="309.9,301 313.1,314.5 303.4,317.1 301.3,302.6 	"/>
	<polygon class="st1" points="325.4,257.5 315.2,266.1 308.8,276.3 317.9,282.2 333.5,264.5 	"/>
	<path class="st2" d="M322.2,168.8l8.6,29c0,0,38.2,33.3,34.4,40.3s-29,26.3-29,26.3s1.9,6.2-3.6,3.6c-5.5-2.6-11.4-9.5-11.4-9.5
		s0-5.4,2.7-4.3s15-13.4,15-13.4L312,216.1v82.7c0,0,6.4,5.6,0,6.1s-12.4,1.5-12.4,1.5s-7.5-2.7-4.8-5.4l-8.1-44.1l-5.9-53.7
		l4.3-27.9L322.2,168.8L322.2,168.8z"/>
	<path class="st2" d="M305,312.8c0,0,0.5-2.1,2.7-2.1h6.6c0,0,2,9.1,1.5,9.1c-0.5,0,8.6,11.8-1.1,12.4c-9.7,0.5-12.4-0.5-12.4-0.5
		l-1.1-4.2c0,0-1.6-2.7-1.1-4.9C300.7,320.4,305,312.8,305,312.8z"/>
	<path class="st2" d="M318.5,277.9c0,0,6.2-0.1,4.7,1.6c-1.5,1.7-4.2,4.3-4.2,4.3s-6.4,12.9-9.4,10.5c-3-2.4-7.8-29.3-6.2-32.5
		c1.6-3.2,3.8-3.2,3.8-3.2l9.9,6C317.1,264.5,310.9,279.5,318.5,277.9z"/>
	<polygon class="st1" points="303.4,123.1 305.6,109.7 291,103.8 288.9,124.2 	"/>
	<polygon class="st3" points="303.4,123.1 305.6,109.7 291,103.8 288.9,124.2 	"/>
	<path class="st4" d="M288.1,121.2l17.2-4.3l18.3,5.9c0,0,8.1,22.6,5.4,30.6c-2.7,8.1-2.7,23.8-2.7,23.8s-0.3-6.9-15.9-2
		s-26.9,4.3-26.9,4.3l-0.5-19.3l-6.8-17.2c-2.9-7.3,0.2-15.7,7.2-19.3C283.4,123.7,288.1,121.2,288.1,121.2z"/>
	<g>
		<path id="uuid-1b03a630-7e31-41b5-b302-96493ff31189-133" class="st1" d="M367,184.5c2.4,2.9,2.9,6.5,1,8.1
			c-1.9,1.5-5.3,0.4-7.7-2.5c-1-1.1-1.7-2.5-2-4l-10.1-12.4l4.9-4l10.4,12.1C364.9,182.4,366.1,183.4,367,184.5L367,184.5z"/>
		<polygon class="st4" points="322.8,123 319.3,137 336.5,164.6 354.1,182.3 359.8,177.6 342.1,155.5 328.6,127 		"/>
	</g>
	<g>
		
			<ellipse transform="matrix(0.9973 -7.369911e-02 7.369911e-02 0.9973 -5.0149 26.8837)" class="st5" cx="361.8" cy="81.4" rx="22.3" ry="28.2"/>
		<rect x="362.3" y="109.5" class="st2" width="1.1" height="107.2"/>
		<polygon class="st5" points="363.7,107.3 363.8,111.1 365.5,114.6 358.3,114.2 361.3,111.2 361,107.7 		"/>
	</g>
	<g>
		<circle class="st1" cx="299.7" cy="99.2" r="14.8"/>
		<path class="st2" d="M298.6,79.3c0.4,0.2,1-0.1,1.1-0.6c0.1-0.5,0-1-0.2-1.5l-0.8-2.4c-0.6-1.7-1.2-3.4-2.4-4.7
			c-1.9-1.9-4.8-2.4-7.4-2.1c-3.4,0.5-6.8,2.3-8.3,5.3s-0.9,7.3,1.9,9.2c-4.1,4.7-5.5,9.9-5.3,16.1c0.2,6.2,7,11.9,11.4,16.2
			c1-0.6,1.9-3.4,1.3-4.4s0.2-2.2-0.4-3.1c-0.7-0.9-1.2,0.6-0.6-0.4c0.4-0.6-1.2-1.9-0.6-2.3c3.1-1.7,4.1-5.5,6-8.5
			c2.3-3.5,6.3-5.9,10.5-6.3c2.3-0.2,4.8,0.2,6.7,1.5c1.9,1.3,3.1,3.8,2.7,6c1.1-1.2,1.7-2.9,1.5-4.5s-1.2-3.1-2.6-3.9
			c0.9-2.8,0.1-6.1-1.9-8.3c-2-2.2-10-1.8-12.9-1.2"/>
		<path class="st2" d="M298.1,90.1c-3.8,0.4-6.6,3.7-8.9,6.8c-1.3,1.8-2.8,3.7-2.7,5.9c0,2.2,1.5,4.2,2.3,6.3c1.2,3.5,0,7.6-2.8,10
			c2.8,0.5,5.7-1.5,6.2-4.3c0.6-3.2-1.9-6.3-1.6-9.6c0.3-2.9,2.5-5.1,4.4-7.2s3.7-5,2.8-7.7"/>
	</g>
	<path class="st6" d="M284,179.3H173.5c-12.5,0-22.7,10.2-22.7,22.7v107.2c0,12.5,10.2,22.7,22.7,22.7H284
		c12.5,0,22.7-10.2,22.7-22.7V202C306.7,189.4,296.5,179.3,284,179.3L284,179.3z"/>
	<path class="st0" d="M284,332.4H173.5c-12.8,0-23.2-10.4-23.2-23.2V202c0-12.8,10.4-23.2,23.2-23.2H284c12.8,0,23.2,10.4,23.2,23.2
		v107.2C307.2,322,296.8,332.4,284,332.4z M173.5,179.8c-12.2,0-22.2,9.9-22.2,22.2v107.2c0,12.2,9.9,22.2,22.2,22.2H284
		c12.2,0,22.2-9.9,22.2-22.2V202c0-12.2-9.9-22.2-22.2-22.2H173.5z"/>
	<circle class="st0" cx="272.3" cy="187.3" r="2.6"/>
	<circle class="st0" cx="279.4" cy="187.3" r="2.6"/>
	<circle class="st0" cx="286.4" cy="187.3" r="2.6"/>
	<path class="st4" d="M169.8,294.3c-0.8,0-1.4,0.6-1.4,1.4c0,0.4,0.1,0.7,0.4,1c0.3,0.3,0.6,0.4,1,0.4h115.6c0.8,0,1.4-0.6,1.4-1.4
		c0-0.4-0.1-0.7-0.4-1c-0.3-0.3-0.6-0.4-1-0.4H169.8z"/>
	<path class="st5" d="M231.6,293.9v3.9h-61.8c-0.5,0-1-0.2-1.4-0.6c-0.4-0.3-0.6-0.8-0.6-1.4c0-1.1,0.9-1.9,1.9-1.9L231.6,293.9
		L231.6,293.9z"/>
	<path class="st4" d="M283,286.6h-19.3c-2.1,0-3.9-1.7-3.9-3.9c0-2.1,1.7-3.9,3.9-3.9H283c2.1,0,3.9,1.7,3.9,3.9
		C286.9,284.9,285.2,286.6,283,286.6z"/>
	<g>
		<polyline class="st2" points="210.7,289.4 197.2,244.2 196.2,244.5 209.6,289.5 		"/>
		
			<ellipse transform="matrix(0.9973 -7.369911e-02 7.369911e-02 0.9973 -11.099 15.8397)" class="st5" cx="209.1" cy="158.3" rx="22.3" ry="28.2"/>
		<rect x="209.6" y="186.5" class="st2" width="1.1" height="107.2"/>
		<polygon class="st5" points="197.8,242.8 199,246.5 201.7,249.3 194.7,251 196.7,247.3 195.4,244.1 		"/>
		<polygon class="st5" points="211,184.2 211.1,188 212.8,191.5 205.6,191.1 208.7,188.1 208.3,184.7 		"/>
		
			<ellipse transform="matrix(0.934 -0.3573 0.3573 0.934 -65.2707 81.5655)" class="st5" cx="188.1" cy="217.4" rx="22.3" ry="28.2"/>
	</g>
	<path id="uuid-b40723c2-846b-43d4-8d7a-d7be28bdc184-134" class="st1" d="M295.9,173.8c3.6,1.1,6,3.9,5.3,6.2
		c-0.7,2.3-4.2,3.3-7.8,2.2c-1.5-0.4-2.8-1.2-3.9-2.2l-15.3-4.8l1.9-6l15.3,4.4C292.9,173.2,294.4,173.3,295.9,173.8L295.9,173.8z"
		/>
	<path class="st4" d="M269.3,134.1l16.1-11.8l-0.5,22.6l-15,19.3l16.1,6.4l-0.5,9.2c0,0-20.4-4.9-23.6-5.4s-5.9-8.1-5.9-8.1
		L269.3,134.1z"/>
</g>
</svg>
